<svg width="50" height="50" viewBox="0 0 50 50" fill="none" xmlns="http://www.w3.org/2000/svg">
<g clip-path="url(#clip0_5_114)">
<rect width="50" height="50" fill="white"/>
<path d="M50 25C50 38.8071 38.8071 50 25 50C11.1929 50 0 38.8071 0 25C0 11.1929 11.1929 0 25 0C38.8071 0 50 11.1929 50 25Z" fill="black"/>
<path d="M16.3647 32.5107L22.7311 23.2346L23.4508 22.1855L28.0048 15.5499L28.3821 15H33.978L32.6132 16.9891L26.5582 25.8129L25.8384 26.8609L20.9733 33.9506L20.5958 34.5H14.9999L16.3647 32.5109V32.5107ZM19.9308 33.2303L24.9853 25.8649L25.705 24.8164L31.5703 16.2695H29.0473L24.3041 23.1815L23.5844 24.2299L17.4079 33.2302H19.9308V33.2303Z" fill="white"/>
<path d="M25.7051 24.8162L24.9853 25.8646L25.8386 26.8606L32.3855 34.4998H34L26.5584 25.8127L25.7051 24.8162Z" fill="white"/>
<path d="M15.6738 15L22.731 23.2346L23.5843 24.2299L24.3041 23.1815L23.4508 22.1855L18.6703 16.6048L17.2882 15H15.6738Z" fill="white"/>
</g>
<defs>
<clipPath id="clip0_5_114">
<rect width="50" height="50" fill="white"/>
</clipPath>
</defs>
</svg>
