<svg width="50" height="50" viewBox="0 0 50 50" fill="none" xmlns="http://www.w3.org/2000/svg">
<g clip-path="url(#clip0_5_116)">
<rect width="50" height="50" fill="white"/>
<path d="M50 25C50 38.8071 38.8071 50 25 50C11.1929 50 0 38.8071 0 25C0 11.1929 11.1929 0 25 0C38.8071 0 50 11.1929 50 25Z" fill="#EEEEEE"/>
<path d="M29.8875 34.4V36.4625C29.8875 37.146 29.3334 37.7 28.65 37.7H14.625C13.9415 37.7 13.3875 37.146 13.3875 36.4625V17.4875C13.3875 16.8041 13.9415 16.25 14.625 16.25H18.3375V31.5125C18.3375 33.1047 19.6328 34.4 21.225 34.4H29.8875ZM29.8875 16.6625V11.3H21.225C20.5415 11.3 19.9875 11.8541 19.9875 12.5375V31.5125C19.9875 32.196 20.5415 32.75 21.225 32.75H35.25C35.9334 32.75 36.4875 32.196 36.4875 31.5125V17.9H31.125C30.4443 17.9 29.8875 17.3432 29.8875 16.6625ZM36.125 15.0626L32.7249 11.6625C32.4928 11.4304 32.1781 11.3001 31.8499 11.3H27.3135L29.2275 18.692L36.4875 21.53V15.9376C36.4874 15.6094 36.3571 15.2947 36.125 15.0626Z" fill="black"/>
</g>
<defs>
<clipPath id="clip0_5_116">
<rect width="50" height="50" fill="white"/>
</clipPath>
</defs>
</svg>
