<svg width="50" height="50" viewBox="0 0 50 50" fill="none" xmlns="http://www.w3.org/2000/svg">
<g clip-path="url(#clip0_5_110)">
<rect width="50" height="50" fill="white"/>
<path d="M50 25C50 38.8071 38.8071 50 25 50C11.1929 50 0 38.8071 0 25C0 11.1929 11.1929 0 25 0C38.8071 0 50 11.1929 50 25Z" fill="#FFD900"/>
<path d="M25.5001 15.0583C18.8518 15.0583 13.4644 19.2739 13.4644 24.4734C13.4644 27.8572 15.746 30.8251 19.1737 32.4846C18.9216 33.4137 18.2614 35.8542 18.1302 36.3756C17.9662 37.0227 18.3701 37.0146 18.6345 36.8421C18.8416 36.7062 21.9331 34.6248 23.2656 33.7281C23.9892 33.8357 24.7355 33.8904 25.5001 33.8904C32.1463 33.8904 37.5359 29.6749 37.5359 24.4754C37.5359 19.2759 32.1463 15.0583 25.5001 15.0583Z" fill="#381D1E"/>
</g>
<defs>
<clipPath id="clip0_5_110">
<rect width="50" height="50" fill="white"/>
</clipPath>
</defs>
</svg>
