<svg width="50" height="50" viewBox="0 0 50 50" fill="none" xmlns="http://www.w3.org/2000/svg">
<g clip-path="url(#clip0_5_112)">
<rect width="50" height="50" fill="white"/>
<path d="M50 25C50 38.8071 38.8071 50 25 50C11.1929 50 0 38.8071 0 25C0 11.1929 11.1929 0 25 0C38.8071 0 50 11.1929 50 25Z" fill="#1877F2"/>
<path d="M31.2895 26.9476L32.0268 22.1414H27.4164V19.0241C27.4164 17.7085 28.0593 16.4275 30.126 16.4275H32.2226V12.3356C32.2226 12.3356 30.3195 12.0107 28.5016 12.0107C24.7046 12.0107 22.2232 14.3124 22.2232 18.4781V22.1414H18V26.9476H22.2209V38.5643H27.4164V26.9476H31.2895Z" fill="white"/>
</g>
<defs>
<clipPath id="clip0_5_112">
<rect width="50" height="50" fill="white"/>
</clipPath>
</defs>
</svg>
