<svg width="50" height="50" viewBox="0 0 50 50" fill="none" xmlns="http://www.w3.org/2000/svg">
<g clip-path="url(#clip0_5_106)">
<rect width="50" height="50" fill="white"/>
<path d="M50 25C50 38.8071 38.8071 50 25 50C11.1929 50 0 38.8071 0 25C0 11.1929 11.1929 0 25 0C38.8071 0 50 11.1929 50 25Z" fill="#EEEEEE"/>
<path d="M39.2769 23.7327L27.5193 13.6843C27.2923 13.4904 26.9434 13.6524 26.9434 13.9517V17.7414C19.0597 18.7515 13.1177 23.3508 10.6164 31.9714C10.5179 32.3113 10.8851 32.5959 11.1893 32.4171C16.5832 29.249 20.9953 28.4419 26.9434 29.9411V34.0481C26.9434 34.3473 27.2923 34.5094 27.5193 34.3155L39.2769 24.2673C39.4409 24.1271 39.4409 23.8726 39.2769 23.7325V23.7327Z" fill="black"/>
</g>
<defs>
<clipPath id="clip0_5_106">
<rect width="50" height="50" fill="white"/>
</clipPath>
</defs>
</svg>
