<svg width="16" height="16" viewBox="0 0 16 16" fill="none" xmlns="http://www.w3.org/2000/svg">
<g clip-path="url(#clip0_3414_19305)">
<path d="M7.35811 1.78017C7.07176 1.48884 6.68845 1.33301 6.27452 1.33301H6.13359C5.2771 1.33301 4.5625 2.01255 4.5625 2.82779V7.19249C4.5625 7.50478 4.69408 7.79929 4.94132 8.0139C5.17634 8.21834 5.48416 8.33526 5.81622 8.33526H5.92271C6.25735 8.33526 6.56679 8.21589 6.78655 8.00691C7.01116 7.7934 7.13893 7.50143 7.13893 7.19249V4.20538C7.13893 4.08021 7.0229 3.97835 6.89084 3.97835C6.75878 3.97835 6.64275 4.08021 6.64275 4.20538V7.19249C6.64275 7.58587 6.34523 7.88174 5.92271 7.88174H5.81622C5.37681 7.88174 5.03969 7.57317 5.03969 7.19249V2.82779C5.03969 2.26915 5.54714 1.78652 6.13368 1.78652H6.27462C6.84733 1.78652 7.31059 2.24956 7.31059 2.82779V3.02008H7.78769V2.82779C7.78769 2.4326 7.63664 2.06353 7.35821 1.78017H7.35811Z" fill="#555555" stroke="#555555" stroke-width="0.5" stroke-miterlimit="10"/>
<path d="M8.42759 3.13003H8.05078C8.08819 3.0751 8.15861 3.02539 8.23914 3.02539C8.31967 3.02539 8.39009 3.0751 8.4275 3.13003H8.42759Z" fill="#555555" stroke="#555555" stroke-width="0.5" stroke-miterlimit="10"/>
<path d="M12.9988 5.32008C12.9983 5.31101 13 5.30212 13 5.29323V5.29233C13 5.2828 12.9904 5.27346 12.9869 5.26439C12.9865 5.26285 12.9834 5.26113 12.9829 5.2594C12.9795 5.25097 12.9743 5.24271 12.9699 5.23473C12.9698 5.2341 12.9689 5.23346 12.9685 5.23283C12.9639 5.22457 12.9583 5.21659 12.9524 5.20879C12.951 5.20707 12.9493 5.20534 12.948 5.20362C12.9418 5.196 12.9354 5.18865 12.9283 5.18194C12.9283 5.18194 12.9283 5.18167 12.9281 5.18167L10.3735 2.75347L10.3732 2.75329C10.3661 2.74657 10.3584 2.7405 10.3504 2.7346C10.3486 2.73333 10.3468 2.73197 10.3447 2.7307C10.3366 2.72508 10.3282 2.71982 10.3196 2.71555C10.3189 2.7151 10.3182 2.71492 10.3176 2.71465C10.3092 2.71057 10.3005 2.70685 10.2916 2.70376C10.2898 2.70313 10.2882 2.70222 10.2864 2.70177C10.2768 2.6985 10.267 2.69369 10.257 2.69369H10.2563C10.2469 2.69369 10.2374 2.69088 10.2278 2.69043C10.225 2.69043 10.2225 2.69206 10.22 2.69206C10.2176 2.69188 10.2148 2.69369 10.2123 2.69369H3.23302C3.10716 2.69369 3 2.78694 3 2.90666V14.4407C3 14.5603 3.10706 14.6665 3.23302 14.6665H12.7668C12.8927 14.6665 13 14.5603 13 14.4407V5.33487C13 5.33251 12.9985 5.33006 12.9983 5.3277C12.9983 5.32507 12.9988 5.32253 12.9988 5.32008ZM10.4427 3.43002L12.2162 5.12453H10.4427V3.43002ZM12.542 14.2311H3.45802V3.12907H9.98473V5.33487C9.98473 5.4545 10.0864 5.5599 10.2123 5.5599H12.542V14.2311Z" fill="#555555" stroke="#555555" stroke-width="0.5" stroke-miterlimit="10"/>
</g>
<defs>
<clipPath id="clip0_3414_19305">
<rect width="16" height="16" fill="white"/>
</clipPath>
</defs>
</svg>
