<svg width="21" height="6" viewBox="0 0 21 6" fill="none" xmlns="http://www.w3.org/2000/svg">
<path fill-rule="evenodd" clip-rule="evenodd" d="M18.498 5.98438C17.117 5.98438 15.998 4.86437 15.998 3.48438C15.998 2.10337 17.117 0.984375 18.498 0.984375C19.879 0.984375 20.998 2.10337 20.998 3.48438C20.998 4.86437 19.879 5.98438 18.498 5.98438ZM10.498 5.98438C9.11705 5.98438 7.99805 4.86437 7.99805 3.48438C7.99805 2.10337 9.11705 0.984375 10.498 0.984375C11.879 0.984375 12.998 2.10337 12.998 3.48438C12.998 4.86437 11.879 5.98438 10.498 5.98438ZM2.49805 5.98438C1.11705 5.98438 -0.00195312 4.86437 -0.00195312 3.48438C-0.00195312 2.10337 1.11705 0.984375 2.49805 0.984375C3.87905 0.984375 4.99805 2.10337 4.99805 3.48438C4.99805 4.86437 3.87905 5.98438 2.49805 5.98438Z" fill="#BBBBBB"/>
</svg>
