<?xml version="1.0" encoding="UTF-8"?>
<svg id="_레이어_1" data-name="레이어 1" xmlns="http://www.w3.org/2000/svg" viewBox="0 0 20 20">
  <path d="M14.1,5.09c-.16.41.05.87.46,1.03l3.16,1.19s0,0,0,0h.02c.07.03.14.04.21.05.03,0,.05.01.07.01,0,0,0,0,0,0,.1,0,.19-.02.28-.06,0,0,.02,0,.02,0,0,0,0,0,.01,0,0,0,.02,0,.02,0,.04-.02.07-.05.11-.08.05-.03.1-.06.13-.1.03-.03.05-.07.07-.11.03-.05.07-.1.09-.15,0,0,.01-.01.01-.02l1.09-3.22c.14-.42-.08-.87-.5-1.01-.42-.14-.87.08-1.01.5l-.5,1.49C16.07,1.94,13.08.3,9.8.3,4.45.3.09,4.65.09,10s4.35,9.7,9.7,9.7,9.7-4.35,9.7-9.7c0-.44-.36-.8-.8-.8s-.8.36-.8.8c0,4.47-3.64,8.11-8.11,8.11S1.68,14.47,1.68,10,5.32,1.89,9.8,1.89c2.56,0,4.91,1.19,6.42,3.16l-1.09-.41c-.41-.15-.87.05-1.03.46Z"/>
</svg>