<?xml version="1.0" encoding="UTF-8"?>
<svg id="_레이어_1" data-name="레이어 1" xmlns="http://www.w3.org/2000/svg" viewBox="0 0 20 20">
  <path d="M10.52,2.96c-.57-.37-1.28-.43-1.9-.16l-5.33,2.31H.92c-.43,0-.78.35-.78.78v8.21c0,.43.35.78.78.78h2.37s5.33,2.31,5.33,2.31h0c.26.11.53.17.8.17.39,0,.77-.11,1.1-.33.57-.37.91-1,.91-1.68V4.64c0-.68-.34-1.31-.91-1.68ZM1.7,6.67h.97s0,6.65,0,6.65h-.97s0-6.65,0-6.65ZM9.86,15.36c0,.22-.14.33-.2.37-.06.04-.22.12-.42.04l-5.01-2.17v-7.19s5.01-2.17,5.01-2.17c.2-.09.36,0,.42.04.06.04.2.16.2.37v10.71Z"/>
  <path d="M14.31,5.92c-.35-.25-.84-.16-1.09.19-.25.35-.16.84.19,1.09.91.64,1.46,1.69,1.46,2.8s-.55,2.16-1.46,2.8c-.35.25-.44.73-.19,1.09.15.22.39.33.64.33.15,0,.31-.05.45-.14,1.33-.93,2.12-2.46,2.12-4.08s-.79-3.15-2.12-4.08Z"/>
  <path d="M16.6,3.73c-.35-.25-.84-.16-1.09.19s-.16.84.19,1.09c1.63,1.14,2.6,3.01,2.6,5s-.97,3.85-2.6,5c-.35.25-.44.73-.19,1.09.15.22.39.33.64.33.15,0,.31-.05.45-.14,2.04-1.43,3.27-3.78,3.27-6.27s-1.22-4.84-3.27-6.27Z"/>
</svg>