<?xml version="1.0" encoding="UTF-8"?>
<svg id="_레이어_1" data-name="레이어 1" xmlns="http://www.w3.org/2000/svg" viewBox="0 0 46.84 48.87">
  <defs>
    <style>
      .cls-1 {
        fill: #3382e9;
      }
    </style>
  </defs>
  <path d="M25.71,32.54H.94c-.52,0-.94-.42-.94-.94V.94C0,.42.42,0,.94,0h41.25c.52,0,.94.42.94.94v16.72c0,.52-.42.94-.94.94s-.94-.42-.94-.94V1.87H1.87v28.8h23.84c.52,0,.94.42.94.94s-.42.94-.94.94Z"/>
  <path d="M33.42,8.24H7.44c-.52,0-.94-.42-.94-.94s.42-.94.94-.94h25.98c.52,0,.94.42.94.94s-.42.94-.94.94Z"/>
  <path d="M19.6,14.06H7.44c-.52,0-.94-.42-.94-.94s.42-.94.94-.94h12.16c.52,0,.94.42.94.94s-.42.94-.94.94Z"/>
  <path d="M19.6,19.89H7.44c-.52,0-.94-.42-.94-.94s.42-.94.94-.94h12.16c.52,0,.94.42.94.94s-.42.94-.94.94Z"/>
  <path class="cls-1" d="M41.47,48.87c-.14,0-.28-.04-.4-.11l-6.03-3.77-6.03,3.77c-.23.14-.52.15-.76.02-.24-.13-.39-.38-.39-.65v-13.28c0-.41.33-.75.75-.75s.75.33.75.75v11.93l5.28-3.3c.24-.15.55-.15.79,0l5.28,3.3v-11.93c0-.41.33-.75.75-.75s.75.33.75.75v13.28c0,.27-.15.52-.39.65-.11.06-.24.09-.36.09Z"/>
  <path d="M35.05,37.86c-6.5,0-11.79-5.29-11.79-11.79s5.29-11.79,11.79-11.79,11.79,5.29,11.79,11.79-5.29,11.79-11.79,11.79ZM35.05,16.15c-5.47,0-9.92,4.45-9.92,9.92s4.45,9.92,9.92,9.92,9.92-4.45,9.92-9.92-4.45-9.92-9.92-9.92Z"/>
  <path class="cls-1" d="M38.95,32.77c-.12,0-.24-.03-.35-.09l-3.55-1.87-3.55,1.87c-.25.13-.56.11-.79-.06-.23-.17-.35-.45-.3-.73l.68-3.96-2.87-2.8c-.2-.2-.28-.5-.19-.77s.32-.47.6-.51l3.97-.58,1.78-3.6c.25-.51,1.09-.51,1.34,0l1.78,3.6,3.97.58c.28.04.52.24.6.51s.01.57-.19.77l-2.87,2.8.68,3.96c.05.28-.07.56-.3.73-.13.09-.28.14-.44.14ZM35.05,29.23c.12,0,.24.03.35.09l2.56,1.34-.49-2.85c-.04-.24.04-.49.21-.66l2.07-2.02-2.86-.42c-.24-.04-.45-.19-.56-.41l-1.28-2.59-1.28,2.59c-.11.22-.32.37-.56.41l-2.86.42,2.07,2.02c.18.17.26.42.21.66l-.49,2.85,2.56-1.34c.11-.06.23-.09.35-.09Z"/>
</svg>