<?xml version="1.0" encoding="UTF-8"?>
<svg id="_레이어_1" data-name="레이어 1" xmlns="http://www.w3.org/2000/svg" viewBox="0 0 50 50">
  <defs>
    <style>
      .cls-1 {
        fill: #3382e9;
      }
    </style>
  </defs>
  <path d="M31.11,49.57H8.34c-1.35,0-2.44-1.09-2.44-2.44v-4.88c0-.45.36-.81.81-.81h26.02c.45,0,.81.36.81.81v4.88c0,1.35-1.09,2.44-2.44,2.44ZM7.53,43.07v4.07c0,.45.36.81.81.81h22.77c.45,0,.81-.36.81-.81v-4.07H7.53Z"/>
  <path d="M21.35,46.32h-3.25c-.45,0-.81-.36-.81-.81s.36-.81.81-.81h3.25c.45,0,.81.36.81.81s-.36.81-.81.81Z"/>
  <path d="M31.92,29.43v12.01H7.53V9.01c0-.45.36-.81.81-.81h8.95v-1.63h-8.95c-1.35,0-2.44,1.09-2.44,2.44v33.24c0,.45.36.81.81.81h26.02c.45,0,.81-.36.81-.81v-13.71l-1.63.89Z"/>
  <path d="M30.29,31.14c-.13,0-.27-.03-.39-.1l-4.18-2.29c-5.35-2.94-8.79-8.55-8.97-14.66l-.27-9.08c0-.24.09-.46.26-.62.18-.16.41-.24.65-.21.08,0,8.54.99,12.28-3.46.15-.18.38-.29.62-.29h0c.24,0,.47.11.62.29,3.74,4.45,12.19,3.47,12.28,3.46.23-.03.47.05.65.21.18.16.27.39.27.62l-.27,9.08c-.18,6.1-3.62,11.72-8.97,14.66l-4.18,2.29c-.12.07-.26.1-.39.1ZM18.12,5.87l.24,8.17c.16,5.53,3.28,10.62,8.13,13.28l3.79,2.08,3.79-2.08c4.85-2.66,7.97-7.75,8.13-13.28l.24-8.17c-2.35.14-8.49.12-12.16-3.44-3.67,3.56-9.81,3.58-12.16,3.44Z"/>
  <path d="M30.3,21.97c-3.39,0-6.15-2.76-6.15-6.15s2.76-6.15,6.15-6.15c.45,0,.81.36.81.81s-.36.81-.81.81c-2.5,0-4.53,2.03-4.53,4.53s2.03,4.53,4.53,4.53,4.53-2.03,4.53-4.53c0-.45.36-.81.81-.81s.81.36.81.81c0,3.39-2.76,6.15-6.15,6.15Z"/>
  <path class="cls-1" d="M30.11,18.16c-.22,0-.42-.09-.57-.24l-4.41-4.41c-.32-.32-.32-.83,0-1.15s.83-.32,1.15,0l3.83,3.83,7.5-7.5c.32-.32.83-.32,1.15,0s.32.83,0,1.15l-8.08,8.08c-.15.15-.36.24-.57.24Z"/>
</svg>