<?xml version="1.0" encoding="UTF-8"?>
<svg id="_레이어_1" data-name="레이어 1" xmlns="http://www.w3.org/2000/svg" viewBox="0 0 25 25">
  <defs>
    <style>
      .cls-1 {
        fill: #fff;
      }
    </style>
  </defs>
  <path class="cls-1" d="M11.07,24.6c-.44-.27-.79-.62-1.05-1.06s-.38-.91-.38-1.42.13-.97.38-1.41.61-.78,1.05-1.03.92-.38,1.43-.38.97.13,1.41.38.79.59,1.06,1.03.4.91.4,1.41-.13.99-.4,1.42-.62.79-1.06,1.06-.91.4-1.41.4-.99-.13-1.43-.4ZM14.67,17.31h-4.35l-.46-17.31h5.29l-.48,17.31Z"/>
</svg>