<?xml version="1.0" encoding="UTF-8"?>
<svg id="_레이어_1" data-name="레이어 1" xmlns="http://www.w3.org/2000/svg" viewBox="0 0 50 50">
  <defs>
    <style>
      .cls-1 {
        fill: #3382e9;
      }
    </style>
  </defs>
  <path d="M1.61,43.46s-.03,0-.05,0c-.47-.03-.83-.43-.8-.91l.41-6.78c.23-3.79,2.52-7.11,5.98-8.66l7.95-3.58.45-2.28c-2.53-1.99-4.03-5.04-4.03-8.27v-1.86c0-2.9,1.16-5.61,3.26-7.61,2.1-2,4.86-3.03,7.77-2.89,5.61.26,10.01,5,10.01,10.78v1.59c0,3.23-1.5,6.28-4.03,8.27l.45,2.28,7.17,3.23c.43.19.62.7.43,1.13-.19.43-.7.62-1.13.43l-7.57-3.41c-.25-.11-.43-.34-.49-.61l-.64-3.24c-.07-.33.07-.67.35-.86,2.35-1.65,3.75-4.35,3.75-7.21v-1.59c0-4.87-3.68-8.85-8.38-9.07-2.44-.11-4.75.75-6.51,2.42-1.76,1.68-2.73,3.94-2.73,6.37v1.86c0,2.86,1.4,5.55,3.75,7.21.28.19.41.53.35.86l-.64,3.24c-.05.27-.24.5-.49.61l-8.35,3.76c-2.88,1.29-4.78,4.06-4.97,7.21l-.41,6.78c-.03.45-.4.8-.85.8Z"/>
  <path d="M38.41,49.4h-6.66c-3.38,0-6.14-2.75-6.14-6.14v-6.66c0-3.38,2.75-6.14,6.14-6.14h3.33c.47,0,.86.38.86.86s-.38.86-.86.86h-3.33c-2.44,0-4.43,1.99-4.43,4.43v6.66c0,2.44,1.99,4.43,4.43,4.43h6.66c2.44,0,4.43-1.99,4.43-4.43v-3.33c0-.47.38-.86.86-.86s.86.38.86.86v3.33c0,3.38-2.75,6.14-6.14,6.14Z"/>
  <g>
    <path class="cls-1" d="M39.42,41.56c-.18,0-.35-.07-.48-.19l-4.78-4.66c-.27-.26-.28-.7-.01-.97l9.14-9.37c.13-.13.3-.2.48-.21.17,0,.36.07.49.19l4.78,4.66c.27.26.28.7.01.97l-9.14,9.37c-.13.13-.3.2-.48.21h0ZM35.61,36.2l3.8,3.71,8.19-8.39-3.8-3.71-8.19,8.39Z"/>
    <path class="cls-1" d="M33.09,43.29c-.18,0-.35-.07-.48-.19-.17-.17-.25-.42-.19-.65l1.56-6.39c.06-.24.24-.43.48-.49.24-.07.49,0,.67.17l4.78,4.66c.18.17.25.42.18.66-.06.24-.25.42-.48.49l-6.34,1.73c-.06.02-.12.02-.18.02ZM35.03,37.54l-1,4.1,4.06-1.11-3.06-2.99Z"/>
  </g>
</svg>