<?xml version="1.0" encoding="UTF-8"?>
<svg id="_레이어_1" data-name="레이어 1" xmlns="http://www.w3.org/2000/svg" viewBox="0 0 20 20">
  <defs>
    <style>
      .cls-1 {
        fill: #fff;
      }
    </style>
  </defs>
  <path d="M15.69,8.72c-.33,0-.6-.27-.6-.6v-.79c0-2.81-2.29-5.1-5.1-5.1s-5.1,2.29-5.1,5.1v.79c0,.33-.27.6-.6.6s-.6-.27-.6-.6v-.79c0-3.47,2.82-6.29,6.29-6.29s6.29,2.82,6.29,6.29v.79c0,.33-.27.6-.6.6Z"/>
  <path d="M4.31,14.27h-1.31c-1.65,0-2.99-1.34-2.99-2.99v-1.23c0-1.65,1.34-2.99,2.99-2.99h1.31c.33,0,.6.27.6.6v6.02c0,.33-.27.6-.6.6ZM2.99,8.25c-.99,0-1.8.81-1.8,1.8v1.23c0,.99.81,1.8,1.8,1.8h.72v-4.83h-.72Z"/>
  <path d="M17.01,14.27h-1.31c-.33,0-.6-.27-.6-.6v-6.02c0-.33.27-.6.6-.6h1.31c1.65,0,2.99,1.34,2.99,2.99v1.23c0,1.65-1.34,2.99-2.99,2.99ZM16.29,13.08h.72c.99,0,1.8-.81,1.8-1.8v-1.23c0-.99-.81-1.8-1.8-1.8h-.72v4.83Z"/>
  <path d="M12.54,17.69h-.64c-.33,0-.6-.27-.6-.6s.27-.6.6-.6h.64c1.41,0,2.56-1.15,2.56-2.56v-.26c0-.33.27-.6.6-.6s.6.27.6.6v.26c0,2.07-1.68,3.75-3.75,3.75Z"/>
  <g>
    <circle class="cls-1" cx="10.63" cy="17.09" r="1.27"/>
    <path d="M10.63,18.96c-1.03,0-1.86-.84-1.86-1.86s.84-1.86,1.86-1.86,1.86.84,1.86,1.86-.84,1.86-1.86,1.86ZM10.63,16.43c-.37,0-.67.3-.67.67s.3.67.67.67.67-.3.67-.67-.3-.67-.67-.67Z"/>
  </g>
</svg>