<?xml version="1.0" encoding="UTF-8"?>
<svg id="_레이어_1" data-name="레이어 1" xmlns="http://www.w3.org/2000/svg" viewBox="0 0 20 20">
  <defs>
    <style>
      .cls-1 {
        fill: #fff;
      }
    </style>
  </defs>
  <path class="cls-1" d="M19.39,5.28c-.23-.84-.89-1.51-1.73-1.73-1.53-.41-7.66-.41-7.66-.41,0,0-6.13,0-7.66.41-.84.23-1.51.89-1.73,1.73-.41,1.53-.41,4.72-.41,4.72,0,0,0,3.19.41,4.72.23.84.89,1.51,1.73,1.73,1.53.41,7.66.41,7.66.41,0,0,6.13,0,7.66-.41.84-.23,1.51-.89,1.73-1.73.41-1.53.41-4.72.41-4.72,0,0,0-3.19-.41-4.72ZM8.04,12.94v-5.88l5.09,2.94-5.09,2.94Z"/>
</svg>