<?xml version="1.0" encoding="UTF-8"?>
<svg id="_레이어_1" data-name="레이어 1" xmlns="http://www.w3.org/2000/svg" viewBox="0 0 20 20">
  <defs>
    <style>
      .cls-1, .cls-2 {
        fill: #fff;
      }

      .cls-2 {
        fill-rule: evenodd;
      }
    </style>
  </defs>
  <path class="cls-1" d="M.11,13.63v-7.26c.01-.05.04-.1.04-.16.02-.24.03-.48.04-.72.03-.67.18-1.32.41-1.95.33-.9.9-1.64,1.65-2.22.87-.68,1.9-1,2.98-1.11.68-.07,1.37-.06,2.06-.09.24,0,.48,0,.73,0,.06,0,.12-.03.18-.04h3.61s.08.04.12.04c.66.02,1.32.02,1.97.04.44.02.89.06,1.33.12.62.07,1.21.27,1.76.56.59.3,1.11.72,1.54,1.23.39.47.68.98.89,1.54.32.86.42,1.76.43,2.67,0,.08.03.16.04.24v6.98s-.04.05-.04.08c-.02.29-.02.58-.04.87-.03.35-.05.71-.12,1.05-.26,1.12-.73,2.12-1.62,2.91-.53.47-1.11.82-1.78,1.05-.87.3-1.77.4-2.68.4-.08,0-.16.03-.24.04h-6.75s-.08-.04-.12-.04c-.55-.04-1.11-.07-1.66-.12-.58-.06-1.14-.24-1.67-.49-.65-.3-1.2-.73-1.68-1.27-.35-.4-.63-.85-.83-1.34-.38-.91-.52-1.86-.52-2.84,0-.06-.03-.12-.04-.18ZM13.32,18.1s0-.01,0-.02c.41-.03.83-.07,1.24-.1.6-.05,1.17-.21,1.7-.5.58-.32,1.01-.8,1.31-1.38.26-.53.38-1.1.43-1.68.05-.57.08-1.15.08-1.73,0-1.94-.02-3.88-.03-5.82,0-.65-.03-1.3-.15-1.95-.14-.71-.43-1.34-.94-1.86-.45-.45-1-.72-1.62-.89-.75-.2-1.52-.22-2.29-.22-2.15-.02-4.3.02-6.45.03-.6,0-1.19.03-1.77.16-.88.19-1.62.61-2.14,1.36-.44.62-.63,1.33-.68,2.07-.06.76-.07,1.53-.08,2.3-.01.71-.01,1.43,0,2.14.02,1.41.05,2.81.08,4.22.01.61.14,1.19.38,1.75.31.72.83,1.24,1.51,1.59.53.28,1.12.4,1.72.44.63.05,1.26.08,1.89.08,1.94,0,3.88,0,5.82,0Z"/>
  <path class="cls-2" d="M4.9,10.02c-.01-2.79,2.26-5.22,5.33-5.1,2.59.1,4.93,2.23,4.86,5.23-.06,2.71-2.22,4.99-5.18,4.96-2.75-.03-5-2.23-5.02-5.09ZM13.26,10.02c.03-1.82-1.48-3.3-3.27-3.28-1.86.02-3.27,1.45-3.27,3.28,0,1.77,1.37,3.16,3.09,3.26,1.97.12,3.51-1.54,3.45-3.26Z"/>
  <path class="cls-2" d="M14.08,4.74c-.08-.61.56-1.24,1.24-1.21.57.03,1.18.55,1.16,1.24-.02.59-.55,1.18-1.23,1.17-.59-.01-1.22-.54-1.16-1.21Z"/>
</svg>