<?xml version="1.0" encoding="UTF-8"?>
<svg id="_레이어_1" data-name="레이어 1" xmlns="http://www.w3.org/2000/svg" viewBox="0 0 20 20">
  <defs>
    <style>
      .cls-1 {
        fill: #fff;
      }
    </style>
  </defs>
  <path class="cls-1" d="M4.47,7.65c-.37,0-.68.3-.68.68s.3.68.68.68.68-.3.68-.68-.3-.68-.68-.68Z"/>
  <path class="cls-1" d="M11.15,7.58c-.4,0-.73.33-.73.73s.33.73.73.73.73-.33.73-.73-.33-.73-.73-.73Z"/>
  <path class="cls-1" d="M17.19.93H2.81C1.36.93.19,2.11.19,3.56v8.53c0,1.45,1.18,2.63,2.63,2.63h5.08l1.73,4.07s.12.35.41.35h0c.29,0,.41-.35.41-.35l1.73-4.07h5.03c1.45,0,2.63-1.18,2.63-2.63V3.56c0-1.45-1.18-2.63-2.63-2.63ZM6.35,8.47c0,1.56-1.62,1.6-1.62,1.6-.62,0-.98-.41-.98-.41v.28h-1.17v-4.84s0,0,0,0h0c.07.01,1.17,0,1.17,0v1.85c.28-.47,1.08-.46,1.08-.46,1.74.16,1.52,1.98,1.52,1.98ZM8.42,6.64v3.32h-1.15v-3.28c0-.45-.55-.57-.55-.57v-1.16c1.84.07,1.7,1.7,1.7,1.7ZM11.15,10.08c-1.06,0-1.93-.79-1.93-1.77s.86-1.77,1.93-1.77,1.93.79,1.93,1.77-.86,1.77-1.93,1.77ZM17.44,10.08s.02,1.69-1.7,1.69h-.52v-1.09h.31s.72.07.71-1.04c0,0-.14.45-1.15.45,0,0-1.43-.1-1.43-1.5v-.53s.03-1.45,1.6-1.56c0,0,.62-.07,1,.45v-.36h1.17v3.5Z"/>
  <path class="cls-1" d="M15.62,7.59c-.39,0-.71.32-.71.71s.32.71.71.71.71-.32.71-.71-.32-.71-.71-.71Z"/>
</svg>