<svg width="20" height="18" viewBox="0 0 20 18" fill="none" xmlns="http://www.w3.org/2000/svg">
<path d="M4.36416 6.64203C3.98411 6.64203 3.67611 6.94089 3.67611 7.30966C3.67611 7.67844 3.98411 7.97867 4.36416 7.97867C4.74421 7.97867 5.05221 7.67981 5.05221 7.30966C5.05221 6.93952 4.74421 6.64203 4.36416 6.64203Z" fill="black"/>
<path d="M11.1669 6.57212C10.7572 6.57212 10.4252 6.89428 10.4252 7.29184C10.4252 7.68941 10.7572 8.01157 11.1669 8.01157C11.5766 8.01157 11.9087 7.68941 11.9087 7.29184C11.9087 6.89428 11.5766 6.57212 11.1669 6.57212Z" fill="black"/>
<path d="M14.9971 7.29184C14.9971 6.90388 15.3221 6.58857 15.7219 6.58857C16.1217 6.58857 16.4467 6.90388 16.4467 7.29184C16.4467 7.67981 16.1217 7.99512 15.7219 7.99512C15.3221 7.99512 14.9971 7.67981 14.9971 7.29184Z" fill="black"/>
<path fill-rule="evenodd" clip-rule="evenodd" d="M2.6759 0H17.3255C18.8033 0 20.0014 1.16253 20.0014 2.5965V11.0331C20.0014 12.467 18.8033 13.6296 17.3255 13.6296H12.1984L10.438 17.6532C10.438 17.6532 10.3179 18.0014 10.024 18.0014C9.73156 18.0014 9.61006 17.6532 9.61006 17.6532L7.84967 13.6296H2.6759C1.19808 13.6296 0 12.467 0 11.0331V2.5965C0 1.16253 1.19808 0 2.6759 0ZM4.63125 9.04387C4.63125 9.04387 6.27437 9 6.28285 7.45773H6.28144C6.28144 7.45773 6.50325 5.65499 4.73156 5.49459C4.73156 5.49459 3.91777 5.48637 3.63662 5.95248V4.12094C3.63662 4.12094 2.51483 4.13465 2.43995 4.12369V4.12094C2.4343 4.12232 2.43995 4.12369 2.43995 4.12369V8.91363H3.63662V8.63534C3.63662 8.63534 3.99548 9.04387 4.63125 9.04387ZM8.38938 8.92186V5.64265C8.38938 5.64265 8.52359 4.04006 6.65301 3.96603V5.11074C6.65301 5.11074 7.21814 5.23412 7.21814 5.67555V8.92186H8.38938ZM9.20175 7.29322C9.20175 8.26108 10.0805 9.04661 11.1656 9.04661C12.2506 9.04661 13.1294 8.26108 13.1294 7.29322C13.1294 6.32536 12.2506 5.53983 11.1656 5.53983C10.0805 5.53983 9.20175 6.32536 9.20175 7.29322ZM15.8548 10.7123C17.5996 10.7123 17.5826 9.04661 17.5826 9.04661V5.58644H16.3945V5.9374C16.0059 5.43016 15.3744 5.49596 15.3744 5.49596C13.7737 5.60975 13.7398 7.04098 13.7398 7.04098V7.56466C13.7398 8.94516 15.1978 9.04661 15.1978 9.04661C16.2263 9.04661 16.369 8.60244 16.369 8.60244C16.3775 9.69916 15.6442 9.63336 15.6442 9.63336H15.3235V10.7123H15.8548Z" fill="black"/>
</svg>
