<?xml version="1.0" encoding="UTF-8"?>
<svg id="_레이어_1" data-name="레이어 1" xmlns="http://www.w3.org/2000/svg" viewBox="0 0 33 37">
  <defs>
    <style>
      .cls-1 {
        fill: #64e2e9;
      }
    </style>
  </defs>
  <path class="cls-1" d="M32.81,27.5l-2.75-4.62c1.46-2.36,2.23-5.07,2.23-7.86C32.29,6.79,25.6.09,17.36.09S2.43,6.79,2.43,15.02s6.7,14.93,14.93,14.93c3.23,0,6.43-1.07,9.01-3.02l5.51,1.74c.32.1.67,0,.87-.27s.23-.63.06-.91ZM28.43,23.28l1.92,3.23-3.9-1.23c-.25-.08-.54-.03-.75.14-2.39,1.92-5.27,2.94-8.34,2.94-7.35,0-13.32-5.98-13.32-13.32S10.02,1.7,17.36,1.7s13.32,5.98,13.32,13.32c0,2.65-.77,5.2-2.24,7.39-.17.26-.18.59-.02.86Z"/>
  <g>
    <path class="cls-1" d="M16.9,17.71c-.83,0-1.54.71-1.54,1.54s.71,1.54,1.54,1.54,1.54-.71,1.54-1.54-.71-1.54-1.54-1.54Z"/>
    <path class="cls-1" d="M16.99,8.33c-1.78,0-3.22,1.09-3.52,2.64-.12.65.2,1.17.83,1.36.35.11.7.08.99-.07.25-.13.43-.35.51-.63.2-.64.64-.95,1.33-.95.78,0,1.13.49,1.13.95s-.33.88-.99,1.28l-.47.29c-.93.58-1.18,1.02-1.18,2.13v.4c0,.78.49,1.26,1.28,1.26s1.28-.48,1.28-1.26v-.28c0-.28.08-.43.31-.58l.43-.28c.95-.62,1.93-1.45,1.93-2.95,0-2.02-1.52-3.32-3.87-3.32Z"/>
  </g>
  <path class="cls-1" d="M17.67,31.27l-2.11-1.41c.13-1.38-.12-2.76-.71-4.02-1.28-2.7-4.03-4.44-7.02-4.44-1.15,0-2.26.25-3.31.75-1.87.89-3.29,2.45-3.99,4.4-.7,1.95-.59,4.06.29,5.93,1.28,2.7,4.03,4.44,7.01,4.44h0c1.15,0,2.27-.25,3.31-.75,1.48-.7,2.71-1.86,3.49-3.3l2.74-.37c.28-.04.5-.24.56-.51.06-.27-.05-.55-.28-.71Z"/>
</svg>