<?xml version="1.0" encoding="UTF-8"?>
<svg id="_레이어_1" data-name="레이어 1" xmlns="http://www.w3.org/2000/svg" viewBox="0 0 36 32">
  <defs>
    <style>
      .cls-1 {
        fill: #037beb;
      }
    </style>
  </defs>
  <path class="cls-1" d="M10.63,31.83c-.8,0-1.52-.18-2.17-.58-.48-.3-.88-.7-1.18-1.18l-.04-.07h-.04c-1.71,0-3.09-1.38-3.09-3.08,0-1.28.78-2.37,1.89-2.84l.57-.17.15-.9.27-1.12-1.53-.57C2.08,19.84-.07,17.81,0,15.48c.07-2.31,2.25-4.18,5.6-5.45l1.13-.38-.13-.54-.15-.84h-.07c-1.41-.29-2.47-1.54-2.47-3.03,0-1.7,1.38-3.08,3.09-3.08h.05s.26-.39.26-.39c.26-.34.57-.63.94-.87,2.37-1.52,5.98-.09,9.6,3.07l.04.04.84-.73c3.29-2.71,6.53-3.88,8.73-2.51,2.21,1.37,2.59,4.78,1.61,8.93l-.12.44,1.53.58c3.36,1.46,5.51,3.49,5.44,5.82-.02.56-.17,1.1-.42,1.6l-.07.12.04.05c.33.5.53,1.09.53,1.73,0,1.7-1.38,3.08-3.08,3.08-.85,0-1.62-.35-2.18-.91l-.25-.3-.75.28-.55.17.25,1.16c.65,3.52.17,6.37-1.77,7.61-.73.47-1.57.66-2.5.6-2.04-.12-4.48-1.42-6.93-3.52l-.21-.19-.29.28c-2.38,2.08-4.76,3.38-6.77,3.54-.11.01-.23.02-.34.02ZM10.49,30.58c1.56.04,3.66-.95,5.92-2.79l.72-.63-.36-.33c-.98-.96-1.94-2.03-2.87-3.21l-.16-.2-1.16-.16c-.89-.14-1.76-.31-2.59-.5l-1.85-.51-.23.97-.11.66h0c1.4.29,2.46,1.53,2.46,3.02,0,1.06-.54,2-1.36,2.56l-.4.22.03.03c.17.2.36.36.57.48.39.25.85.37,1.37.38ZM25.2,30.47c.21.02.41.02.61,0,.45-.04.86-.17,1.2-.39,1.37-.88,1.79-3.24,1.21-6.4l-.22-.99-.81.21c-1.13.26-2.33.46-3.59.61l-1.57.14-.76.98c-.57.69-1.16,1.34-1.75,1.95l-.59.56.88.74c2.03,1.59,3.91,2.48,5.39,2.59ZM7.2,28.77c1.02,0,1.85-.83,1.85-1.85s-.83-1.86-1.85-1.86-1.86.84-1.86,1.86.83,1.85,1.86,1.85ZM18.03,26.33l.41-.4c.34-.35.68-.71,1.03-1.1l.96-1.11-.79.03c-.63.01-1.26,0-1.9-.01-.59-.02-1.17-.05-1.75-.09l-.51-.05.06.08c.48.56.96,1.1,1.43,1.61l1.06,1.04ZM19.63,22.52c.61-.01,1.21-.03,1.79-.07h0l.09-.12c.68-.9,1.34-1.87,1.98-2.9.64-1.04,1.22-2.06,1.73-3.06l.21-.42-.62-1.21c-.42-.75-.88-1.51-1.37-2.28-.32-.51-.66-1.01-1-1.48l-.93-1.27-1.58-.15c-.58-.05-1.18-.07-1.78-.09-.91-.03-1.79-.02-2.65,0l-1.02.07-.08.1c-.67.9-1.33,1.87-1.97,2.9-.67,1.08-1.27,2.15-1.81,3.22l-.13.27.78,1.47c.38.66.78,1.34,1.21,2.01.33.51.66,1.01,1,1.48l.94,1.27,1.58.15c.58.04,1.18.07,1.79.09.62.02,1.24.02,1.85.01ZM23.04,22.32h.1c1.13-.13,2.2-.3,3.21-.51l1.33-.32-.09-.33c-.2-.66-.44-1.35-.72-2.04l-.78-1.8-1.57,2.76-1.49,2.23ZM12.72,22.05l-.48-.67c-.27-.39-.53-.79-.79-1.19-.44-.68-.86-1.37-1.25-2.06l-.36-.69-.61,1.46c-.2.51-.38,1.01-.54,1.5l-.21.68,1.68.47c.79.19,1.62.35,2.48.49h.08ZM32.92,21.87c1.02,0,1.86-.83,1.86-1.86s-.83-1.85-1.86-1.85-1.86.83-1.86,1.85.83,1.86,1.86,1.86ZM28.86,21.16l.3-.09.77-.29-.05-.14c-.04-.2-.06-.41-.06-.62,0-1.7,1.38-3.09,3.09-3.09.43,0,.83.09,1.2.25l.37.2.07-.17c.08-.24.13-.48.13-.73.05-1.65-1.72-3.35-4.74-4.67l-1.33-.5-.4,1.23c-.18.49-.36.99-.57,1.48l-.87,1.89.21.41c.72,1.51,1.31,2.99,1.75,4.42l.12.41ZM7.31,20.69l.2-.67c.34-1.03.75-2.09,1.24-3.17l.37-.77h0c-.67-1.37-1.23-2.71-1.67-3.99l-.39-1.23-.95.32c-3.01,1.13-4.82,2.71-4.87,4.34-.05,1.65,1.72,3.36,4.74,4.68l1.34.5ZM9.82,14.66l.58-1.1c.31-.55.64-1.1.98-1.65l1.52-2.23-2.21.3c-.74.13-1.45.27-2.12.44l-.34.1.37,1.18c.21.61.45,1.24.72,1.88l.49,1.09ZM26.09,14.56l.48-1.12c.19-.48.37-.94.53-1.41l.36-1.12-1.69-.47c-.79-.19-1.62-.35-2.48-.49h-.09s.29.39.29.39c.33.48.66.97.98,1.46.48.74.93,1.49,1.35,2.25l.26.5ZM27.78,9.74l.09-.35c.88-3.78.49-6.63-1.07-7.6-1.55-.96-4.29-.04-7.29,2.42l-.73.64.87.83c.6.61,1.19,1.27,1.77,1.97l.75.93,1.17.16c.9.14,1.76.31,2.6.5l1.85.51ZM7.92,9.31l.4-.11c1.45-.36,3.03-.62,4.69-.78l.87-.06,1.56-1.92c.36-.41.72-.79,1.09-1.16l.45-.45-1.63-1.28c-2.68-1.91-5.05-2.53-6.45-1.63l-.58.54.39.22c.82.55,1.36,1.49,1.36,2.56,0,1.28-.78,2.38-1.89,2.84l-.5.16.11.62.11.45ZM20.44,8.39l-.06-.08c-.56-.67-1.13-1.29-1.7-1.87l-.81-.76-.4.39c-.34.35-.68.71-1.03,1.09l-.95,1.11h.06c.87-.03,1.74-.04,2.63-.01.59.02,1.17.05,1.75.09l.5.05ZM7,7.09c1.02,0,1.85-.83,1.85-1.86s-.83-1.85-1.85-1.85-1.86.83-1.86,1.85.83,1.86,1.86,1.86Z" marker-end="none" marker-start="none"/>
  <path class="cls-1" d="M16.92,20.78h-.03s-.12-.03-.12-.03h-.03s-1.4-.58-1.4-.58c-.24-.1-.39-.35-.34-.61l.11-.68-.03-.02-.08-.1-.68.12c-.26.05-.51-.09-.61-.33l-.59-1.39c-.1-.24-.03-.52.19-.67l.59-.43v-.06s0-.05,0-.05l-.59-.42c-.22-.15-.29-.43-.2-.67l.57-1.4c.1-.24.35-.39.61-.34l.74.12.05-.05.02-.02-.13-.74c-.05-.26.09-.51.33-.61l1.39-.59c.24-.1.52-.02.67.19l.43.6h.11s.42-.61.42-.61c.15-.21.43-.3.67-.2l1.4.57c.24.1.38.35.34.61l-.11.69.09.08.03.03.68-.12c.26-.05.51.09.61.33l.59,1.39c.1.24.02.52-.19.67l-.53.38v.04s0,.02,0,.02v.15s.53.37.53.37c.21.15.3.43.2.67l-.57,1.4c-.1.24-.35.38-.61.34l-.62-.1-.05.04-.12.12.11.62c.05.26-.09.51-.33.61l-1.39.59c-.24.1-.52.03-.67-.19l-.38-.52h-.21s-.38.53-.38.53c-.11.16-.3.25-.48.24ZM16.74,19.53l.3-.42c.12-.17.32-.26.52-.24h.1c.17.03.35.02.53,0,.21-.03.41.06.53.22l.3.41.57-.24-.09-.49c-.04-.2.04-.41.2-.53l.08-.07c.13-.11.25-.24.36-.38l.02-.02c.13-.16.33-.24.53-.21l.49.08.23-.57-.42-.29c-.16-.11-.25-.31-.24-.5v-.11s0-.5,0-.5v-.02c-.03-.21.05-.42.22-.54l.42-.3-.24-.57-.54.09c-.2.03-.4-.04-.53-.2-.11-.13-.23-.25-.35-.36l-.07-.05c-.16-.12-.24-.33-.21-.53l.09-.56-.57-.23-.34.48c-.11.16-.3.25-.49.24h-.16c-.1-.01-.21-.01-.31,0h-.11c-.2.03-.4-.05-.51-.22l-.35-.48-.57.24.11.6c.03.19-.04.4-.19.52-.13.11-.25.23-.35.35l-.03.04c-.13.15-.33.23-.52.2l-.6-.1-.24.57.48.34c.15.11.24.28.24.46v.05c-.01.1-.01.19-.02.28v.27s-.03.29-.03.29c-.04.09-.1.18-.19.24l-.48.35.24.57.55-.1c.2-.03.41.05.54.21l.04.06c.11.13.24.25.38.37l.04.03c.13.13.19.31.16.49l-.09.54.57.23ZM17.86,18.31c-1.31,0-2.38-1.06-2.38-2.38s1.06-2.38,2.38-2.38,2.38,1.07,2.38,2.38-1.07,2.38-2.38,2.38ZM17.86,17.18c.69,0,1.25-.56,1.25-1.25s-.56-1.25-1.25-1.25-1.25.56-1.25,1.25.56,1.25,1.25,1.25Z" marker-end="none" marker-start="none"/>
</svg>