<?xml version="1.0" encoding="UTF-8"?>
<svg id="_레이어_1" data-name="레이어 1" xmlns="http://www.w3.org/2000/svg" viewBox="0 0 9 9">
  <defs>
    <style>
      .cls-1 {
        fill: #fff;
      }
    </style>
  </defs>
  <path class="cls-1" d="M3.8,1.07c1.51,0,2.75,1.23,2.75,2.75s-1.23,2.75-2.75,2.75-2.75-1.23-2.75-2.75S2.29,1.07,3.8,1.07M3.8.01C1.7.01,0,1.72,0,3.82s1.7,3.8,3.8,3.8,3.8-1.7,3.8-3.8S5.9.01,3.8.01h0Z"/>
  <path class="cls-1" d="M8.47,8.99c-.14,0-.27-.05-.37-.15l-2.24-2.24c-.21-.21-.21-.54,0-.75.21-.21.54-.21.75,0l2.24,2.24c.21.21.21.54,0,.75-.1.1-.24.15-.37.15Z"/>
</svg>