<?xml version="1.0" encoding="UTF-8"?>
<svg id="_레이어_1" data-name="레이어 1" xmlns="http://www.w3.org/2000/svg" viewBox="0 0 16 25">
  <defs>
    <style>
      .cls-1 {
        fill: #037beb;
        fill-rule: evenodd;
      }
    </style>
  </defs>
  <path class="cls-1" d="M8,.14h0c2.28,0,4.14,1.86,4.14,4.14v6.54c0,2.28-1.87,4.14-4.14,4.14h0c-2.28,0-4.14-1.86-4.14-4.14v-6.54C3.86,2.01,5.72.14,8,.14h0ZM16,11.58s0-.03,0-.04c-.04-1.14-1.79-1.16-1.84,0,0,.02,0,.03,0,.05-.37,3.07-2.99,5.47-6.15,5.5-3.16-.03-5.78-2.43-6.15-5.5,0-.02,0-.03,0-.05-.05-1.15-1.81-1.13-1.84,0,0,.01,0,.03,0,.04v.03c.04,3.78,2.92,6.91,6.69,7.52v3.19h-2.25c-.7,0-1.27.57-1.27,1.27h0c0,.7.57,1.27,1.27,1.27h7.21c.7,0,1.27-.57,1.27-1.27h0c0-.7-.57-1.27-1.27-1.27h-2.43v-3.17c3.82-.58,6.74-3.73,6.78-7.54v-.03Z"/>
</svg>