<svg width="18" height="19" viewBox="0 0 18 19" fill="none" xmlns="http://www.w3.org/2000/svg">
<path d="M8.75279 17.0757C13.0345 17.0757 16.5056 13.6046 16.5056 9.32286C16.5056 5.04111 13.0345 1.57007 8.75279 1.57007C4.47104 1.57007 1 5.04111 1 9.32286C1 13.6046 4.47104 17.0757 8.75279 17.0757Z" stroke="#373F57" stroke-width="2" stroke-linecap="round" stroke-linejoin="round"/>
<path d="M8.75276 10.4857C9.39502 10.4857 9.91568 9.96509 9.91568 9.32283C9.91568 8.68057 9.39502 8.15991 8.75276 8.15991C8.1105 8.15991 7.58984 8.68057 7.58984 9.32283C7.58984 9.96509 8.1105 10.4857 8.75276 10.4857Z" stroke="#373F57" stroke-width="2" stroke-linecap="round" stroke-linejoin="round"/>
<path d="M8.75391 1.57007V3.73059" stroke="#373F57" stroke-width="2" stroke-linecap="round" stroke-linejoin="round"/>
<path d="M1 9.32288H3.16052" stroke="#373F57" stroke-width="2" stroke-linecap="round" stroke-linejoin="round"/>
<path d="M8.75391 17.0699V14.9094" stroke="#373F57" stroke-width="2" stroke-linecap="round" stroke-linejoin="round"/>
<path d="M16.5004 9.32288H14.3398" stroke="#373F57" stroke-width="2" stroke-linecap="round" stroke-linejoin="round"/>
</svg>
