<?xml version="1.0" encoding="UTF-8"?>
<svg id="_레이어_1" data-name="레이어 1" xmlns="http://www.w3.org/2000/svg" viewBox="0 0 70 70">
  <defs>
    <style>
      .cls-1 {
        fill: #246beb;
      }

      .cls-2 {
        fill: #7ab4f9;
      }

      .cls-3 {
        fill: #e4eef6;
      }
    </style>
  </defs>
  <path class="cls-3" d="M23.85,55.03h-5.15c-1.99,0-3.6,1.84-3.6,4.11v.55h11.08l1.17-1.17-3.5-3.5Z"/>
  <polygon class="cls-3" points="35.51 38.12 32.6 38.7 32.6 17.71 35.51 18.87 35.51 38.12"/>
  <rect class="cls-3" x="32.6" y="7.79" width="2.92" height="5.83"/>
  <path class="cls-1" d="M33.76,28.93c-5.64,0-10.63-3.98-11.86-9.47-.11-.47.19-.94.66-1.04.47-.11.94.19,1.04.66,1.05,4.7,5.32,8.11,10.15,8.11s9.1-3.41,10.15-8.11c.11-.47.57-.77,1.04-.66.47.11.77.57.66,1.04-1.23,5.49-6.22,9.47-11.86,9.47Z"/>
  <path class="cls-1" d="M32.3,15.37c-.48,0-.87-.39-.87-.87v-7c0-.48.39-.87.87-.87s.87.39.87.87v7c0,.48-.39.87-.87.87Z"/>
  <path class="cls-1" d="M35.8,15.37c-.48,0-.87-.39-.87-.87v-7c0-.48.39-.87.87-.87s.87.39.87.87v7c0,.48-.39.87-.87.87Z"/>
  <path class="cls-1" d="M32.3,38.7c-.48,0-.87-.39-.87-.87v-18.66c0-.48.39-.87.87-.87s.87.39.87.87v18.66c0,.48-.39.87-.87.87Z"/>
  <path class="cls-1" d="M35.8,38.12c-.48,0-.87-.39-.87-.87v-18.08c0-.48.39-.87.87-.87s.87.39.87.87v18.08c0,.48-.39.87-.87.87Z"/>
  <path class="cls-1" d="M33.89,8.67c-2.25,0-4.08-1.83-4.08-4.08s1.83-4.08,4.08-4.08,4.08,1.83,4.08,4.08-1.83,4.08-4.08,4.08ZM33.89,2.25c-1.29,0-2.33,1.05-2.33,2.33s1.05,2.33,2.33,2.33,2.33-1.05,2.33-2.33-1.05-2.33-2.33-2.33Z"/>
  <path class="cls-1" d="M19.48,20.67c-1.47,0-2.85-.32-4.13-.95-1.5-.75-2.95-2.16-3.72-3.23-.28-.39-.19-.94.2-1.22.39-.28.94-.19,1.22.2.62.86,1.85,2.07,3.08,2.68,1.63.81,3.5.98,5.57.5,1.27-.29,1.97-.75,2.77-1.27.76-.49,1.62-1.06,3-1.46,1.03-.3,2.11-.44,3.22-.43.48,0,.87.4.86.89,0,.48-.4.86-.87.86-.05,0-.1,0-.15,0-.89,0-1.75.12-2.57.36-1.13.33-1.81.77-2.53,1.24-.86.56-1.76,1.14-3.33,1.51-.9.21-1.78.31-2.62.31Z"/>
  <path class="cls-1" d="M48.04,20.67c-.84,0-1.72-.1-2.62-.31-1.57-.36-2.47-.95-3.33-1.51-.72-.47-1.4-.91-2.53-1.24-.86-.25-1.76-.37-2.71-.36h-.01c-.48,0-.87-.38-.87-.86,0-.48.38-.88.86-.89,1.11-.01,2.19.13,3.22.43,1.38.4,2.24.96,3,1.46.8.52,1.5.97,2.77,1.27,2.07.48,3.94.31,5.57-.5,1.25-.62,2.29-1.59,3.07-2.87.25-.41.79-.54,1.2-.29.41.25.54.79.29,1.2-.95,1.54-2.26,2.75-3.78,3.51-1.27.63-2.65.95-4.13.95Z"/>
  <path class="cls-1" d="M34.05,19.98c-1.93,0-3.5-1.57-3.5-3.5s1.57-3.5,3.5-3.5,3.5,1.57,3.5,3.5-1.57,3.5-3.5,3.5ZM34.05,14.73c-.96,0-1.75.78-1.75,1.75s.78,1.75,1.75,1.75,1.75-.78,1.75-1.75-.78-1.75-1.75-1.75Z"/>
  <path class="cls-1" d="M11.57,16.7c-1.45,0-2.62-1.18-2.62-2.62s1.18-2.62,2.62-2.62,2.62,1.18,2.62,2.62-1.18,2.62-2.62,2.62ZM11.57,13.2c-.48,0-.87.39-.87.87s.39.87.87.87.87-.39.87-.87-.39-.87-.87-.87Z"/>
  <path class="cls-1" d="M56.03,16.7c-1.45,0-2.62-1.18-2.62-2.62s1.18-2.62,2.62-2.62,2.62,1.18,2.62,2.62-1.18,2.62-2.62,2.62ZM56.03,13.2c-.48,0-.87.39-.87.87s.39.87.87.87.87-.39.87-.87-.39-.87-.87-.87Z"/>
  <path class="cls-1" d="M45.72,35.2c-.21,0-.42-.08-.59-.23-.35-.33-.38-.88-.05-1.24l7-7.58c.16-.17.39-.28.63-.28.27,0,.47.09.64.26l7.58,7.58c.34.34.34.9,0,1.24-.34.34-.9.34-1.24,0l-6.94-6.94-6.38,6.91c-.17.19-.41.28-.64.28Z"/>
  <path class="cls-1" d="M52.71,27.62c-.48,0-.87-.39-.87-.87v-8.16c0-.48.39-.87.87-.87s.87.39.87.87v8.16c0,.48-.39.87-.87.87Z"/>
  <path class="cls-1" d="M21.22,35.2c-.24,0-.47-.09-.64-.28l-6.38-6.91-6.94,6.94c-.34.34-.9.34-1.24,0-.34-.34-.34-.9,0-1.24l7.58-7.58c.16-.16.39-.26.62-.26h.02c.24,0,.46.11.63.28l7,7.58c.33.36.31.91-.05,1.24-.17.15-.38.23-.59.23Z"/>
  <path class="cls-1" d="M14.02,42.73c-4.63,0-8.4-3.77-8.4-8.4,0-.48.39-.87.87-.87h15.05c.48,0,.87.39.87.87,0,4.63-3.77,8.4-8.4,8.4ZM7.43,35.2c.43,3.26,3.22,5.78,6.59,5.78s6.16-2.52,6.59-5.78H7.43Z"/>
  <path class="cls-1" d="M58.87,40.03c-.2,0-.4-.07-.56-.2-.37-.31-.42-.86-.11-1.23.81-.97,1.32-2.15,1.49-3.39h-13.19c.06.42.15.84.29,1.24.15.46-.09.95-.55,1.11-.46.16-.95-.09-1.11-.55-.29-.86-.43-1.76-.43-2.67,0-.48.39-.87.87-.87h15.05c.48,0,.87.39.87.87,0,1.97-.69,3.88-1.95,5.39-.17.21-.42.31-.67.31Z"/>
  <path class="cls-1" d="M14.23,27.62c-.48,0-.87-.39-.87-.87v-8.16c0-.48.39-.87.87-.87s.87.39.87.87v8.16c0,.48-.39.87-.87.87Z"/>
  <path class="cls-1" d="M27.06,60.28H8.39c-.48,0-.87-.39-.87-.87s.39-.87.87-.87h18.66c.48,0,.87.39.87.87s-.39.87-.87.87Z"/>
  <path class="cls-1" d="M14.81,60.28c-.48,0-.87-.39-.87-.87v-.8c0-2.3,1.87-4.16,4.16-4.16h3.13c.48,0,.87.39.87.87s-.39.87-.87.87h-3.13c-1.33,0-2.41,1.08-2.41,2.41v.8c0,.48-.39.87-.87.87Z"/>
  <polygon class="cls-2" points="25.45 37.88 30.14 41.23 21.43 51.27 16.74 47.25 25.45 37.88"/>
  <polygon class="cls-3" points="53.59 37.53 50.67 41.03 59.42 50.95 64.09 47.45 53.59 37.53"/>
  <path class="cls-1" d="M53.5,59.4c-.25,0-.5-.11-.68-.32-.31-.37-.25-.92.12-1.23,1.94-1.59,2.69-3.1,3.35-4.42.57-1.14,1.1-2.22,2.24-3.03.39-.28.94-.19,1.22.2.28.39.19.94-.2,1.22-.78.56-1.18,1.37-1.69,2.39-.7,1.41-1.58,3.17-3.81,5-.16.13-.36.2-.55.2Z"/>
  <path class="cls-1" d="M31.81,65.26c-.61,0-1.21-.23-1.67-.69l-.65-.65c-.44-.44-.69-1.04-.69-1.67s.25-1.23.69-1.67l2.58-2.58c.92-.92,2.42-.92,3.34,0l.65.65c.92.92.92,2.42,0,3.34l-2.58,2.58c-.46.46-1.07.69-1.67.69ZM33.75,59.06c-.16,0-.32.06-.43.18l-2.58,2.58c-.12.12-.18.27-.18.43s.06.32.18.43l.65.65c.23.23.63.24.87,0l2.58-2.58c.24-.24.24-.63,0-.87l-.65-.65c-.12-.12-.28-.18-.43-.18Z"/>
  <path class="cls-1" d="M29.1,62.51c-.61,0-1.21-.23-1.67-.69l-.65-.65c-.45-.45-.69-1.04-.69-1.67s.25-1.23.69-1.67l.96-.96c.92-.92,2.42-.92,3.34,0l.65.65c.92.92.92,2.42,0,3.34l-.96.96c-.46.46-1.07.69-1.67.69ZM29.41,57.93c-.16,0-.32.06-.43.18l-.96.96c-.12.12-.18.27-.18.43s.06.32.18.43l.65.65c.24.24.63.24.87,0l.96-.96c.24-.24.24-.63,0-.87l-.65-.65c-.12-.12-.28-.18-.43-.18Z"/>
  <path class="cls-1" d="M39.28,68.62c-.76,0-1.47-.29-2-.82-.96-.96-1.1-2.47-.33-3.59.08-.13.19-.26.31-.38l1.17-1.17c.53-.53,1.24-.83,2-.83.56,0,1.09.16,1.55.46.02.01.03.02.05.03.13.09.26.2.39.33.11.11.22.24.32.38.79,1.13.65,2.64-.32,3.6l-1.14,1.15c-.14.14-.29.26-.44.35-.42.3-.98.47-1.55.47ZM40.42,63.59c-.29,0-.56.11-.76.31l-1.15,1.15s-.07.08-.1.12c-.31.46-.26,1.04.1,1.4s.95.41,1.36.12c.08-.05.12-.08.16-.12l1.14-1.15s0,0,0,0c.36-.36.41-.94.12-1.36-.03-.05-.08-.1-.12-.15-.05-.05-.09-.09-.15-.13-.01,0-.02-.02-.04-.02-.17-.11-.37-.16-.58-.16Z"/>
  <path class="cls-1" d="M34.63,67.96c-.61,0-1.21-.23-1.67-.69l-.65-.65c-.45-.44-.69-1.04-.69-1.67s.25-1.23.69-1.67l3.09-3.09c.92-.92,2.42-.92,3.34,0l.65.65h0c.92.92.92,2.42,0,3.34l-3.09,3.09c-.46.46-1.07.69-1.67.69ZM37.07,61.24c-.16,0-.31.06-.43.18l-3.09,3.09c-.12.12-.18.27-.18.43s.06.32.18.43l.65.65c.24.24.63.24.87,0l3.09-3.09c.24-.24.24-.63,0-.87l-.65-.65c-.12-.12-.28-.18-.43-.18Z"/>
  <path class="cls-1" d="M59.33,52.04s-.04,0-.06,0c-.23-.02-.45-.12-.6-.3l-8.78-10.07c-.29-.34-.29-.84.02-1.17l2.69-2.89c.33-.35.88-.37,1.24-.04.35.33.37.88.04,1.24l-2.15,2.31,7.68,8.81,3.51-3.1c.36-.32.92-.29,1.23.08.32.36.29.92-.08,1.23l-4.17,3.68c-.16.14-.37.22-.58.22Z"/>
  <path class="cls-1" d="M27.15,58.85c-.2,0-.4-.07-.57-.21l-.18-.15c-.76-.65-.84-.72-1.24-1.12-1.25-1.24-2.01-2.58-2.53-3.62-.18-.35-.34-.7-.5-1.03-.31-.64-.57-1.2-.86-1.62-.02-.03-.04-.06-.05-.09-.28-.39-.21-.94.18-1.23.39-.29.92-.22,1.21.16.04.05.09.12.14.22.35.52.64,1.14.96,1.8.15.32.31.65.48.99.46.92,1.13,2.1,2.2,3.17.35.35.4.39,1.14,1.03l.18.15c.37.31.41.87.1,1.23-.17.2-.42.31-.67.31ZM21.21,50.97s0,0,0,0c0,0,0,0,0,0ZM21.21,50.97s0,0,0,0c0,0,0,0,0,0Z"/>
  <path class="cls-1" d="M40.16,42.86c-.18,0-.36-.05-.51-.17-1.39-1.01-3.27-1.29-5.03-.77-.13.04-.25.08-.38.11-1.97.57-3.53.75-4.62.51-.11-.02-.21-.04-.31-.08,0,0-.01,0-.02,0-.05-.02-.09-.03-.13-.05-.43-.22-.61-.74-.39-1.17.2-.4.67-.58,1.08-.43,0,0,0,0,.01,0h0s.04.01.07.02c.02,0,.04,0,.06.01.77.18,2.12,0,3.8-.49.13-.03.23-.06.33-.09,2.28-.68,4.73-.3,6.56,1.02.39.28.48.83.2,1.22-.17.24-.44.36-.71.36Z"/>
  <path class="cls-1" d="M49.12,65.17c-.72,0-1.45-.28-2-.83l-2.86-2.9c-.34-.34-.34-.9,0-1.24.34-.34.9-.33,1.24,0l2.85,2.89c.41.41,1.09.41,1.51,0,.42-.42.42-1.1,0-1.52l-4.52-4.56c-.34-.34-.34-.9,0-1.24.34-.34.9-.34,1.24,0l4.52,4.56c1.1,1.1,1.1,2.89,0,3.99-.55.55-1.27.83-2,.83Z"/>
  <path class="cls-1" d="M51.87,62.42c-.72,0-1.45-.28-2-.83l-4.52-4.56c-.34-.34-.34-.9,0-1.24.34-.34.9-.34,1.24,0l4.52,4.56c.42.42,1.1.42,1.51,0,.42-.42.42-1.1,0-1.52l-.31-.31c-.34-.34-.34-.9,0-1.24.34-.34.9-.34,1.24,0l.31.31c1.1,1.1,1.1,2.89,0,3.99-.55.55-1.27.83-2,.83Z"/>
  <path class="cls-1" d="M46.3,67.86c-.76,0-1.46-.29-2-.82l-3.06-3.1c-.34-.34-.34-.9,0-1.24.34-.34.9-.34,1.24,0l3.06,3.1c.39.39,1.11.4,1.51,0,.42-.42.42-1.1,0-1.52l-4.54-4.58c-.34-.34-.34-.9,0-1.24.34-.34.9-.34,1.24,0l4.53,4.57c1.1,1.1,1.1,2.89,0,3.99-.53.53-1.24.82-2,.82h0Z"/>
  <path class="cls-1" d="M21.24,51.98c-.2,0-.41-.07-.58-.22l-4.13-3.62c-.36-.32-.4-.87-.08-1.23.32-.36.87-.4,1.23-.08l3.47,3.05,7.6-8.64-2.87-2.34c-.37-.31-.43-.86-.12-1.23.31-.37.86-.43,1.23-.12l3.57,2.92c.18.15.3.37.32.61.02.24-.06.47-.22.65l-8.78,9.98c-.17.2-.41.3-.66.3Z"/>
  <path class="cls-1" d="M52.94,58.79c-.22,0-.45-.09-.62-.26l-10.4-10.4c-.2-.21-.52-.21-.73-.02-.87.83-2.1,2-2.86,2.73l-.69.65c-.51.49-1.2.74-1.88.73-.71-.02-1.36-.3-1.84-.81l-.26-.27c-.09-.1-.16-.19-.22-.28-.77-1.05-.65-2.53.3-3.44l5.62-5.37c.29-.28.61-.55.94-.78,1.82-1.32,4.28-1.7,6.55-1.02,1.47.45,2.6.5,3.57.18.46-.15.95.1,1.11.55.15.46-.09.95-.55,1.11-1.33.44-2.8.39-4.63-.16-1.75-.53-3.63-.24-5.02.77-.27.19-.52.4-.75.62l-5.62,5.37c-.32.31-.36.8-.1,1.15.01.02.03.04.04.05.01.01.03.04.05.06l.25.26c.16.17.38.27.62.27.23.03.46-.08.63-.24l.69-.66c.76-.73,2-1.9,2.86-2.73.89-.85,2.31-.83,3.18.04l10.4,10.4c.34.34.34.9,0,1.24-.17.17-.39.26-.62.26Z"/>
  <path class="cls-1" d="M43.46,69.5c-.08,0-.17,0-.25,0-1.34-.1-2.43-.94-2.85-2.19-.15-.46.1-.95.55-1.11.46-.15.95.1,1.11.55.28.84,1.01.98,1.31,1,.5.04.94-.15,1.09-.45.22-.43.74-.61,1.17-.39.43.22.61.74.39,1.17-.44.88-1.42,1.42-2.53,1.42Z"/>
</svg>