<?xml version="1.0" encoding="UTF-8"?>
<svg id="_레이어_1" data-name="레이어 1" xmlns="http://www.w3.org/2000/svg" viewBox="0 0 55 50">
  <defs>
    <style>
      .cls-1, .cls-2 {
        fill: #373f57;
        stroke: #373f57;
      }

      .cls-1, .cls-2, .cls-3 {
        stroke-miterlimit: 10;
      }

      .cls-4, .cls-3 {
        fill: #3075f0;
        stroke: #3075f0;
      }

      .cls-5 {
        fill: #b0e869;
      }

      .cls-2 {
        stroke-width: 1.4px;
      }
    </style>
  </defs>
  <circle class="cls-5" cx="23.68" cy="34" r="11"/>
  <path class="cls-2" d="M25.13,33.85h-14.9c-1.4,0-2.54-1.1-2.54-2.45v-14.3c0-1.22,1.03-2.2,2.29-2.2h5.71c1.26,0,2.29.99,2.29,2.2v1.46c0,.16.14.3.31.3h9.25c.24,0,.44.19.44.42s-.2.42-.44.42h-9.25c-.66,0-1.19-.51-1.19-1.15v-1.46c0-.75-.63-1.35-1.41-1.35h-5.71c-.78,0-1.41.61-1.41,1.35v14.3c0,.88.75,1.6,1.66,1.6h14.9c.24,0,.44.19.44.42s-.2.42-.44.42Z"/>
  <path class="cls-1" d="M14.06,15c-.21,0-.38-.18-.38-.4v-6.19c0-.22.17-.4.38-.4h18.25c.21,0,.38.18.38.4v5.92c0,.22-.17.4-.38.4s-.38-.18-.38-.4v-5.52H14.43v5.79c0,.22-.17.4-.38.4Z"/>
  <path class="cls-1" d="M35.37,15c-.17,0-.32-.19-.32-.43V5.86h-14.74v.71c0,.24-.14.43-.32.43s-.32-.19-.32-.43v-1.14c0-.24.14-.43.32-.43h15.37c.17,0,.32.19.32.43v9.14c0,.24-.14.43-.32.43Z"/>
  <path class="cls-3" d="M36.01,42.85c-.34,0-.69-.01-1.04-.04-5.77-.49-10.29-5.35-10.29-11.07v-4.11c0-2.41,2.04-4.37,4.54-4.37h13.55c2.5,0,4.54,1.96,4.54,4.37v4.34c0,3.04-1.34,5.97-3.68,8.03-2.11,1.86-4.79,2.86-7.63,2.86ZM29.22,24.57c-1.76,0-3.18,1.37-3.18,3.06v4.11c0,5.04,3.97,9.34,9.05,9.77,2.84.24,5.54-.64,7.63-2.47,2.05-1.81,3.24-4.39,3.24-7.06v-4.34c0-1.69-1.43-3.06-3.18-3.06h-13.56Z"/>
  <path class="cls-3" d="M42.11,24.57h-12.67c-.38,0-.68-.29-.68-.65v-2.02c0-3.54,2.67-6.49,6.22-6.86,1.99-.21,3.99.4,5.47,1.68,1.48,1.28,2.34,3.11,2.34,5.03v2.18c0,.36-.3.65-.68.65h0ZM30.12,23.27h11.32v-1.52c0-1.55-.69-3.02-1.88-4.05-1.21-1.04-2.78-1.53-4.42-1.35-2.86.3-5.01,2.69-5.01,5.57v1.36h0Z"/>
  <path class="cls-4" d="M35.14,32.83v-.25l-.2-.15c-.43-.32-.7-.8-.7-1.33,0-.91.77-1.68,1.76-1.68s1.76.77,1.76,1.68c0,.53-.27,1.02-.7,1.33l-.21.15v2.88c0,.43-.36.81-.86.81s-.86-.38-.86-.81v-2.62Z"/>
</svg>