<?xml version="1.0" encoding="UTF-8"?>
<svg id="_레이어_1" data-name="레이어 1" xmlns="http://www.w3.org/2000/svg" viewBox="0 0 70 70">
  <defs>
    <style>
      .cls-1 {
        fill: #fff;
      }

      .cls-2 {
        fill: #246beb;
      }

      .cls-3 {
        fill: #7ab4f9;
      }

      .cls-4 {
        fill: #e4eef6;
      }
    </style>
  </defs>
  <path class="cls-4" d="M20.59,32.79v-4.17c0-1.22-.99-2.21-2.21-2.21H3.79c-1.22,0-2.21.99-2.21,2.21v34.22c0,1.22.99,2.21,2.21,2.21h45.01c-5.69-3.55-8.01-7.43-8.34-11.5-.36-4.38-2.09-13.02,4.05-13.64,1.23-.61.25-4.91.25-4.91h-21.95c-1.22,0-2.21-.99-2.21-2.21Z"/>
  <path class="cls-3" d="M45.09,39.91h18.45c2.69,0,4.88,2.19,4.88,4.88v6.16c0,7.78-6.32,14.1-14.1,14.1h0c-7.78,0-14.1-6.32-14.1-14.1v-6.16c0-2.69,2.19-4.88,4.88-4.88Z"/>
  <path class="cls-2" d="M42.97,64.28H5.66c-1.83,0-3.31-1.49-3.31-3.31v-31c0-1.53,1.25-2.78,2.78-2.78h11.91c1.53,0,2.78,1.25,2.78,2.78v3.16c0,1.45,1.18,2.64,2.64,2.64h19.28c.59,0,1.07-.48,1.07-1.07s-.48-1.07-1.07-1.07h-19.28c-.27,0-.49-.22-.49-.49v-3.16c0-2.72-2.21-4.93-4.93-4.93H5.13c-2.72,0-4.93,2.21-4.93,4.93v31c0,3.01,2.45,5.46,5.46,5.46h37.31c.59,0,1.07-.48,1.07-1.07s-.48-1.07-1.07-1.07Z"/>
  <path class="cls-2" d="M51.56,9.71H6.79c-.59,0-1.07.48-1.07,1.07v14.1c0,.59.48,1.07,1.07,1.07s1.07-.48,1.07-1.07v-13.03h42.62v12.42c0,.59.48,1.07,1.07,1.07s1.07-.48,1.07-1.07v-13.49c0-.59-.48-1.07-1.07-1.07Z"/>
  <path class="cls-3" d="M57.69,3.57H12.93c-.59,0-1.07.48-1.07,1.07v2.45c0,.59.48,1.07,1.07,1.07s1.07-.48,1.07-1.07v-1.38h42.62v18.55c0,.59.48,1.07,1.07,1.07s1.07-.48,1.07-1.07V4.65c0-.59-.48-1.07-1.07-1.07Z"/>
  <path class="cls-2" d="M63.49,38.53h-18.36c-3.48,0-6.3,2.83-6.3,6.3v5.79c0,8.13,6.18,15.05,14.08,15.75.47.04.95.06,1.42.06,3.87,0,7.57-1.44,10.43-4.06,3.2-2.93,5.03-7.09,5.03-11.42v-6.11c0-3.48-2.83-6.3-6.3-6.3ZM67.65,44.83v6.11c0,3.73-1.58,7.32-4.33,9.84-2.79,2.56-6.42,3.78-10.22,3.44-6.8-.6-12.12-6.58-12.12-13.61v-5.79c0-2.29,1.87-4.16,4.16-4.16h18.36c2.29,0,4.16,1.87,4.16,4.16Z"/>
  <path class="cls-2" d="M60.45,29.34c-2.04-1.83-4.79-2.7-7.54-2.4-4.88.54-8.56,4.76-8.56,9.82v2.84c0,.59.48,1.07,1.07,1.07h17.17c.59,0,1.07-.48,1.07-1.07v-3.07c0-2.74-1.17-5.36-3.22-7.2ZM61.52,36.53v1.99h-15.02v-1.77c0-3.96,2.86-7.27,6.65-7.69,2.17-.24,4.26.42,5.87,1.87,1.59,1.42,2.5,3.46,2.5,5.6Z"/>
  <path class="cls-2" d="M43.58,26.26h-18.4c-.59,0-1.07.48-1.07,1.07s.48,1.07,1.07,1.07h18.4c.59,0,1.07-.48,1.07-1.07s-.48-1.07-1.07-1.07Z"/>
  <path class="cls-2" d="M43.58,18.9H14.77c-.59,0-1.07.48-1.07,1.07s.48,1.07,1.07,1.07h28.82c.59,0,1.07-.48,1.07-1.07s-.48-1.07-1.07-1.07Z"/>
  <path class="cls-1" d="M57.38,49.72c0-1.69-1.37-3.07-3.07-3.07s-3.07,1.37-3.07,3.07c0,1,.49,1.88,1.23,2.44v3.69c0,1.02.82,1.84,1.84,1.84s1.84-.82,1.84-1.84v-3.69c.74-.56,1.23-1.44,1.23-2.44Z"/>
</svg>