<?xml version="1.0" encoding="UTF-8"?>
<svg id="_레이어_1" data-name="레이어 1" xmlns="http://www.w3.org/2000/svg" viewBox="0 0 70 70">
  <defs>
    <style>
      .cls-1 {
        fill: #246beb;
      }

      .cls-2 {
        fill: #7ab4f9;
      }

      .cls-3 {
        fill: #e4eef6;
      }
    </style>
  </defs>
  <path class="cls-1" d="M48.89,49.62c-1.45,0-2.85-.61-3.83-1.69-.99-1.09-1.47-2.5-1.34-3.97.04-.46.43-.82.9-.82h4.27q4.64,0,4.91.27c.15.15.24.35.26.56.13,1.47-.35,2.88-1.34,3.97-.98,1.07-2.38,1.68-3.83,1.68ZM45.54,44.94c.1.66.39,1.27.85,1.78.64.7,1.55,1.1,2.5,1.1s1.86-.4,2.5-1.1c.46-.51.75-1.12.85-1.78-1.49,0-4.5,0-6.7,0Z"/>
  <path class="cls-1" d="M63.89,49.62c-1.45,0-2.85-.61-3.83-1.68-.99-1.09-1.47-2.5-1.34-3.97.02-.24.14-.47.33-.62q.25-.2,9.1-.2c.47,0,.85.36.9.82.13,1.48-.34,2.89-1.34,3.97-.98,1.07-2.37,1.69-3.83,1.69ZM60.54,44.94c.1.66.39,1.27.85,1.78.64.7,1.55,1.1,2.5,1.1s1.86-.4,2.5-1.1c.46-.51.75-1.12.85-1.78-2.2,0-5.21,0-6.7,0Z"/>
  <path class="cls-1" d="M44.63,44.75c-.16,0-.32-.04-.47-.13-.42-.26-.56-.81-.3-1.23l4.26-7.01c.16-.27.45-.43.77-.43s.61.16.77.43l4.26,7.01c.26.42.12.98-.3,1.24-.43.26-.98.12-1.24-.3l-3.49-5.74-3.49,5.74c-.17.28-.47.43-.77.43Z"/>
  <path class="cls-1" d="M68.16,44.75c-.3,0-.6-.15-.77-.43l-3.49-5.74-3.49,5.74c-.26.42-.81.56-1.23.3-.42-.26-.56-.81-.3-1.23l4.26-7.01c.16-.27.45-.43.77-.43s.61.16.77.43l4.26,7.01c.26.42.12.98-.3,1.23-.15.09-.31.13-.47.13Z"/>
  <path class="cls-3" d="M3.05,60.36c.51-7.93,6.38-14.39,13.99-15.74.08-.01.17-.03.24-.04l5.59,9.72,8.53-11.79c7.47,1.32,13.01,8.24,13.6,15.99-5.82,5.16-13.46,8.29-21.83,8.31h-.18c-8.37,0-19.84-6.14-19.84-6.14l-.1-.3Z"/>
  <path class="cls-1" d="M9.32,64.13c-.54,0-.98-.44-.98-.98v-3.93c0-.54.44-.98.98-.98s.98.44.98.98v3.93c0,.54-.44.98-.98.98Z"/>
  <path class="cls-1" d="M36.85,64.13c-.54,0-.98-.44-.98-.98v-3.93c0-.54.44-.98.98-.98s.98.44.98.98v3.93c0,.54-.44.98-.98.98Z"/>
  <path class="cls-1" d="M23.17,67.5h-.18c-8.24,0-16.21-2.99-22.44-8.41-.41-.36-.45-.98-.1-1.39.36-.41.98-.45,1.39-.1,5.87,5.11,13.38,7.92,21.15,7.92h.18c7.61-.02,14.93-2.75,20.68-7.69-.75-6.98-6.13-13.08-12.77-14.45-.42.08-.86-.13-1.06-.53l-.04-.07h0s0,0,0,0h0c-.11-.22-.13-.46-.07-.68h0s0,0,0,0c.01-.06.03-.11.06-.17.09-.2.25-.37.45-.47.2-.1.42-.12.62-.09,7.82,1.39,14.18,8.61,14.8,16.79.02.31-.1.61-.33.81-6.16,5.47-14.1,8.49-22.36,8.51Z"/>
  <path class="cls-1" d="M28.81,64.87c-.33,0-.65-.17-.84-.47l-12.84-21.02s-.03,0-.04,0c-7.23,1.28-12.65,7.39-13.13,14.83-.04.54-.51.96-1.04.92-.54-.04-.95-.5-.92-1.04.54-8.35,6.63-15.2,14.8-16.65l.12-.02c.05-.01.11-.02.16-.03.05,0,.09,0,.14,0h.46c.34,0,.66.18.84.47l13.14,21.52c.28.46.14,1.07-.33,1.35-.16.1-.34.14-.51.14Z"/>
  <path class="cls-1" d="M23.09,41.08s-.03,0-.04,0c-3.83-.15-7.49-3.27-9.42-6.29-2.07-3.25-2.13-6.52-2.14-7.6-.03-1.78.24-3.55.8-5.26.17-.52.73-.8,1.24-.63.52.17.8.73.63,1.24-.49,1.51-.73,3.06-.7,4.61.02,1.04.07,3.8,1.84,6.58,1.59,2.5,4.7,5.24,7.79,5.38,3.09-.14,6.2-2.88,7.79-5.38,1.77-2.78,1.82-5.54,1.84-6.58.07-3.9-1.54-6.86-2.5-8.28-.31-.45-.19-1.06.26-1.37.45-.31,1.06-.19,1.37.26,1.1,1.61,2.93,4.98,2.84,9.42-.02,1.07-.07,4.35-2.14,7.6-1.93,3.02-5.58,6.14-9.42,6.29-.01,0-.03,0-.04,0Z"/>
  <path class="cls-1" d="M26.22,64.42c-.21,0-.41-.06-.59-.2-6.15-4.61-12.38-9.8-12.44-9.85-.37-.31-.46-.83-.22-1.24l1.59-2.78-2.96-1.74c-.24-.14-.41-.38-.46-.65-.06-.27,0-.56.17-.78l3.28-4.49c.32-.44.94-.53,1.37-.21.44.32.53.94.21,1.37l-2.64,3.61,2.86,1.68c.46.27.62.87.36,1.34l-1.66,2.9c1.74,1.43,6.76,5.54,11.73,9.26.43.33.52.94.2,1.38-.19.26-.49.39-.79.39Z"/>
  <path class="cls-1" d="M27.43,57.91c-.29,0-.58-.13-.77-.37-.34-.42-.27-1.04.16-1.38,2.1-1.68,3.81-3.08,4.69-3.8l-1.66-2.9c-.27-.47-.11-1.06.36-1.34l3.8-2.23c.47-.27,1.07-.12,1.35.35.28.47.12,1.07-.35,1.35l-2.96,1.74,1.59,2.78c.24.41.14.94-.22,1.24-.02.02-2.27,1.89-5.36,4.35-.18.14-.4.21-.61.21Z"/>
  <path class="cls-1" d="M24.16,52.54c-.2,0-.4-.06-.57-.19-.44-.32-.54-.93-.22-1.37l6.72-9.3c.32-.44.93-.54,1.37-.22.44.32.54.93.22,1.37l-6.72,9.3c-.19.27-.49.41-.8.41Z"/>
  <path class="cls-1" d="M14.34,25.66c-.36,0-.71-.2-.88-.54-.24-.49-.05-1.08.44-1.32,1.16-.58,2.44-2.05,3.67-3.46,1.91-2.19,3.72-4.27,5.75-3.86,1.61.32,2.76,1.73,3.98,3.23,1.15,1.41,2.34,2.86,3.96,3.56.5.21.73.79.52,1.29-.21.5-.79.73-1.29.52-2.07-.89-3.47-2.6-4.71-4.12-.99-1.21-1.93-2.36-2.85-2.54-.91-.18-2.56,1.71-3.88,3.23-1.36,1.56-2.76,3.17-4.28,3.93-.14.07-.29.1-.44.1Z"/>
  <path class="cls-1" d="M10.2,30.31c-.44,0-.83-.29-.95-.73-.11-.42-2.65-10.39,2.78-16.9,2.81-3.37,6.47-5.01,11.2-5.01,4.41,0,7.54,1.5,10.47,5.01,5.41,6.49,3.42,16.43,3.33,16.85-.11.53-.63.87-1.16.76-.53-.11-.87-.63-.76-1.16.02-.09,1.88-9.44-2.92-15.2-2.54-3.05-5.14-4.3-8.96-4.3-4.11,0-7.28,1.41-9.69,4.3-4.78,5.73-2.41,15.05-2.39,15.15.14.53-.18,1.06-.7,1.2-.08.02-.17.03-.25.03Z"/>
  <path class="cls-1" d="M27.78,9.37c-.54,0-.98-.44-.98-.98,0-2.17-1.76-3.93-3.93-3.93s-3.93,1.76-3.93,3.93c0,.54-.44.98-.98.98s-.98-.44-.98-.98c0-3.25,2.64-5.89,5.89-5.89s5.89,2.64,5.89,5.89c0,.54-.44.98-.98.98Z"/>
  <g>
    <path class="cls-2" d="M65.36,8.93h-19.95c-2.09,0-3.79,1.7-3.79,3.79v18.68c-.07.22,5.42-3.09,8.65-5.06h15.09c2.09,0,3.79-1.7,3.79-3.79v-9.83c0-2.09-1.7-3.79-3.79-3.79Z"/>
    <path class="cls-1" d="M41.53,32.26c-.19,0-.29-.08-.43-.19l-.46-.36.14-.44V12.72c0-2.56,2.08-4.64,4.64-4.64h19.95c2.56,0,4.64,2.08,4.64,4.64v9.83c0,2.56-2.08,4.64-4.64,4.64h-14.85c-6.8,4.13-8.35,5.07-8.98,5.07ZM45.42,9.77c-1.63,0-2.95,1.32-2.95,2.95v17.31c1.07-.61,3.2-1.86,7.37-4.4l.2-.12h15.32c1.63,0,2.95-1.32,2.95-2.95v-9.83c0-1.63-1.32-2.95-2.95-2.95h-19.95Z"/>
  </g>
  <path class="cls-1" d="M56.52,56.18c-.5,0-.9-.4-.9-.9v-25.85c0-.5.4-.9.9-.9s.9.4.9.9v25.85c0,.5-.4.9-.9.9Z"/>
  <path class="cls-1" d="M65.85,37.62c-1.91,0-3.59-.49-5-1.47-.63-.44-1.11-.91-1.53-1.32-.6-.59-1.08-1.05-1.84-1.29-.34-.11-.71-.16-1.08-.15-.41,0-.77.04-1.11.15-.76.24-1.24.71-1.84,1.29-.42.41-.9.88-1.53,1.32-1.54,1.07-3.4,1.56-5.53,1.46-.5-.02-.88-.44-.86-.94s.43-.88.94-.86c1.72.08,3.22-.3,4.42-1.14.51-.36.91-.75,1.3-1.13.68-.66,1.38-1.35,2.55-1.72.53-.17,1.08-.25,1.66-.24.54-.01,1.09.07,1.62.24,1.17.37,1.87,1.06,2.55,1.72.39.38.79.77,1.3,1.13,1.21.84,2.69,1.22,4.42,1.14.51-.03.92.36.94.86.02.5-.36.92-.86.94-.18,0-.36.01-.54.01Z"/>
  <path class="cls-1" d="M63.26,64.05h-14.05c-.5,0-.9-.4-.9-.9v-2.16c0-1.47,1.2-2.67,2.67-2.67h10.5c1.47,0,2.67,1.2,2.67,2.67v2.16c0,.5-.4.9-.9.9ZM50.11,62.25h12.25v-1.26c0-.48-.39-.87-.87-.87h-10.5c-.48,0-.87.39-.87.87v1.26Z"/>
  <path class="cls-1" d="M59.89,56.74h-6.74c-.5,0-.9-.4-.9-.9s.4-.9.9-.9h6.74c.5,0,.9.4.9.9s-.4.9-.9.9Z"/>
</svg>