<?xml version="1.0" encoding="UTF-8"?>
<svg id="_레이어_1" data-name="레이어 1" xmlns="http://www.w3.org/2000/svg" viewBox="0 0 55 50">
  <defs>
    <style>
      .cls-1 {
        stroke-width: 2px;
      }

      .cls-1, .cls-2 {
        stroke: #373f57;
      }

      .cls-1, .cls-2, .cls-3 {
        fill: none;
        stroke-linecap: round;
        stroke-linejoin: round;
      }

      .cls-2, .cls-3 {
        stroke-width: 2.5px;
      }

      .cls-3 {
        stroke: #3075f0;
      }

      .cls-4 {
        fill: #b0e869;
      }
    </style>
  </defs>
  <circle class="cls-4" cx="32.3" cy="31.96" r="11"/>
  <path class="cls-2" d="M10.85,24.25c1.76-1.75,1.76-4.59,0-6.34-1.76-1.75-4.61-1.75-6.37,0-1.76,1.75-1.76,4.59,0,6.34,1.76,1.75,4.61,1.75,6.37,0Z"/>
  <path class="cls-2" d="M4.13,44.04l-1.27-10.72c-.29-2.49,1.66-4.67,4.18-4.67,2.04,0,3.78,1.46,4.14,3.46l.83,4.66c.15.86.91,1.49,1.79,1.49h5.84c1.27,0,2.31,1.03,2.31,2.29s-1.03,2.3-2.31,2.3h-4.44"/>
  <path class="cls-2" d="M50.52,24.25c1.76-1.75,1.76-4.59,0-6.34-1.76-1.75-4.61-1.75-6.37,0-1.76,1.75-1.76,4.59,0,6.34,1.76,1.75,4.61,1.75,6.37,0Z"/>
  <path class="cls-2" d="M50.87,44.04l1.27-10.72c.29-2.49-1.66-4.67-4.18-4.67-2.04,0-3.78,1.46-4.14,3.46l-.83,4.66c-.15.86-.91,1.49-1.79,1.49h-5.84c-1.27,0-2.31,1.03-2.31,2.29s1.03,2.3,2.31,2.3h4.44"/>
  <path class="cls-2" d="M12.3,42.96h30"/>
  <path class="cls-3" d="M17.62,18.77c-1.36,0-2.47-1.1-2.47-2.46v-7.9c0-1.36,1.11-2.46,2.47-2.46h14.22c1.36,0,2.47,1.1,2.47,2.46v7.9c0,1.36-1.11,2.46-2.47,2.46h-6.6c-.3,0-.59.08-.85.22l-4.86,2.77-.76-2.99h-1.16Z"/>
  <path class="cls-1" d="M36.3,14.88c.21,0,.41.05.59.16l3.37,1.93.53-2.08h.8c.95,0,1.71-.77,1.71-1.71v-5.49c0-.95-.77-1.71-1.71-1.71h-5.25"/>
  <path class="cls-3" d="M21.94,12.65l2.18,2.17,4.68-4.65"/>
</svg>