<?xml version="1.0" encoding="UTF-8"?>
<svg id="_레이어_1" data-name="레이어 1" xmlns="http://www.w3.org/2000/svg" viewBox="0 0 55 50">
  <defs>
    <style>
      .cls-1, .cls-2 {
        fill: #3075f0;
        stroke: #3075f0;
      }

      .cls-3, .cls-4 {
        fill: #373f57;
        stroke: #373f57;
      }

      .cls-5 {
        fill: #b0e869;
      }

      .cls-4 {
        stroke-width: .4px;
      }

      .cls-2 {
        stroke-miterlimit: 10;
        stroke-width: .6px;
      }
    </style>
  </defs>
  <circle class="cls-5" cx="24" cy="24" r="11"/>
  <path class="cls-3" d="M47.59,29.44c-.25.06-.39.32-.33.57.05.2,0,.42-.12.58-.13.17-.32.26-.53.26h-4.26c-.25,0-.46.21-.46.47s.21.47.46.47h2.99v9.91h0v.02c0,.57-.46,1.03-1.02,1.03s-1.02-.46-1.02-1.03h0v-8.6c0-.26-.21-.47-.46-.47s-.46.21-.46.47v8.58h0v.02c0,.57-.46,1.03-1.02,1.03-.25,0-.46.21-.46.47s.21.47.46.47c.59,0,1.12-.27,1.48-.7.36.43.89.7,1.48.7,1.07,0,1.94-.88,1.94-1.96h0v-9.93h.34c.5,0,.95-.23,1.26-.62.3-.4.41-.9.28-1.39-.06-.25-.32-.4-.56-.33h0Z"/>
  <path class="cls-4" d="M41.07,34.46v-5.06c0-1.05-.85-1.91-1.88-1.91h-2.04c-1.04,0-1.88.85-1.88,1.91v5.06c0,.61.29,1.18.76,1.53v6.37s0,0,0,0h0c0,.73.58,1.31,1.3,1.31h1.68c.72,0,1.3-.59,1.3-1.31h0s0-6.38,0-6.38c.48-.36.76-.92.76-1.53ZM40.15,34.46c0,.36-.2.7-.52.86-.17.09-.26.27-.25.46v6.57s0,0,0,0h0c0,.22-.17.39-.38.39h-1.68c-.21,0-.38-.17-.38-.38h0v-6.59c0-.18-.08-.37-.25-.46-.32-.17-.52-.5-.52-.86v-5.06c0-.54.43-.97.96-.97h2.04c.53,0,.96.44.96.97v5.06h0Z"/>
  <path class="cls-3" d="M42.6,15.21c1.03,0,2-.41,2.73-1.14.73-.74,1.13-1.72,1.13-2.76s-.4-2.02-1.13-2.76c-.73-.74-1.7-1.14-2.73-1.14s-2,.41-2.73,1.14c-.73.74-1.13,1.72-1.13,2.76s.4,2.02,1.13,2.76c.73.74,1.7,1.14,2.73,1.14ZM42.6,8.34c1.62,0,2.94,1.33,2.94,2.97s-1.32,2.97-2.94,2.97-2.94-1.33-2.94-2.97,1.32-2.97,2.94-2.97Z"/>
  <path class="cls-3" d="M33.5,13.8c1.03,0,2-.41,2.73-1.14.73-.74,1.13-1.72,1.13-2.76s-.4-2.02-1.13-2.76c-.73-.74-1.7-1.14-2.73-1.14s-2,.41-2.73,1.14c-.73.74-1.13,1.72-1.13,2.76s.4,2.02,1.13,2.76c.73.74,1.7,1.14,2.73,1.14ZM33.5,6.93c1.62,0,2.94,1.33,2.94,2.97s-1.32,2.97-2.94,2.97-2.94-1.33-2.94-2.97,1.32-2.97,2.94-2.97Z"/>
  <path class="cls-4" d="M38.17,26.94c1.38,0,2.5-1.14,2.5-2.53s-1.12-2.53-2.5-2.53-2.5,1.14-2.5,2.53,1.12,2.53,2.5,2.53ZM38.17,22.81c.87,0,1.58.72,1.58,1.6s-.71,1.6-1.58,1.6-1.58-.72-1.58-1.6.71-1.6,1.58-1.6Z"/>
  <path class="cls-4" d="M36.59,21v-1.85c0-.26-.21-.47-.46-.47s-.46.21-.46.47v1.85c0,.26.21.47.46.47s.46-.21.46-.47Z"/>
  <path class="cls-3" d="M34.95,42.74c-.56,0-1.02-.47-1.02-1.04h0v-.02l-.02-10.36c0-.26-.21-.46-.46-.46h0c-.25,0-.46.21-.46.47l.02,10.36h0v.02c0,.57-.46,1.04-1.02,1.04s-1.02-.46-1.02-1.04h0v-1.48c0-.26-.21-.47-.46-.47s-.46.21-.46.47v1.47s0,0,0,0h0c0,1.09.87,1.97,1.94,1.97.59,0,1.12-.27,1.48-.7.36.43.89.7,1.48.7.25,0,.46-.21.46-.47s-.21-.47-.46-.47h0Z"/>
  <path class="cls-3" d="M48.96,26.95s0,0,0,0c0,0,0,0,0,0l-2.21-9.58s-.02-.06-.03-.09c-.21-.67-.82-1.12-1.51-1.12h-4.71c-.62,0-1.31.32-1.59,1v-.62h0c0-1.15-.93-2.08-2.07-2.08h-6.76c-1.14,0-2.06.93-2.07,2.08v2.44s0,0,0,0c0,.26.21.47.46.47s.46-.21.46-.47h0s0,0,0,0v-2.44c0-.64.52-1.15,1.15-1.15,0,0,0,0,0,0h6.75s0,0,0,0c.63,0,1.14.52,1.15,1.15v4.07s0,.07.01.1c0,0,0,0,0,0,0,0,0,0,0,.01.01.05.03.1.06.14,0,0,0,0,0,0,0,0,0,0,0,.01,0,0,0,0,0,0,0,0,0,0,0,0,0,0,0,0,0,0,0,0,0,0,0,0,0,0,0,0,0,.01,0,0,0,0,0,0,0,0,0,0,.01.01,0,0,0,0,0,0,.03.03.07.06.11.08,0,0,0,0,.01,0,0,0,0,0,0,0,.04.02.07.03.11.04,0,0,0,0,0,0,0,0,.01,0,.02,0,0,0,0,0,0,0,0,0,0,0,.01,0,0,0,0,0,.01,0,0,0,0,0,0,0,0,0,.01,0,.02,0,0,0,0,0,0,0,0,0,.02,0,.02,0,0,0,0,0,.01,0,.01,0,.02,0,.03,0,0,0,0,0,0,0,.01,0,.02,0,.03,0,0,0,0,0,0,0,.01,0,.02,0,.03-.01,0,0,0,0,0,0,.03-.01.07-.03.1-.05,0,0,0,0,0,0,0,0,.02-.01.03-.02,0,0,0,0,0,0,0,0,.02-.01.02-.02,0,0,0,0,0,0,0,0,.01-.01.02-.02,0,0,0,0,0,0,0,0,.01-.01.02-.02,0,0,0,0,0,0,0,0,.01-.02.02-.02,0,0,0,0,0,0,0,0,.01-.02.02-.03,0,0,0,0,0,0,0-.01.01-.02.02-.03,0,0,0,0,0,0,0-.01,0-.02.01-.03,0,0,0,0,0,0,0-.01,0-.03.01-.04l.75-3.01c.1-.34.45-.62.85-.62h4.71c.3,0,.57.21.65.51,0,.02.01.04.02.05l2.19,9.5s0,.01,0,.02c0,0,0,0,0,.01.04.2,0,.4-.1.57-.11.17-.28.29-.47.34-.2.05-.4.01-.57-.1-.17-.11-.29-.28-.34-.47,0,0,0,0,0,0,0,0,0-.01,0-.02l-1.27-5.55c-.06-.25-.3-.41-.55-.35-.25.06-.4.31-.35.56l1.27,5.57s0,0,0,0c0,0,0,0,0,0,0,0,0,0,0,0,.18.79.87,1.32,1.64,1.32.12,0,.25-.01.38-.04.44-.1.81-.37,1.05-.75.24-.38.31-.84.21-1.28h0Z"/>
  <path class="cls-4" d="M31.36,20.86v-1.72c0-.26-.21-.47-.46-.47s-.46.21-.46.47v1.72c0,.26.21.47.46.47s.46-.21.46-.47Z"/>
  <path class="cls-2" d="M10.6,27.51c0-.29.19-.49.55-.6.13-.03.25-.06.37-.06.17,0,.32.04.45.12.13.08.21.2.25.35l1.19,4.19h2.57l1.22-4c.04-.16.14-.28.29-.36.14-.08.32-.12.52-.12.43,0,.7.16.8.48l1.24,4h2.59l1.17-4.19c.04-.15.13-.26.26-.35.13-.08.28-.12.46-.12.13,0,.25.02.37.06.35.1.53.3.53.59,0,.09-.02.19-.05.29l-1.1,3.73h.3c.27,0,.48.06.63.16.15.1.22.26.22.47s-.08.36-.22.47c-.14.11-.35.16-.63.16h-.68l-1.5,5.02c-.04.17-.15.29-.32.37-.17.08-.36.12-.58.12s-.41-.04-.6-.12c-.19-.08-.3-.21-.35-.37-.68-1.96-1.23-3.64-1.65-5.02h-1.79c-.42,1.38-.97,3.06-1.65,5.02-.06.17-.17.29-.34.37-.17.08-.36.12-.58.12s-.4-.04-.58-.12c-.17-.08-.28-.21-.32-.37l-1.5-5.02h-.7c-.56,0-.85-.21-.85-.63,0-.21.08-.36.22-.47.14-.1.35-.16.63-.16h.32l-1.1-3.73c-.03-.1-.05-.19-.05-.28ZM14.64,35.87l.95-3.1h-1.84l.89,3.1ZM18.53,31.52l-.51-1.77-.51,1.77h1.02ZM21.43,35.87l.87-3.1h-1.84l.97,3.1Z"/>
  <path class="cls-1" d="M18,44c6.62,0,12-5.38,12-12s-5.38-12-12-12-12,5.38-12,12,5.38,12,12,12ZM18,21.33c5.87,0,10.65,4.79,10.65,10.67s-4.78,10.67-10.65,10.67-10.65-4.79-10.65-10.67,4.78-10.67,10.65-10.67Z"/>
</svg>