<?xml version="1.0" encoding="UTF-8"?>
<svg id="_레이어_1" data-name="레이어 1" xmlns="http://www.w3.org/2000/svg" viewBox="0 0 55 50">
  <defs>
    <style>
      .cls-1 {
        stroke-width: 2px;
      }

      .cls-1, .cls-2 {
        stroke: #3075f0;
      }

      .cls-1, .cls-2, .cls-3 {
        fill: none;
        stroke-linecap: round;
        stroke-linejoin: round;
      }

      .cls-4 {
        fill: #b0e869;
      }

      .cls-2, .cls-3 {
        stroke-width: 1.8px;
      }

      .cls-3 {
        stroke: #373f57;
      }
    </style>
  </defs>
  <circle class="cls-4" cx="24.98" cy="30.48" r="11"/>
  <path class="cls-3" d="M14.6,38.8h-3.01c-1.12,0-2.03.87-2.03,1.95,0,.42.36.77.8.77h5.48c.44,0,.8-.34.8-.77,0-1.08-.91-1.95-2.03-1.95Z"/>
  <path class="cls-3" d="M16.33,14.31s1.25-2.8-1.45-4.34c-2.87-1.64-6.17,1.14-5.13,4.01l.12.33"/>
  <path class="cls-3" d="M13.11,18.08c2.74,0,4.19-4.18,2.48-5.22-.68-.41-1.9-.24-2.48-1.17-.85,1.37-3.23.34-3.23,2.59,0,1.76,1.29,3.8,3.22,3.8"/>
  <path class="cls-3" d="M9.8,13.22c-4.58,1.79-2.33,4.68-3.81,5.31,2.28.05,4.3-.35,3.81-5.31Z"/>
  <path class="cls-3" d="M16.4,13.22c4.58,1.79,2.33,4.68,3.81,5.31-2.28.05-4.3-.35-3.81-5.31Z"/>
  <path class="cls-3" d="M15.25,38.88c.17-1.88.4-4.25.42-4.49"/>
  <path class="cls-3" d="M10.35,34.56l.42,4.48"/>
  <path class="cls-3" d="M12.97,39.18v-4.27"/>
  <path class="cls-3" d="M15.96,19.4c1.4,3.77,3.57,6.03,4.57,6.91"/>
  <path class="cls-3" d="M8.92,27.82c-1.41-2.85-.81-6.37,1.71-8.55l.08.09"/>
  <path class="cls-3" d="M10.95,19.37v.06c-.46,5.38-1.79,9.39-4.15,13.29,3.2,2.37,10.02,2.3,13.15,0-2.65-4.38-3.73-8.34-4.15-13.29v-.06"/>
  <path class="cls-2" d="M32.44,21.96l-8.09,6.63c-.66.54-.74,1.56-.18,2.25.57.69,1.77,1.07,2.43.53l8.81-7.22"/>
  <path class="cls-2" d="M35.47,24.11l-7.27,5.95c-.66.54-.74,1.56-.18,2.25.57.69,1.58.81,2.24.27l7.52-6.16"/>
  <path class="cls-1" d="M33.87,16s-1.7.34-3.6.4c-.45-.01-3.08.22-2.72-1.81,0,0,4.17-1.68,7.76-3.46,1.64-.33,3.2-.41,4.27-.42.94,0,1.84-.33,2.57-.92l1.59-1.3"/>
  <path class="cls-1" d="M31.68,22.57l-5.99,4.91c-.61.5-1.5.56-2.11.06-.82-.67-.79-1.89,0-2.54l9.38-7.69"/>
  <path class="cls-1" d="M32.73,31.11c-.1,1.26,1.38,2.1,2.35,1.31,0,0,9.51-7.11,11.45-10.22.54-1.03.87-2.4,1.06-3.42.18-.95.68-1.81,1.43-2.42"/>
  <path class="cls-1" d="M34,16.14s2.09,2.83,5.63,1.79"/>
</svg>