<?xml version="1.0" encoding="UTF-8"?>
<svg id="_레이어_1" data-name="레이어 1" xmlns="http://www.w3.org/2000/svg" viewBox="0 0 70 70">
  <defs>
    <style>
      .cls-1 {
        fill: #246beb;
      }

      .cls-2 {
        fill: #7ab4f9;
      }
    </style>
  </defs>
  <path class="cls-1" d="M62.18,13.58c-2.63-4.47-6.84-7.64-11.86-8.94-5.02-1.3-10.24-.57-14.71,2.06-3.96,2.33-6.98,6.01-8.48,10.34-.18.51.09,1.06.6,1.24.51.17,1.06-.09,1.24-.6,1.36-3.9,4.07-7.21,7.63-9.31,4.02-2.37,8.72-3.03,13.23-1.86,4.51,1.17,8.3,4.03,10.67,8.04,4.88,8.3,2.11,19.02-6.19,23.9-3.16,1.86-6.75,2.67-10.38,2.35-.53-.05-1,.34-1.05.88-.05.53.35,1.01.88,1.05.57.05,1.15.08,1.73.08,3.43,0,6.83-.93,9.81-2.68,9.22-5.43,12.3-17.34,6.88-26.56Z"/>
  <path class="cls-1" d="M55.25,44.63l-2.51-4.26c-.27-.46-.87-.62-1.33-.34-.46.27-.62.87-.34,1.33l2.51,4.26c.17.3.5.48.84.48.17,0,.34-.05.49-.13.46-.27.62-.87.34-1.33Z"/>
  <path class="cls-1" d="M60.35,42.09l-2.51-4.26c-.27-.46-.87-.62-1.33-.34-.46.27-.62.87-.34,1.33l2.51,4.26c.17.3.5.48.84.48.17,0,.34-.05.49-.13.46-.27.62-.87.34-1.33Z"/>
  <path class="cls-1" d="M68.69,52.4l-5.59-9.49c-.42-.71-1.09-1.22-1.89-1.43-.8-.21-1.63-.09-2.34.33l-4.5,2.65c-.71.42-1.22,1.09-1.43,1.89-.21.8-.09,1.63.33,2.34l5.59,9.49c1.02,1.73,2.91,2.81,4.93,2.81,1.01,0,2.01-.27,2.88-.79,1.31-.77,2.25-2.01,2.63-3.49.38-1.48.17-3.01-.61-4.32ZM60.53,57.2l-5.59-9.49c-.16-.26-.2-.57-.12-.87.08-.3.26-.55.53-.7l4.5-2.65c.18-.1.38-.16.58-.16.1,0,.19.01.29.04.3.08.55.26.7.53l5.59,9.49c.51.87.65,1.88.4,2.85-.25.97-.87,1.79-1.73,2.3-.87.51-1.88.65-2.85.4-.97-.25-1.79-.87-2.3-1.73Z"/>
  <path class="cls-2" d="M40.26,42.68c-1.88-2.45-5.12-3.16-6.92-6.34-1.48-2.61-1.92-5.42-2.88-8.07,2.88-3.46,4.56-6.92,2.88-6.92h-15.56c-1.73,0,2.31,5.76,4.03,6.34-.59,2.14-.47,4.62-1.73,6.92-1.28,2.34-5.76,5.19-7.49,7.49-3.7,4.93-4.03,8.67-4.03,10.95,0,2.91,3.06,8.2,6.92,10.37,3.74,2.11,8.24,1.15,11.53,1.15s8.3.36,11.53-1.73c3.65-2.35,5.19-7.34,5.19-10.37,0-1.82-.95-6.53-3.46-9.8ZM26.15,60.73c-5.28-.19-9.41-4.63-9.22-9.91.19-5.28,4.63-9.41,9.91-9.22,5.28.19,9.41,4.63,9.22,9.91-.19,5.28-4.63,9.41-9.91,9.22Z"/>
  <path class="cls-1" d="M26.47,58.4s-.02,0-.03,0c-.46-.02-.82-.4-.8-.86l.02-.7c.02-.46.4-.84.86-.8.46.02.82.4.8.86l-.02.7c-.02.45-.39.8-.83.8Z"/>
  <path class="cls-1" d="M26.25,46.69s-.02,0-.03,0c-.46-.02-.82-.4-.8-.86l.03-.75c.02-.46.4-.82.86-.8.46.02.82.4.8.86l-.03.75c-.02.45-.39.8-.83.8Z"/>
  <path class="cls-1" d="M26.2,56.95c-1.95,0-3.24-1.31-3.59-1.72-.3-.35-.26-.87.09-1.17.35-.3.87-.26,1.17.09.17.2,1.11,1.19,2.42,1.14.69-.02,1.83-.34,2.11-1.09.18-.48.04-1.16-.33-1.64-.45-.57-1.15-.69-1.97-.83-.95-.16-2.13-.35-2.87-1.44-.6-.89-.72-2.12-.28-3.08.66-1.44,2.38-1.96,3.69-1.82,1.57.16,2.52,1.22,2.86,1.67.27.37.2.89-.17,1.17-.37.28-.89.2-1.17-.17-.16-.21-.75-.91-1.69-1-.76-.07-1.72.22-2.01.86-.2.43-.14,1.04.14,1.45.32.47.88.59,1.76.73.97.16,2.17.36,3.01,1.44.74.94.96,2.22.58,3.24-.57,1.53-2.3,2.13-3.61,2.17-.05,0-.1,0-.16,0Z"/>
  <path class="cls-1" d="M52.84,63.94c-.56,0-1.02.46-1.02,1.02s.46,1.02,1.02,1.02,1.02-.46,1.02-1.02-.46-1.02-1.02-1.02Z"/>
  <path class="cls-1" d="M31.03,20.11h-13.53c-.28,0-.55.12-.73.34-.18.21-.27.5-.23.77.29,2.04.71,3.48,1.29,4.41.87,1.4,2.13,2.38,2.89,2.96l.22.17c.17.14.38.21.6.21.3,0,.58-.14.77-.37.33-.42.26-1.03-.17-1.37l-.23-.18c-.69-.53-1.74-1.34-2.42-2.45-.33-.53-.61-1.39-.83-2.55h12.39c.54,0,.97-.44.97-.97s-.44-.97-.97-.97Z"/>
  <path class="cls-1" d="M34.99,20.63c-.16-.21-.38-.34-.64-.38-.26-.04-.51.03-.72.18-.21.16-.34.38-.38.64-.25,1.75-.59,2.98-1.02,3.66-.69,1.11-1.73,1.92-2.43,2.45l-.23.18c-.42.33-.5.94-.16,1.36.19.24.46.37.77.37.22,0,.43-.07.6-.21l.22-.17c.8-.62,2.02-1.56,2.89-2.96.57-.93,1-2.37,1.29-4.41.04-.26-.03-.51-.18-.72Z"/>
  <path class="cls-1" d="M22.74,64.05c-4.51,0-8.52-1.65-10.72-4.41-2.32-2.9-2.6-7.62-1.68-10.79,1.3-4.48,4.5-7.57,7.77-10.24,2.83-2.31,4.45-5.63,4.45-9.12v-1.2c0-.54-.44-.97-.97-.97s-.97.44-.97.97v1.2c0,2.9-1.36,5.67-3.74,7.61-3.51,2.87-6.96,6.21-8.4,11.2-1.02,3.53-.82,8.96,2.03,12.54,2.57,3.22,7.14,5.14,12.24,5.14.54,0,.97-.44.97-.97s-.44-.97-.97-.97Z"/>
  <path class="cls-1" d="M14.74,28.21c-.54,0-.97.44-.97.97,0,3.16-2.35,5.74-4.31,7.35-3.51,2.87-6.96,6.21-8.4,11.2-1.02,3.53-.83,8.96,2.03,12.54.9,1.13,2.03,2.1,3.36,2.88.15.09.32.14.49.14.34,0,.66-.18.84-.48.13-.22.17-.48.1-.74-.06-.25-.22-.46-.45-.59-1.13-.67-2.08-1.48-2.83-2.42-2.32-2.9-2.6-7.62-1.68-10.79,1.3-4.48,4.5-7.57,7.77-10.24,3.29-2.69,5.03-5.75,5.03-8.86,0-.54-.44-.97-.97-.97Z"/>
  <path class="cls-1" d="M15.17,28.24c-1.65-.83-3.52-2.82-3.97-5.08h3.17c.54,0,.97-.44.97-.97s-.44-.97-.97-.97h-4.24c-.54,0-.97.44-.97.97,0,3.39,2.65,6.54,5.15,7.79.14.07.28.1.43.1.37,0,.7-.21.87-.54.24-.48.04-1.06-.43-1.3Z"/>
  <path class="cls-1" d="M43.78,48.31c-1.44-4.99-4.86-8.33-8.34-11.2-2.32-1.91-3.71-6.07-3.71-8.98,0-.54-.44-.97-.97-.97s-.97.44-.97.97c0,3.32,1.55,8.12,4.42,10.48,3.24,2.67,6.42,5.76,7.71,10.24.91,3.16.63,7.89-1.67,10.79-2.19,2.76-6.16,4.41-10.64,4.41-.54,0-.97.44-.97.97s.44.97.97.97c5.07,0,9.61-1.92,12.17-5.14,2.83-3.58,3.03-9.01,2.02-12.54Z"/>
  <path class="cls-1" d="M30.47,27.33h-8.33c-.54,0-.97.44-.97.97s.44.97.97.97h8.33c.54,0,.97-.44.97-.97s-.44-.97-.97-.97Z"/>
  <path class="cls-1" d="M48.8,63.98H9.93c-.54,0-.97.44-.97.97s.44.97.97.97h38.87c.54,0,.97-.44.97-.97s-.44-.97-.97-.97Z"/>
  <path class="cls-1" d="M52.37,19.31c-.53-.08-1.02.3-1.1.83-.48,3.4-2.49,5.87-4.79,5.87s-4.31-2.47-4.79-5.87c-.08-.54-.56-.9-1.1-.83-.53.07-.9.57-.83,1.1.63,4.44,3.39,7.54,6.71,7.54s6.08-3.1,6.71-7.54c.07-.53-.3-1.02-.83-1.1Z"/>
  <path class="cls-2" d="M46.4,35.76c3.11,0,5.98-1.05,8.27-2.8-.78-2.97-2.8-4.25-4.38-4.8-1.95,1.99-5.84,1.99-7.78,0-1.58.55-3.6,1.83-4.38,4.8,2.29,1.76,5.16,2.8,8.27,2.8Z"/>
  <path class="cls-1" d="M53.42,18.99c-.19-.5-.74-.76-1.25-.58-.16.06-3.98,1.4-7.91-2.04-.33-.29-.82-.32-1.18-.08l-3.33,2.22c-.22.14-.36.36-.41.62-.05.25,0,.51.14.73.3.45.9.57,1.35.27l2.73-1.82c2.48,1.94,4.92,2.34,6.53,2.34s2.64-.38,2.76-.42c.5-.19.75-.75.57-1.25Z"/>
  <path class="cls-1" d="M46.4,10.93c-4.06,0-7.36,3.71-7.36,8.27,0,.54.44.97.97.97s.97-.44.97-.97c0-3.49,2.43-6.33,5.41-6.33s5.41,2.84,5.41,6.33c0,.54.44.97.97.97s.97-.44.97-.97c0-4.56-3.3-8.27-7.36-8.27Z"/>
  <path class="cls-1" d="M43.32,12.68c-.15-.22-.37-.36-.62-.41-1.59-.31-4.94-.1-6.28,2.92-.75,1.69-.5,3.14-.22,4.81.28,1.66.63,3.74.08,6.87-.09.53.26,1.03.79,1.13.06,0,.11.01.17.01.47,0,.87-.34.96-.8.61-3.46.23-5.72-.08-7.53-.26-1.53-.43-2.54.08-3.69,1.04-2.35,4.01-1.82,4.13-1.8.52.1,1.03-.24,1.14-.77.05-.25,0-.51-.15-.73Z"/>
  <path class="cls-1" d="M56.6,15.19c-1.33-3.02-4.69-3.23-6.28-2.92-.52.1-.87.61-.77,1.14.05.25.19.47.41.62.22.15.47.2.72.15.32-.06,3.13-.48,4.14,1.8.51,1.16.34,2.17.08,3.7-.31,1.81-.69,4.07-.08,7.53.08.47.48.8.96.8.06,0,.11,0,.17-.01.53-.09.88-.6.79-1.13-.55-3.13-.2-5.21.08-6.87.28-1.67.53-3.11-.22-4.81Z"/>
</svg>