<?xml version="1.0" encoding="UTF-8"?>
<svg id="_레이어_1" data-name="레이어 1" xmlns="http://www.w3.org/2000/svg" viewBox="0 0 70 70">
  <defs>
    <style>
      .cls-1 {
        fill: #246beb;
      }

      .cls-2 {
        fill: #7ab4f9;
      }

      .cls-3 {
        fill: #e4eef6;
      }
    </style>
  </defs>
  <path class="cls-2" d="M20.45,42.11l-7.54.29-2.69-2.85V4.43h-2.12c-1.16,0-2.09.94-2.09,2.09v34.8c.23,2.9,2.58,5.25,5.48,5.23h13.86l-4.9-4.45Z"/>
  <path class="cls-2" d="M37.31,43.76l-.2.06-5.69-2.14-2.75.11-1.45,1.16.6,1.81-1.35,1.81h.26c4,.27,4.85.22,6.82,1.7,2.85,2.14,5.31,1.63,6.96.5.25-.25.55-.46.87-.66l-4.07-4.34Z"/>
  <path class="cls-2" d="M66.11,4.43h-1.73v35.12l-2.36,2.8h-19.41l4.77,4.22c.08,0,.14,0,.14,0h15.82c2.9,0,5.25-2.35,5.25-5.25V6.92c0-1.37-1.11-2.49-2.49-2.49Z"/>
  <path class="cls-1" d="M61.67,42.95h-14.44c-.5,0-.9-.4-.9-.9s.4-.9.9-.9h14.44c1.12,0,1.5-.38,1.5-1.5V4.87c0-.58-.47-1.05-1.05-1.05h-18.51c-2.29,0-3.62.48-5.12,1.89v11.05c0,.5-.4.9-.9.9s-.9-.4-.9-.9V5.33c0-.24.1-.47.26-.64,1.95-1.95,3.75-2.67,6.66-2.67h18.51c1.57,0,2.85,1.28,2.85,2.85v34.76c0,2.1-1.21,3.31-3.31,3.31Z"/>
  <path class="cls-1" d="M15.33,42.95h-1.81c-2.1,0-3.31-1.21-3.31-3.31V4.73c0-1.54,1.23-2.71,2.85-2.71h18.51c2.91,0,4.71.72,6.66,2.67.35.35.35.92,0,1.28-.35.35-.92.35-1.28,0-1.6-1.6-2.96-2.14-5.38-2.14H13.07c-.5,0-1.05.28-1.05.9v34.91c0,1.12.38,1.5,1.5,1.5h1.81c.5,0,.9.4.9.9s-.4.9-.9.9Z"/>
  <path class="cls-3" d="M34.68,59.59H8.02c-1.45,0-2.62,1.17-2.62,2.62h31.9c0-1.45-1.17-2.62-2.62-2.62Z"/>
  <path class="cls-3" d="M29.41,54.92H13.29c-1.37,0-2.47,1.11-2.47,2.47h21.06c0-1.37-1.11-2.47-2.47-2.47Z"/>
  <path class="cls-1" d="M68.29,63.41H1.49c-.5,0-.9-.4-.9-.9s.4-.9.9-.9h66.81c.5,0,.9.4.9.9s-.4.9-.9.9Z"/>
  <path class="cls-1" d="M37.6,63.41H5.1c-.5,0-.9-.4-.9-.9v-2.27c0-2.23,1.82-4.05,4.05-4.05h26.21c2.23,0,4.05,1.81,4.05,4.05v2.27c0,.5-.4.9-.9.9ZM6,61.61h30.7v-1.37c0-1.24-1.01-2.24-2.24-2.24H8.24c-1.24,0-2.24,1.01-2.24,2.24v1.37Z"/>
  <path class="cls-1" d="M32.18,57.99H10.52c-.5,0-.9-.4-.9-.9v-1.23c0-2.14,1.74-3.88,3.88-3.88h15.7c2.14,0,3.88,1.74,3.88,3.88v1.23c0,.5-.4.9-.9.9ZM11.42,56.19h19.86v-.33c0-1.15-.93-2.08-2.08-2.08h-15.7c-1.15,0-2.08.93-2.08,2.08v.33Z"/>
  <path class="cls-3" d="M38.65,22.49l5.42,5.42-2.41,3.01-1.2-.6-3.12,2.62c.84.84.8,2.21-.08,3.01l-.94.84,18.21,16.1c1.35,1.21,1.41,3.31.12,4.59-1.28,1.28-3.38,1.23-4.59-.12l-16.76-17.87-1,.9c-.8.71-1.28.89-2.07.16l-3.01,2.41.6,1.81-1.81,2.41-6.62-6.02,19.26-18.66Z"/>
  <path class="cls-1" d="M30.92,41.82c-1.01,0-2.02-.38-2.79-1.15l-5.25-5.25c-1.54-1.54-1.54-4.04,0-5.58l4.05-4.05c1.54-1.54,4.04-1.54,5.58,0l5.24,5.25c1.54,1.54,1.54,4.04,0,5.58l-4.05,4.05c-.77.77-1.78,1.15-2.79,1.15ZM29.72,26.44c-.55,0-1.1.21-1.51.63l-4.05,4.05c-.83.83-.83,2.19,0,3.03l5.25,5.25c.83.83,2.19.84,3.03,0l4.05-4.05c.83-.83.83-2.19,0-3.03l-5.24-5.24c-.42-.42-.97-.63-1.51-.63Z"/>
  <path class="cls-1" d="M41.66,31.72c-.61,0-1.23-.23-1.69-.7l-7.44-7.44c-.45-.45-.7-1.05-.7-1.69s.25-1.24.7-1.69l.87-.87c.45-.45,1.05-.7,1.69-.7s1.24.25,1.69.7l7.44,7.44h0c.93.93.93,2.45,0,3.39l-.87.87c-.47.47-1.08.7-1.69.7ZM35.09,20.43c-.16,0-.31.06-.42.17l-.87.87c-.11.11-.17.26-.17.42s.06.31.17.42l7.44,7.44c.23.23.61.23.83,0l.87-.87c.23-.23.23-.6,0-.83l-7.44-7.44c-.11-.11-.26-.17-.42-.17Z"/>
  <path class="cls-1" d="M25.54,47.83c-.61,0-1.23-.23-1.69-.7l-7.44-7.44c-.45-.45-.7-1.05-.7-1.69s.25-1.24.7-1.69l.87-.87c.45-.45,1.05-.7,1.69-.7s1.24.25,1.69.7l7.44,7.44h0c.93.93.93,2.45,0,3.39l-.87.87c-.47.47-1.08.7-1.69.7ZM18.98,36.54c-.16,0-.31.06-.42.17l-.87.87c-.11.11-.17.26-.17.42s.06.31.17.42l7.44,7.44c.23.23.61.23.83,0l.87-.87c.23-.23.23-.61,0-.83l-7.44-7.44c-.11-.11-.26-.17-.42-.17Z"/>
  <path class="cls-1" d="M52.53,59.53s-.08,0-.11,0c-1.14-.03-2.18-.51-2.94-1.36l-16.38-18.24c-.32-.36-.31-.9.03-1.24l2.65-2.65c.34-.34.88-.35,1.24-.03l18.24,16.38c.85.76,1.33,1.81,1.36,2.94.03,1.14-.4,2.21-1.2,3.01h0c-.78.78-1.8,1.2-2.9,1.2ZM35.01,39.36l15.81,17.61c.43.47,1.01.74,1.65.76.62,0,1.24-.22,1.69-.67h0c.45-.45.69-1.05.67-1.69-.02-.64-.29-1.22-.76-1.65l-17.61-15.81-1.44,1.44Z"/>
  <path class="cls-1" d="M38.08,33.53c-.23,0-.46-.09-.64-.26-.35-.35-.35-.92,0-1.28l2.39-2.39c.35-.35.92-.35,1.28,0s.35.92,0,1.28l-2.39,2.39c-.18.18-.41.26-.64.26Z"/>
  <path class="cls-1" d="M30.92,26.37c-.23,0-.46-.09-.64-.26-.35-.35-.35-.92,0-1.28l2.39-2.39c.35-.35.92-.35,1.28,0s.35.92,0,1.28l-2.39,2.39c-.18.18-.41.26-.64.26Z"/>
  <path class="cls-1" d="M20.17,37.11c-.23,0-.46-.09-.64-.26-.35-.35-.35-.92,0-1.28l2.39-2.39c.35-.35.92-.35,1.28,0s.35.92,0,1.28l-2.39,2.39c-.18.18-.41.26-.64.26Z"/>
  <path class="cls-1" d="M27.33,44.28c-.23,0-.46-.09-.64-.26-.35-.35-.35-.92,0-1.28l2.39-2.39c.35-.35.92-.35,1.28,0s.35.92,0,1.28l-2.39,2.39c-.18.18-.41.26-.64.26Z"/>
  <circle class="cls-1" cx="58.66" cy="67.02" r=".96"/>
  <path class="cls-1" d="M54.45,67.62H8.71c-.5,0-.9-.4-.9-.9s.4-.9.9-.9h45.74c.5,0,.9.4.9.9s-.4.9-.9.9Z"/>
  <path class="cls-1" d="M56.86,12.25h-12.04c-.5,0-.9-.4-.9-.9s.4-.9.9-.9h12.04c.5,0,.9.4.9.9s-.4.9-.9.9Z"/>
  <path class="cls-1" d="M57.46,35.12h-12.04c-.5,0-.9-.4-.9-.9s.4-.9.9-.9h12.04c.5,0,.9.4.9.9s-.4.9-.9.9Z"/>
  <path class="cls-1" d="M53.25,18.27h-8.43c-.5,0-.9-.4-.9-.9s.4-.9.9-.9h8.43c.5,0,.9.4.9.9s-.4.9-.9.9Z"/>
  <path class="cls-1" d="M56.26,29.11h-7.22c-.5,0-.9-.4-.9-.9s.4-.9.9-.9h7.22c.5,0,.9.4.9.9s-.4.9-.9.9Z"/>
  <path class="cls-1" d="M30.38,12.25h-12.04c-.5,0-.9-.4-.9-.9s.4-.9.9-.9h12.04c.5,0,.9.4.9.9s-.4.9-.9.9Z"/>
  <path class="cls-1" d="M26.77,18.27h-8.43c-.5,0-.9-.4-.9-.9s.4-.9.9-.9h8.43c.5,0,.9.4.9.9s-.4.9-.9.9Z"/>
</svg>