<?xml version="1.0" encoding="UTF-8"?>
<svg id="_레이어_1" data-name="레이어 1" xmlns="http://www.w3.org/2000/svg" viewBox="0 0 70 70">
  <defs>
    <style>
      .cls-1 {
        fill: #246beb;
      }

      .cls-2 {
        fill: #7ab4f9;
      }
    </style>
  </defs>
  <g>
    <polygon class="cls-2" points="48.37 13.7 26.46 1.52 3.93 13.7 3.93 18.57 26.61 6.39 48.37 18.57 48.37 13.7"/>
    <path class="cls-1" d="M36.8,69.39H4.54c-.5,0-.91-.41-.91-.91v-4.26c0-.5.41-.91.91-.91h28.61c.5,0,.91.41.91.91s-.41.91-.91.91H5.46v2.43h31.35c.5,0,.91.41.91.91s-.41.91-.91.91Z"/>
    <path class="cls-1" d="M6.37,65.13c-.5,0-.91-.41-.91-.91V17.96c0-.5.41-.91.91-.91s.91.41.91.91v46.26c0,.5-.41.91-.91.91Z"/>
    <path class="cls-1" d="M45.93,32.84c-.5,0-.91-.41-.91-.91v-14c0-.5.41-.91.91-.91s.91.41.91.91v14c0,.5-.41.91-.91.91Z"/>
    <path class="cls-1" d="M48.37,19.48c-.15,0-.31-.04-.45-.12L26.6,7.43,4.37,19.37c-.28.15-.63.14-.9-.02-.28-.16-.44-.46-.44-.78v-4.87c0-.34.18-.64.48-.8L26.02.72c.27-.15.61-.15.88,0l21.91,12.17c.29.16.47.47.47.8v4.87c0,.32-.17.62-.45.79-.14.08-.3.13-.46.13ZM4.85,14.24v2.8L26.18,5.59c.27-.15.61-.14.88,0l20.4,11.41v-2.78L26.45,2.56,4.85,14.24Z"/>
    <path class="cls-1" d="M17.93,34.09h-5.48c-.5,0-.91-.41-.91-.91v-6.09c0-.5.41-.91.91-.91h5.48c.5,0,.91.41.91.91v6.09c0,.5-.41.91-.91.91ZM13.37,32.26h3.65v-4.26h-3.65v4.26Z"/>
    <path class="cls-1" d="M17.93,45.65h-5.48c-.5,0-.91-.41-.91-.91v-6.09c0-.5.41-.91.91-.91h5.48c.5,0,.91.41.91.91v6.09c0,.5-.41.91-.91.91ZM13.37,43.83h3.65v-4.26h-3.65v4.26Z"/>
    <path class="cls-1" d="M29.26,34.13h-5.48c-.5,0-.91-.41-.91-.91v-6.09c0-.5.41-.91.91-.91h5.48c.5,0,.91.41.91.91v6.09c0,.5-.41.91-.91.91ZM24.69,32.3h3.65v-4.26h-3.65v4.26Z"/>
    <path class="cls-1" d="M40.21,34.13h-5.48c-.5,0-.91-.41-.91-.91v-6.09c0-.5.41-.91.91-.91h5.48c.5,0,.91.41.91.91v6.09c0,.5-.41.91-.91.91ZM35.65,32.3h3.65v-4.26h-3.65v4.26Z"/>
  </g>
  <path class="cls-2" d="M49.99,52.06l-2.31-2.13c2.06-8.06,5.84-12.89,9.88-14.79,1.74-.52,3.65-1.73,5.29-3.51,3.21-3.48,4.18-7.81,2.17-9.66-.03-.03-.06-.04-.09-.06-.03-.03-.04-.06-.07-.08-2.01-1.85-6.24-.53-9.45,2.96-1.64,1.78-2.69,3.78-3.07,5.56-1.56,4.19-6.07,8.35-13.93,11.07l-2.39-2.2c-2.17-2-5.56-1.86-7.56.31l-2.07,2.25c-.8.87-.75,2.23.12,3.03l18.68,17.2c.87.8,2.23.75,3.03-.12l2.07-2.25c2-2.17,1.86-5.56-.31-7.56Z"/>
  <path class="cls-1" d="M46.65,63.48c-.77,0-1.5-.28-2.07-.81l-18.68-17.2c-.6-.55-.95-1.31-.98-2.12-.03-.82.25-1.6.81-2.2l2.07-2.25c2.34-2.54,6.31-2.7,8.85-.36l1.98,1.83c6.68-2.41,11.23-6.05,12.84-10.28.43-2,1.59-4.1,3.27-5.92,1.66-1.8,3.64-3.13,5.57-3.73,2.11-.66,3.94-.4,5.17.72.02.02.04.04.07.07.03.02.06.05.09.07,1.22,1.13,1.63,2.93,1.15,5.09-.44,1.98-1.6,4.06-3.26,5.86-1.68,1.82-3.68,3.15-5.63,3.75-4.09,1.95-7.34,6.78-9.19,13.64l1.9,1.75c2.54,2.34,2.71,6.31.36,8.85l-2.07,2.25c-.55.6-1.31.95-2.12.98-.04,0-.09,0-.13,0ZM32.4,38.71c-1.2,0-2.39.48-3.27,1.43l-2.07,2.25c-.22.24-.34.56-.32.89.01.33.15.63.4.86l18.68,17.2c.5.46,1.28.43,1.74-.07l2.07-2.25c.8-.87,1.22-2.01,1.17-3.19-.05-1.19-.56-2.28-1.43-3.08h0l-2.31-2.13c-.25-.23-.35-.57-.27-.9,1.97-7.71,5.66-13.18,10.38-15.39.04-.02.08-.04.13-.05,1.64-.49,3.42-1.67,4.87-3.26,1.45-1.57,2.45-3.35,2.82-5.02.33-1.47.13-2.64-.56-3.31-.03-.02-.06-.04-.08-.06-.03-.02-.06-.05-.08-.08-.01-.02-.04-.05-.06-.07-.73-.64-1.91-.74-3.35-.29-1.63.51-3.33,1.66-4.77,3.22-1.46,1.58-2.49,3.45-2.84,5.13,0,.05-.02.09-.04.13-1.82,4.89-6.97,9.01-14.49,11.61-.32.11-.67.04-.92-.19l-2.39-2.2c-.85-.78-1.93-1.17-3.01-1.17ZM64.24,22.5s0,0,0,0c0,0,0,0,0,0Z"/>
  <path class="cls-2" d="M32.65,44.2h0c.73,0,1.33.6,1.33,1.33v22.44c0,.73-.6,1.33-1.33,1.33h0c-.73,0-1.33-.6-1.33-1.33v-22.44c0-.73.6-1.33,1.33-1.33Z" transform="translate(-31.14 42) rotate(-47.07)"/>
</svg>