<?xml version="1.0" encoding="UTF-8"?>
<svg id="_레이어_1" data-name="레이어 1" xmlns="http://www.w3.org/2000/svg" viewBox="0 0 55 50">
  <defs>
    <style>
      .cls-1 {
        stroke-width: .6px;
      }

      .cls-1, .cls-2 {
        stroke: #373f57;
      }

      .cls-1, .cls-2, .cls-3 {
        fill: #373f57;
      }

      .cls-4 {
        stroke-width: 2px;
      }

      .cls-4, .cls-5 {
        fill: none;
        stroke: #3075f0;
        stroke-linecap: round;
      }

      .cls-5 {
        stroke-width: 4px;
      }

      .cls-6 {
        fill: #b0e869;
      }
    </style>
  </defs>
  <path class="cls-6" d="M29,23.31c0,6.08-4.92,11-11,11s-11-4.92-11-11,4.92-11,11-11,11,4.92,11,11Z"/>
  <path class="cls-1" d="M36.36,44.69H9.74c-.41,0-.74-.33-.74-.74v-1.86c0-1.83,1.49-3.31,3.31-3.31h21.47c1.83,0,3.31,1.49,3.31,3.31v1.86c0,.41-.33.74-.74.74h0ZM10.48,43.21h25.14v-1.12c0-1.01-.82-1.83-1.84-1.83H12.31c-1.01,0-1.84.82-1.84,1.83v1.12h0Z"/>
  <path class="cls-2" d="M31.76,24.37c-.8,0-1.59-.3-2.2-.91l-4.13-4.13c-1.21-1.21-1.21-3.18,0-4.4l3.19-3.19c1.21-1.21,3.18-1.21,4.4,0l4.13,4.13c1.21,1.21,1.21,3.18,0,4.4l-3.19,3.19c-.61.61-1.4.91-2.2.91ZM30.82,12.25c-.43,0-.86.17-1.19.49l-3.19,3.19c-.66.66-.66,1.73,0,2.39l4.13,4.13c.66.66,1.73.66,2.39,0l3.19-3.19c.66-.66.66-1.73,0-2.39l-4.13-4.13c-.33-.33-.76-.49-1.19-.49h0Z"/>
  <path class="cls-1" d="M40.91,15.84c-.49,0-.99-.19-1.36-.56l-5.99-5.98c-.36-.36-.56-.85-.56-1.36s.2-1,.56-1.36l.7-.7c.36-.36.85-.56,1.36-.56s1,.2,1.36.56l5.99,5.98c.75.75.75,1.98,0,2.73l-.7.7c-.38.38-.87.56-1.36.56h0ZM35.62,6.76c-.13,0-.25.05-.33.14l-.7.7c-.09.09-.14.21-.14.33s.05.25.14.33l5.99,5.98c.18.18.49.18.67,0l.7-.7c.18-.18.18-.48,0-.67l-5.99-5.98c-.09-.09-.21-.14-.33-.14h0Z"/>
  <path class="cls-1" d="M26.34,29.09c-.46,0-.92-.18-1.26-.52l-5.56-5.56c-.34-.34-.52-.79-.52-1.26s.18-.93.52-1.26l.65-.65c.34-.34.79-.52,1.26-.52s.93.18,1.26.52l5.56,5.56c.7.7.7,1.83,0,2.53l-.65.65c-.35.35-.81.52-1.26.52h0ZM21.44,20.66c-.12,0-.23.04-.31.13l-.65.65c-.08.08-.13.19-.13.31s.05.23.13.31l5.56,5.56c.17.17.45.17.63,0l.65-.65c.17-.17.17-.45,0-.62l-5.56-5.56c-.08-.08-.19-.13-.31-.13h0Z"/>
  <path class="cls-2" d="M48.07,36.31h-.08c-.81-.02-1.56-.34-2.11-.92l-11.71-12.28c-.23-.24-.22-.61.03-.83l1.9-1.79c.24-.23.63-.24.89-.02l13.05,11.03c.61.51.95,1.22.97,1.98.02.77-.28,1.49-.86,2.03-.56.52-1.29.81-2.07.81h0ZM35.54,22.73l11.31,11.85c.31.32.72.5,1.18.51.45,0,.88-.15,1.21-.45.32-.3.49-.71.48-1.13-.01-.43-.21-.82-.54-1.11l-12.59-10.64-1.03.97h0Z"/>
  <path class="cls-3" d="M37.2,17.6c-.16,0-.33-.06-.46-.19-.25-.25-.25-.66,0-.92l1.71-1.71c.25-.25.66-.25.92,0,.25.25.25.66,0,.92l-1.71,1.71c-.13.13-.29.19-.46.19Z"/>
  <path class="cls-3" d="M31.94,12.33c-.16,0-.33-.06-.46-.19-.25-.25-.25-.66,0-.92l1.71-1.71c.25-.25.66-.25.92,0,.25.25.25.66,0,.92l-1.71,1.71c-.13.13-.29.19-.46.19Z"/>
  <path class="cls-3" d="M23.07,20.61c-.21,0-.42-.06-.57-.19-.32-.25-.32-.66,0-.92l2.14-1.71c.32-.25.83-.25,1.14,0,.31.25.32.66,0,.92l-2.14,1.71c-.16.13-.37.19-.57.19Z"/>
  <path class="cls-3" d="M28.93,25.88c-.16,0-.33-.06-.46-.19-.25-.25-.25-.66,0-.92l1.71-1.71c.25-.25.66-.25.92,0,.25.25.25.66,0,.92l-1.71,1.71c-.13.13-.29.19-.46.19Z"/>
  <path class="cls-4" d="M8,25.31l-4,1"/>
  <path class="cls-4" d="M8,20.31l-4-2"/>
  <path class="cls-4" d="M12,16.31l-1-4"/>
  <path class="cls-5" d="M16,35.31h15"/>
</svg>