<?xml version="1.0" encoding="UTF-8"?>
<svg id="_레이어_1" data-name="레이어 1" xmlns="http://www.w3.org/2000/svg" viewBox="0 0 12 12">
  <defs>
    <style>
      .cls-1 {
        fill: #3e80eb;
      }
    </style>
  </defs>
  <path class="cls-1" d="M10.7,4.87s0-.05,0-.07C10.71,2.17,8.6.03,6,.03S1.29,2.17,1.29,4.8c0,.47.07.93.19,1.36.67,2.74,4.53,5.81,4.53,5.81,0,0,4.11-3.27,4.59-6.07.06-.24.1-.56.1-.91,0-.04,0-.07,0-.11M6,7.43c-1.47,0-2.66-1.19-2.66-2.66s1.19-2.66,2.66-2.66,2.66,1.19,2.66,2.66-1.19,2.66-2.66,2.66"/>
</svg>