<?xml version="1.0" encoding="UTF-8"?>
<svg id="_레이어_1" data-name="레이어 1" xmlns="http://www.w3.org/2000/svg" viewBox="0 0 15 15">
  <path d="M7.5,15C3.36,15,0,11.64,0,7.5S3.36,0,7.5,0s7.5,3.36,7.5,7.5-3.36,7.5-7.5,7.5ZM7.5,1.03C3.93,1.03,1.03,3.93,1.03,7.5s2.9,6.47,6.47,6.47,6.47-2.9,6.47-6.47S11.07,1.03,7.5,1.03Z"/>
  <path d="M7.5,9.06c-.86,0-1.56-.7-1.56-1.56s.7-1.56,1.56-1.56,1.56.7,1.56,1.56-.7,1.56-1.56,1.56ZM7.5,6.96c-.3,0-.54.24-.54.54s.24.54.54.54.54-.24.54-.54-.24-.54-.54-.54Z"/>
  <path d="M7.5,2.97c-.28,0-.51-.23-.51-.51V.51C6.99.23,7.22,0,7.5,0s.51.23.51.51v1.95c0,.28-.23.51-.51.51Z"/>
  <path d="M2.46,8.01H.51c-.28,0-.51-.23-.51-.51s.23-.51.51-.51h1.95c.28,0,.51.23.51.51s-.23.51-.51.51Z"/>
  <path d="M7.5,15c-.28,0-.51-.23-.51-.51v-1.95c0-.28.23-.51.51-.51s.51.23.51.51v1.95c0,.28-.23.51-.51.51Z"/>
  <path d="M14.49,8.01h-1.95c-.28,0-.51-.23-.51-.51s.23-.51.51-.51h1.95c.28,0,.51.23.51.51s-.23.51-.51.51Z"/>
</svg>