<svg width="27" height="40" viewBox="0 0 27 40" fill="none" xmlns="http://www.w3.org/2000/svg">
<path opacity="0.27" d="M19.0911 37.53C19.1216 38.4243 16.7008 39.1598 13.6837 39.1659C10.6666 39.172 8.19688 38.4528 8.1663 37.5626C8.13572 36.6723 10.5565 35.9328 13.5737 35.9267C16.5908 35.9206 19.0605 36.6356 19.0911 37.53Z" fill="white"/>
<path d="M26.2049 13.8106C26.2049 13.7415 26.217 13.6724 26.217 13.6033C26.217 6.14247 20.4689 0.0946655 13.373 0.0946655C6.27715 0.0946655 0.535156 6.14247 0.535156 13.6033C0.535156 14.941 0.722526 16.2284 1.06705 17.4468C2.89239 25.2279 13.4335 33.9259 13.4335 33.9259C13.4335 33.9259 24.6515 24.669 25.951 16.712C26.1142 16.0275 26.217 15.1231 26.217 14.1183C26.217 14.0115 26.217 13.911 26.2109 13.8106M13.373 21.0642C9.35969 21.0642 6.10791 17.6854 6.10791 13.5154C6.10791 9.34536 9.35969 5.96662 13.373 5.96662C17.3864 5.96662 20.6382 9.34536 20.6382 13.5154C20.6382 17.6854 17.3864 21.0642 13.373 21.0642Z" fill="#12426A"/>
<path d="M21.7496 13.9594C21.7661 15.6146 21.2912 17.2375 20.3848 18.6229C19.4784 20.0083 18.1813 21.0941 16.6575 21.7428C15.1337 22.3915 13.4515 22.574 11.8239 22.2673C10.1962 21.9606 8.69617 21.1786 7.51332 20.0199C6.33046 18.8612 5.51798 17.378 5.17863 15.7578C4.83927 14.1377 4.9883 12.4534 5.60683 10.9178C6.22536 9.38233 7.28562 8.06459 8.65355 7.13128C10.0215 6.19797 11.6356 5.69105 13.2919 5.67452C15.5128 5.65236 17.6515 6.51273 19.2376 8.06644C20.8237 9.62015 21.7273 11.7399 21.7496 13.9594Z" fill="white"/>
</svg>
