<?xml version="1.0" encoding="UTF-8"?>
<svg id="_레이어_1" data-name="레이어 1" xmlns="http://www.w3.org/2000/svg" viewBox="0 0 13 13">
  <defs>
    <style>
      .cls-1 {
        fill: #666;
      }
    </style>
  </defs>
  <path class="cls-1" d="M9.21,7.49H3.79v4.66h5.39s.02,0,.02,0c0,0,0-.01,0-.02v-4.63ZM9.9,9.12h1.87c.15,0,.29-.06.39-.16h0c.1-.1.16-.24.16-.39V3.66c0-.15-.06-.29-.16-.39-.1-.1-.24-.16-.39-.16H1.24c-.15,0-.29.06-.39.16-.1.1-.16.24-.16.39v4.91c0,.15.06.29.16.39h0c.1.1.24.16.39.16h1.87v-1.84c0-.13.05-.25.14-.34.09-.09.21-.14.34-.14h5.84c.13,0,.25.05.34.14.09.09.14.21.14.34v1.84ZM3.79,2.43h5.42V.85H3.79v1.58ZM11.08,3.88c.27,0,.49.22.49.5s-.22.5-.49.5-.5-.22-.5-.5.22-.5.5-.5ZM4.89,11.18c-.19,0-.34-.15-.34-.34s.15-.34.34-.34h3.22c.19,0,.34.15.34.34s-.15.34-.34.34h-3.22ZM4.89,9.34c-.19,0-.34-.15-.34-.34s.15-.34.34-.34h3.22c.19,0,.34.15.34.34s-.15.34-.34.34h-3.22ZM3.1,9.81h-1.87c-.34,0-.65-.14-.87-.36h0c-.23-.23-.36-.53-.36-.87V3.66c0-.34.14-.65.36-.87.22-.22.53-.36.87-.36h1.87V.64c0-.13.05-.25.14-.34h0c.09-.09.21-.14.34-.14h5.84c.13,0,.25.05.34.14.09.09.14.21.14.34v1.79h1.87c.34,0,.65.14.87.36.22.22.36.53.36.87v4.91c0,.34-.14.65-.36.87h0c-.22.22-.53.36-.87.36h-1.87v2.31c0,.2-.08.38-.21.51-.13.13-.31.21-.51.21H3.58c-.13,0-.25-.05-.34-.14-.09-.09-.14-.21-.14-.34v-2.55Z"/>
</svg>