<?xml version="1.0" encoding="UTF-8"?>
<svg id="_레이어_1" data-name="레이어 1" xmlns="http://www.w3.org/2000/svg" viewBox="0 0 28 28">
  <defs>
    <style>
      .cls-1 {
        fill: #fff;
      }
    </style>
  </defs>
  <path class="cls-1" d="M11.86,3.49c4.64,0,8.42,3.78,8.42,8.42s-3.78,8.42-8.42,8.42S3.45,16.55,3.45,11.91,7.22,3.49,11.86,3.49M11.86.25C5.42.25.2,5.47.2,11.91s5.22,11.66,11.66,11.66,11.66-5.22,11.66-11.66S18.3.25,11.86.25h0Z"/>
  <path class="cls-1" d="M26.17,27.75c-.41,0-.83-.16-1.15-.47l-6.85-6.85c-.63-.63-.63-1.66,0-2.29s1.66-.63,2.29,0l6.85,6.85c.63.63.63,1.66,0,2.29-.32.32-.73.47-1.15.47Z"/>
</svg>