<?xml version="1.0" encoding="UTF-8"?>
<svg id="_레이어_1" data-name="레이어 1" xmlns="http://www.w3.org/2000/svg" viewBox="0 0 20 20">
  <defs>
    <style>
      .cls-1 {
        fill: #2d2d2d;
      }
    </style>
  </defs>
  <path class="cls-1" d="M19.42,14.31c0,2.71-1.9,4.97-4.44,5.52l-.6-1.8c1.13-.19,2.1-.88,2.65-1.84h-2.32c-1.04,0-1.88-.84-1.88-1.88v-3.77c0-1.04.84-1.88,1.88-1.88h2.77c-.46-3.72-3.64-6.6-7.48-6.6s-7.02,2.88-7.48,6.6h2.77c1.04,0,1.88.84,1.88,1.88v3.77c0,1.04-.84,1.88-1.88,1.88h-2.83c-1.04,0-1.88-.84-1.88-1.88v-4.71C.58,4.39,4.8.17,10,.17s9.42,4.22,9.42,9.42v.94h0v3.77h0ZM17.54,14.31v-3.77h-2.83v3.77h2.83ZM2.46,10.54v3.77h2.83v-3.77h-2.83Z"/>
</svg>