<svg width="14" height="12" viewBox="0 0 14 12" fill="none" xmlns="http://www.w3.org/2000/svg">
<path d="M6.33426 0.548934C6.54381 -0.095984 7.45619 -0.0959821 7.66574 0.548935L8.63895 3.54418C8.73266 3.83259 9.00143 4.02786 9.30469 4.02786H12.4541C13.1322 4.02786 13.4141 4.8956 12.8655 5.29418L10.3176 7.14534C10.0723 7.32359 9.96962 7.63954 10.0633 7.92796L11.0365 10.9232C11.2461 11.5681 10.508 12.1044 9.95935 11.7058L7.41145 9.85466C7.16611 9.67641 6.83389 9.67641 6.58855 9.85466L4.04065 11.7058C3.49205 12.1044 2.75391 11.5681 2.96346 10.9232L3.93667 7.92796C4.03038 7.63954 3.92772 7.32359 3.68238 7.14534L1.13448 5.29418C0.585876 4.89559 0.86782 4.02786 1.54593 4.02786H4.69531C4.99857 4.02786 5.26734 3.83259 5.36105 3.54418L6.33426 0.548934Z" fill="#373F57"/>
</svg>
