<?xml version="1.0" encoding="UTF-8"?>
<svg id="_레이어_1" data-name="레이어 1" xmlns="http://www.w3.org/2000/svg" viewBox="0 0 20 20">
  <defs>
    <style>
      .cls-1 {
        fill: #2a5699;
      }

      .cls-2 {
        fill: #fff;
      }
    </style>
  </defs>
  <rect class="cls-1" x="0" width="20" height="20" rx="3" ry="3"/>
  <path class="cls-2" d="M4.46,5.44h2.23l.58,4.16c.12.95.24,1.91.37,2.89h.05c.17-.98.35-1.95.54-2.89l.93-4.16h1.85l.94,4.16c.18.93.34,1.91.53,2.89h.06c.11-.98.23-1.95.34-2.89l.6-4.16h2.07l-1.58,9.12h-2.75l-.82-3.97c-.15-.7-.27-1.43-.35-2.12h-.05c-.12.69-.23,1.42-.37,2.12l-.8,3.97h-2.71l-1.65-9.12Z"/>
</svg>