<svg width="20" height="20" viewBox="0 0 20 20" fill="none" xmlns="http://www.w3.org/2000/svg">
<g clip-path="url(#clip0_4562_16712)">
<path d="M17 0.100006H3C1.34315 0.100006 0 1.44315 0 3.10001V17.1C0 18.7569 1.34315 20.1 3 20.1H17C18.6569 20.1 20 18.7569 20 17.1V3.10001C20 1.44315 18.6569 0.100006 17 0.100006Z" fill="#0359EF"/>
<path d="M6.11018 6.26001L13.6802 6.26001V4.95001L6.11018 4.95001V6.26001Z" fill="white"/>
<path d="M9.19019 3.54V6.06H10.5002V3.54H9.19019Z" fill="white"/>
<path d="M5.82996 15.6L13.96 15.6V14.29H5.82996V15.6Z" fill="white"/>
<path d="M5.83008 12.52V15.41H7.14008V12.52H5.83008Z" fill="white"/>
<path d="M9.7701 13.79C10.2782 13.79 10.6901 13.3781 10.6901 12.87C10.6901 12.3619 10.2782 11.95 9.7701 11.95C9.262 11.95 8.8501 12.3619 8.8501 12.87C8.8501 13.3781 9.262 13.79 9.7701 13.79Z" fill="white"/>
<path d="M9.72016 11.67C8.31016 11.67 7.16016 10.52 7.16016 9.11002C7.16016 7.70002 8.31016 6.55002 9.72016 6.55002C11.1302 6.55002 12.2802 7.70002 12.2802 9.11002C12.2802 10.52 11.1302 11.67 9.72016 11.67ZM9.72016 7.79002C9.00016 7.79002 8.41016 8.38002 8.41016 9.10002C8.41016 9.82002 9.00016 10.41 9.72016 10.41C10.4402 10.41 11.0302 9.82002 11.0302 9.10002C11.0302 8.38002 10.4402 7.79002 9.72016 7.79002Z" fill="white"/>
</g>
<defs>
<clipPath id="clip0_4562_16712">
<rect width="20" height="20" fill="white"/>
</clipPath>
</defs>
</svg>
