<?xml version="1.0" encoding="UTF-8"?>
<svg id="_레이어_1" data-name="레이어 1" xmlns="http://www.w3.org/2000/svg" viewBox="0 0 20 20">
  <defs>
    <style>
      .cls-1 {
        fill: #fff;
      }

      .cls-2 {
        fill: #555;
      }
    </style>
  </defs>
  <g>
    <rect class="cls-1" x=".59" y=".69" width="18.82" height="18.52" rx="2.08" ry="2.08"/>
    <path class="cls-2" d="M17.3,19.79H2.7C1.21,19.79,0,18.6,0,17.13V2.76C0,1.29,1.21.1,2.7.1h14.6c1.49,0,2.7,1.19,2.7,2.65v14.37c0,1.46-1.21,2.65-2.7,2.65ZM2.7,1.27c-.83,0-1.51.67-1.51,1.49v14.37c0,.82.68,1.49,1.51,1.49h14.6c.83,0,1.51-.67,1.51-1.49V2.76c0-.82-.68-1.49-1.51-1.49H2.7Z"/>
  </g>
  <path class="cls-2" d="M.59,15.02c-.19,0-.37-.09-.49-.25-.19-.26-.12-.63.15-.81l4.12-2.82c1.06-.73,2.46-.77,3.56-.1l1.32.8,3.53-2.49c1.16-.82,2.71-.8,3.85.05l3.12,2.32c.26.19.31.56.12.82-.2.26-.57.31-.83.11l-3.12-2.32c-.72-.54-1.71-.55-2.45-.03l-3.54,2.49c-.39.27-.9.29-1.3.04l-1.32-.8c-.7-.42-1.59-.4-2.26.06L.93,14.92c-.1.07-.22.1-.34.1Z"/>
  <path class="cls-2" d="M6.53,8.56c-1.56,0-2.82-1.25-2.82-2.78s1.27-2.78,2.82-2.78,2.82,1.25,2.82,2.78-1.27,2.78-2.82,2.78ZM6.53,4.17c-.9,0-1.64.72-1.64,1.61s.74,1.61,1.64,1.61,1.64-.72,1.64-1.61-.74-1.61-1.64-1.61Z"/>
</svg>