<?xml version="1.0" encoding="UTF-8"?>
<svg id="_레이어_1" data-name="레이어 1" xmlns="http://www.w3.org/2000/svg" viewBox="0 0 20 20">
  <defs>
    <style>
      .cls-1 {
        fill: #fff;
      }

      .cls-2 {
        fill: #555;
      }
    </style>
  </defs>
  <g>
    <path class="cls-1" d="M17.1,19.38H2.9c-1.26,0-2.28-1.02-2.28-2.28V7.01c0-.6.24-1.18.67-1.61L5.4,1.29c.43-.43,1.01-.67,1.61-.67h10.09c1.26,0,2.28,1.02,2.28,2.28v14.2c0,1.26-1.02,2.28-2.28,2.28Z"/>
    <path class="cls-2" d="M17.1,19.97H2.9c-1.58,0-2.87-1.29-2.87-2.87V7.01c0-.77.3-1.49.84-2.03L4.98.87C5.52.33,6.24.03,7.01.03h10.09c1.58,0,2.87,1.29,2.87,2.87v14.2c0,1.58-1.29,2.87-2.87,2.87ZM7.01,1.21c-.45,0-.87.18-1.19.49L1.71,5.82c-.32.32-.49.74-.49,1.19v10.09c0,.93.76,1.69,1.69,1.69h14.2c.93,0,1.69-.76,1.69-1.69V2.9c0-.93-.76-1.69-1.69-1.69H7.01Z"/>
  </g>
  <path class="cls-2" d="M15.69,5.17h-7.17c-.33,0-.59-.26-.59-.59s.26-.59.59-.59h7.17c.33,0,.59.26.59.59s-.26.59-.59.59Z"/>
  <path class="cls-2" d="M15.69,8.58h-7.17c-.33,0-.59-.26-.59-.59s.26-.59.59-.59h7.17c.33,0,.59.26.59.59s-.26.59-.59.59Z"/>
  <path class="cls-2" d="M15.69,12h-7.17c-.33,0-.59-.26-.59-.59s.26-.59.59-.59h7.17c.33,0,.59.26.59.59s-.26.59-.59.59Z"/>
</svg>