<?xml version="1.0" encoding="UTF-8"?>
<svg id="_레이어_1" data-name="레이어 1" xmlns="http://www.w3.org/2000/svg" viewBox="0 0 20 20">
  <defs>
    <style>
      .cls-1 {
        fill: #fff;
      }

      .cls-2 {
        fill: #555;
      }
    </style>
  </defs>
  <g>
    <rect class="cls-1" x=".59" y=".59" width="18.82" height="18.82" rx="2.12" ry="2.12"/>
    <path class="cls-2" d="M17.3,20H2.7C1.21,20,0,18.79,0,17.3V2.7C0,1.21,1.21,0,2.7,0h14.6c1.49,0,2.7,1.21,2.7,2.7v14.6c0,1.49-1.21,2.7-2.7,2.7ZM2.7,1.18c-.83,0-1.51.68-1.51,1.51v14.6c0,.83.68,1.51,1.51,1.51h14.6c.83,0,1.51-.68,1.51-1.51V2.7c0-.83-.68-1.51-1.51-1.51H2.7Z"/>
  </g>
  <path class="cls-2" d="M10,10.59c-.33,0-.59-.27-.59-.59V.59c0-.33.27-.59.59-.59s.59.27.59.59v9.41c0,.33-.27.59-.59.59Z"/>
  <g>
    <g>
      <path class="cls-1" d="M11.86,13.2l-.39-3.22c0-.81-.66-1.48-1.48-1.48s-1.48.66-1.48,1.48l-.39,3.22c-.03.14-.05.29-.05.44,0,1.06.86,1.92,1.92,1.92s1.92-.86,1.92-1.92c0-.15-.02-.3-.05-.44Z"/>
      <path class="cls-2" d="M10,16.15c-1.38,0-2.51-1.13-2.51-2.51,0-.18.02-.36.06-.55l.38-3.16c.02-1.12.94-2.03,2.07-2.03s2.05.91,2.07,2.03l.38,3.16c.04.18.06.37.06.54,0,1.38-1.13,2.51-2.51,2.51ZM10,9.09c-.49,0-.88.4-.88.88,0,.02,0,.05,0,.07l-.39,3.22s0,.04-.01.07c-.03.11-.04.21-.04.31,0,.73.59,1.33,1.33,1.33s1.33-.6,1.33-1.33c0-.1-.01-.2-.04-.31,0-.02,0-.04-.01-.07l-.39-3.22s0-.05,0-.07c0-.49-.4-.88-.88-.88Z"/>
    </g>
    <g>
      <circle class="cls-1" cx="10" cy="13.64" r=".19"/>
      <path class="cls-2" d="M10,14.42c-.43,0-.78-.35-.78-.78s.35-.78.78-.78.78.35.78.78-.35.78-.78.78ZM10,13.24c-.22,0-.4.18-.4.4s.18.4.4.4.4-.18.4-.4-.18-.4-.4-.4Z"/>
    </g>
  </g>
  <path class="cls-2" d="M11.6,3.87h-3.19c-.33,0-.59-.27-.59-.59s.27-.59.59-.59h3.19c.33,0,.59.27.59.59s-.27.59-.59.59Z"/>
  <path class="cls-2" d="M11.6,6.43h-3.19c-.33,0-.59-.27-.59-.59s.27-.59.59-.59h3.19c.33,0,.59.27.59.59s-.27.59-.59.59Z"/>
</svg>