<?xml version="1.0" encoding="UTF-8"?>
<svg id="_레이어_1" data-name="레이어 1" xmlns="http://www.w3.org/2000/svg" viewBox="0 0 70 70">
  <defs>
    <style>
      .cls-1 {
        fill: #3382e9;
      }
    </style>
  </defs>
  <path d="M4.75,59.97s-.05,0-.07,0c-.65-.04-1.14-.6-1.1-1.24l.56-9.32c.31-5.2,3.46-9.77,8.22-11.91l10.92-4.91.62-3.13c-3.48-2.73-5.54-6.93-5.54-11.36v-2.56c0-3.99,1.59-7.7,4.48-10.46,2.89-2.75,6.67-4.16,10.67-3.98,7.71.36,13.76,6.87,13.76,14.81v2.19c0,4.44-2.06,8.63-5.54,11.36l.62,3.13,9.85,4.43c.59.27.86.96.59,1.55-.27.59-.96.86-1.55.59l-10.41-4.68c-.35-.16-.6-.47-.67-.84l-.88-4.45c-.09-.46.1-.92.48-1.19,3.23-2.27,5.16-5.97,5.16-9.9v-2.19c0-6.69-5.06-12.16-11.52-12.47-3.35-.15-6.52,1.02-8.94,3.33-2.42,2.31-3.75,5.42-3.75,8.76v2.56c0,3.93,1.93,7.63,5.16,9.9.38.27.57.73.48,1.19l-.88,4.45c-.07.37-.32.69-.67.84l-11.48,5.16c-3.96,1.78-6.57,5.58-6.84,9.9l-.56,9.32c-.04.62-.55,1.1-1.17,1.1Z"/>
  <path class="cls-1" d="M53.43,68.68c-7.03,0-12.75-5.72-12.75-12.75s5.72-12.75,12.75-12.75,12.75,5.72,12.75,12.75-5.72,12.75-12.75,12.75ZM53.43,45.07c-5.99,0-10.87,4.87-10.87,10.87s4.87,10.87,10.87,10.87,10.87-4.88,10.87-10.87-4.88-10.87-10.87-10.87Z"/>
  <path class="cls-1" d="M45.18,65.32c-.24,0-.47-.09-.66-.27-.37-.36-.38-.96-.02-1.33l16.49-16.9c.36-.37.96-.38,1.33-.02.37.36.38.96.02,1.33l-16.49,16.9c-.18.19-.43.28-.67.28Z"/>
</svg>