<svg width="14" height="14" viewBox="0 0 14 14" fill="none" xmlns="http://www.w3.org/2000/svg">
<path d="M7 13C10.3137 13 13 10.3137 13 7C13 3.68629 10.3137 1 7 1C3.68629 1 1 3.68629 1 7C1 10.3137 3.68629 13 7 13Z" stroke="#373F57" stroke-width="1.5" stroke-linecap="round" stroke-linejoin="round"/>
<path d="M6.99961 7.89998C7.49667 7.89998 7.89961 7.49703 7.89961 6.99998C7.89961 6.50292 7.49667 6.09998 6.99961 6.09998C6.50255 6.09998 6.09961 6.50292 6.09961 6.99998C6.09961 7.49703 6.50255 7.89998 6.99961 7.89998Z" stroke="#373F57" stroke-width="1.5" stroke-linecap="round" stroke-linejoin="round"/>
<path d="M7 1V2.67206" stroke="#373F57" stroke-width="1.5" stroke-linecap="round" stroke-linejoin="round"/>
<path d="M1 7H2.67206" stroke="#373F57" stroke-width="1.5" stroke-linecap="round" stroke-linejoin="round"/>
<path d="M7 12.9956V11.3235" stroke="#373F57" stroke-width="1.5" stroke-linecap="round" stroke-linejoin="round"/>
<path d="M12.9943 7H11.3223" stroke="#373F57" stroke-width="1.5" stroke-linecap="round" stroke-linejoin="round"/>
</svg>
