<svg width="16" height="16" viewBox="0 0 16 16" fill="none" xmlns="http://www.w3.org/2000/svg">
<path d="M15.5874 14.21L11.8653 10.4823C12.6419 9.40616 13.1023 8.0915 13.1023 6.66589C13.1023 3.04917 10.1623 0.114746 6.55114 0.114746C2.93997 0.114746 0 3.05472 0 6.66589C0 10.2771 2.93997 13.217 6.55114 13.217C8.02667 13.217 9.39126 12.7178 10.4896 11.8857L14.2006 15.5967C14.3948 15.7909 14.6444 15.8852 14.8995 15.8852C15.1547 15.8852 15.4043 15.7909 15.5929 15.5967C15.9757 15.214 15.9757 14.5927 15.5929 14.2044L15.5874 14.21ZM1.96368 6.66589C1.96368 4.1364 4.02166 2.07842 6.55114 2.07842C9.08063 2.07842 11.1386 4.1364 11.1386 6.66589C11.1386 9.19537 9.08063 11.2534 6.55114 11.2534C4.02166 11.2534 1.96368 9.19537 1.96368 6.66589Z" fill="#4D85EF"/>
</svg>
