<?xml version="1.0" encoding="UTF-8"?>
<svg id="_레이어_1" data-name="레이어 1" xmlns="http://www.w3.org/2000/svg" viewBox="0 0 25 25">
  <path d="M20.44,23.4H4.56C2.09,23.4.09,21.4.09,18.93V7.6C.09,5.14,2.09,3.13,4.56,3.13h15.89c2.46,0,4.47,2,4.47,4.47v11.33c0,2.46-2,4.47-4.47,4.47ZM4.56,5.06c-1.4,0-2.54,1.14-2.54,2.54v11.33c0,1.4,1.14,2.54,2.54,2.54h15.89c1.4,0,2.54-1.14,2.54-2.54V7.6c0-1.4-1.14-2.54-2.54-2.54H4.56Z"/>
  <g>
    <path d="M6.14,6.51c-.53,0-.96-.43-.96-.96v-2.9c0-.53.43-.96.96-.96s.96.43.96.96v2.9c0,.53-.43.96-.96.96Z"/>
    <path d="M18.86,6.51c-.53,0-.96-.43-.96-.96v-2.9c0-.53.43-.96.96-.96s.96.43.96.96v2.9c0,.53-.43.96-.96.96Z"/>
  </g>
  <g>
    <path d="M6.79,14.39h-1.61c-.53,0-.96-.43-.96-.96s.43-.96.96-.96h1.61c.53,0,.96.43.96.96s-.43.96-.96.96Z"/>
    <path d="M11.13,14.39h-1.61c-.53,0-.96-.43-.96-.96s.43-.96.96-.96h1.61c.53,0,.96.43.96.96s-.43.96-.96.96Z"/>
    <path d="M15.48,14.39h-1.61c-.53,0-.96-.43-.96-.96s.43-.96.96-.96h1.61c.53,0,.96.43.96.96s-.43.96-.96.96Z"/>
    <path d="M19.82,14.39h-1.61c-.53,0-.96-.43-.96-.96s.43-.96.96-.96h1.61c.53,0,.96.43.96.96s-.43.96-.96.96Z"/>
  </g>
  <g>
    <path d="M6.79,18.62h-1.61c-.53,0-.96-.43-.96-.96s.43-.96.96-.96h1.61c.53,0,.96.43.96.96s-.43.96-.96.96Z"/>
    <path d="M11.13,18.62h-1.61c-.53,0-.96-.43-.96-.96s.43-.96.96-.96h1.61c.53,0,.96.43.96.96s-.43.96-.96.96Z"/>
    <path d="M15.48,18.62h-1.61c-.53,0-.96-.43-.96-.96s.43-.96.96-.96h1.61c.53,0,.96.43.96.96s-.43.96-.96.96Z"/>
    <path d="M19.82,18.62h-1.61c-.53,0-.96-.43-.96-.96s.43-.96.96-.96h1.61c.53,0,.96.43.96.96s-.43.96-.96.96Z"/>
  </g>
  <path d="M23.95,10.45H1.05c-.53,0-.96-.43-.96-.96s.43-.96.96-.96h22.9c.53,0,.96.43.96.96s-.43.96-.96.96Z"/>
</svg>