<?xml version="1.0" encoding="UTF-8"?>
<svg id="_레이어_1" data-name="레이어 1" xmlns="http://www.w3.org/2000/svg" viewBox="0 0 19 19">
  <defs>
    <style>
      .cls-1 {
        fill: #fff;
      }
    </style>
  </defs>
  <path class="cls-1" d="M14.24,8.56c-.42,0-.77.34-.77.77v5.85c0,.87-.22,1.48-.66,1.82-.31.24-.65.26-.67.27-.1,0-5.85.16-8.53,0-.54-.03-.95-.21-1.23-.53-.6-.7-.52-1.87-.52-1.91,0-.02,0-.04,0-.07v-7.69c.01-.53.18-.93.5-1.22.7-.63,2.04-.65,2.49-.61.03,0,.05,0,.08,0l4.53-.02c.42,0,.76-.35.76-.77,0-.42-.34-.76-.77-.76h0l-4.5.02c-.33-.03-2.35-.13-3.61.99-.65.58-1,1.39-1.02,2.35,0,0,0,.01,0,.02v7.67c-.02.29-.08,1.89.88,3.01.56.65,1.34,1.01,2.31,1.07.94.05,2.23.07,3.51.07,2.48,0,4.98-.07,5.15-.07.11,0,.79-.04,1.45-.5.62-.43,1.37-1.32,1.37-3.11v-5.85c0-.42-.34-.77-.77-.77Z"/>
  <path class="cls-1" d="M17.92.13h-5.8c-.42,0-.77.34-.77.77s.34.77.77.77h3.95L6.13,11.64c-.3.3-.3.78,0,1.08.15.15.34.22.54.22s.39-.08.54-.23L17.15,2.75v4.03c0,.42.34.77.77.77s.77-.34.77-.77V.9c0-.42-.34-.77-.77-.77Z"/>
</svg>