<?xml version="1.0" encoding="UTF-8"?>
<svg id="_레이어_1" data-name="레이어 1" xmlns="http://www.w3.org/2000/svg" viewBox="0 0 80 70">
  <defs>
    <style>
      .cls-1 {
        fill: #f5f7fa;
      }

      .cls-2 {
        fill: #3382e9;
      }
    </style>
  </defs>
  <g>
    <path d="M45.81,68.69H10.13c-2.11,0-3.82-1.71-3.82-3.82v-7.65c0-.7.57-1.27,1.27-1.27h40.78c.7,0,1.27.57,1.27,1.27v7.65c0,2.11-1.71,3.82-3.82,3.82ZM8.85,58.5v6.37c0,.7.57,1.27,1.27,1.27h35.68c.7,0,1.27-.57,1.27-1.27v-6.37H8.85Z"/>
    <path d="M30.52,63.6h-5.1c-.7,0-1.27-.57-1.27-1.27s.57-1.27,1.27-1.27h5.1c.7,0,1.27.57,1.27,1.27s-.57,1.27-1.27,1.27Z"/>
    <path d="M48.36,37.74h-1.27v18.21H8.85V5.13c0-.7.57-1.27,1.27-1.27h35.68c.7,0,1.27.57,1.27,1.27v8.32h1.27c.7.6,1.27.03,1.27-.68v-7.65c0-2.11-1.71-3.82-3.82-3.82H10.13c-2.11,0-3.82,1.71-3.82,3.82v52.1c0,.7.57,1.27,1.27,1.27h40.78c.7,0,1.27-.57,1.27-1.27v-18.96c0-.7-.57-1.27-1.27-.52Z"/>
  </g>
  <polygon class="cls-1" points="71.15 36.99 37.53 36.99 29.21 45.13 29.09 36.99 22.72 36.99 22.72 14.05 71.15 14.05 71.15 36.99"/>
  <g>
    <path class="cls-2" d="M30.62,24.18l1.8-.56.56,1.8-1.77.54,1.21,1.62-1.47,1.18-1.27-1.65-1.28,1.65-1.44-1.21,1.19-1.59-1.79-.54.6-1.8,1.76.56-.03-1.9h1.96l-.03,1.9Z"/>
    <path class="cls-2" d="M39.32,24.18l1.8-.56.56,1.8-1.77.54,1.21,1.62-1.47,1.18-1.27-1.65-1.28,1.65-1.44-1.21,1.19-1.59-1.79-.54.6-1.8,1.76.56-.03-1.9h1.96l-.03,1.9Z"/>
    <path class="cls-2" d="M48.02,24.18l1.8-.56.57,1.8-1.77.54,1.21,1.62-1.47,1.18-1.27-1.65-1.28,1.65-1.44-1.21,1.19-1.59-1.79-.54.6-1.8,1.76.56-.03-1.9h1.96l-.03,1.9Z"/>
    <path class="cls-2" d="M56.72,24.18l1.8-.56.57,1.8-1.77.54,1.21,1.62-1.47,1.18-1.27-1.65-1.28,1.65-1.44-1.21,1.19-1.59-1.79-.54.6-1.8,1.76.56-.03-1.9h1.96l-.03,1.9Z"/>
    <path class="cls-2" d="M65.43,24.18l1.8-.56.57,1.8-1.77.54,1.21,1.62-1.47,1.18-1.27-1.65-1.28,1.65-1.44-1.21,1.19-1.59-1.79-.54.6-1.8,1.76.56-.03-1.9h1.96l-.03,1.9Z"/>
  </g>
  <path d="M29.09,47.18c-.17,0-.35-.04-.52-.11-.46-.2-.76-.66-.76-1.16v-6.37h-6.37c-.7,0-1.27-.57-1.27-1.27V12.77c0-.7.57-1.27,1.27-1.27h50.97c.7,0,1.27.57,1.27,1.27v25.49c0,.7-.57,1.27-1.27,1.27h-34.4l-8.07,7.32c-.24.22-.55.33-.86.33ZM22.72,36.99h6.37c.7,0,1.27.57,1.27,1.27v4.77l6.31-5.72c.23-.21.54-.33.86-.33h33.62V14.05H22.72v22.94Z"/>
</svg>