<?xml version="1.0" encoding="UTF-8"?>
<svg id="_레이어_1" data-name="레이어 1" xmlns="http://www.w3.org/2000/svg" viewBox="0 0 80 70">
  <defs>
    <style>
      .cls-1 {
        fill: #f5f7fa;
      }

      .cls-2 {
        fill: #3382e9;
      }

      .cls-3 {
        fill: none;
        stroke: #000;
        stroke-linecap: round;
        stroke-linejoin: round;
        stroke-width: 2.3px;
      }
    </style>
  </defs>
  <g>
    <rect class="cls-3" x="4.62" y="10.3" width="66.18" height="44.91" rx="1" ry="1"/>
    <line class="cls-3" x1="21.96" y1="66.97" x2="53.45" y2="66.97"/>
    <line class="cls-3" x1="4.62" y1="47.43" x2="70.79" y2="47.43"/>
    <line class="cls-3" x1="30.02" y1="55.21" x2="30.02" y2="66.97"/>
    <line class="cls-3" x1="45.38" y1="55.4" x2="45.38" y2="66.78"/>
  </g>
  <g>
    <polygon class="cls-1" points="74.59 25.54 45.66 25.54 37.7 32.54 37.45 25.54 31.82 25.54 31.82 5.28 74.59 5.28 74.59 25.54"/>
    <g>
      <path class="cls-2" d="M38.8,14.23l1.59-.5.5,1.59-1.57.47,1.07,1.43-1.3,1.04-1.12-1.46-1.13,1.46-1.27-1.07,1.05-1.4-1.58-.47.53-1.59,1.55.5-.03-1.67h1.73l-.03,1.67Z"/>
      <path class="cls-2" d="M46.49,14.23l1.59-.5.5,1.59-1.57.47,1.07,1.43-1.3,1.04-1.12-1.46-1.13,1.46-1.27-1.07,1.05-1.4-1.58-.47.53-1.59,1.55.5-.03-1.67h1.73l-.03,1.67Z"/>
      <path class="cls-2" d="M54.17,14.23l1.59-.5.5,1.59-1.57.47,1.07,1.43-1.29,1.04-1.12-1.46-1.13,1.46-1.27-1.07,1.05-1.4-1.58-.47.53-1.59,1.55.5-.03-1.67h1.73l-.03,1.67Z"/>
      <path class="cls-2" d="M61.86,14.23l1.59-.5.5,1.59-1.57.47,1.07,1.43-1.29,1.04-1.12-1.46-1.13,1.46-1.27-1.07,1.05-1.4-1.58-.47.53-1.59,1.55.5-.03-1.67h1.73l-.03,1.67Z"/>
      <path class="cls-2" d="M69.54,14.23l1.59-.5.5,1.59-1.57.47,1.07,1.43-1.29,1.04-1.12-1.46-1.13,1.46-1.27-1.07,1.05-1.4-1.58-.47.53-1.59,1.55.5-.03-1.67h1.73l-.03,1.67Z"/>
    </g>
    <path d="M37.45,34.54c-.15,0-.31-.03-.46-.1-.41-.18-.67-.58-.67-1.03v-5.63h-5.63c-.62,0-1.13-.5-1.13-1.13V4.15c0-.62.5-1.13,1.13-1.13h45.02c.62,0,1.13.5,1.13,1.13v22.51c0,.62-.5,1.13-1.13,1.13h-30.38l-7.13,6.46c-.21.19-.48.29-.76.29ZM31.82,25.54h5.63c.62,0,1.13.5,1.13,1.13v4.21l5.57-5.05c.21-.19.48-.29.76-.29h29.69V5.28H31.82v20.26Z"/>
  </g>
</svg>