<?xml version="1.0" encoding="UTF-8"?>
<svg id="_레이어_1" data-name="레이어 1" xmlns="http://www.w3.org/2000/svg" viewBox="0 0 90 90">
  <defs>
    <style>
      .cls-1 {
        stroke: #0b0e11;
      }

      .cls-1, .cls-2 {
        fill: none;
        stroke-linecap: round;
        stroke-linejoin: round;
        stroke-width: 2px;
      }

      .cls-2 {
        stroke: #3e80eb;
      }
    </style>
  </defs>
  <path class="cls-2" d="M47.02,25.82s-8.22-1.14-5.13-3.38,6.76-4.19,9.37-5.02,4.46-3.26,5.22-5.38c.75-2.12,4.08-.17,4.74,1.41s6.31,2.02,5.3-.34-1.28-3.12,2.87-3.32,7.73-5.38,6.85-6.27,6.54,2.78,4.42,5.14c-2.12,2.36-4.77,5.28-4.73,8.26s-13.08,7.71-13.08,7.71c0,0-2.7,1.3,1.72,4.83,4.42,3.53,15.19,14.46,11.24,22.09-3.95,7.63-18.27,10.74-22.45,9.14s4.3-6.03,2.18-10.1c-2.12-4.07-3.01-7.54,1.24-7.04s-.29-6.58-5.83-5.85-6.72-2.01-2.83-5.16c3.89-3.15,1.83-6.44-1.09-6.72Z"/>
  <path class="cls-1" d="M25.76,68.96c-10.77,1.88-18.78,8.86-18.78,17.19"/>
  <path class="cls-1" d="M56.14,86.15c0-8.32-7.99-15.3-18.76-17.18"/>
  <path class="cls-1" d="M42.15,45.03v11.34c0,5.85-4.74,10.59-10.59,10.59h0c-5.85,0-10.59-4.74-10.59-10.59v-14.46"/>
  <path class="cls-1" d="M37.38,65.31v3.19c0,3.21-2.61,5.82-5.82,5.82h0c-3.21,0-5.82-2.61-5.82-5.82v-3.19"/>
  <path class="cls-1" d="M18.95,45.03h2.02v11.24h0c-2.65,0-4.8-2.15-4.8-4.8v-3.67c0-1.53,1.24-2.78,2.78-2.78Z"/>
  <path class="cls-1" d="M46.95,45.03h0v11.24h-2.02c-1.53,0-2.78-1.24-2.78-2.78v-3.67c0-2.65,2.15-4.8,4.8-4.8Z" transform="translate(89.1 101.3) rotate(-180)"/>
  <path class="cls-1" d="M29.06,59.07c.61.38,1.5.62,2.5.62s1.89-.24,2.5-.62"/>
  <g>
    <line class="cls-1" x1="27.65" y1="48.76" x2="27.65" y2="49.62"/>
    <line class="cls-1" x1="35.47" y1="48.76" x2="35.47" y2="49.62"/>
  </g>
  <path class="cls-1" d="M31.56,49.19s.34,2.09,2.04,3.02.16,3.06-1.86,3.19"/>
  <path class="cls-1" d="M24.73,46.32s2.03-.97,4.94,0"/>
  <path class="cls-1" d="M38.99,46.32s-2.03-.97-4.94,0"/>
  <path class="cls-1" d="M20.97,39.62c-1.16-6.6,5.56-8.04,5.56-8.04,0,0,4.93-2.23,9.99-.51s7.45-.45,7.45-.45c0,0,5.67,6.1-1.83,11.3h-18.85"/>
  <ellipse class="cls-2" cx="62.2" cy="68.96" rx="4.66" ry="3.28" transform="translate(-7.23 7.29) rotate(-6.34)"/>
</svg>