<?xml version="1.0" encoding="UTF-8"?>
<svg id="_레이어_1" data-name="레이어 1" xmlns="http://www.w3.org/2000/svg" viewBox="0 0 90 90">
  <defs>
    <style>
      .cls-1 {
        stroke: #0b0e11;
      }

      .cls-1, .cls-2 {
        fill: none;
        stroke-linecap: round;
        stroke-linejoin: round;
        stroke-width: 2px;
      }

      .cls-2 {
        stroke: #3e80eb;
      }
    </style>
  </defs>
  <g>
    <path class="cls-2" d="M39.92,62.48c4.63,2.84,10.09,4.48,15.92,4.48,16.85,0,30.5-13.66,30.5-30.5s-13.66-30.5-30.5-30.5c-14.7,0-26.97,10.4-29.86,24.24"/>
    <path class="cls-2" d="M45.22,55.25c2.47,7.13,6.31,11.71,10.62,11.71,7.45,0,13.48-13.66,13.48-30.5s-6.04-30.5-13.48-30.5c-6.85,0-12.51,11.56-13.37,26.53"/>
    <line class="cls-2" x1="44.71" y1="36.46" x2="86.34" y2="36.46"/>
    <line class="cls-2" x1="31.82" y1="17.67" x2="79.87" y2="17.67"/>
    <line class="cls-2" x1="45.36" y1="55.25" x2="79.87" y2="55.25"/>
  </g>
  <path class="cls-1" d="M25.46,68.96c-10.77,1.88-18.78,8.86-18.78,17.19"/>
  <path class="cls-1" d="M55.84,86.15c0-8.32-7.99-15.3-18.76-17.18"/>
  <path class="cls-1" d="M41.85,45.03v11.34c0,5.85-4.74,10.59-10.59,10.59h0c-5.85,0-10.59-4.74-10.59-10.59v-14.46"/>
  <path class="cls-1" d="M37.08,65.31v3.19c0,3.21-2.61,5.82-5.82,5.82h0c-3.21,0-5.82-2.61-5.82-5.82v-3.19"/>
  <path class="cls-1" d="M18.65,45.03h2.02v11.24h0c-2.65,0-4.8-2.15-4.8-4.8v-3.67c0-1.53,1.24-2.78,2.78-2.78Z"/>
  <path class="cls-1" d="M46.65,45.03h0v11.24h-2.02c-1.53,0-2.78-1.24-2.78-2.78v-3.67c0-2.65,2.15-4.8,4.8-4.8Z" transform="translate(88.51 101.3) rotate(-180)"/>
  <path class="cls-1" d="M17.65,42.22s-1.5-9.01,6.95-10.59c0,0,1.52-3.1,7.72-3.04,5.96,0,13.62,2.86,13.01,13.63"/>
  <path class="cls-1" d="M23.26,38.56s3.22,6.73,15.81,6.79"/>
  <path class="cls-1" d="M30.6,53.17s1.05.14,1.32,1.28"/>
  <path class="cls-1" d="M28.77,59.07c.61.38,1.5.62,2.5.62s1.89-.24,2.5-.62"/>
  <g>
    <line class="cls-1" x1="27.35" y1="48.76" x2="27.35" y2="49.62"/>
    <line class="cls-1" x1="35.17" y1="48.76" x2="35.17" y2="49.62"/>
  </g>
</svg>