<?xml version="1.0" encoding="UTF-8"?>
<svg id="_레이어_1" data-name="레이어 1" xmlns="http://www.w3.org/2000/svg" viewBox="0 0 90 90">
  <defs>
    <style>
      .cls-1 {
        fill: none;
        stroke: #0b0e11;
        stroke-linecap: round;
        stroke-linejoin: round;
        stroke-width: 2.5px;
      }
    </style>
  </defs>
  <path class="cls-1" d="M36.88,62.09c-15.08,2.62-26.29,12.4-26.29,24.06"/>
  <path class="cls-1" d="M79.4,86.15c0-11.65-11.19-21.42-26.26-24.05"/>
  <path class="cls-1" d="M41.5,48.25c.85.54,2.1.87,3.49.87s2.64-.34,3.5-.87"/>
  <path class="cls-1" d="M59.83,28.59v15.88c0,8.19-6.64,14.83-14.83,14.83h0c-8.19,0-14.83-6.64-14.83-14.83v-20.24"/>
  <path class="cls-1" d="M53.15,56.98v4.47c0,4.5-3.65,8.15-8.15,8.15h0c-4.5,0-8.15-3.65-8.15-8.15v-4.47"/>
  <path class="cls-1" d="M26.24,28.59h3.94v15.73h0c-3.71,0-6.71-3.01-6.71-6.71v-6.24c0-1.53,1.24-2.78,2.78-2.78Z"/>
  <path class="cls-1" d="M66.54,28.59h0v15.73h-3.94c-1.53,0-2.78-1.24-2.78-2.78v-6.24c0-3.71,3.01-6.71,6.71-6.71Z" transform="translate(126.37 72.91) rotate(-180)"/>
  <path class="cls-1" d="M25.94,24.66s-2.11-12.62,9.72-14.83c0,0,2.13-4.34,10.81-4.26,8.34,0,19.06,4,18.21,19.09"/>
  <path class="cls-1" d="M33.79,19.53s4.51,9.43,22.13,9.51"/>
  <path class="cls-1" d="M44.07,39.98s1.47.19,1.85,1.79"/>
  <g>
    <line class="cls-1" x1="39.53" y1="33.8" x2="39.53" y2="35.01"/>
    <line class="cls-1" x1="50.47" y1="33.8" x2="50.47" y2="35.01"/>
  </g>
</svg>