<?xml version="1.0" encoding="UTF-8"?>
<svg id="_레이어_1" data-name="레이어 1" xmlns="http://www.w3.org/2000/svg" viewBox="0 0 90 90">
  <defs>
    <style>
      .cls-1 {
        fill: none;
        stroke: #555;
        stroke-miterlimit: 10;
        stroke-width: 2.5px;
      }
    </style>
  </defs>
  <path class="cls-1" d="M40.89,5.02L9.11,60.07c-1.83,3.16.46,7.12,4.11,7.12h63.56c3.65,0,5.94-3.95,4.11-7.12L49.11,5.02c-1.83-3.16-6.39-3.16-8.22,0Z"/>
  <g>
    <line class="cls-1" x1="40.7" y1="67.18" x2="40.7" y2="89.12"/>
    <line class="cls-1" x1="49.3" y1="67.18" x2="49.3" y2="89.12"/>
  </g>
  <circle class="cls-1" cx="45" cy="55.11" r="2.23"/>
  <path class="cls-1" d="M45,21.07c-1.51,0-2.74,1.23-2.74,2.74l.95,21.69c0,.99.8,1.79,1.79,1.79s1.79-.8,1.79-1.79l.95-21.69c0-1.51-1.23-2.74-2.74-2.74Z"/>
</svg>