<?xml version="1.0" encoding="UTF-8"?>
<svg id="_레이어_1" data-name="레이어 1" xmlns="http://www.w3.org/2000/svg" viewBox="0 0 16 16">
  <defs>
    <style>
      .cls-1 {
        fill: none;
        stroke: #fff;
        stroke-linecap: round;
        stroke-linejoin: round;
      }
    </style>
  </defs>
  <path class="cls-1" d="M6.78,2.66c-.61.14-1.19.38-1.7.71"/>
  <path class="cls-1" d="M3.37,10.92c-.33-.51-.57-1.09-.71-1.7"/>
  <path class="cls-1" d="M10.92,12.63c-.51.33-1.09.57-1.7.71"/>
  <path class="cls-1" d="M10.92,3.37c-.51-.33-1.09-.57-1.7-.71"/>
  <path class="cls-1" d="M13.34,9.22c-.14.61-.38,1.19-.71,1.7"/>
  <path class="cls-1" d="M13.34,6.78c-.14-.61-.38-1.19-.71-1.7"/>
  <path class="cls-1" d="M6.78,13.34c-.61-.14-1.19-.38-1.7-.71"/>
  <path class="cls-1" d="M3.37,5.08c-.33.51-.57,1.09-.71,1.7"/>
  <path class="cls-1" d="M8,10.74c1.51,0,2.74-1.23,2.74-2.74s-1.23-2.74-2.74-2.74-2.74,1.23-2.74,2.74,1.23,2.74,2.74,2.74Z"/>
  <path class="cls-1" d="M6.78,2.66v-1.66h2.43v1.66"/>
  <path class="cls-1" d="M9.22,13.34v1.66h-2.43v-1.66"/>
  <path class="cls-1" d="M10.92,3.37l1.17-1.18,1.72,1.72-1.18,1.17"/>
  <path class="cls-1" d="M3.37,10.92l-1.18,1.17,1.72,1.72,1.17-1.18"/>
  <path class="cls-1" d="M13.34,6.78h1.66v2.43h-1.66"/>
  <path class="cls-1" d="M2.66,9.22h-1.66v-2.43h1.66"/>
  <path class="cls-1" d="M12.63,10.92l1.18,1.17-1.72,1.72-1.17-1.18"/>
  <path class="cls-1" d="M3.37,5.08l-1.18-1.17,1.72-1.72,1.17,1.18"/>
</svg>
