<svg width="16" height="16" viewBox="0 0 16 16" fill="none" xmlns="http://www.w3.org/2000/svg">
<path d="M6.78324 2.65576C6.17454 2.79576 5.59627 3.03924 5.08496 3.36794" stroke="#555555" stroke-linecap="round" stroke-linejoin="round"/>
<path d="M3.36843 10.9156C3.03973 10.4043 2.79625 9.82599 2.65625 9.21729" stroke="#555555" stroke-linecap="round" stroke-linejoin="round"/>
<path d="M10.9161 12.6323C10.4047 12.961 9.82647 13.2045 9.21777 13.3445" stroke="#555555" stroke-linecap="round" stroke-linejoin="round"/>
<path d="M10.9161 3.36794C10.4047 3.03924 9.82647 2.79576 9.21777 2.65576" stroke="#555555" stroke-linecap="round" stroke-linejoin="round"/>
<path d="M13.344 9.21729C13.204 9.82599 12.9605 10.4043 12.6318 10.9156" stroke="#555555" stroke-linecap="round" stroke-linejoin="round"/>
<path d="M13.344 6.78251C13.204 6.1738 12.9605 5.59554 12.6318 5.08423" stroke="#555555" stroke-linecap="round" stroke-linejoin="round"/>
<path d="M6.78324 13.3445C6.17454 13.2045 5.59627 12.961 5.08496 12.6323" stroke="#555555" stroke-linecap="round" stroke-linejoin="round"/>
<path d="M3.36843 5.08423C3.03973 5.59554 2.79625 6.1738 2.65625 6.78251" stroke="#555555" stroke-linecap="round" stroke-linejoin="round"/>
<path d="M7.9999 10.7391C9.51269 10.7391 10.7391 9.51269 10.7391 7.9999C10.7391 6.4871 9.51269 5.26074 7.9999 5.26074C6.4871 5.26074 5.26074 6.4871 5.26074 7.9999C5.26074 9.51269 6.4871 10.7391 7.9999 10.7391Z" stroke="#555555" stroke-linecap="round" stroke-linejoin="round"/>
<path d="M6.78223 2.65567V1H9.21703V2.65567" stroke="#555555" stroke-linecap="round" stroke-linejoin="round"/>
<path d="M9.21703 13.3442V14.9999H6.78223V13.3442" stroke="#555555" stroke-linecap="round" stroke-linejoin="round"/>
<path d="M10.916 3.36789L12.0908 2.18701L13.8134 3.90964L12.6326 5.08443" stroke="#555555" stroke-linecap="round" stroke-linejoin="round"/>
<path d="M3.36838 10.9155L2.1875 12.0903L3.91012 13.8129L5.08492 12.6321" stroke="#555555" stroke-linecap="round" stroke-linejoin="round"/>
<path d="M13.3438 6.78271H14.9994V9.21752H13.3438" stroke="#555555" stroke-linecap="round" stroke-linejoin="round"/>
<path d="M2.65567 9.21752H1V6.78271H2.65567" stroke="#555555" stroke-linecap="round" stroke-linejoin="round"/>
<path d="M12.6326 10.9155L13.8134 12.0903L12.0908 13.8129L10.916 12.6321" stroke="#555555" stroke-linecap="round" stroke-linejoin="round"/>
<path d="M3.36838 5.08443L2.1875 3.90964L3.91012 2.18701L5.08492 3.36789" stroke="#555555" stroke-linecap="round" stroke-linejoin="round"/>
</svg>
