<svg width="14" height="15" viewBox="0 0 14 15" fill="none" xmlns="http://www.w3.org/2000/svg">
<path d="M14 10.5015C13.9993 12.5112 12.5871 14.1908 10.701 14.6031L10.2544 13.2633C11.0972 13.1258 11.8135 12.612 12.2254 11.9H10.5C9.72678 11.9 9.1 11.2732 9.1 10.5V7.7C9.1 6.92678 9.72678 6.3 10.5 6.3H12.5567C12.2122 3.53758 9.85572 1.4 7 1.4C4.14427 1.4 1.78779 3.53758 1.44332 6.3H3.5C4.2732 6.3 4.9 6.92678 4.9 7.7V10.5C4.9 11.2732 4.2732 11.9 3.5 11.9H1.4C0.626801 11.9 0 11.2732 0 10.5V7C0 3.134 3.134 0 7 0C10.866 0 14 3.134 14 7V7.69909V7.7V10.5V10.5015ZM12.6 10.5V7.7H10.5V10.5H12.6ZM1.4 7.7V10.5H3.5V7.7H1.4Z" fill="#373F57"/>
</svg>
