<?xml version="1.0" encoding="UTF-8"?>
<svg id="_레이어_1" data-name="레이어 1" xmlns="http://www.w3.org/2000/svg" viewBox="0 0 86 63">
  <defs>
    <style>
      .cls-1 {
        fill: #3382e9;
      }

      .cls-2 {
        fill: #212121;
      }
    </style>
  </defs>
  <path class="cls-2" d="M25.67,49.86h-10.02c-.54,0-.98-.44-.98-.98s.44-.98.98-.98h10.02c.54,0,.98.44.98.98s-.44.98-.98.98Z"/>
  <path class="cls-2" d="M18.16,54.2c-.17,0-.34-.04-.49-.13-.47-.27-.63-.87-.36-1.34l5.01-8.67c.27-.47.87-.63,1.34-.36s.63.87.36,1.34l-5.01,8.67c-.18.32-.51.49-.85.49Z"/>
  <path class="cls-2" d="M23.17,54.2c-.34,0-.67-.18-.85-.49l-5.01-8.67c-.27-.47-.11-1.07.36-1.34.47-.27,1.07-.11,1.34.36l5.01,8.67c.27.47.11,1.07-.36,1.34-.15.09-.32.13-.49.13Z"/>
  <path class="cls-2" d="M40.56,49.86h-10.02c-.54,0-.98-.44-.98-.98s.44-.98.98-.98h10.02c.54,0,.98.44.98.98s-.44.98-.98.98Z"/>
  <path class="cls-2" d="M33.05,54.2c-.17,0-.34-.04-.49-.13-.47-.27-.63-.87-.36-1.34l5.01-8.67c.27-.47.87-.63,1.34-.36.47.27.63.87.36,1.34l-5.01,8.67c-.18.32-.51.49-.85.49Z"/>
  <path class="cls-2" d="M38.06,54.2c-.34,0-.67-.18-.85-.49l-5.01-8.67c-.27-.47-.11-1.07.36-1.34.47-.27,1.07-.11,1.34.36l5.01,8.67c.27.47.11,1.07-.36,1.34-.15.09-.32.13-.49.13Z"/>
  <path class="cls-2" d="M55.45,49.86h-10.02c-.54,0-.98-.44-.98-.98s.44-.98.98-.98h10.02c.54,0,.98.44.98.98s-.44.98-.98.98Z"/>
  <path class="cls-2" d="M47.94,54.2c-.17,0-.34-.04-.49-.13-.47-.27-.63-.87-.36-1.34l5.01-8.67c.27-.47.87-.63,1.34-.36.47.27.63.87.36,1.34l-5.01,8.67c-.18.31-.51.49-.85.49Z"/>
  <path class="cls-2" d="M52.95,54.2c-.34,0-.67-.18-.85-.49l-5.01-8.67c-.27-.47-.11-1.07.36-1.34.47-.27,1.07-.11,1.34.36l5.01,8.67c.27.47.11,1.07-.36,1.34-.15.09-.32.13-.49.13Z"/>
  <path class="cls-2" d="M70.35,49.86h-10.02c-.54,0-.98-.44-.98-.98s.44-.98.98-.98h10.02c.54,0,.98.44.98.98s-.44.98-.98.98Z"/>
  <path class="cls-2" d="M62.83,54.2c-.17,0-.34-.04-.49-.13-.47-.27-.63-.87-.36-1.34l5.01-8.67c.27-.47.87-.63,1.34-.36.47.27.63.87.36,1.34l-5.01,8.67c-.18.31-.51.49-.85.49Z"/>
  <path class="cls-2" d="M67.84,54.2c-.34,0-.67-.18-.85-.49l-5.01-8.67c-.27-.47-.11-1.07.36-1.34.47-.27,1.07-.11,1.34.36l5.01,8.67c.27.47.11,1.07-.36,1.34-.15.09-.32.13-.49.13Z"/>
  <path class="cls-2" d="M79.31,62.59H6.69c-.68,0-1.23-.55-1.23-1.23v-24.97c0-.68.55-1.23,1.23-1.23h18.81c.68,0,1.23.55,1.23,1.23s-.55,1.23-1.23,1.23H7.91v22.52h70.17v-22.52h-17.58c-.68,0-1.23-.55-1.23-1.23s.55-1.23,1.23-1.23h18.81c.68,0,1.23.55,1.23,1.23v24.97c0,.68-.55,1.23-1.23,1.23Z"/>
  <path class="cls-1" d="M43,39.4c-10.75,0-19.49-8.75-19.49-19.49S32.25.41,43,.41s19.49,8.75,19.49,19.49-8.75,19.49-19.49,19.49ZM43,2.86c-9.4,0-17.04,7.65-17.04,17.04s7.65,17.04,17.04,17.04,17.04-7.65,17.04-17.04S52.4,2.86,43,2.86Z"/>
  <path class="cls-1" d="M41.35,27.64c-.33,0-.64-.13-.87-.36l-6.51-6.51c-.48-.48-.48-1.25,0-1.73s1.25-.48,1.73,0l5.65,5.65,8.94-8.94c.48-.48,1.25-.48,1.73,0,.48.48.48,1.25,0,1.73l-9.81,9.81c-.23.23-.54.36-.87.36Z"/>
</svg>