<?xml version="1.0" encoding="UTF-8"?>
<svg id="_레이어_1" data-name="레이어 1" xmlns="http://www.w3.org/2000/svg" viewBox="0 0 25 25">
  <path d="M12.5,25C5.61,25,0,19.39,0,12.5S5.61,0,12.5,0s12.5,5.61,12.5,12.5-5.61,12.5-12.5,12.5ZM12.5,1.71C6.55,1.71,1.71,6.55,1.71,12.5s4.84,10.79,10.79,10.79,10.79-4.84,10.79-10.79S18.45,1.71,12.5,1.71Z"/>
  <path d="M12.5,15.11c-1.44,0-2.61-1.17-2.61-2.61s1.17-2.61,2.61-2.61,2.61,1.17,2.61,2.61-1.17,2.61-2.61,2.61ZM12.5,11.61c-.49,0-.89.4-.89.89s.4.89.89.89.89-.4.89-.89-.4-.89-.89-.89Z"/>
  <path d="M12.5,4.96c-.47,0-.86-.38-.86-.86V.86C11.64.38,12.03,0,12.5,0s.86.38.86.86v3.24c0,.47-.38.86-.86.86Z"/>
  <path d="M4.1,13.36H.86c-.47,0-.86-.38-.86-.86s.38-.86.86-.86h3.24c.47,0,.86.38.86.86s-.38.86-.86.86Z"/>
  <path d="M12.5,25c-.47,0-.86-.38-.86-.86v-3.24c0-.47.38-.86.86-.86s.86.38.86.86v3.24c0,.47-.38.86-.86.86Z"/>
  <path d="M24.14,13.36h-3.24c-.47,0-.86-.38-.86-.86s.38-.86.86-.86h3.24c.47,0,.86.38.86.86s-.38.86-.86.86Z"/>
</svg>