<?xml version="1.0" encoding="UTF-8"?>
<svg id="_레이어_1" data-name="레이어 1" xmlns="http://www.w3.org/2000/svg" viewBox="0 0 65 65">
  <defs>
    <style>
      .cls-1 {
        fill: #999;
      }
    </style>
  </defs>
  <path class="cls-1" d="M32.5,4.54c3.78,0,7.44.74,10.88,2.2,3.33,1.41,6.32,3.42,8.89,5.99,2.57,2.57,4.59,5.56,5.99,8.89,1.46,3.44,2.2,7.11,2.2,10.88s-.74,7.44-2.2,10.88c-1.41,3.33-3.42,6.32-5.99,8.89-2.57,2.57-5.56,4.59-8.89,5.99-3.44,1.46-7.11,2.2-10.88,2.2s-7.44-.74-10.88-2.2c-3.33-1.41-6.32-3.42-8.89-5.99-2.57-2.57-4.59-5.56-5.99-8.89-1.46-3.44-2.2-7.11-2.2-10.88s.74-7.44,2.2-10.88c1.41-3.33,3.42-6.32,5.99-8.89,2.57-2.57,5.56-4.59,8.89-5.99,3.44-1.46,7.11-2.2,10.88-2.2M32.5.49C14.82.49.49,14.82.49,32.5s14.33,32.01,32.01,32.01,32.01-14.33,32.01-32.01S50.18.49,32.5.49h0Z"/>
  <g>
    <path class="cls-1" d="M32.5,31.57c-1.05,0-1.9.86-1.9,1.9v11.55c0,1.05.86,1.9,1.9,1.9s1.9-.86,1.9-1.9v-11.55c0-1.05-.86-1.9-1.9-1.9h0Z"/>
    <path class="cls-1" d="M32.5,19.39c-1.04,0-1.88.84-1.88,1.88s.84,1.88,1.88,1.88,1.88-.84,1.88-1.88-.84-1.88-1.88-1.88h0Z"/>
  </g>
</svg>