<?xml version="1.0" encoding="UTF-8"?>
<svg id="_레이어_1" data-name=" 레이어 1" xmlns="http://www.w3.org/2000/svg" viewBox="0 0 60 60">
  <defs>
    <style>
      .cls-1 {
        fill: #fff;
      }
    </style>
  </defs>
  <path class="cls-1" d="M21.56,28.07H6.72c-3.47,0-6.29-2.82-6.29-6.29V6.95C.44,3.48,3.26.66,6.72.66h14.84c3.47,0,6.29,2.82,6.29,6.29v14.84c0,3.47-2.82,6.29-6.29,6.29h0ZM6.72,3.78c-1.74,0-3.16,1.42-3.16,3.16v14.84c0,1.74,1.42,3.16,3.16,3.16h14.84c1.74,0,3.16-1.42,3.16-3.16V6.95c0-1.74-1.42-3.16-3.16-3.16H6.72Z"/>
  <path class="cls-1" d="M21.56,59.34H6.72c-3.47,0-6.29-2.82-6.29-6.29v-14.84c0-3.47,2.82-6.29,6.29-6.29h14.84c3.47,0,6.29,2.82,6.29,6.29v14.84c0,3.47-2.82,6.29-6.29,6.29ZM6.72,35.06c-1.74,0-3.16,1.42-3.16,3.16v14.84c0,1.74,1.42,3.16,3.16,3.16h14.84c1.74,0,3.16-1.42,3.16-3.16v-14.84c0-1.74-1.42-3.16-3.16-3.16H6.72Z"/>
  <path class="cls-1" d="M53.28,59.34h-14.84c-3.47,0-6.29-2.82-6.29-6.29v-14.84c0-3.47,2.82-6.29,6.29-6.29h14.84c3.47,0,6.29,2.82,6.29,6.29v14.84c0,3.47-2.82,6.29-6.29,6.29ZM38.44,35.06c-1.74,0-3.16,1.42-3.16,3.16v14.84c0,1.74,1.42,3.16,3.16,3.16h14.84c1.74,0,3.16-1.42,3.16-3.16v-14.84c0-1.74-1.42-3.16-3.16-3.16h-14.84Z"/>
  <path class="cls-1" d="M45.86,27.17c-6.99,0-12.68-5.69-12.68-12.68S38.86,1.81,45.86,1.81s12.68,5.69,12.68,12.68-5.69,12.68-12.68,12.68ZM45.86,4.93c-5.27,0-9.56,4.29-9.56,9.56s4.29,9.56,9.56,9.56,9.56-4.29,9.56-9.56-4.29-9.56-9.56-9.56Z"/>
</svg>