<?xml version="1.0" encoding="UTF-8"?>
<svg id="_레이어_1" data-name=" 레이어 1" xmlns="http://www.w3.org/2000/svg" viewBox="0 0 60 60">
  <defs>
    <style>
      .cls-1 {
        fill: #fff;
      }
    </style>
  </defs>
  <g>
    <path class="cls-1" d="M17.27,59.7c-.09,0-.17,0-.26,0l-4.61-.41c-1.45-.13-2.57-1.28-2.66-2.73-.07-1.14.53-2.23,1.54-2.77l2.07-1.1c.42-.23.9-.35,1.38-.35h3.56c.63,0,1.22.2,1.73.57,1.29.94,1.59,2.71.7,4.02l-1.03,1.51c-.55.8-1.46,1.28-2.42,1.28h0ZM14.73,55.18h-.04l-2.07,1.11s-.04.04-.04.07c0,.04.03.07.07.07l4.61.41s.05,0,.07-.03l1.03-1.51s.02-.08-.02-.1l-.05-.02s-3.56,0-3.56,0Z"/>
    <path class="cls-1" d="M48.15,21c-.38,0-.76-.15-1.03-.44-.42-.44-.52-1.09-.24-1.63l.32-.63c.2-.39.56-.67.99-.75.43-.09.87.03,1.2.31l.37.31c.37.32.56.8.49,1.28-.07.48-.38.9-.82,1.1l-.69.31c-.19.09-.39.13-.59.13h0Z"/>
    <path class="cls-1" d="M17.08,47.82c-.84,0-1.68-.21-2.45-.63-1.44-.79-2.4-2.17-2.62-3.79l-.2-1.47c-.12-.87,0-1.76.37-2.56l1.36-2.99c.08-.17.1-.37.05-.56l-1.81-6.63c-.14-.52-.14-1.07,0-1.59l.05-.18c.35-1.33,1.55-2.23,2.86-2.27l-1.41-4.44c-.06-.19-.16-.36-.3-.51l-1.09-1.18,3.79-2.76,5.22-.78.42,2.82-4.52.68-.88.64c.03.08.06.15.08.23l1.65,5.19c.26.81.05,1.69-.53,2.31-.58.62-1.45.87-2.28.66-.11-.03-.22.04-.25.15l-.05.18v.11l1.81,6.62c.23.83.15,1.71-.2,2.49l-1.36,2.99c-.14.31-.19.65-.14.98l.2,1.47c.1.72.52,1.33,1.16,1.68.64.35,1.38.37,2.04.07l6.16-2.86c.64-.3,1.32-.46,2.03-.48l3.87-.11c.33,0,.65-.09.94-.23l.59-.29c.63-.3,1.03-.92,1.05-1.62l.27-10.9c0-.6-.02-1.21-.11-1.8l2.82-.41c.11.75.15,1.52.13,2.28l-.27,10.9c-.04,1.77-1.06,3.35-2.66,4.12l-.59.29c-.66.32-1.36.49-2.09.51l-3.87.11c-.32,0-.62.08-.91.22l-6.16,2.86c-.69.32-1.43.48-2.16.48h-.01Z"/>
  </g>
  <path class="cls-1" d="M32.37,25.82l-8.34-9.84c-1.12-1.66-1.72-3.61-1.72-5.62C22.31,4.82,26.82.3,32.37.3s10.06,4.51,10.06,10.06c0,2.02-.59,3.96-1.72,5.63l-.09.12-8.25,9.71ZM26.35,14.33l6.02,7.09,6.02-7.09c.78-1.18,1.19-2.55,1.19-3.97,0-3.97-3.23-7.21-7.21-7.21s-7.21,3.23-7.21,7.21c0,1.42.41,2.79,1.19,3.97ZM32.37,14.95c-2.55,0-4.62-2.07-4.62-4.62s2.07-4.62,4.62-4.62,4.62,2.07,4.62,4.62-2.07,4.62-4.62,4.62ZM32.37,8.55c-.98,0-1.77.79-1.77,1.77s.79,1.77,1.77,1.77,1.77-.79,1.77-1.77-.79-1.77-1.77-1.77Z"/>
</svg>