<?xml version="1.0" encoding="UTF-8"?>
<svg id="_레이어_1" data-name="레이어 1" xmlns="http://www.w3.org/2000/svg" viewBox="0 0 14 14">
  <defs>
    <style>
      .cls-1 {
        fill: #3e80eb;
      }
    </style>
  </defs>
  <path class="cls-1" d="M5.19,13.85c-.94,0-1.88-.01-2.57-.05-.71-.04-1.28-.3-1.69-.78-.7-.82-.66-1.99-.65-2.2v-5.61s0,0,0-.01c.01-.7.27-1.3.75-1.72.93-.82,2.4-.74,2.64-.72h3.29s0-.01,0-.01c.31,0,.56.25.56.56,0,.31-.25.56-.56.56h-3.32s-.04.01-.06,0c-.33-.03-1.31-.01-1.82.45-.24.21-.36.5-.37.89v5.63s0,.03,0,.05c0,.04-.06.89.38,1.4.21.24.5.37.9.39,1.97.11,6.17,0,6.24,0,.02,0,.26-.02.49-.19.32-.24.48-.69.48-1.33v-4.28c0-.31.25-.56.56-.56s.56.25.56.56v4.28c0,1.31-.54,1.96-1,2.28-.49.34-.98.37-1.06.37-.12,0-1.95.05-3.77.05ZM8.93,12.68s0,0,0,0c0,0,0,0,0,0Z"/>
  <path class="cls-1" d="M4.93,9.52c-.14,0-.29-.05-.4-.16-.22-.22-.22-.57,0-.79L12.66.42c.22-.22.57-.22.79,0,.22.22.22.57,0,.79L5.33,9.36c-.11.11-.25.16-.4.16Z"/>
  <path class="cls-1" d="M13.16,5.57c-.31,0-.56-.25-.56-.56V1.27h-3.68c-.31,0-.56-.25-.56-.56s.25-.56.56-.56h4.24c.31,0,.56.25.56.56v4.3c0,.31-.25.56-.56.56Z"/>
</svg>