<?xml version="1.0" encoding="UTF-8"?>
<svg id="_레이어_1" data-name="레이어 1" xmlns="http://www.w3.org/2000/svg" viewBox="0 0 14 14">
  <defs>
    <style>
      .cls-1 {
        fill: #3e80eb;
      }
    </style>
  </defs>
  <path class="cls-1" d="M5.17,13.94c-.96,0-1.91-.01-2.6-.05-.72-.04-1.29-.31-1.71-.79-.71-.83-.67-2.02-.65-2.23v-5.68s0,0,0-.01c.01-.71.28-1.31.76-1.74.94-.83,2.43-.75,2.68-.73h3.33s0-.01,0-.01c.31,0,.57.25.57.57,0,.31-.25.57-.57.57h-3.36s-.04.01-.06,0c-.34-.03-1.32-.01-1.85.45-.24.22-.36.51-.37.9v5.7s0,.03,0,.05c0,.04-.06.9.39,1.42.21.24.51.37.91.4,1.99.12,6.25,0,6.32,0,.02,0,.27-.02.5-.2.33-.25.49-.7.49-1.35v-4.34c0-.31.25-.57.57-.57s.57.25.57.57v4.34c0,1.32-.55,1.98-1.01,2.3-.5.34-.99.37-1.08.37-.12,0-1.98.05-3.82.05ZM8.96,12.75s0,0,0,0c0,0,0,0,0,0Z"/>
  <path class="cls-1" d="M4.91,9.56c-.14,0-.29-.06-.4-.17-.22-.22-.22-.58,0-.8L12.73.33c.22-.22.58-.22.8,0,.22.22.22.58,0,.8L5.31,9.39c-.11.11-.26.17-.4.17Z"/>
  <path class="cls-1" d="M13.24,5.55c-.31,0-.57-.25-.57-.57V1.19h-3.73c-.31,0-.57-.25-.57-.57s.25-.57.57-.57h4.3c.31,0,.57.25.57.57v4.36c0,.31-.25.57-.57.57Z"/>
</svg>