<?xml version="1.0" encoding="UTF-8"?>
<svg id="_레이어_1" data-name="레이어 1" xmlns="http://www.w3.org/2000/svg" viewBox="0 0 20 20">
  <defs>
    <style>
      .cls-1 {
        fill: #fff;
      }

      .cls-2 {
        fill: red;
      }
    </style>
  </defs>
  <rect class="cls-2" y="0" width="20" height="20" rx="6" ry="6"/>
  <g>
    <path class="cls-1" d="M16.41,6.75c-.15-.58-.61-1.04-1.18-1.19-1.04-.28-5.23-.28-5.23-.28,0,0-4.18,0-5.23.28-.58.16-1.03.61-1.18,1.19-.28,1.05-.28,3.25-.28,3.25,0,0,0,2.19.28,3.25.15.58.61,1.04,1.18,1.19,1.04.28,5.23.28,5.23.28,0,0,4.18,0,5.23-.28.58-.16,1.03-.61,1.18-1.19.28-1.05.28-3.25.28-3.25,0,0,0-2.19-.28-3.25Z"/>
    <polygon class="cls-2" points="8.66 12.02 12.14 10 8.66 7.98 8.66 12.02"/>
  </g>
</svg>