<?xml version="1.0" encoding="UTF-8"?>
<svg id="_레이어_1" data-name="레이어 1" xmlns="http://www.w3.org/2000/svg" viewBox="0 0 20 20">
  <defs>
    <style>
      .cls-1 {
        fill: #2cb24a;
      }

      .cls-2 {
        fill: #fff;
      }

      .cls-3 {
        fill: #f37527;
      }
    </style>
  </defs>
  <path class="cls-1" d="M4,0h12c2.21,0,4,1.79,4,4v12c0,2.21-1.79,4-4,4H4C1.79,20,0,18.21,0,16V4C0,1.79,1.79,0,4,0Z"/>
  <path class="cls-2" d="M15.86,1.53H4.14c-1.49,0-2.7,1.22-2.7,2.71v6.44c0,1.5,1.21,2.71,2.7,2.71h4.04l1.38,2.24s.01.03.04.06c.08.14.23.23.4.23s.32-.09.4-.23c.03-.04.05-.07.05-.07l1.38-2.24h4.04c1.49,0,2.7-1.22,2.7-2.71v-6.44c0-1.5-1.21-2.71-2.7-2.71Z"/>
  <g>
    <path class="cls-3" d="M5.24,6.25s-.47,0-.89.41v-1.66h-1.05v4.37h1.06v-.34s.25.45.88.45c0,0,1.48-.05,1.48-1.63,0,0-.05-1.6-1.48-1.6ZM5.01,8.55c-.37,0-.67-.3-.67-.67s.3-.67.67-.67.67.3.67.67-.3.67-.67.67Z"/>
    <path class="cls-3" d="M7.05,4.9v1.01s.48-.02.48.87v2.59h1.01v-2.83s.04-1.64-1.49-1.64Z"/>
    <path class="cls-3" d="M11.01,6.26s-1.73,0-1.73,1.62c0,0-.06,1.6,1.73,1.6,0,0,1.77,0,1.77-1.6,0,0,.06-1.62-1.77-1.62ZM11.02,8.55c-.37,0-.67-.3-.67-.67s.3-.67.67-.67.67.3.67.67-.3.67-.67.67Z"/>
    <path class="cls-3" d="M15.68,6.37v.29s-.3-.4-.88-.4c0,0-1.48-.06-1.48,1.61,0,0-.02,1.56,1.44,1.56,0,0,.59.02.92-.4v.24s.07.77-.67.77h-.25v.93h.41s1.53.02,1.53-1.64v-2.96h-1.02ZM15.05,8.55c-.37,0-.67-.3-.67-.67s.3-.67.67-.67.67.3.67.67-.3.67-.67.67Z"/>
  </g>
</svg>