<svg width="74" height="80" viewBox="0 0 74 80" fill="none" xmlns="http://www.w3.org/2000/svg">
<path d="M60.6231 21.7335C59.5444 21.7335 56.901 22.5405 56.8251 23.7282L56.8859 28.1287L56.8251 22.7994C56.8251 21.0331 55.6249 18.4598 52.9663 18.4598C48.9101 18.4598 48.3784 21.6574 48.3784 23.3323V28.0678V24.0023C48.3784 18.7339 45.583 18.003 44.2462 18.003C42.9093 18.003 39.5215 19.0994 39.5215 22.6014V27.7328V5.19756C39.5215 3.43129 37.2275 2 35.4652 2C33.7029 2 32.2749 3.43129 32.2749 5.19756V37.1123V33.8691C32.2749 32.6662 31.4697 30.8238 28.2794 30.8238C25.0891 30.8238 24.8916 34.7065 24.8916 35.6201L25.0891 44.2992C25.0891 44.2992 24.6941 49.2326 29.8746 53.633C33.3535 56.587 34.4625 58.8405 34.265 60.8352H59.2254C59.2254 60.8352 59.1495 56.5718 60.3648 54.303C61.7625 51.6688 64.6186 46.035 64.6186 41.6346C64.6186 37.2341 64.5426 26.2863 64.5426 26.2863C64.5426 26.2863 64.6186 21.7488 60.6231 21.7488V21.7335Z" stroke="white" stroke-width="3" stroke-linecap="round" stroke-linejoin="round"/>
<path d="M61.0176 61.515H33.3379V77.7312H61.0176V61.515Z" stroke="white" stroke-width="3" stroke-linecap="round" stroke-linejoin="round"/>
<path d="M50.2158 10.5928H65.6205" stroke="#3382E9" stroke-width="3" stroke-linecap="round" stroke-linejoin="round"/>
<path d="M62.0537 6.02466L69.4674 10.5926L62.631 15.1606" stroke="#3382E9" stroke-width="3" stroke-linecap="round" stroke-linejoin="round"/>
<path d="M22.4841 10.5928H7.125" stroke="#3382E9" stroke-width="3" stroke-linecap="round" stroke-linejoin="round"/>
<path d="M10.6768 6.02466L3.27832 10.5926L10.1147 15.1606" stroke="#3382E9" stroke-width="3" stroke-linecap="round" stroke-linejoin="round"/>
</svg>
