<?xml version="1.0" encoding="UTF-8"?>
<svg id="_레이어_1" data-name="레이어 1" xmlns="http://www.w3.org/2000/svg" viewBox="0 0 8 8">
  <defs>
    <style>
      .cls-1 {
        fill: #283c82;
      }
    </style>
  </defs>
  <path class="cls-1" d="M7.15,7.9c-.19,0-.38-.07-.53-.22L.32,1.38C.03,1.09.03.61.32.32.61.03,1.09.03,1.38.32l6.3,6.3c.29.29.29.76,0,1.06-.15.15-.34.22-.53.22Z"/>
  <path class="cls-1" d="M.85,7.9c-.19,0-.38-.07-.53-.22-.29-.29-.29-.76,0-1.06L6.62.32c.29-.29.76-.29,1.06,0,.29.29.29.76,0,1.06L1.38,7.68c-.15.15-.34.22-.53.22Z"/>
</svg>