<?xml version="1.0" encoding="UTF-8"?>
<svg id="_레이어_1" data-name="레이어 1" xmlns="http://www.w3.org/2000/svg" viewBox="0 0 17 17">
  <defs>
    <style>
      .cls-1 {
        fill: #003668;
      }
    </style>
  </defs>
  <path class="cls-1" d="M5.56,16.45c-.72,0-1.43-.14-2.09-.41-.69-.28-1.31-.69-1.84-1.22s-.94-1.15-1.22-1.84c-.27-.67-.41-1.37-.41-2.09s.14-1.43.41-2.09c.28-.69.69-1.31,1.22-1.84L7.85.74c.26-.26.69-.26.95,0s.26.69,0,.95L2.58,7.91c-.8.8-1.24,1.86-1.24,2.98s.44,2.19,1.24,2.98c1.65,1.65,4.32,1.65,5.97,0l6.34-6.34c.5-.5.77-1.16.77-1.86s-.27-1.36-.77-1.86c-1.02-1.02-2.69-1.02-3.71,0l-5.92,5.92c-.19.19-.3.45-.3.73s.11.53.3.73.45.3.73.3.53-.11.73-.3l5.8-5.8c.26-.26.69-.26.95,0,.26.26.26.69,0,.95l-5.8,5.8c-.45.45-1.04.69-1.68.69s-1.23-.25-1.68-.69c-.45-.45-.69-1.04-.69-1.68s.25-1.23.69-1.68l5.92-5.92c.75-.75,1.75-1.16,2.81-1.16s2.06.41,2.81,1.16c.75.75,1.16,1.75,1.16,2.81s-.41,2.06-1.16,2.81l-6.34,6.34c-.53.53-1.15.94-1.84,1.22-.67.27-1.37.41-2.09.41Z"/>
</svg>