<?xml version="1.0" encoding="UTF-8"?>
<svg id="_레이어_1" data-name="레이어 1" xmlns="http://www.w3.org/2000/svg" viewBox="0 0 20 18">
  <defs>
    <style>
      .cls-1 {
        fill: #003668;
      }
    </style>
  </defs>
  <path class="cls-1" d="M16.33,17.66H3.67c-1.96,0-3.56-1.6-3.56-3.56V5.06C.11,3.1,1.7,1.5,3.67,1.5h12.66c1.96,0,3.56,1.6,3.56,3.56v9.03c0,1.96-1.6,3.56-3.56,3.56ZM3.67,3.04c-1.12,0-2.02.91-2.02,2.02v9.03c0,1.12.91,2.02,2.02,2.02h12.66c1.12,0,2.02-.91,2.02-2.02V5.06c0-1.12-.91-2.02-2.02-2.02H3.67Z"/>
  <g>
    <path class="cls-1" d="M4.93,4.19c-.42,0-.77-.34-.77-.77V1.11c0-.42.34-.77.77-.77s.77.34.77.77v2.31c0,.42-.34.77-.77.77Z"/>
    <path class="cls-1" d="M15.07,4.19c-.42,0-.77-.34-.77-.77V1.11c0-.42.34-.77.77-.77s.77.34.77.77v2.31c0,.42-.34.77-.77.77Z"/>
  </g>
  <g>
    <path class="cls-1" d="M5.45,10.47h-1.28c-.42,0-.77-.34-.77-.77s.34-.77.77-.77h1.28c.42,0,.77.34.77.77s-.34.77-.77.77Z"/>
    <path class="cls-1" d="M8.91,10.47h-1.28c-.42,0-.77-.34-.77-.77s.34-.77.77-.77h1.28c.42,0,.77.34.77.77s-.34.77-.77.77Z"/>
    <path class="cls-1" d="M12.37,10.47h-1.28c-.42,0-.77-.34-.77-.77s.34-.77.77-.77h1.28c.42,0,.77.34.77.77s-.34.77-.77.77Z"/>
    <path class="cls-1" d="M15.84,10.47h-1.28c-.42,0-.77-.34-.77-.77s.34-.77.77-.77h1.28c.42,0,.77.34.77.77s-.34.77-.77.77Z"/>
  </g>
  <g>
    <path class="cls-1" d="M5.45,13.84h-1.28c-.42,0-.77-.34-.77-.77s.34-.77.77-.77h1.28c.42,0,.77.34.77.77s-.34.77-.77.77Z"/>
    <path class="cls-1" d="M8.91,13.84h-1.28c-.42,0-.77-.34-.77-.77s.34-.77.77-.77h1.28c.42,0,.77.34.77.77s-.34.77-.77.77Z"/>
    <path class="cls-1" d="M12.37,13.84h-1.28c-.42,0-.77-.34-.77-.77s.34-.77.77-.77h1.28c.42,0,.77.34.77.77s-.34.77-.77.77Z"/>
    <path class="cls-1" d="M15.84,13.84h-1.28c-.42,0-.77-.34-.77-.77s.34-.77.77-.77h1.28c.42,0,.77.34.77.77s-.34.77-.77.77Z"/>
  </g>
  <path class="cls-1" d="M19.12,7.33H.88c-.42,0-.77-.34-.77-.77s.34-.77.77-.77h18.25c.42,0,.77.34.77.77s-.34.77-.77.77Z"/>
</svg>