<?xml version="1.0" encoding="UTF-8"?>
<svg id="_레이어_1" data-name=" 레이어 1" xmlns="http://www.w3.org/2000/svg" viewBox="0 0 20 20">
  <defs>
    <style>
      .cls-1 {
        fill: #fff;
      }
    </style>
  </defs>
  <polygon class="cls-1" points="17.29 11.03 13.99 8.75 14.87 7.48 17.03 8.97 18.76 6.99 19.92 8 17.29 11.03"/>
  <path class="cls-1" d="M9,18.93C4.08,18.93.08,14.92.08,10S4.08,1.07,9,1.07s8.93,4,8.93,8.93h-1.54c0-4.07-3.31-7.39-7.39-7.39S1.62,5.93,1.62,10s3.31,7.39,7.39,7.39c2.97,0,5.64-1.77,6.8-4.5l1.42.6c-1.4,3.3-4.63,5.44-8.22,5.44h0Z"/>
</svg>