<?xml version="1.0" encoding="UTF-8"?>
<svg id="_레이어_1" data-name="레이어 1" xmlns="http://www.w3.org/2000/svg" viewBox="0 0 14 14">
  <path d="M5.18,13.91c-.95,0-1.9-.01-2.59-.05-.72-.04-1.29-.31-1.7-.79-.71-.82-.66-2.01-.65-2.22v-5.65s0,0,0-.01c.01-.71.27-1.31.75-1.73.93-.83,2.42-.75,2.66-.73h3.32s0-.01,0-.01c.31,0,.56.25.56.56,0,.31-.25.57-.56.57h-3.34s-.04.01-.06,0c-.33-.03-1.32-.01-1.84.45-.24.21-.36.51-.37.9v5.67s0,.03,0,.05c0,.04-.06.9.38,1.41.21.24.51.37.91.39,1.98.11,6.22,0,6.29,0,.02,0,.26-.02.5-.2.32-.25.49-.7.49-1.34v-4.32c0-.31.25-.56.56-.56s.56.25.56.56v4.32c0,1.32-.55,1.97-1.01,2.29-.49.34-.99.37-1.07.37-.12,0-1.97.05-3.8.05ZM8.95,12.72s0,0,0,0c0,0,0,0,0,0Z"/>
  <path d="M4.92,9.54c-.14,0-.29-.05-.4-.16-.22-.22-.22-.58,0-.8L12.7.37c.22-.22.58-.22.8,0,.22.22.22.58,0,.8L5.32,9.38c-.11.11-.26.17-.4.17Z"/>
  <path d="M13.21,5.56c-.31,0-.56-.25-.56-.56V1.22h-3.71c-.31,0-.56-.25-.56-.56s.25-.56.56-.56h4.27c.31,0,.56.25.56.56v4.34c0,.31-.25.56-.56.56Z"/>
</svg>