<?xml version="1.0" encoding="UTF-8"?>
<svg id="_레이어_1" data-name="레이어 1" xmlns="http://www.w3.org/2000/svg" viewBox="0 0 12 12">
  <defs>
    <style>
      .cls-1 {
        fill: #12426a;
      }
    </style>
  </defs>
  <path class="cls-1" d="M10.44,4.91s0-.05,0-.07C10.45,2.29,8.46.22,6,.22S1.55,2.29,1.55,4.84c0,.46.06.9.18,1.31.63,2.66,4.28,5.63,4.28,5.63,0,0,3.88-3.16,4.34-5.88.06-.23.09-.54.09-.89,0-.04,0-.07,0-.11M6,7.39c-1.39,0-2.52-1.15-2.52-2.58s1.13-2.58,2.52-2.58,2.52,1.15,2.52,2.58-1.13,2.58-2.52,2.58Z"/>
</svg>