<svg width="18" height="18" viewBox="0 0 18 18" fill="none" xmlns="http://www.w3.org/2000/svg">
<g opacity="0.3" clip-path="url(#clip0_164_5517)">
<path d="M7.60454 2.12097C10.6351 2.12097 13.0948 4.59544 13.0948 7.62844C13.0948 10.6614 10.628 13.1359 7.60454 13.1359C4.58105 13.1359 2.11433 10.6614 2.11433 7.62844C2.11433 4.59544 4.58105 2.12097 7.60454 2.12097ZM7.60454 0C3.40407 0 0 3.41477 0 7.62844C0 11.8421 3.40407 15.2569 7.60454 15.2569C11.805 15.2569 15.2091 11.8421 15.2091 7.62844C15.2091 3.41477 11.805 0 7.60454 0Z" fill="white"/>
<path d="M12.4746 12.4501L16.9429 16.9395" stroke="white" stroke-width="3" stroke-miterlimit="10" stroke-linecap="round"/>
</g>
<defs>
<clipPath id="clip0_164_5517">
<rect width="18" height="18" fill="white"/>
</clipPath>
</defs>
</svg>
