<svg width="19" height="21" viewBox="0 0 19 21" fill="none" xmlns="http://www.w3.org/2000/svg">
<path d="M1.4021 12.58C0.62774 11.1153 1.18743 9.30012 2.65219 8.52576L8.08537 5.65347C9.55014 4.87911 11.3653 5.4388 12.1397 6.90356L15.0119 12.3367C15.7863 13.8015 15.2266 15.6167 13.7619 16.391L8.32867 19.2633C6.86391 20.0377 5.04874 19.478 4.27438 18.0132L1.4021 12.58Z" fill="url(#paint0_linear_819_2757)"/>
<path d="M1.88061 8.91586C1.10626 7.4511 1.66594 5.63593 3.13071 4.86157L6.40269 3.13182L9.53454 9.05599L6.26256 10.7857C4.7978 11.5601 2.98263 11.0004 2.20827 9.53565L1.88061 8.91586Z" fill="#12426A"/>
<path d="M6.4043 3.13184L9.67628 1.40208C11.141 0.627725 12.9562 1.18741 13.7306 2.65217L15.4603 5.92416L9.53615 9.05601L6.4043 3.13184Z" fill="#4282B7"/>
<path d="M9.53516 9.05603L15.4593 5.92418L17.1891 9.19616C17.9634 10.6609 17.4038 12.4761 15.939 13.2504L15.3192 13.5781C13.8544 14.3525 12.0393 13.7928 11.2649 12.328L9.53516 9.05603Z" fill="#89C6F9"/>
<defs>
<linearGradient id="paint0_linear_819_2757" x1="5.55391" y1="6.99174" x2="16.1995" y2="9.65436" gradientUnits="userSpaceOnUse">
<stop stop-color="#2E92E6"/>
<stop offset="1" stop-color="#114F83"/>
</linearGradient>
</defs>
</svg>
