<?xml version="1.0" encoding="UTF-8"?>
<svg id="_레이어_1" data-name="레이어 1" xmlns="http://www.w3.org/2000/svg" viewBox="0 0 24 24">
  <defs>
    <style>
      .cls-1 {
        fill: #cfcfcf;
      }
    </style>
  </defs>
  <path class="cls-1" d="M8.53,11.89h-4.25c-.53,0-.96.43-.96.96s.43.96.96.96h4.25c.53,0,.96-.43.96-.96s-.43-.96-.96-.96Z"/>
  <path class="cls-1" d="M16.17,11.89c-.53,0-.96.43-.96.96v8.64c0,.33-.27.6-.6.6H2.43c-.33,0-.6-.27-.6-.6V2.51c0-.33.27-.6.6-.6h12.18c.33,0,.6.27.6.6v1c0,.53.43.96.96.96s.96-.43.96-.96v-1c0-1.38-1.13-2.51-2.51-2.51H2.43C1.05,0-.07,1.13-.07,2.51v18.98c0,1.38,1.13,2.51,2.51,2.51h12.18c1.38,0,2.51-1.13,2.51-2.51v-8.64c0-.53-.43-.96-.96-.96Z"/>
  <path class="cls-1" d="M3.32,16.25c0,.53.43.96.96.96h8.5c.53,0,.96-.43.96-.96s-.43-.96-.96-.96H4.28c-.53,0-.96.43-.96.96Z"/>
  <path class="cls-1" d="M13.73,6.05c0-.53-.43-.96-.96-.96H4.28c-.53,0-.96.43-.96.96s.43.96.96.96h8.5c.53,0,.96-.43.96-.96Z"/>
  <path class="cls-1" d="M23.31,1.64l-.6-.6c-.69-.69-1.86-.69-2.55,0l-9.01,9.01-1.62,2.9c-.27.5-.21,1.09.14,1.52l.09.1.12.1c.25.2.56.31.86.31.22,0,.45-.06.66-.17l2.8-1.52,9.11-9.11c.7-.7.7-1.85,0-2.55ZM21.43,2.47l.45.45-1.29,1.29-.45-.45,1.29-1.29ZM18.79,5.1l.45.45-6.2,6.2-.99.53.53-.98,6.2-6.2Z"/>
  <path class="cls-1" d="M11.18,9.45c0-.53-.43-.96-.96-.96h-5.95c-.53,0-.96.43-.96.96s.43.96.96.96h5.95c.53,0,.96-.43.96-.96Z"/>
</svg>