<?xml version="1.0" encoding="UTF-8"?>
<svg id="_레이어_1" data-name="레이어 1" xmlns="http://www.w3.org/2000/svg" viewBox="0 0 24 24">
  <defs>
    <style>
      .cls-1 {
        fill: #fff;
      }
    </style>
  </defs>
  <path class="cls-1" d="M10.17,20.52c-4.93,0-7.63-4.44-7.75-4.64-3.23-5.28-.95-9.87.71-11.56.45-.46,1.2-.47,1.66-.02.46.45.47,1.2.02,1.66-.15.16-3.44,3.69-.38,8.7.1.17,2.48,4,6.59,3.44.03,0,.06,0,.1,0,.26-.02,6.44-.49,6.67-7.33,0-1.55-.43-4.08-1.36-4.74-.53-.37-.66-1.11-.29-1.64.37-.53,1.11-.66,1.64-.29,2.3,1.6,2.37,6.19,2.37,6.7-.24,7.22-5.86,9.46-8.85,9.64-.39.05-.76.08-1.13.08Z"/>
  <path class="cls-1" d="M6.87,3.7c-.33,0-.66-.14-.89-.41-.42-.49-.38-1.22.11-1.65,1.3-1.14,4.73-2.69,8.44-.41.55.34.73,1.07.39,1.62-.34.55-1.07.73-1.62.39-3.13-1.92-5.56.09-5.66.18-.22.19-.5.28-.77.28Z"/>
  <path class="cls-1" d="M22.04,23.94c-.32,0-.63-.13-.87-.38l-5.43-5.89c-.44-.48-.41-1.22.07-1.66.48-.44,1.22-.41,1.66.07l5.43,5.89c.44.48.41,1.22-.07,1.66-.23.21-.51.31-.8.31Z"/>
  <g>
    <path class="cls-1" d="M5.06,13.76l2.41-6.84h1.52l2.41,6.84h-1.31l-1.83-5.44h-.06l-1.83,5.44h-1.31ZM10.03,11.07v.99h-3.6v-.99h3.6Z"/>
    <path class="cls-1" d="M11.92,6.91h3.65v1.03h-3.65v-1.03ZM11.92,12.72h3.65v1.03h-3.65v-1.03ZM14.37,13.76h-1.23v-6.84h1.23v6.84Z"/>
  </g>
</svg>