<svg width="15" height="15" viewBox="0 0 15 15" fill="none" xmlns="http://www.w3.org/2000/svg">
<path d="M7.50225 0C3.37053 0 0 3.36153 0 7.49474C0 11.628 3.37053 15 7.50225 15C11.634 15 15 11.6295 15 7.49474C15 3.36002 11.6445 0 7.50225 0ZM11.8712 5.6676L6.72305 10.8157C6.51887 11.0199 6.25012 11.122 5.98288 11.122C5.71564 11.122 5.4469 11.0199 5.24122 10.8157L3.12882 8.70333C2.72045 8.29346 2.72045 7.62987 3.12882 7.2215C3.53868 6.81163 4.20228 6.81163 4.61065 7.2215L5.98288 8.59373L10.3893 4.18577C10.7992 3.7774 11.4628 3.7774 11.8712 4.18577C12.2796 4.59564 12.2796 5.25923 11.8712 5.6676Z" fill="#1E3661"/>
</svg>
