<svg width="19" height="19" viewBox="0 0 19 19" fill="none" xmlns="http://www.w3.org/2000/svg">
<g clip-path="url(#clip0_164_5847)">
<path d="M8.02702 2.23881C11.2259 2.23881 13.8222 4.85075 13.8222 8.05224C13.8222 11.2537 11.2185 13.8657 8.02702 13.8657C4.83555 13.8657 2.23179 11.2537 2.23179 8.05224C2.23179 4.85075 4.83555 2.23881 8.02702 2.23881ZM8.02702 0C3.59319 0 0 3.60448 0 8.05224C0 12.5 3.59319 16.1045 8.02702 16.1045C12.4608 16.1045 16.054 12.5 16.054 8.05224C16.054 3.60448 12.4608 0 8.02702 0Z" fill="white"/>
<path d="M13.168 13.1418L17.8845 17.8806" stroke="white" stroke-width="3" stroke-miterlimit="10" stroke-linecap="round"/>
</g>
<defs>
<clipPath id="clip0_164_5847">
<rect width="19" height="19" fill="white"/>
</clipPath>
</defs>
</svg>
