<svg width="18" height="16" viewBox="0 0 18 16" fill="none" xmlns="http://www.w3.org/2000/svg">
<mask id="path-1-inside-1_415_2099" fill="white">
<path d="M9.5 0H16.5C17.0523 0 17.5 0.447715 17.5 1V15C17.5 15.5523 17.0523 16 16.5 16H9.5V0Z"/>
</mask>
<path d="M9.5 -1.4H16.5C17.8255 -1.4 18.9 -0.325483 18.9 1L16.1 1.4H9.5V-1.4ZM18.9 15C18.9 16.3255 17.8255 17.4 16.5 17.4H9.5V14.6H16.1L18.9 15ZM9.5 16V0V16ZM16.5 -1.4C17.8255 -1.4 18.9 -0.325483 18.9 1V15C18.9 16.3255 17.8255 17.4 16.5 17.4L16.1 14.6V1.4L16.5 -1.4Z" fill="#373F57" mask="url(#path-1-inside-1_415_2099)"/>
<path d="M1.5 8H13.5" stroke="#373F57" stroke-width="1.4"/>
<path d="M4.5 4.5L1 8L4.5 11.5" stroke="#373F57" stroke-width="1.2"/>
</svg>
