<svg width="123" height="84" viewBox="0 0 123 84" fill="none" xmlns="http://www.w3.org/2000/svg">
<g clip-path="url(#clip0_5307_16529)">
<path fill-rule="evenodd" clip-rule="evenodd" d="M116.58 37.61C116.58 58.21 90.96 74.91 59.36 74.91C27.76 74.91 2.14001 58.21 2.14001 37.61C2.14001 17.01 27.76 0.309998 59.36 0.309998C90.96 0.309998 116.58 17.01 116.58 37.61Z" fill="white"/>
<path d="M116.58 37.61C116.58 58.21 90.96 74.91 59.36 74.91C27.76 74.91 2.14001 58.21 2.14001 37.61C2.14001 17.01 27.76 0.309998 59.36 0.309998C90.96 0.309998 116.58 17.01 116.58 37.61Z" stroke="#89BF44" stroke-width="0.61"/>
<path fill-rule="evenodd" clip-rule="evenodd" d="M79.35 29.66C80.8 29.66 81.96 28.52 81.96 27.11C81.96 25.7 80.79 24.56 79.35 24.56C77.91 24.56 76.74 25.71 76.74 27.11C76.74 28.51 77.92 29.66 79.35 29.66Z" fill="#8DC63F"/>
<path fill-rule="evenodd" clip-rule="evenodd" d="M87.65 34.74C88.2 35.56 88.73 36.34 89.16 36.99C91.45 38.09 93.05 40.42 93.05 43.13C93.05 46.89 89.99 49.94 86.24 49.94C82.49 49.94 79.43 46.88 79.43 43.13C79.43 42.99 79.43 42.85 79.45 42.71H79.09C79.02 42.82 78.51 43.65 77.88 44.68C78.61 48.64 82.08 51.64 86.25 51.64C90.95 51.64 94.76 47.82 94.76 43.12C94.76 38.9 91.68 35.4 87.66 34.73" fill="#8DC63F"/>
<path fill-rule="evenodd" clip-rule="evenodd" d="M74.85 48.9L78.88 42.35H87.61C88.62 42.35 91.09 40.63 89.83 38.65C89.83 38.65 84.33 30.42 83.87 29.96C83.41 29.5 81.98 29.08 80.72 29.92C79.73 30.58 77.66 35.25 77.66 35.25C77.66 35.25 75.31 35.29 74.59 35.25C73.88 35.21 73.67 37.64 74.55 37.64H78.83L80.43 34.87L83.75 39.95H76.99L71.7 48.9C71.4 49.45 71.45 50.23 72.49 50.23C73.53 50.23 74.15 49.78 74.85 48.9Z" fill="#8DC63F"/>
<path d="M79.3 36.34H71.69V38.45H79.3V36.34Z" fill="#8DC63F"/>
<path fill-rule="evenodd" clip-rule="evenodd" d="M72.54 36.45L71.72 37.03L67.28 30.7L68.11 30.12L72.54 36.45Z" fill="#8DC63F"/>
<path fill-rule="evenodd" clip-rule="evenodd" d="M36.11 57.27C42.81 59.79 51.06 61.27 59.85 61.27C83.04 61.27 101.87 51.06 101.87 38.39C101.87 31.93 95.91 23.5 80.71 23.5C69.7 23.5 60.1 28.36 60.1 34.33C60.1 35.37 60.71 36.54 61.52 37.34C62.75 38.76 63.12 40.48 63.12 42.08C63.12 49.4 52.23 55.31 38.82 55.31C29.96 55.31 21.84 52.85 17.84 48.85C14.64 45.65 13.59 42.02 13.59 38.39C13.59 24.43 34.32 13.11 59.85 13.11C85.38 13.11 106.17 24.43 106.17 38.39C106.17 52.35 85.44 63.68 59.85 63.68C49.76 63.68 40.41 61.89 32.84 58.94L36.1 57.28L36.11 57.27Z" fill="#89BF44"/>
<path fill-rule="evenodd" clip-rule="evenodd" d="M35.8 55.2C42.51 57.72 50.75 59.2 59.54 59.2C82.73 59.2 101.56 48.99 101.56 36.31C101.56 29.85 95.59 21.43 80.4 21.43C69.39 21.43 59.79 26.29 59.79 32.26C59.79 33.3 60.41 34.47 61.21 35.27C62.44 36.69 62.81 38.41 62.81 40.01C62.81 47.33 51.92 53.24 38.51 53.24C29.65 53.24 21.53 50.78 17.53 46.78C14.33 43.58 13.29 39.95 13.29 36.32C13.29 22.36 34.02 11.04 59.55 11.04C85.08 11.04 105.87 22.36 105.87 36.32C105.87 50.28 85.14 61.61 59.55 61.61C49.46 61.61 40.11 59.83 32.54 56.88L35.8 55.22V55.2Z" fill="#388841"/>
<path d="M22.69 15.58C22.26 14.52 21.85 13.78 21.49 13.17L18.96 14.69L18.5 13.91L21.99 11.82L22.32 12.37C22.71 13.03 23.21 13.85 23.69 15.09L22.69 15.58ZM22.67 16.75C23.31 16.34 23.95 15.9 24.52 15.45L24.99 16.12C23.76 17.18 22.26 18.12 21.08 18.83L20.51 18.08C20.88 17.86 21.3 17.61 21.72 17.35L20.52 15.34L21.48 14.77L22.66 16.75H22.67ZM26.17 13.22L25.26 13.77L27.2 17.02L26.23 17.6L22.16 10.8L23.13 10.22L24.77 12.96L25.68 12.41L26.17 13.22Z" fill="#398841"/>
<path d="M31.66 8.23L27.32 9.9L27 9.07L28.63 8.44L28.36 7.75L29.43 7.34L29.7 8.03L31.34 7.4L31.66 8.23ZM30.63 12.02C29.57 12.43 28.61 12.16 28.3 11.35C27.99 10.55 28.53 9.7 29.59 9.3C30.65 8.89 31.61 9.16 31.92 9.96C32.23 10.77 31.7 11.61 30.63 12.02ZM30.32 11.22C30.79 11.04 31.05 10.73 30.9 10.35C30.76 9.98 30.36 9.92 29.89 10.1C29.41 10.29 29.16 10.59 29.3 10.96C29.44 11.34 29.84 11.4 30.32 11.21M29.54 13.01L34.46 11.12L35.41 13.59L34.35 14L33.73 12.39L29.87 13.87L29.54 13.02V13.01ZM34.6 8.59L33.62 8.96L34.33 10.82L33.27 11.23L31.49 6.6L32.55 6.19L33.28 8.09L34.26 7.72L34.6 8.6V8.59Z" fill="#398841"/>
<path d="M40.5 4.83999C41.05 7.19999 40.72 9.30999 38.3 11.28L37.52 10.54C39.26 9.12999 39.83 7.71999 39.58 5.97999L37.02 6.57999L36.81 5.69999L40.5 4.82999V4.83999ZM42.6 3.48999L44.42 11.21L43.31 11.47L41.5 3.74999L42.61 3.48999H42.6Z" fill="#398841"/>
<path d="M50.46 6.40998L50.52 6.90998L52.65 6.66998L52.88 8.70998L48.58 9.19998L48.63 9.63998L53.13 9.12998L53.23 9.97998L47.61 10.62L47.37 8.54998L51.67 8.05998L51.62 7.62998L47.31 8.11998L47.21 7.27998L49.37 7.02998L49.31 6.52998L46.33 6.86998L46.23 5.97998L53.32 5.16998L53.42 6.05998L50.43 6.39998L50.46 6.40998ZM52.59 4.93998C51.22 4.93998 50.19 4.54998 49.61 3.87998C49.2 4.64998 48.27 5.27998 46.94 5.57998L46.48 4.77998C48.22 4.40998 48.99 3.50998 48.9 2.74998L48.88 2.60998L50.04 2.47998L50.06 2.62998C50.15 3.38998 51.09 4.08998 52.87 4.05998L52.59 4.94998V4.93998Z" fill="#398841"/>
<path d="M59.97 6.41002C59.11 6.13002 58.51 5.58002 58.16 4.89002C57.82 5.69002 57.2 6.35002 56.29 6.66002L55.71 5.77002C56.96 5.32002 57.52 4.31002 57.55 3.32002H55.99V2.42002L60.24 2.38002V3.29002L58.71 3.30002C58.75 4.21002 59.31 5.13002 60.51 5.51002L59.97 6.40002V6.41002ZM62.42 8.30002C62.42 9.26002 61.4 9.83002 59.73 9.85002C58.05 9.87002 57.01 9.31002 57.01 8.35002C57.01 7.39002 58.03 6.82002 59.71 6.80002C61.38 6.78002 62.42 7.34002 62.43 8.30002M61.28 8.31002C61.28 7.86002 60.74 7.65002 59.71 7.66002C58.67 7.66002 58.13 7.89002 58.14 8.34002C58.14 8.79002 58.69 9.00002 59.72 8.99002C60.75 8.98002 61.29 8.76002 61.28 8.31002ZM61.21 3.81002L61.19 1.90002H62.32L62.36 6.61002H61.23L61.21 4.74002H60.02V3.83002H61.2L61.21 3.81002Z" fill="#398841"/>
<path d="M72.11 8.79001L72.02 9.70001L64.9 8.98001L64.99 8.06001L67.97 8.36001L68.12 6.91001L65.89 6.69001L66.31 2.57001L67.43 2.68001L67.31 3.91001L70.67 4.25001L70.79 3.02001L71.9 3.13001L71.48 7.25001L69.25 7.03001L69.1 8.48001L72.11 8.78001V8.79001ZM67.1 5.91001L70.46 6.25001L70.57 5.15001L67.21 4.81001L67.1 5.91001Z" fill="#398841"/>
<path d="M81.55 8.69L81.36 9.56L74.38 8.02L74.57 7.15L77.5 7.8L77.6 7.32L75.54 6.87L76.27 3.56L81.58 4.73L81.39 5.57L77.18 4.64L77.09 5.04L81.13 5.93L80.95 6.74L76.91 5.85L76.82 6.27L81.09 7.21L80.9 8.05L78.69 7.57L78.58 8.05L81.52 8.7L81.55 8.69ZM80.19 10.99C80.01 11.81 78.93 12.04 77.23 11.67C75.54 11.3 74.65 10.64 74.84 9.81C75.03 8.98 76.1 8.76 77.79 9.13C79.49 9.5 80.38 10.16 80.19 10.99ZM79.08 10.74C79.15 10.42 78.68 10.18 77.61 9.94C76.55 9.71 76.02 9.73 75.95 10.05C75.88 10.37 76.34 10.62 77.41 10.85C78.48 11.09 79.01 11.05 79.08 10.73" fill="#398841"/>
<path d="M89.21 14.28L88.9 15.13L83.77 13.26L84.65 10.86L85.71 11.25L85.14 12.8L89.2 14.28H89.21ZM87.65 11.26C86.93 10.68 86.57 9.91999 86.5 9.10999C85.89 9.73999 85.09 10.13 84.11 10.12L83.88 9.07999C85.26 9.10999 86.18 8.25999 86.54 7.27999L86.81 6.54999L87.89 6.94999L87.62 7.67999C87.26 8.65999 87.43 9.79999 88.5 10.63L87.65 11.28V11.26ZM89.4 13.17L88.33 12.78L90.31 7.35999L91.38 7.74999L89.4 13.17Z" fill="#398841"/>
<path d="M98.27 17.49L95.63 15.99L94.41 18.14L93.43 17.58L94.65 15.43L92.05 13.96L92.5 13.17L98.72 16.7L98.27 17.49ZM98.34 15.63L93.56 12.92L95.29 9.87L96.27 10.42L95.82 11.21L98.65 12.82L99.1 12.03L100.07 12.58L98.34 15.63ZM98.22 13.58L95.39 11.97L94.99 12.68L97.82 14.29L98.22 13.58Z" fill="#398841"/>
<path fill-rule="evenodd" clip-rule="evenodd" d="M37.61 44.83H33.85L33.32 32.49L25.36 44.83H21.6L21.57 24.5H26.26L25.97 37.32L34.04 24.5H37.41L37.76 37.32L45.22 24.5H49.92L37.61 44.83Z" fill="white"/>
<path fill-rule="evenodd" clip-rule="evenodd" d="M52.99 44.99L53.06 41.38H47.38L45.39 44.99H39.95L52.21 24.6H57.58L58.44 44.99H52.99ZM53.34 30.61L49.16 38.03H53.26L53.35 30.61H53.34Z" fill="white"/>
<path d="M2.60998 61.54L0.349978 58.72C0.289978 58.65 0.249978 58.58 0.229978 58.53C0.209978 58.47 0.199978 58.42 0.209978 58.37C0.209978 58.32 0.239978 58.27 0.289978 58.22C0.329978 58.17 0.389978 58.11 0.469978 58.05L1.39998 57.31C1.46998 57.25 1.53998 57.26 1.58998 57.33L1.99998 57.84C2.05998 57.91 2.04998 57.98 1.97998 58.04L1.34998 58.54C1.29998 58.58 1.28998 58.63 1.32998 58.68L3.23998 61.06C3.23998 61.06 3.27998 61.12 3.27998 61.15C3.27998 61.18 3.26998 61.22 3.22998 61.25L2.81998 61.58C2.76998 61.62 2.72998 61.63 2.70998 61.62C2.68998 61.61 2.65998 61.58 2.63998 61.55L2.60998 61.54ZM2.30998 57.69C2.18998 57.53 2.08998 57.37 2.02998 57.19C1.96998 57.01 1.93998 56.84 1.93998 56.67C1.93998 56.5 1.96998 56.34 2.03998 56.18C2.10998 56.03 2.20998 55.89 2.34998 55.78C2.47998 55.67 2.62998 55.6 2.79998 55.57C2.95998 55.54 3.12998 55.54 3.29998 55.57C3.46998 55.61 3.62998 55.68 3.78998 55.78C3.94998 55.88 4.08998 56.01 4.21998 56.17C4.34998 56.33 4.43998 56.49 4.49998 56.67C4.55998 56.85 4.59998 57.02 4.59998 57.19C4.59998 57.36 4.56998 57.52 4.49998 57.68C4.42998 57.84 4.32998 57.96 4.19998 58.07C4.05998 58.18 3.90998 58.25 3.74998 58.28C3.58998 58.31 3.41998 58.31 3.24998 58.28C3.07998 58.24 2.91998 58.17 2.75998 58.07C2.59998 57.97 2.45998 57.84 2.32998 57.68L2.30998 57.69ZM3.65998 56.61C3.53998 56.46 3.40998 56.38 3.25998 56.36C3.10998 56.34 2.98998 56.37 2.87998 56.46C2.76998 56.55 2.70998 56.67 2.68998 56.82C2.67998 56.97 2.72998 57.12 2.83998 57.27C2.95998 57.41 3.08998 57.5 3.23998 57.52C3.38998 57.54 3.51998 57.51 3.62998 57.42C3.73998 57.34 3.78998 57.22 3.80998 57.07C3.81998 56.92 3.76998 56.77 3.64998 56.62L3.65998 56.61ZM5.76998 59.88L5.26998 59.25L3.80998 60.42C3.80998 60.42 3.73998 60.47 3.70998 60.47C3.68998 60.47 3.65998 60.45 3.62998 60.41L3.20998 59.89C3.20998 59.89 3.16998 59.82 3.16998 59.79C3.16998 59.76 3.18998 59.73 3.22998 59.7L7.00998 56.67C7.07998 56.61 7.13998 56.62 7.19998 56.69L7.61998 57.21C7.66998 57.27 7.65998 57.33 7.58998 57.39L5.88998 58.75L6.38998 59.38C6.38998 59.38 6.42998 59.43 6.43998 59.46C6.43998 59.49 6.42998 59.52 6.37998 59.56L5.94998 59.9C5.94998 59.9 5.87998 59.94 5.84998 59.94C5.81998 59.94 5.79998 59.91 5.76998 59.88ZM5.42998 57.36L3.25998 54.65C3.19998 54.58 3.20998 54.51 3.28998 54.44L3.62998 54.17C3.70998 54.11 3.77998 54.12 3.83998 54.19L6.00998 56.9C6.06998 56.98 6.05998 57.04 5.98998 57.11L5.64998 57.39C5.56998 57.45 5.49998 57.44 5.43998 57.37L5.42998 57.36ZM5.67998 56.07L4.59998 54.72C4.59998 54.72 4.55998 54.66 4.55998 54.63C4.55998 54.6 4.57998 54.56 4.62998 54.52L4.97998 54.24C5.02998 54.2 5.06998 54.18 5.09998 54.2C5.12998 54.22 5.15998 54.23 5.17998 54.26L6.25998 55.61C6.31998 55.69 6.30998 55.76 6.22998 55.82L5.88998 56.09C5.88998 56.09 5.80998 56.14 5.77998 56.14C5.74998 56.14 5.70998 56.12 5.67998 56.07Z" fill="white" stroke="#231F20" stroke-width="0.4"/>
<path d="M10.09 64.15L8.34999 62.51L7.73999 63.16L8.57999 63.95C8.64999 64.02 8.69999 64.08 8.72999 64.13C8.75999 64.18 8.77999 64.24 8.76999 64.29C8.76999 64.34 8.73999 64.4 8.70999 64.46C8.66999 64.52 8.61999 64.58 8.54999 64.65L7.24999 66.03C7.18999 66.1 7.11999 66.1 7.05999 66.05L6.58999 65.6C6.51999 65.53 6.51999 65.47 6.57999 65.4L7.61999 64.29C7.66999 64.24 7.66999 64.19 7.61999 64.15L5.34999 62.01C5.34999 62.01 5.30999 61.96 5.29999 61.93C5.28999 61.9 5.29999 61.87 5.33999 61.83L5.71999 61.43C5.71999 61.43 5.79999 61.37 5.81999 61.38C5.83999 61.39 5.86999 61.41 5.89999 61.43L7.06999 62.52L7.67999 61.87L5.93999 60.23C5.93999 60.23 5.87999 60.16 5.87999 60.13C5.87999 60.1 5.89999 60.07 5.92999 60.03L6.26999 59.66C6.26999 59.66 6.33999 59.6 6.36999 59.59C6.39999 59.59 6.42999 59.59 6.47999 59.64L9.36999 62.36C9.44999 62.3 9.54999 62.22 9.64999 62.13C9.74999 62.04 9.85999 61.96 9.94999 61.87C10.05 61.78 10.14 61.7 10.21 61.63C10.29 61.56 10.34 61.51 10.37 61.48C10.42 61.43 10.45 61.39 10.45 61.35C10.45 61.31 10.43 61.27 10.37 61.21L8.17999 59.16C8.17999 59.16 8.12999 59.1 8.11999 59.08C8.11999 59.06 8.11999 59.02 8.16999 58.98L8.53999 58.58C8.53999 58.58 8.60999 58.53 8.62999 58.53C8.64999 58.53 8.68999 58.55 8.71999 58.58L11.36 61.06C11.48 61.17 11.54 61.28 11.54 61.38C11.54 61.48 11.49 61.6 11.37 61.73C11.2 61.91 11 62.11 10.76 62.33C10.52 62.55 10.27 62.76 9.99999 62.95L10.62 63.54C10.69 63.6 10.69 63.67 10.62 63.75L10.28 64.12C10.28 64.12 10.21 64.18 10.17 64.17C10.13 64.16 10.11 64.15 10.08 64.12L10.09 64.15Z" fill="white" stroke="#231F20" stroke-width="0.4"/>
<path d="M12.45 70.15L9.76999 68.18C9.67999 68.12 9.61999 68.06 9.56999 68.01C9.51999 67.96 9.49999 67.91 9.48999 67.86C9.48999 67.81 9.48999 67.75 9.50999 67.69C9.53999 67.63 9.57999 67.55 9.63999 67.47L10.62 66.14C10.67 66.07 10.73 66.06 10.8 66.11L11.33 66.5C11.33 66.5 11.39 66.56 11.4 66.58C11.4 66.61 11.4 66.64 11.36 66.68L11.15 66.96L13.17 68.45L13.39 68.15C13.45 68.07 13.51 68.06 13.57 68.11L14.12 68.51C14.18 68.56 14.19 68.62 14.13 68.69L13.12 70.06C13.01 70.21 12.91 70.29 12.82 70.31C12.73 70.33 12.59 70.27 12.42 70.15H12.45ZM11.48 66.19L10.98 65.82C10.91 65.77 10.9 65.7 10.96 65.62L11.43 64.98C11.13 64.77 10.82 64.55 10.52 64.31C10.48 64.28 10.46 64.25 10.46 64.22C10.46 64.19 10.48 64.16 10.51 64.12L10.73 63.82C10.73 63.82 10.8 63.74 10.82 63.74C10.85 63.74 10.88 63.74 10.92 63.78C11.38 64.13 11.8 64.44 12.21 64.7C12.61 64.96 13.02 65.2 13.42 65.42C13.48 65.45 13.5 65.48 13.5 65.5C13.5 65.52 13.5 65.56 13.47 65.61L13.29 65.96C13.29 65.96 13.23 66.02 13.21 66.02C13.19 66.02 13.15 66.01 13.11 65.99C12.95 65.92 12.8 65.84 12.65 65.75C12.5 65.67 12.35 65.58 12.19 65.48L11.69 66.17C11.63 66.25 11.56 66.27 11.49 66.21L11.48 66.19ZM12.76 69.03L10.74 67.54L10.56 67.78C10.56 67.78 10.54 67.84 10.58 67.87L12.49 69.28C12.49 69.28 12.56 69.3 12.58 69.27L12.76 69.03ZM12.3 64.53C12.15 64.42 12.02 64.29 11.92 64.15C11.81 64.01 11.73 63.86 11.68 63.71C11.63 63.56 11.61 63.41 11.63 63.25C11.65 63.1 11.7 62.96 11.79 62.83C11.89 62.7 12.01 62.6 12.15 62.54C12.29 62.48 12.44 62.45 12.6 62.45C12.76 62.45 12.92 62.48 13.09 62.54C13.26 62.6 13.42 62.69 13.57 62.8C13.72 62.91 13.85 63.04 13.96 63.18C14.07 63.32 14.14 63.47 14.19 63.62C14.24 63.77 14.25 63.92 14.24 64.07C14.23 64.22 14.16 64.36 14.07 64.49C13.98 64.62 13.86 64.71 13.72 64.77C13.58 64.83 13.43 64.86 13.28 64.86C13.13 64.86 12.96 64.83 12.79 64.77C12.62 64.71 12.46 64.62 12.31 64.51L12.3 64.53ZM13.29 67.51L12.8 67.15C12.8 67.15 12.75 67.1 12.73 67.08C12.71 67.06 12.73 67.02 12.77 66.97L12.84 66.88L12.26 66.45C12.26 66.45 12.2 66.39 12.19 66.37C12.19 66.35 12.19 66.31 12.23 66.27L12.46 65.95C12.5 65.9 12.53 65.87 12.55 65.88C12.57 65.89 12.6 65.9 12.63 65.92L13.21 66.35L14.94 64C14.99 63.93 15.05 63.92 15.13 63.97L15.62 64.33C15.62 64.33 15.68 64.39 15.68 64.41C15.68 64.44 15.67 64.47 15.64 64.51L13.46 67.47C13.42 67.52 13.39 67.55 13.37 67.55C13.35 67.55 13.32 67.53 13.28 67.51H13.29ZM13.17 63.34C13.02 63.23 12.88 63.18 12.75 63.19C12.62 63.2 12.53 63.25 12.46 63.33C12.43 63.37 12.41 63.41 12.41 63.47C12.41 63.53 12.41 63.58 12.42 63.65C12.43 63.71 12.46 63.77 12.5 63.84C12.54 63.9 12.6 63.96 12.67 64.01C12.74 64.07 12.82 64.1 12.89 64.12C12.96 64.14 13.03 64.15 13.1 64.15C13.17 64.15 13.22 64.13 13.27 64.11C13.32 64.08 13.36 64.05 13.38 64.02C13.44 63.94 13.46 63.83 13.43 63.71C13.4 63.59 13.31 63.46 13.16 63.35L13.17 63.34ZM14.3 68.3L13.78 67.91C13.78 67.91 13.72 67.86 13.71 67.83C13.71 67.81 13.72 67.77 13.76 67.72L16.02 64.65C16.02 64.65 16.08 64.59 16.1 64.58C16.12 64.58 16.16 64.58 16.2 64.62L16.72 65.01C16.72 65.01 16.78 65.07 16.78 65.09C16.78 65.11 16.77 65.15 16.74 65.19L14.48 68.26C14.44 68.31 14.41 68.34 14.39 68.34C14.37 68.34 14.34 68.33 14.3 68.3Z" fill="white" stroke="#231F20" stroke-width="0.4"/>
<path d="M17.83 73.32L15.29 71.83C15.2 71.78 15.13 71.73 15.08 71.68C15.03 71.63 15 71.59 14.98 71.54C14.96 71.49 14.97 71.43 14.98 71.37C14.99 71.31 15.04 71.23 15.09 71.14L16.14 69.35C16.18 69.28 16.24 69.26 16.31 69.31L16.88 69.64C16.88 69.64 16.95 69.69 16.96 69.71C16.97 69.73 16.96 69.77 16.93 69.81L16.67 70.25L18.51 71.33L18.78 70.87C18.78 70.87 18.83 70.8 18.86 70.8C18.89 70.8 18.92 70.8 18.95 70.82L19.53 71.16C19.53 71.16 19.59 71.2 19.59 71.23C19.59 71.26 19.59 71.29 19.56 71.34L18.49 73.17C18.4 73.33 18.31 73.42 18.22 73.45C18.13 73.48 17.99 73.44 17.81 73.33L17.83 73.32ZM15.69 68.76C15.61 68.76 15.56 68.74 15.54 68.71C15.52 68.68 15.51 68.65 15.52 68.6L15.54 68.05C15.54 67.96 15.6 67.92 15.72 67.92C15.97 67.93 16.22 67.92 16.47 67.9C16.72 67.88 16.95 67.84 17.18 67.79C17.4 67.74 17.6 67.68 17.79 67.61C17.98 67.54 18.13 67.46 18.26 67.37C18.33 67.32 18.38 67.28 18.39 67.25C18.4 67.22 18.38 67.18 18.31 67.15L17.04 66.41C16.99 66.38 16.96 66.35 16.96 66.32C16.96 66.29 16.98 66.26 17 66.22L17.24 65.8C17.29 65.72 17.35 65.7 17.43 65.74L19.31 66.84C19.54 66.97 19.64 67.11 19.63 67.26C19.61 67.41 19.51 67.56 19.32 67.73C19.19 67.84 19.05 67.95 18.89 68.05C18.74 68.15 18.57 68.24 18.39 68.32C18.45 68.56 18.54 68.79 18.65 69.01C18.76 69.23 18.86 69.42 18.95 69.58C18.99 69.66 18.97 69.72 18.89 69.76L18.36 70.03C18.36 70.03 18.29 70.06 18.27 70.05C18.25 70.05 18.22 70.02 18.19 69.97C18.15 69.9 18.11 69.81 18.06 69.71C18.01 69.61 17.96 69.5 17.91 69.38C17.86 69.26 17.81 69.13 17.76 69C17.71 68.87 17.67 68.74 17.64 68.6C17.33 68.68 17.01 68.73 16.68 68.76C16.35 68.79 16.02 68.79 15.68 68.76H15.69ZM18.12 72L16.28 70.92L16.06 71.29C16.06 71.29 16.05 71.36 16.09 71.38L17.81 72.39C17.81 72.39 17.88 72.41 17.9 72.37L18.12 72ZM18.96 68.85C18.88 68.81 18.87 68.74 18.92 68.66L19.17 68.23C19.2 68.17 19.23 68.15 19.26 68.15C19.29 68.15 19.32 68.16 19.35 68.18L20.11 68.63L20.74 67.56C20.77 67.51 20.8 67.48 20.83 67.48C20.86 67.48 20.89 67.49 20.93 67.51L21.5 67.84C21.5 67.84 21.57 67.9 21.57 67.93C21.57 67.96 21.56 67.99 21.54 68.02L19.91 70.8C19.87 70.88 19.81 70.89 19.73 70.85L19.16 70.52C19.09 70.48 19.07 70.42 19.11 70.35L19.72 69.31L18.96 68.86V68.85Z" fill="white" stroke="#231F20" stroke-width="0.4"/>
<path d="M23.87 76.21L20.49 74.63C20.41 74.59 20.34 74.55 20.29 74.51C20.24 74.47 20.21 74.43 20.2 74.38C20.19 74.33 20.19 74.28 20.2 74.21C20.21 74.14 20.24 74.07 20.29 73.98L20.98 72.5C21.02 72.41 21.08 72.39 21.16 72.42L21.75 72.7C21.83 72.74 21.86 72.8 21.81 72.89L21.29 74.01C21.26 74.07 21.28 74.12 21.34 74.15L24.21 75.49C24.21 75.49 24.27 75.53 24.29 75.55C24.31 75.58 24.31 75.61 24.29 75.66L24.06 76.15C24.03 76.21 24 76.24 23.97 76.23C23.94 76.23 23.91 76.22 23.88 76.2L23.87 76.21ZM25.71 73.96L20.55 71.55C20.49 71.52 20.46 71.5 20.46 71.47C20.46 71.44 20.46 71.41 20.49 71.36L20.7 70.9C20.7 70.9 20.74 70.82 20.77 70.81C20.8 70.8 20.83 70.81 20.88 70.83L24.47 72.51C24.53 72.43 24.6 72.31 24.69 72.17C24.78 72.03 24.86 71.88 24.95 71.73C25.04 71.58 25.11 71.45 25.17 71.33C25.23 71.21 25.27 71.13 25.29 71.09C25.32 71.03 25.33 70.98 25.33 70.94C25.33 70.91 25.29 70.87 25.21 70.83L22.49 69.56C22.49 69.56 22.42 69.52 22.4 69.5C22.38 69.48 22.39 69.44 22.41 69.39L22.64 68.9C22.64 68.9 22.69 68.83 22.71 68.83C22.74 68.83 22.77 68.83 22.81 68.85L26.09 70.38C26.23 70.45 26.32 70.53 26.36 70.63C26.4 70.73 26.38 70.86 26.3 71.02C26.25 71.13 26.18 71.27 26.1 71.42C26.02 71.58 25.93 71.74 25.84 71.91C25.75 72.08 25.65 72.25 25.55 72.42C25.45 72.59 25.35 72.75 25.25 72.88L26.03 73.24C26.03 73.24 26.09 73.28 26.11 73.31C26.13 73.34 26.12 73.38 26.1 73.43L25.89 73.89C25.85 73.98 25.79 74 25.7 73.96H25.71Z" fill="white" stroke="#231F20" stroke-width="0.4"/>
<path d="M26.77 74.53C26.67 74.55 26.61 74.55 26.58 74.55C26.55 74.55 26.53 74.51 26.52 74.45L26.37 73.93C26.35 73.84 26.35 73.79 26.37 73.77C26.39 73.75 26.44 73.73 26.5 73.71C26.78 73.64 27.04 73.53 27.28 73.38C27.52 73.23 27.73 73.06 27.93 72.87C28.12 72.68 28.29 72.46 28.43 72.22C28.57 71.98 28.69 71.74 28.79 71.48C28.82 71.41 28.84 71.36 28.87 71.36C28.89 71.36 28.93 71.36 28.99 71.39L29.57 71.64C29.57 71.64 29.64 71.68 29.65 71.7C29.66 71.72 29.65 71.76 29.64 71.8C29.5 72.19 29.32 72.55 29.1 72.88C29.1 73.05 29.14 73.22 29.18 73.39C29.23 73.56 29.29 73.72 29.36 73.88C29.43 74.04 29.51 74.18 29.59 74.32C29.67 74.46 29.76 74.57 29.83 74.66C29.87 74.72 29.89 74.77 29.87 74.8C29.86 74.83 29.82 74.86 29.77 74.91L29.38 75.23C29.33 75.27 29.29 75.29 29.26 75.28C29.23 75.28 29.2 75.25 29.15 75.19C29.08 75.11 29.01 75.02 28.93 74.91C28.85 74.8 28.78 74.68 28.71 74.55C28.64 74.42 28.58 74.28 28.52 74.13C28.47 73.98 28.42 73.84 28.39 73.68C28.16 73.89 27.9 74.07 27.63 74.22C27.36 74.37 27.06 74.48 26.75 74.55L26.77 74.53ZM28.14 78.13C27.87 78.03 27.63 77.91 27.43 77.76C27.23 77.61 27.06 77.45 26.94 77.27C26.82 77.09 26.73 76.91 26.7 76.71C26.67 76.51 26.68 76.33 26.75 76.14C26.82 75.96 26.93 75.81 27.08 75.69C27.23 75.57 27.41 75.48 27.63 75.43C27.85 75.38 28.07 75.36 28.33 75.38C28.58 75.4 28.84 75.46 29.11 75.56C29.37 75.65 29.6 75.78 29.81 75.93C30.02 76.08 30.19 76.24 30.32 76.42C30.45 76.6 30.54 76.79 30.59 76.98C30.64 77.17 30.63 77.36 30.56 77.55C30.49 77.74 30.37 77.89 30.21 78.01C30.05 78.13 29.86 78.22 29.64 78.27C29.42 78.32 29.19 78.34 28.93 78.32C28.68 78.3 28.42 78.24 28.16 78.15L28.14 78.13ZM28.83 76.27C28.52 76.16 28.25 76.12 28.03 76.18C27.81 76.23 27.67 76.34 27.62 76.49C27.57 76.64 27.61 76.8 27.74 76.98C27.88 77.16 28.1 77.3 28.41 77.42C28.56 77.47 28.7 77.51 28.83 77.52C28.96 77.53 29.09 77.53 29.2 77.52C29.31 77.51 29.4 77.47 29.48 77.42C29.56 77.37 29.61 77.31 29.64 77.24C29.67 77.17 29.67 77.08 29.64 76.99C29.61 76.9 29.57 76.81 29.49 76.72C29.42 76.63 29.33 76.55 29.21 76.47C29.1 76.39 28.97 76.32 28.82 76.27H28.83ZM29.81 73.72C29.81 73.72 29.75 73.69 29.73 73.66C29.72 73.64 29.72 73.6 29.73 73.55L29.91 73.06C29.93 73 29.96 72.97 29.98 72.96C30.01 72.96 30.04 72.96 30.07 72.97L31.05 73.33L31.44 72.27C31.46 72.21 31.49 72.18 31.52 72.18C31.55 72.18 31.58 72.18 31.62 72.19L32.24 72.42C32.29 72.44 32.32 72.46 32.32 72.49C32.32 72.52 32.32 72.55 32.3 72.58L31.06 75.93C31.03 76.01 30.97 76.04 30.9 76.01L30.28 75.78C30.2 75.75 30.18 75.7 30.21 75.62L30.79 74.05L29.81 73.69V73.72Z" fill="white" stroke="#231F20" stroke-width="0.4"/>
<path d="M36.19 80.46L32.84 79.51C32.75 79.48 32.67 79.45 32.62 79.42C32.57 79.39 32.53 79.35 32.51 79.3C32.49 79.25 32.48 79.19 32.48 79.13C32.48 79.06 32.5 78.98 32.53 78.89L32.96 77.37C32.99 77.28 33.04 77.24 33.13 77.27L33.76 77.45C33.84 77.47 33.87 77.53 33.85 77.63L33.53 78.77C33.51 78.84 33.53 78.88 33.6 78.9L36.42 79.7C36.42 79.7 36.48 79.73 36.5 79.75C36.52 79.77 36.52 79.81 36.51 79.86L36.36 80.39C36.34 80.45 36.32 80.48 36.29 80.49C36.26 80.49 36.23 80.49 36.2 80.48L36.19 80.46ZM33.69 76.73C33.46 76.66 33.26 76.56 33.09 76.43C32.92 76.3 32.79 76.14 32.69 75.95C32.59 75.76 32.53 75.56 32.51 75.35C32.49 75.13 32.51 74.91 32.57 74.68C32.63 74.47 32.73 74.27 32.86 74.1C32.99 73.93 33.15 73.79 33.33 73.68C33.51 73.57 33.71 73.5 33.93 73.47C34.15 73.44 34.37 73.45 34.6 73.52C34.83 73.59 35.04 73.69 35.21 73.83C35.38 73.97 35.52 74.14 35.62 74.33C35.72 74.52 35.78 74.72 35.81 74.94C35.83 75.16 35.81 75.37 35.75 75.59C35.69 75.82 35.59 76.02 35.45 76.19C35.32 76.36 35.16 76.5 34.97 76.61C34.79 76.72 34.58 76.78 34.37 76.81C34.15 76.84 33.92 76.81 33.69 76.75V76.73ZM34.38 74.32C34.28 74.29 34.18 74.28 34.08 74.3C33.98 74.32 33.89 74.35 33.8 74.41C33.71 74.47 33.64 74.54 33.57 74.63C33.5 74.72 33.46 74.82 33.42 74.94C33.39 75.06 33.37 75.17 33.38 75.28C33.38 75.39 33.41 75.49 33.46 75.59C33.5 75.68 33.57 75.76 33.64 75.83C33.72 75.89 33.81 75.94 33.91 75.97C34.12 76.03 34.32 76 34.5 75.89C34.68 75.78 34.81 75.6 34.87 75.36C34.93 75.12 34.92 74.91 34.83 74.71C34.74 74.52 34.58 74.39 34.37 74.33L34.38 74.32ZM36.51 78.63L35.87 78.45C35.87 78.45 35.79 78.42 35.78 78.39C35.77 78.36 35.78 78.33 35.78 78.28L37 73.99C37.02 73.91 37.08 73.87 37.16 73.9L37.81 74.08C37.89 74.1 37.91 74.16 37.89 74.24L36.67 78.54C36.67 78.54 36.64 78.62 36.62 78.63C36.6 78.64 36.57 78.64 36.52 78.63H36.51Z" fill="white" stroke="#231F20" stroke-width="0.4"/>
<path d="M43.44 79.19L37.86 78.04C37.8 78.03 37.76 78.01 37.76 77.99C37.76 77.97 37.76 77.93 37.76 77.87L37.86 77.38C37.87 77.33 37.89 77.3 37.91 77.28C37.93 77.26 37.97 77.26 38.02 77.28L43.6 78.43C43.6 78.43 43.67 78.45 43.69 78.48C43.71 78.5 43.72 78.54 43.71 78.6L43.61 79.09C43.59 79.19 43.53 79.22 43.44 79.21V79.19ZM40.06 81.47C39.73 81.4 39.44 81.31 39.2 81.19C38.96 81.07 38.75 80.94 38.6 80.79C38.44 80.64 38.33 80.48 38.27 80.31C38.21 80.14 38.19 79.97 38.23 79.8C38.27 79.63 38.35 79.47 38.47 79.34C38.59 79.21 38.76 79.1 38.96 79.03C39.16 78.96 39.4 78.91 39.67 78.9C39.94 78.89 40.24 78.92 40.57 78.99C40.9 79.06 41.19 79.15 41.43 79.27C41.67 79.39 41.87 79.52 42.03 79.67C42.18 79.82 42.29 79.98 42.36 80.15C42.42 80.32 42.44 80.5 42.4 80.67C42.36 80.84 42.28 81 42.16 81.13C42.04 81.26 41.87 81.36 41.67 81.44C41.47 81.52 41.23 81.56 40.96 81.57C40.69 81.58 40.39 81.55 40.06 81.48V81.47ZM42.28 76.52C42.28 76.52 42.23 76.55 42.2 76.56C42.17 76.57 42.14 76.58 42.12 76.59C42.22 76.65 42.33 76.71 42.45 76.77C42.57 76.83 42.68 76.89 42.8 76.95C42.92 77.01 43.03 77.06 43.14 77.12C43.25 77.18 43.36 77.22 43.46 77.26C43.52 77.28 43.55 77.31 43.57 77.34C43.58 77.37 43.57 77.41 43.54 77.47L43.31 77.85C43.27 77.91 43.24 77.94 43.21 77.95C43.18 77.95 43.14 77.95 43.09 77.93C42.79 77.81 42.47 77.65 42.12 77.47C41.77 77.29 41.43 77.1 41.11 76.9C40.74 76.98 40.35 77.04 39.95 77.09C39.55 77.13 39.15 77.15 38.76 77.14C38.69 77.14 38.65 77.14 38.63 77.12C38.61 77.1 38.59 77.07 38.58 77.01L38.52 76.53C38.51 76.42 38.55 76.36 38.65 76.36C39.24 76.35 39.78 76.31 40.26 76.23C40.74 76.15 41.15 76.06 41.49 75.94C41.54 75.93 41.56 75.91 41.57 75.88C41.57 75.86 41.55 75.84 41.5 75.83L39.37 75.39C39.37 75.39 39.29 75.36 39.28 75.34C39.27 75.32 39.26 75.28 39.28 75.23L39.38 74.72C39.38 74.72 39.41 74.64 39.43 74.63C39.45 74.62 39.48 74.62 39.53 74.63L42.6 75.26C42.81 75.3 42.96 75.38 43.05 75.48C43.14 75.58 43.17 75.69 43.15 75.79C43.12 75.94 43.03 76.08 42.87 76.2C42.71 76.32 42.52 76.43 42.3 76.52H42.28ZM40.43 79.71C40.07 79.64 39.78 79.63 39.55 79.69C39.32 79.75 39.19 79.85 39.16 79.99C39.15 80.05 39.16 80.12 39.2 80.2C39.24 80.28 39.31 80.35 39.4 80.42C39.49 80.49 39.61 80.55 39.74 80.61C39.88 80.67 40.03 80.72 40.21 80.75C40.39 80.79 40.55 80.8 40.7 80.8C40.85 80.8 40.98 80.79 41.09 80.76C41.2 80.73 41.29 80.69 41.36 80.64C41.43 80.59 41.47 80.53 41.48 80.47C41.51 80.33 41.43 80.18 41.24 80.04C41.05 79.89 40.78 79.79 40.42 79.71H40.43Z" fill="white" stroke="#231F20" stroke-width="0.4"/>
<path d="M47.68 79.64C47.42 79.64 47.13 79.64 46.84 79.63C46.54 79.62 46.24 79.59 45.92 79.56C45.6 79.53 45.28 79.49 44.95 79.45C44.62 79.41 44.3 79.36 43.98 79.3C43.92 79.3 43.88 79.28 43.87 79.25C43.87 79.23 43.86 79.19 43.87 79.14L43.93 78.68C43.93 78.63 43.95 78.6 43.97 78.58C43.99 78.56 44.03 78.56 44.08 78.58C44.17 78.6 44.26 78.61 44.35 78.62C44.44 78.63 44.53 78.64 44.62 78.66L44.89 76.65L44.44 76.59C44.34 76.58 44.3 76.52 44.32 76.42L44.38 75.96C44.39 75.86 44.45 75.82 44.54 75.84L47.74 76.27C47.83 76.28 47.86 76.34 47.85 76.43L47.79 76.89C47.78 76.99 47.73 77.03 47.64 77.02L47.26 76.97L47 78.92C47.12 78.92 47.23 78.93 47.34 78.94C47.45 78.94 47.56 78.94 47.67 78.94C47.74 78.94 47.77 78.96 47.78 79.02V79.5C47.78 79.57 47.78 79.61 47.77 79.62C47.76 79.63 47.73 79.65 47.69 79.65L47.68 79.64ZM46.72 82.62C46.43 82.58 46.18 82.51 45.94 82.42C45.71 82.32 45.51 82.2 45.35 82.06C45.19 81.92 45.07 81.76 44.99 81.59C44.91 81.42 44.88 81.23 44.91 81.04C44.93 80.86 45.01 80.69 45.13 80.55C45.25 80.41 45.41 80.29 45.6 80.2C45.79 80.11 46.01 80.05 46.27 80.01C46.52 79.97 46.79 79.98 47.07 80.01C47.34 80.05 47.59 80.11 47.83 80.21C48.06 80.31 48.27 80.43 48.43 80.57C48.6 80.71 48.73 80.87 48.82 81.04C48.91 81.21 48.94 81.39 48.91 81.58C48.88 81.77 48.81 81.94 48.67 82.08C48.54 82.22 48.37 82.34 48.17 82.44C47.97 82.54 47.74 82.6 47.49 82.63C47.24 82.66 46.98 82.66 46.7 82.63L46.72 82.62ZM46.1 78.83L46.37 76.82L45.78 76.74L45.51 78.75C45.61 78.76 45.71 78.78 45.81 78.79C45.91 78.8 46.01 78.81 46.11 78.82L46.1 78.83ZM46.98 80.75C46.81 80.73 46.66 80.72 46.53 80.74C46.4 80.76 46.28 80.78 46.18 80.82C46.08 80.86 46.01 80.91 45.95 80.98C45.89 81.04 45.86 81.11 45.85 81.18C45.83 81.32 45.91 81.46 46.08 81.6C46.25 81.74 46.5 81.83 46.83 81.87C46.98 81.89 47.13 81.9 47.26 81.88C47.4 81.87 47.51 81.84 47.62 81.8C47.72 81.76 47.81 81.71 47.87 81.65C47.93 81.59 47.97 81.53 47.98 81.46C47.98 81.39 47.98 81.31 47.93 81.23C47.88 81.15 47.82 81.08 47.73 81.02C47.64 80.96 47.53 80.9 47.41 80.85C47.28 80.8 47.14 80.77 46.99 80.74L46.98 80.75ZM47.67 78.73C47.67 78.73 47.59 78.71 47.57 78.69C47.55 78.67 47.54 78.64 47.55 78.59L47.61 78.17C47.61 78.12 47.63 78.09 47.66 78.07C47.69 78.05 47.72 78.05 47.76 78.06L48.41 78.15L48.45 77.85L47.8 77.76C47.8 77.76 47.72 77.74 47.7 77.72C47.68 77.7 47.67 77.67 47.68 77.61L47.74 77.19C47.74 77.13 47.76 77.1 47.79 77.09C47.81 77.08 47.85 77.07 47.89 77.08L48.54 77.17L48.67 76.2C48.67 76.14 48.7 76.11 48.72 76.09C48.74 76.07 48.78 76.08 48.82 76.09L49.47 76.18C49.53 76.18 49.56 76.21 49.57 76.23C49.57 76.26 49.57 76.29 49.57 76.33L49.08 79.98C49.07 80.07 49.02 80.11 48.94 80.1L48.28 80.01C48.2 80 48.16 79.95 48.17 79.86L48.31 78.83L47.66 78.74L47.67 78.73Z" fill="white" stroke="#231F20" stroke-width="0.4"/>
<path d="M50.48 81.55C50.42 81.58 50.37 81.6 50.33 81.6C50.3 81.6 50.26 81.57 50.23 81.52L49.95 81.01C49.95 81.01 49.92 80.92 49.93 80.88C49.94 80.84 49.97 80.81 50.01 80.79C50.7 80.44 51.26 80.02 51.68 79.53C52.1 79.04 52.37 78.49 52.49 77.89C52.51 77.79 52.48 77.74 52.4 77.74L50.55 77.62C50.49 77.62 50.46 77.6 50.45 77.58C50.44 77.56 50.43 77.52 50.44 77.47L50.48 76.95C50.48 76.89 50.5 76.86 50.51 76.84C50.53 76.83 50.56 76.82 50.61 76.82L53.02 76.98C53.24 77 53.38 77.05 53.45 77.15C53.51 77.25 53.53 77.4 53.51 77.61C53.46 78.03 53.35 78.43 53.19 78.81C53.03 79.2 52.82 79.56 52.56 79.89C52.3 80.23 52 80.54 51.65 80.82C51.3 81.1 50.92 81.35 50.49 81.56L50.48 81.55ZM55.83 79.96L55.01 79.9L54.79 83.15C54.79 83.21 54.78 83.24 54.76 83.26C54.74 83.28 54.71 83.28 54.66 83.28L53.99 83.24C53.99 83.24 53.91 83.23 53.89 83.21C53.87 83.19 53.86 83.16 53.87 83.1L54.3 76.68C54.3 76.63 54.32 76.6 54.34 76.58C54.36 76.56 54.4 76.56 54.44 76.56L55.11 76.6C55.11 76.6 55.19 76.62 55.2 76.64C55.21 76.66 55.22 76.69 55.22 76.75L55.06 79.13L55.88 79.19C55.88 79.19 55.95 79.2 55.97 79.21C55.99 79.22 56 79.26 56 79.33L55.96 79.86C55.96 79.92 55.94 79.95 55.92 79.97C55.9 79.99 55.86 79.99 55.82 79.99L55.83 79.96Z" fill="white" stroke="#231F20" stroke-width="0.4"/>
<path d="M58.41 81.31H57.78C57.69 81.31 57.64 81.25 57.64 81.16V80.31C57.4 80.31 57.16 80.31 56.92 80.31C56.68 80.31 56.45 80.31 56.22 80.29C56.17 80.29 56.13 80.28 56.12 80.25C56.11 80.22 56.1 80.19 56.1 80.14V79.67C56.1 79.62 56.12 79.58 56.13 79.56C56.15 79.53 56.18 79.52 56.23 79.53C56.86 79.55 57.49 79.55 58.14 79.53C58.79 79.51 59.41 79.47 60.03 79.39C60.1 79.39 60.14 79.39 60.16 79.39C60.18 79.4 60.19 79.44 60.2 79.49L60.25 79.96C60.25 80.02 60.25 80.05 60.23 80.07C60.21 80.09 60.17 80.1 60.13 80.11C59.88 80.15 59.63 80.17 59.36 80.19C59.09 80.21 58.83 80.23 58.56 80.25V81.14C58.55 81.23 58.5 81.28 58.41 81.28V81.31ZM58.18 79.32C57.95 79.32 57.75 79.28 57.56 79.22C57.37 79.16 57.21 79.06 57.07 78.95C56.93 78.83 56.83 78.7 56.75 78.54C56.67 78.38 56.64 78.21 56.64 78.01C56.64 77.83 56.68 77.67 56.76 77.51C56.84 77.36 56.95 77.23 57.09 77.12C57.23 77.01 57.4 76.92 57.58 76.86C57.77 76.8 57.98 76.77 58.2 76.77C58.43 76.77 58.63 76.81 58.82 76.87C59.01 76.94 59.17 77.03 59.31 77.14C59.44 77.25 59.55 77.39 59.63 77.54C59.71 77.69 59.74 77.86 59.74 78.04C59.74 78.23 59.7 78.41 59.62 78.56C59.54 78.71 59.43 78.85 59.29 78.97C59.15 79.08 58.99 79.17 58.8 79.23C58.61 79.29 58.4 79.32 58.18 79.32ZM61.36 83.29L57.51 83.25C57.42 83.25 57.34 83.24 57.28 83.22C57.22 83.2 57.17 83.18 57.14 83.14C57.11 83.1 57.08 83.05 57.07 82.99C57.06 82.93 57.05 82.84 57.05 82.74V81.71C57.06 81.62 57.11 81.57 57.2 81.57H57.85C57.94 81.57 57.99 81.63 57.99 81.72V82.36C57.99 82.43 58.02 82.47 58.09 82.47L61.37 82.51C61.37 82.51 61.44 82.51 61.46 82.54C61.49 82.56 61.5 82.59 61.5 82.64V83.18C61.5 83.24 61.48 83.28 61.45 83.29C61.42 83.29 61.39 83.3 61.36 83.3V83.29ZM58.2 77.52C58 77.52 57.84 77.57 57.71 77.67C57.58 77.77 57.52 77.89 57.51 78.03C57.51 78.19 57.57 78.32 57.7 78.42C57.83 78.52 57.99 78.57 58.19 78.58C58.39 78.58 58.55 78.53 58.68 78.43C58.81 78.33 58.87 78.2 58.87 78.04C58.87 77.9 58.81 77.77 58.68 77.67C58.55 77.57 58.39 77.52 58.19 77.51L58.2 77.52ZM61.25 81.89H60.57C60.57 81.89 60.49 81.87 60.47 81.86C60.45 81.85 60.44 81.81 60.44 81.75V81.23L59.45 81.22C59.41 81.22 59.38 81.22 59.35 81.19C59.33 81.17 59.31 81.14 59.31 81.09V80.61C59.31 80.55 59.33 80.51 59.36 80.5C59.39 80.49 59.42 80.48 59.45 80.48H60.45L60.49 76.8C60.49 76.75 60.49 76.71 60.52 76.7C60.55 76.69 60.57 76.67 60.62 76.67H61.3C61.3 76.67 61.38 76.69 61.4 76.71C61.42 76.73 61.43 76.76 61.43 76.81L61.38 81.75C61.38 81.81 61.38 81.84 61.35 81.86C61.33 81.88 61.3 81.88 61.25 81.88V81.89Z" fill="white" stroke="#231F20" stroke-width="0.4"/>
<path d="M64.58 82.51C64.52 82.51 64.47 82.51 64.45 82.5C64.42 82.49 64.41 82.45 64.4 82.38L64.37 81.88C64.37 81.83 64.37 81.79 64.39 81.75C64.41 81.71 64.43 81.68 64.46 81.64L65.34 80.35C65.67 79.87 65.9 79.48 66.04 79.18C66.18 78.88 66.24 78.65 66.23 78.47C66.22 78.28 66.16 78.13 66.06 78.03C65.96 77.93 65.82 77.87 65.64 77.86C65.47 77.86 65.3 77.88 65.13 77.95C64.96 78.02 64.78 78.12 64.57 78.26C64.51 78.3 64.47 78.32 64.44 78.31C64.41 78.3 64.4 78.27 64.38 78.23L64.22 77.62C64.22 77.62 64.21 77.55 64.22 77.53C64.22 77.51 64.26 77.47 64.31 77.43C64.39 77.36 64.48 77.3 64.58 77.25C64.68 77.19 64.79 77.14 64.9 77.1C65.01 77.06 65.12 77.02 65.23 77C65.34 76.98 65.44 76.96 65.53 76.95C65.74 76.94 65.94 76.95 66.14 77.01C66.33 77.06 66.5 77.15 66.65 77.26C66.8 77.38 66.91 77.53 67.01 77.72C67.1 77.9 67.16 78.12 67.18 78.37C67.2 78.59 67.17 78.81 67.09 79.04C67.01 79.27 66.92 79.48 66.81 79.7C66.7 79.92 66.57 80.12 66.44 80.32C66.31 80.52 66.18 80.7 66.07 80.86C66 80.97 65.92 81.09 65.83 81.21C65.73 81.34 65.65 81.46 65.57 81.56L67.32 81.44C67.39 81.44 67.43 81.44 67.44 81.47C67.46 81.49 67.47 81.54 67.47 81.6L67.51 82.12C67.51 82.19 67.51 82.24 67.49 82.26C67.47 82.28 67.43 82.3 67.37 82.3L64.58 82.49V82.51Z" fill="white" stroke="#231F20" stroke-width="0.4"/>
<path d="M69.79 82.15C69.5 82.18 69.23 82.15 69 82.03C68.77 81.91 68.57 81.75 68.41 81.53C68.25 81.3 68.11 81.03 68.01 80.69C67.91 80.36 67.83 79.98 67.79 79.57C67.77 79.38 67.76 79.19 67.75 78.98C67.75 78.77 67.75 78.56 67.78 78.35C67.8 78.14 67.85 77.94 67.91 77.74C67.97 77.54 68.06 77.37 68.17 77.21C68.28 77.05 68.42 76.92 68.59 76.82C68.76 76.72 68.96 76.65 69.2 76.62C69.44 76.59 69.65 76.62 69.83 76.68C70.01 76.75 70.18 76.85 70.32 76.97C70.46 77.1 70.58 77.25 70.68 77.43C70.78 77.61 70.86 77.8 70.93 78C71 78.2 71.05 78.41 71.09 78.61C71.13 78.82 71.16 79.01 71.18 79.19C71.22 79.61 71.23 79.99 71.2 80.33C71.17 80.68 71.1 80.98 70.99 81.24C70.88 81.5 70.72 81.7 70.53 81.86C70.33 82.02 70.09 82.11 69.79 82.14V82.15ZM69.29 77.52C69.18 77.53 69.08 77.57 68.99 77.64C68.9 77.71 68.83 77.82 68.77 77.98C68.71 78.13 68.68 78.33 68.66 78.58C68.64 78.83 68.66 79.12 68.69 79.47C68.73 79.83 68.78 80.12 68.85 80.36C68.92 80.59 69 80.78 69.08 80.91C69.17 81.05 69.26 81.14 69.37 81.19C69.48 81.24 69.58 81.26 69.69 81.25C69.8 81.24 69.9 81.2 69.99 81.13C70.08 81.06 70.15 80.95 70.21 80.8C70.27 80.65 70.3 80.45 70.32 80.21C70.34 79.97 70.32 79.67 70.29 79.31C70.25 78.96 70.2 78.66 70.13 78.43C70.06 78.2 69.98 78.01 69.9 77.87C69.81 77.73 69.72 77.64 69.61 77.59C69.5 77.54 69.4 77.52 69.29 77.53V77.52Z" fill="white" stroke="#231F20" stroke-width="0.4"/>
<path d="M71.86 81.83C71.8 81.83 71.75 81.83 71.73 81.83C71.7 81.82 71.68 81.78 71.67 81.72L71.6 81.23C71.6 81.18 71.6 81.14 71.61 81.1C71.63 81.06 71.65 81.02 71.67 80.98L72.45 79.62C72.74 79.12 72.94 78.71 73.05 78.4C73.17 78.09 73.21 77.85 73.18 77.68C73.15 77.49 73.08 77.35 72.97 77.25C72.86 77.15 72.72 77.11 72.54 77.12C72.37 77.12 72.21 77.17 72.04 77.25C71.88 77.33 71.7 77.45 71.51 77.6C71.45 77.65 71.41 77.67 71.39 77.66C71.36 77.66 71.34 77.63 71.33 77.59L71.12 77C71.12 77 71.1 76.93 71.12 76.91C71.12 76.88 71.16 76.85 71.2 76.81C71.27 76.74 71.36 76.67 71.46 76.61C71.56 76.55 71.66 76.49 71.77 76.44C71.88 76.39 71.98 76.35 72.09 76.32C72.2 76.29 72.29 76.27 72.38 76.25C72.59 76.22 72.79 76.22 72.99 76.25C73.19 76.28 73.36 76.36 73.52 76.46C73.67 76.57 73.8 76.71 73.91 76.89C74.02 77.07 74.09 77.28 74.12 77.53C74.15 77.75 74.14 77.97 74.08 78.2C74.03 78.43 73.95 78.66 73.85 78.88C73.75 79.1 73.65 79.32 73.53 79.53C73.41 79.74 73.3 79.93 73.21 80.1C73.15 80.21 73.08 80.34 72.99 80.47C72.91 80.61 72.83 80.73 72.76 80.84L74.49 80.58C74.56 80.58 74.6 80.58 74.62 80.6C74.64 80.62 74.65 80.66 74.66 80.73L74.74 81.25C74.75 81.32 74.74 81.37 74.74 81.39C74.73 81.41 74.69 81.43 74.63 81.44L71.87 81.85L71.86 81.83Z" fill="white" stroke="#231F20" stroke-width="0.4"/>
<path d="M77.95 80.39C77.82 80.58 77.65 80.73 77.44 80.84C77.23 80.96 77 81.04 76.75 81.08C76.67 81.09 76.58 81.11 76.48 81.11C76.38 81.11 76.28 81.11 76.18 81.11C76.08 81.11 75.98 81.11 75.89 81.09C75.8 81.08 75.72 81.06 75.65 81.04C75.61 81.03 75.59 81.02 75.57 81C75.56 80.99 75.55 80.96 75.54 80.91L75.42 80.26C75.41 80.21 75.42 80.17 75.42 80.15C75.42 80.13 75.47 80.13 75.52 80.14C75.59 80.16 75.67 80.17 75.76 80.18C75.85 80.19 75.95 80.19 76.05 80.2C76.15 80.2 76.25 80.2 76.35 80.2C76.45 80.2 76.55 80.18 76.63 80.17C76.89 80.12 77.08 80 77.21 79.81C77.34 79.62 77.38 79.39 77.33 79.11C77.28 78.85 77.18 78.66 77.01 78.52C76.85 78.38 76.61 78.34 76.29 78.4C76.16 78.42 76.03 78.47 75.88 78.52C75.73 78.58 75.6 78.65 75.48 78.72C75.44 78.75 75.41 78.77 75.37 78.79C75.33 78.81 75.3 78.82 75.27 78.82C75.24 78.82 75.21 78.8 75.19 78.77C75.17 78.74 75.15 78.69 75.13 78.61L74.68 76.06C74.67 75.99 74.68 75.95 74.69 75.92C74.7 75.89 74.76 75.88 74.83 75.86L77.2 75.41C77.25 75.41 77.29 75.41 77.31 75.42C77.33 75.44 77.34 75.47 77.35 75.52L77.46 76.09C77.46 76.09 77.46 76.18 77.46 76.2C77.46 76.23 77.42 76.24 77.36 76.25L75.66 76.57L75.85 77.69C75.92 77.66 76 77.63 76.07 77.61C76.15 77.59 76.23 77.57 76.3 77.56C76.52 77.52 76.74 77.51 76.94 77.55C77.15 77.58 77.34 77.66 77.5 77.76C77.67 77.87 77.81 78.01 77.93 78.2C78.05 78.39 78.14 78.6 78.18 78.86C78.29 79.45 78.21 79.94 77.93 80.35L77.95 80.39Z" fill="white" stroke="#231F20" stroke-width="0.4"/>
<path d="M79.68 80.98C79.51 81.02 79.36 80.98 79.23 80.89C79.1 80.8 79 80.66 78.97 80.49C78.94 80.32 78.96 80.16 79.04 80.02C79.13 79.88 79.25 79.79 79.42 79.75C79.59 79.71 79.74 79.75 79.87 79.84C80.01 79.93 80.1 80.07 80.13 80.24C80.16 80.41 80.14 80.57 80.06 80.71C79.97 80.85 79.85 80.94 79.68 80.98Z" fill="white" stroke="#231F20" stroke-width="0.4"/>
<path d="M82.16 79.94C81.87 80.01 81.61 80.01 81.37 79.94C81.13 79.86 80.91 79.73 80.71 79.52C80.52 79.32 80.34 79.06 80.2 78.75C80.05 78.43 79.93 78.07 79.82 77.67C79.78 77.49 79.74 77.29 79.7 77.09C79.67 76.88 79.65 76.67 79.64 76.46C79.63 76.25 79.64 76.04 79.68 75.84C79.72 75.64 79.77 75.45 79.86 75.28C79.95 75.11 80.07 74.96 80.22 74.83C80.37 74.7 80.56 74.61 80.8 74.55C81.03 74.49 81.24 74.48 81.44 74.52C81.64 74.56 81.81 74.64 81.97 74.74C82.13 74.85 82.27 74.99 82.39 75.15C82.51 75.31 82.62 75.49 82.72 75.68C82.82 75.87 82.9 76.06 82.97 76.26C83.04 76.46 83.09 76.65 83.14 76.82C83.24 77.23 83.3 77.6 83.32 77.95C83.34 78.3 83.32 78.6 83.24 78.88C83.16 79.15 83.04 79.38 82.87 79.56C82.7 79.74 82.47 79.87 82.18 79.94H82.16ZM81.02 75.42C80.91 75.45 80.82 75.5 80.74 75.58C80.66 75.66 80.6 75.78 80.57 75.94C80.54 76.1 80.53 76.3 80.54 76.54C80.55 76.78 80.61 77.08 80.7 77.42C80.79 77.77 80.88 78.05 80.98 78.28C81.08 78.5 81.18 78.67 81.29 78.8C81.4 78.92 81.5 79 81.61 79.04C81.72 79.08 81.83 79.08 81.93 79.05C82.04 79.02 82.13 78.97 82.21 78.89C82.29 78.81 82.35 78.69 82.38 78.53C82.42 78.37 82.42 78.17 82.41 77.93C82.39 77.69 82.34 77.39 82.25 77.04C82.16 76.7 82.07 76.41 81.97 76.19C81.87 75.97 81.77 75.79 81.66 75.67C81.55 75.55 81.45 75.46 81.34 75.43C81.23 75.39 81.12 75.39 81.01 75.42H81.02Z" fill="white" stroke="#231F20" stroke-width="0.4"/>
<path d="M85.64 78.95C85.12 79.11 84.66 79.02 84.27 78.68C83.88 78.35 83.56 77.76 83.32 76.94C83.21 76.56 83.14 76.2 83.11 75.83C83.08 75.47 83.11 75.13 83.2 74.83C83.29 74.52 83.45 74.26 83.67 74.02C83.9 73.79 84.21 73.61 84.61 73.49C84.67 73.47 84.74 73.46 84.81 73.44C84.88 73.42 84.96 73.41 85.04 73.4C85.12 73.39 85.19 73.38 85.26 73.37C85.33 73.37 85.4 73.37 85.45 73.37C85.5 73.37 85.53 73.39 85.54 73.41C85.55 73.43 85.57 73.46 85.58 73.49L85.74 74.13C85.74 74.18 85.74 74.21 85.72 74.22C85.7 74.23 85.65 74.24 85.59 74.24C85.51 74.24 85.44 74.24 85.38 74.24C85.32 74.24 85.26 74.24 85.2 74.26C85.14 74.28 85.09 74.28 85.03 74.29C84.97 74.3 84.91 74.32 84.83 74.35C84.47 74.46 84.23 74.66 84.11 74.96C83.98 75.26 83.96 75.61 84.04 76.02C84.1 75.88 84.19 75.76 84.32 75.64C84.45 75.53 84.58 75.45 84.71 75.41C84.91 75.35 85.12 75.33 85.32 75.36C85.53 75.38 85.72 75.45 85.9 75.56C86.08 75.67 86.24 75.81 86.38 76C86.52 76.19 86.63 76.41 86.71 76.67C86.79 76.92 86.82 77.17 86.81 77.42C86.81 77.66 86.75 77.88 86.66 78.09C86.57 78.29 86.44 78.47 86.26 78.62C86.09 78.77 85.88 78.89 85.63 78.96L85.64 78.95ZM84.91 76.26C84.67 76.33 84.5 76.46 84.41 76.66C84.32 76.85 84.31 77.08 84.39 77.34C84.43 77.48 84.49 77.61 84.56 77.72C84.63 77.83 84.72 77.92 84.81 77.99C84.9 78.06 85 78.11 85.1 78.13C85.2 78.16 85.3 78.15 85.4 78.13C85.62 78.07 85.77 77.93 85.86 77.72C85.95 77.51 85.95 77.26 85.86 76.96C85.78 76.67 85.65 76.47 85.48 76.35C85.31 76.23 85.12 76.2 84.9 76.27L84.91 76.26Z" fill="white" stroke="#231F20" stroke-width="0.4"/>
<path d="M88.32 78.6C88.16 78.65 88.01 78.64 87.86 78.56C87.71 78.48 87.61 78.36 87.56 78.19C87.51 78.02 87.51 77.86 87.58 77.71C87.65 77.56 87.77 77.46 87.93 77.4C88.09 77.35 88.24 77.36 88.39 77.44C88.54 77.52 88.64 77.64 88.69 77.81C88.75 77.98 88.74 78.14 88.67 78.29C88.6 78.44 88.48 78.54 88.33 78.6H88.32Z" fill="white" stroke="#231F20" stroke-width="0.4"/>
<path d="M89.18 77.77C89.12 77.79 89.08 77.8 89.05 77.8C89.02 77.8 88.99 77.76 88.97 77.7L88.8 77.24C88.8 77.24 88.78 77.15 88.79 77.11C88.79 77.07 88.81 77.03 88.83 76.98L89.31 75.49C89.49 74.94 89.6 74.5 89.65 74.17C89.7 73.84 89.69 73.6 89.63 73.44C89.56 73.26 89.47 73.14 89.34 73.06C89.21 72.99 89.06 72.97 88.89 73.02C88.73 73.06 88.57 73.14 88.43 73.25C88.29 73.36 88.14 73.51 87.98 73.71C87.94 73.77 87.9 73.79 87.87 73.79C87.84 73.79 87.82 73.77 87.8 73.73L87.47 73.19C87.47 73.19 87.44 73.13 87.44 73.1C87.44 73.07 87.46 73.03 87.5 72.98C87.56 72.89 87.63 72.81 87.71 72.73C87.79 72.65 87.88 72.57 87.97 72.5C88.06 72.43 88.16 72.37 88.26 72.31C88.36 72.26 88.45 72.21 88.53 72.18C88.73 72.11 88.93 72.07 89.13 72.06C89.33 72.06 89.52 72.09 89.69 72.16C89.86 72.23 90.02 72.34 90.16 72.5C90.3 72.65 90.41 72.84 90.5 73.08C90.58 73.29 90.61 73.51 90.6 73.74C90.6 73.98 90.56 74.21 90.52 74.45C90.47 74.69 90.41 74.92 90.34 75.15C90.27 75.38 90.2 75.58 90.14 75.77C90.1 75.89 90.06 76.03 90 76.18C89.94 76.33 89.9 76.47 89.85 76.59L91.49 75.98C91.55 75.96 91.59 75.95 91.62 75.98C91.64 76 91.66 76.04 91.69 76.1L91.87 76.59C91.89 76.66 91.9 76.7 91.89 76.73C91.89 76.76 91.85 76.78 91.79 76.8L89.17 77.77H89.18Z" fill="white" stroke="#231F20" stroke-width="0.4"/>
<path d="M94.88 75.07C94.79 75.28 94.66 75.46 94.47 75.62C94.28 75.78 94.08 75.91 93.85 76.01C93.78 76.04 93.69 76.07 93.6 76.1C93.5 76.13 93.41 76.15 93.31 76.17C93.21 76.19 93.11 76.2 93.02 76.21C92.93 76.22 92.84 76.22 92.77 76.21C92.73 76.21 92.7 76.21 92.69 76.19C92.67 76.19 92.66 76.15 92.64 76.11L92.38 75.51C92.36 75.46 92.35 75.42 92.37 75.4C92.39 75.38 92.41 75.37 92.46 75.37C92.53 75.37 92.61 75.37 92.71 75.35C92.8 75.34 92.9 75.32 93 75.31C93.1 75.29 93.2 75.27 93.3 75.24C93.4 75.21 93.49 75.18 93.57 75.15C93.81 75.05 93.97 74.89 94.06 74.67C94.15 74.45 94.14 74.22 94.03 73.96C93.93 73.72 93.78 73.55 93.59 73.45C93.4 73.35 93.16 73.36 92.86 73.49C92.74 73.54 92.62 73.61 92.48 73.7C92.35 73.79 92.23 73.88 92.13 73.98C92.1 74.01 92.07 74.04 92.04 74.07C92.01 74.1 91.98 74.11 91.95 74.12C91.92 74.12 91.89 74.12 91.86 74.09C91.83 74.06 91.8 74.02 91.77 73.95L90.79 71.55C90.76 71.49 90.76 71.44 90.77 71.41C90.79 71.38 90.83 71.35 90.9 71.32L93.12 70.38C93.12 70.38 93.2 70.36 93.23 70.37C93.25 70.38 93.27 70.41 93.29 70.46L93.52 70.99C93.52 70.99 93.55 71.07 93.55 71.1C93.55 71.13 93.52 71.15 93.47 71.17L91.88 71.85L92.3 72.91C92.36 72.86 92.43 72.82 92.5 72.78C92.57 72.74 92.64 72.71 92.71 72.68C92.92 72.59 93.13 72.54 93.33 72.53C93.54 72.52 93.74 72.55 93.93 72.62C94.12 72.69 94.29 72.8 94.45 72.95C94.61 73.1 94.74 73.3 94.84 73.54C95.07 74.09 95.1 74.59 94.91 75.05L94.88 75.07Z" fill="white" stroke="#231F20" stroke-width="0.4"/>
<path d="M97.9 71.14C97.88 71.36 97.82 71.55 97.72 71.72C97.62 71.89 97.47 72.02 97.29 72.11C97.18 72.16 97.06 72.2 96.93 72.22C96.8 72.24 96.66 72.25 96.53 72.26C96.39 72.26 96.27 72.28 96.15 72.29C96.03 72.3 95.94 72.33 95.86 72.36C95.78 72.4 95.7 72.48 95.65 72.61C95.6 72.74 95.55 72.87 95.52 73.01C95.51 73.07 95.49 73.1 95.46 73.1C95.43 73.1 95.39 73.08 95.33 73.05L94.93 72.78C94.93 72.78 94.88 72.74 94.87 72.72C94.87 72.7 94.86 72.67 94.86 72.65C94.87 72.43 94.94 72.23 95.05 72.06C95.17 71.89 95.32 71.76 95.53 71.66C95.63 71.61 95.75 71.57 95.89 71.55C96.03 71.53 96.16 71.51 96.29 71.49C96.42 71.47 96.54 71.46 96.65 71.45C96.76 71.44 96.85 71.42 96.91 71.39C96.96 71.37 97 71.33 97.03 71.28C97.07 71.23 97.1 71.18 97.12 71.12C97.15 71.06 97.17 71 97.19 70.94C97.21 70.88 97.22 70.83 97.24 70.79C97.26 70.74 97.27 70.71 97.29 70.7C97.31 70.69 97.34 70.7 97.39 70.72L97.85 70.98C97.85 70.98 97.9 71.02 97.91 71.04C97.91 71.06 97.91 71.09 97.91 71.13L97.9 71.14Z" fill="white" stroke="#231F20" stroke-width="0.4"/>
<path d="M99.67 73.21C99.62 73.24 99.57 73.26 99.54 73.26C99.51 73.26 99.48 73.23 99.45 73.18L99.21 72.75C99.21 72.75 99.17 72.66 99.18 72.62C99.18 72.58 99.18 72.54 99.2 72.49L99.45 70.94C99.54 70.37 99.58 69.92 99.58 69.59C99.58 69.26 99.53 69.02 99.45 68.87C99.36 68.7 99.24 68.59 99.1 68.54C98.96 68.49 98.81 68.5 98.65 68.57C98.49 68.64 98.36 68.74 98.23 68.87C98.11 69 97.98 69.18 97.86 69.39C97.82 69.45 97.79 69.48 97.77 69.49C97.74 69.49 97.72 69.48 97.69 69.44L97.28 68.96C97.28 68.96 97.24 68.9 97.24 68.88C97.24 68.86 97.25 68.81 97.28 68.75C97.32 68.66 97.38 68.56 97.45 68.47C97.52 68.38 97.59 68.29 97.68 68.2C97.76 68.12 97.85 68.04 97.93 67.97C98.02 67.9 98.1 67.85 98.18 67.8C98.37 67.7 98.56 67.63 98.75 67.59C98.95 67.55 99.13 67.56 99.32 67.6C99.5 67.64 99.67 67.73 99.84 67.86C100 67.99 100.15 68.16 100.27 68.38C100.38 68.57 100.44 68.78 100.48 69.02C100.51 69.25 100.52 69.49 100.51 69.74C100.5 69.98 100.48 70.22 100.44 70.46C100.4 70.7 100.37 70.91 100.34 71.1C100.32 71.23 100.3 71.37 100.27 71.52C100.24 71.68 100.21 71.82 100.19 71.95L101.72 71.09C101.78 71.06 101.82 71.05 101.84 71.06C101.86 71.07 101.89 71.11 101.92 71.16L102.18 71.62C102.21 71.68 102.23 71.73 102.22 71.75C102.22 71.78 102.18 71.81 102.13 71.84L99.69 73.21H99.67Z" fill="white" stroke="#231F20" stroke-width="0.4"/>
<path d="M104.29 70.58C104.04 70.74 103.79 70.82 103.53 70.83C103.28 70.83 103.03 70.77 102.78 70.64C102.53 70.51 102.29 70.32 102.05 70.07C101.81 69.82 101.58 69.51 101.35 69.16C101.25 69 101.15 68.83 101.05 68.65C100.95 68.47 100.87 68.27 100.8 68.07C100.73 67.87 100.68 67.67 100.64 67.47C100.61 67.27 100.61 67.07 100.64 66.88C100.67 66.69 100.74 66.51 100.84 66.34C100.94 66.17 101.1 66.02 101.3 65.89C101.5 65.76 101.7 65.69 101.9 65.66C102.1 65.64 102.28 65.66 102.47 65.71C102.65 65.76 102.83 65.85 103 65.97C103.17 66.09 103.33 66.22 103.48 66.37C103.63 66.52 103.77 66.68 103.9 66.85C104.03 67.02 104.14 67.18 104.24 67.33C104.47 67.68 104.64 68.02 104.77 68.34C104.9 68.66 104.97 68.96 104.98 69.25C104.99 69.54 104.95 69.79 104.84 70.01C104.73 70.24 104.55 70.43 104.3 70.59L104.29 70.58ZM101.79 66.66C101.7 66.72 101.62 66.8 101.58 66.9C101.53 67 101.51 67.14 101.53 67.3C101.55 67.46 101.6 67.66 101.7 67.88C101.79 68.1 101.94 68.37 102.13 68.66C102.32 68.96 102.5 69.2 102.67 69.38C102.84 69.56 102.99 69.69 103.13 69.77C103.27 69.85 103.4 69.89 103.51 69.89C103.62 69.89 103.73 69.86 103.82 69.8C103.91 69.74 103.99 69.66 104.03 69.55C104.08 69.45 104.1 69.31 104.08 69.15C104.06 68.99 104.01 68.8 103.92 68.57C103.83 68.34 103.68 68.08 103.49 67.78C103.3 67.48 103.12 67.24 102.96 67.06C102.8 66.88 102.64 66.75 102.5 66.66C102.36 66.58 102.23 66.53 102.12 66.54C102 66.54 101.9 66.57 101.81 66.63L101.79 66.66Z" fill="white" stroke="#231F20" stroke-width="0.4"/>
<path d="M106.06 69.34C106.06 69.34 105.97 69.4 105.94 69.4C105.91 69.4 105.88 69.38 105.84 69.33L105.55 68.93C105.55 68.93 105.5 68.85 105.5 68.81C105.5 68.77 105.5 68.72 105.5 68.68L105.56 67.12C105.58 66.54 105.56 66.09 105.53 65.76C105.49 65.43 105.42 65.2 105.32 65.06C105.21 64.91 105.08 64.81 104.94 64.78C104.8 64.75 104.65 64.78 104.5 64.86C104.35 64.94 104.23 65.06 104.12 65.21C104.01 65.36 103.91 65.54 103.81 65.77C103.78 65.84 103.75 65.87 103.73 65.88C103.71 65.89 103.67 65.88 103.64 65.84L103.18 65.41C103.18 65.41 103.13 65.36 103.13 65.33C103.13 65.3 103.13 65.26 103.15 65.2C103.18 65.1 103.23 65 103.28 64.9C103.34 64.8 103.4 64.7 103.47 64.61C103.54 64.52 103.62 64.43 103.7 64.35C103.78 64.27 103.86 64.21 103.93 64.15C104.1 64.02 104.28 63.93 104.47 63.87C104.66 63.81 104.85 63.79 105.03 63.82C105.22 63.84 105.4 63.91 105.57 64.02C105.74 64.13 105.91 64.28 106.06 64.49C106.19 64.67 106.28 64.87 106.34 65.1C106.4 65.33 106.43 65.56 106.45 65.81C106.47 66.06 106.47 66.29 106.46 66.53C106.46 66.77 106.44 66.99 106.44 67.18C106.44 67.31 106.44 67.45 106.42 67.61C106.4 67.77 106.4 67.91 106.39 68.05L107.81 67.02C107.86 66.98 107.9 66.97 107.93 66.98C107.96 66.99 107.99 67.02 108.03 67.07L108.34 67.49C108.38 67.55 108.4 67.59 108.4 67.62C108.4 67.65 108.37 67.68 108.32 67.72L106.06 69.37V69.34Z" fill="white" stroke="#231F20" stroke-width="0.4"/>
<path d="M110.27 66.18C109.85 66.53 109.4 66.63 108.91 66.47C108.42 66.32 107.9 65.91 107.34 65.25C107.09 64.95 106.88 64.64 106.71 64.32C106.54 64 106.43 63.68 106.39 63.36C106.35 63.04 106.39 62.74 106.5 62.43C106.62 62.13 106.83 61.84 107.16 61.57C107.21 61.53 107.26 61.49 107.33 61.44C107.4 61.39 107.46 61.35 107.52 61.31C107.58 61.27 107.65 61.23 107.71 61.2C107.77 61.17 107.83 61.14 107.88 61.12C107.93 61.11 107.96 61.11 107.98 61.12C108 61.13 108.02 61.15 108.05 61.18L108.46 61.71C108.46 61.71 108.5 61.78 108.48 61.8C108.46 61.82 108.43 61.84 108.37 61.87C108.3 61.9 108.23 61.93 108.18 61.96C108.13 61.99 108.07 62.02 108.03 62.04C107.98 62.07 107.93 62.1 107.89 62.14C107.84 62.18 107.79 62.22 107.73 62.27C107.44 62.51 107.3 62.79 107.31 63.11C107.32 63.43 107.43 63.77 107.67 64.11C107.67 63.96 107.7 63.81 107.78 63.65C107.86 63.5 107.95 63.37 108.05 63.29C108.21 63.15 108.39 63.06 108.59 63C108.79 62.94 108.99 62.92 109.2 62.95C109.41 62.98 109.61 63.05 109.81 63.17C110.01 63.29 110.2 63.45 110.38 63.65C110.55 63.85 110.68 64.07 110.77 64.29C110.86 64.52 110.9 64.74 110.9 64.96C110.9 65.18 110.85 65.4 110.75 65.61C110.65 65.82 110.51 66.01 110.31 66.17L110.27 66.18ZM108.54 63.99C108.35 64.15 108.25 64.34 108.24 64.55C108.24 64.76 108.32 64.97 108.49 65.18C108.59 65.29 108.69 65.39 108.8 65.46C108.91 65.53 109.02 65.58 109.13 65.61C109.24 65.64 109.35 65.64 109.45 65.62C109.55 65.6 109.64 65.56 109.72 65.5C109.89 65.35 109.98 65.17 109.98 64.94C109.98 64.71 109.88 64.48 109.68 64.24C109.49 64.01 109.29 63.88 109.09 63.83C108.89 63.78 108.7 63.83 108.53 63.98L108.54 63.99Z" fill="white" stroke="#231F20" stroke-width="0.4"/>
<path d="M112.63 64.72C112.51 64.84 112.36 64.89 112.2 64.88C112.04 64.87 111.89 64.8 111.77 64.67C111.65 64.54 111.59 64.39 111.59 64.22C111.59 64.05 111.65 63.91 111.78 63.8C111.9 63.69 112.05 63.63 112.21 63.64C112.38 63.65 112.52 63.72 112.64 63.85C112.76 63.98 112.82 64.13 112.82 64.3C112.82 64.47 112.76 64.61 112.63 64.72Z" fill="white" stroke="#231F20" stroke-width="0.4"/>
<path d="M114.3 62.46C114.09 62.67 113.87 62.81 113.62 62.88C113.37 62.94 113.12 62.94 112.84 62.88C112.57 62.81 112.29 62.68 112 62.49C111.71 62.3 111.41 62.06 111.11 61.77C110.98 61.64 110.84 61.5 110.7 61.34C110.56 61.18 110.43 61.01 110.32 60.84C110.21 60.67 110.11 60.48 110.03 60.29C109.95 60.1 109.9 59.91 109.89 59.72C109.87 59.53 109.89 59.34 109.96 59.15C110.02 58.96 110.14 58.78 110.3 58.61C110.46 58.44 110.64 58.32 110.83 58.25C111.01 58.18 111.2 58.15 111.39 58.16C111.58 58.16 111.77 58.21 111.96 58.28C112.15 58.35 112.34 58.45 112.52 58.56C112.7 58.67 112.87 58.79 113.04 58.92C113.2 59.05 113.35 59.18 113.48 59.31C113.78 59.6 114.03 59.89 114.23 60.17C114.43 60.45 114.57 60.73 114.65 61C114.73 61.27 114.74 61.53 114.69 61.77C114.64 62.02 114.51 62.24 114.3 62.46ZM110.94 59.23C110.86 59.31 110.81 59.41 110.79 59.52C110.77 59.63 110.79 59.77 110.84 59.92C110.89 60.07 110.99 60.25 111.14 60.45C111.28 60.65 111.48 60.87 111.74 61.11C112 61.36 112.23 61.55 112.43 61.69C112.63 61.83 112.81 61.92 112.97 61.97C113.13 62.02 113.26 62.03 113.37 62C113.48 61.97 113.58 61.92 113.65 61.84C113.73 61.76 113.78 61.66 113.8 61.55C113.82 61.44 113.8 61.31 113.76 61.15C113.71 61 113.61 60.82 113.47 60.63C113.33 60.43 113.13 60.21 112.87 59.96C112.62 59.71 112.39 59.52 112.19 59.39C111.99 59.25 111.81 59.16 111.65 59.11C111.49 59.06 111.36 59.05 111.25 59.08C111.14 59.11 111.04 59.16 110.97 59.24L110.94 59.23Z" fill="white" stroke="#231F20" stroke-width="0.4"/>
<path d="M116.77 59.62C116.43 60.04 116 60.22 115.49 60.17C114.98 60.11 114.39 59.81 113.72 59.27C113.42 59.02 113.15 58.76 112.92 58.48C112.69 58.2 112.53 57.9 112.43 57.6C112.33 57.3 112.31 56.99 112.37 56.67C112.43 56.35 112.59 56.03 112.85 55.7C112.89 55.65 112.94 55.6 112.99 55.54C113.04 55.48 113.1 55.43 113.15 55.38C113.2 55.33 113.26 55.28 113.32 55.23C113.38 55.18 113.43 55.15 113.48 55.12C113.52 55.1 113.55 55.09 113.58 55.1C113.6 55.1 113.63 55.13 113.66 55.15L114.16 55.59C114.16 55.59 114.21 55.65 114.2 55.68C114.19 55.7 114.16 55.73 114.1 55.77C114.03 55.81 113.98 55.85 113.93 55.89C113.88 55.93 113.84 55.97 113.79 56C113.74 56.03 113.71 56.08 113.67 56.12C113.63 56.16 113.59 56.22 113.54 56.28C113.31 56.57 113.22 56.87 113.28 57.19C113.34 57.51 113.52 57.81 113.82 58.1C113.79 57.95 113.8 57.8 113.84 57.63C113.88 57.46 113.95 57.33 114.04 57.22C114.17 57.05 114.33 56.93 114.52 56.83C114.7 56.73 114.9 56.68 115.1 56.67C115.31 56.66 115.52 56.69 115.74 56.76C115.96 56.83 116.18 56.96 116.39 57.13C116.6 57.3 116.76 57.48 116.89 57.69C117.02 57.9 117.1 58.11 117.14 58.33C117.18 58.55 117.17 58.77 117.11 58.99C117.06 59.21 116.95 59.42 116.78 59.62H116.77ZM114.65 57.81C114.49 58.01 114.43 58.21 114.46 58.42C114.49 58.63 114.62 58.82 114.83 58.99C114.95 59.08 115.07 59.16 115.19 59.2C115.31 59.25 115.43 59.28 115.54 59.28C115.65 59.28 115.76 59.28 115.86 59.23C115.96 59.19 116.04 59.14 116.1 59.06C116.24 58.88 116.29 58.68 116.25 58.46C116.21 58.24 116.07 58.03 115.83 57.83C115.6 57.64 115.38 57.55 115.17 57.54C114.96 57.54 114.79 57.62 114.64 57.8L114.65 57.81Z" fill="white" stroke="#231F20" stroke-width="0.4"/>
<path d="M118.82 57.7C118.72 57.84 118.59 57.92 118.43 57.94C118.26 57.96 118.11 57.92 117.97 57.82C117.83 57.72 117.74 57.58 117.71 57.42C117.68 57.26 117.71 57.11 117.81 56.97C117.91 56.83 118.04 56.75 118.2 56.73C118.37 56.71 118.52 56.75 118.66 56.85C118.8 56.95 118.89 57.09 118.92 57.25C118.95 57.41 118.92 57.56 118.82 57.7Z" fill="white" stroke="#231F20" stroke-width="0.4"/>
<path d="M119.1 56.41C119.07 56.46 119.04 56.5 119.01 56.51C118.98 56.53 118.94 56.51 118.89 56.48L118.47 56.22C118.47 56.22 118.4 56.16 118.38 56.12C118.36 56.08 118.34 56.04 118.33 56L117.78 54.53C117.58 53.99 117.39 53.57 117.23 53.29C117.07 53 116.91 52.82 116.76 52.73C116.6 52.63 116.44 52.59 116.3 52.62C116.15 52.64 116.03 52.73 115.92 52.87C115.82 53 115.74 53.16 115.7 53.33C115.66 53.51 115.63 53.72 115.63 53.96C115.63 54.03 115.62 54.08 115.6 54.09C115.58 54.1 115.55 54.1 115.51 54.09L114.92 53.87C114.92 53.87 114.86 53.84 114.84 53.82C114.83 53.8 114.82 53.76 114.81 53.69C114.81 53.59 114.81 53.48 114.81 53.36C114.82 53.24 114.84 53.13 114.87 53.01C114.9 52.9 114.93 52.79 114.98 52.68C115.02 52.58 115.07 52.49 115.11 52.41C115.22 52.23 115.35 52.08 115.51 51.95C115.66 51.82 115.83 51.74 116.01 51.68C116.19 51.63 116.38 51.62 116.59 51.65C116.79 51.68 117 51.76 117.22 51.89C117.41 52 117.57 52.16 117.71 52.35C117.85 52.54 117.98 52.74 118.09 52.96C118.2 53.18 118.3 53.4 118.38 53.62C118.46 53.84 118.54 54.05 118.61 54.23C118.66 54.35 118.71 54.48 118.76 54.63C118.81 54.78 118.86 54.92 118.9 55.05L119.81 53.55C119.84 53.49 119.88 53.46 119.9 53.46C119.93 53.46 119.97 53.48 120.02 53.51L120.47 53.78C120.53 53.82 120.56 53.85 120.57 53.87C120.57 53.9 120.57 53.94 120.53 53.99L119.08 56.38L119.1 56.41Z" fill="white" stroke="#231F20" stroke-width="0.4"/>
<path d="M121.18 50.13L122.1 50.56C122.17 50.59 122.21 50.62 122.23 50.64C122.24 50.66 122.23 50.71 122.2 50.78L121.96 51.28C121.93 51.35 121.9 51.38 121.87 51.39C121.84 51.39 121.79 51.39 121.73 51.35L120.81 50.92L119.95 52.75C119.92 52.81 119.9 52.84 119.88 52.85C119.86 52.86 119.82 52.85 119.76 52.83L119.31 52.62C119.31 52.62 119.23 52.57 119.21 52.54C119.19 52.51 119.17 52.47 119.14 52.43C118.79 51.89 118.43 51.36 118.07 50.82C117.71 50.28 117.36 49.74 117.03 49.19C117.01 49.15 116.99 49.12 116.99 49.1C116.99 49.08 116.99 49.04 117.02 49L117.28 48.45C117.31 48.38 117.35 48.35 117.37 48.36C117.39 48.37 117.44 48.38 117.48 48.4L120.4 49.78L120.63 49.29C120.66 49.23 120.68 49.2 120.7 49.19C120.72 49.19 120.77 49.19 120.84 49.23L121.33 49.46C121.4 49.49 121.44 49.52 121.44 49.54C121.44 49.56 121.44 49.6 121.41 49.65L121.18 50.14V50.13ZM119.52 51.62L120.02 50.55L118.28 49.73L119.51 51.62H119.52Z" fill="white" stroke="#231F20" stroke-width="0.4"/>
<path d="M39.62 63.95L36.34 69.53L35.41 69.26L35.65 61.6L36.48 61.84L36.22 68.36L39.53 62.72L40.39 62.97L40.17 69.56L43.44 63.85L44.23 64.08L40.37 70.69L39.42 70.41L39.64 63.95H39.62Z" fill="#231F20"/>
<path d="M39.41 70.41L40.36 70.69L44.22 64.08L43.43 63.85L40.16 69.56L40.38 62.97L39.53 62.72L36.22 68.36L36.48 61.84L35.65 61.6L35.42 69.26L36.35 69.53L39.62 63.95L39.41 70.41Z" stroke="#231F20" stroke-width="0.31" stroke-linecap="round" stroke-linejoin="round"/>
<path d="M48.29 72.22L43.76 71.44L45.02 64.11L49.55 64.89L49.43 65.62L45.75 64.99L45.36 67.23L48.78 67.82L48.66 68.54L45.24 67.95L44.74 70.85L48.42 71.48L48.29 72.23V72.22Z" fill="#231F20"/>
<path d="M48.42 71.48L44.74 70.85L45.24 67.95L48.66 68.54L48.78 67.82L45.36 67.23L45.75 64.99L49.43 65.62L49.55 64.9L45.02 64.12L43.76 71.45L48.29 72.22L48.42 71.48Z" stroke="#231F20" stroke-width="0.31" stroke-linecap="round" stroke-linejoin="round"/>
<path d="M52.39 72.6L49.89 72.38L50.55 64.99L53.02 65.21C53.37 65.24 53.67 65.31 53.92 65.42C54.18 65.53 54.39 65.67 54.56 65.84C54.73 66.01 54.85 66.19 54.92 66.4C54.99 66.61 55.02 66.83 55 67.06C54.96 67.47 54.82 67.81 54.55 68.09C54.29 68.37 53.95 68.54 53.53 68.62V68.64C53.78 68.69 54 68.78 54.2 68.91C54.4 69.03 54.56 69.18 54.69 69.35C54.82 69.52 54.92 69.72 54.98 69.94C55.04 70.16 55.06 70.4 55.04 70.65C55.02 70.92 54.94 71.18 54.82 71.43C54.7 71.68 54.53 71.9 54.3 72.09C54.08 72.28 53.81 72.42 53.48 72.51C53.16 72.61 52.79 72.64 52.37 72.6H52.39ZM52.44 68.93L51.08 68.81L50.82 71.72L52.35 71.86C52.88 71.91 53.29 71.81 53.59 71.58C53.89 71.34 54.06 71 54.1 70.56C54.14 70.09 54.03 69.72 53.76 69.44C53.49 69.16 53.05 68.99 52.44 68.94V68.93ZM52.73 65.91L51.34 65.79L51.13 68.11L52.42 68.22C52.89 68.26 53.28 68.21 53.57 68.05C53.86 67.89 54.03 67.59 54.07 67.14C54.11 66.75 54.01 66.46 53.78 66.27C53.55 66.08 53.2 65.96 52.72 65.92L52.73 65.91Z" fill="#231F20"/>
<path d="M53.5 72.54C53.82 72.44 54.09 72.3 54.32 72.12C54.54 71.93 54.72 71.71 54.84 71.46C54.96 71.21 55.03 70.95 55.06 70.68C55.08 70.43 55.06 70.19 55 69.97C54.94 69.75 54.84 69.55 54.71 69.38C54.58 69.21 54.41 69.06 54.22 68.94C54.02 68.82 53.8 68.73 53.55 68.67V68.65C53.97 68.57 54.31 68.39 54.57 68.12C54.83 67.84 54.98 67.5 55.02 67.09C55.04 66.86 55.02 66.64 54.94 66.43C54.87 66.22 54.75 66.03 54.58 65.87C54.41 65.7 54.2 65.57 53.94 65.45C53.68 65.34 53.38 65.27 53.04 65.24L50.57 65.02L49.91 72.42L52.41 72.64C52.83 72.68 53.19 72.64 53.51 72.55L53.5 72.54ZM53.76 69.47C54.03 69.75 54.15 70.12 54.1 70.59C54.06 71.03 53.89 71.37 53.59 71.61C53.29 71.84 52.88 71.94 52.35 71.89L50.82 71.75L51.08 68.84L52.44 68.96C53.05 69.02 53.49 69.18 53.76 69.46V69.47ZM53.8 66.29C54.03 66.48 54.12 66.77 54.09 67.16C54.05 67.61 53.88 67.91 53.59 68.07C53.3 68.23 52.91 68.28 52.44 68.24L51.15 68.12L51.36 65.81L52.75 65.93C53.23 65.97 53.59 66.09 53.81 66.28L53.8 66.29Z" stroke="#231F20" stroke-width="0.31" stroke-linecap="round" stroke-linejoin="round"/>
<path d="M61.3 68.06C61.42 68.19 61.55 68.32 61.71 68.45C61.87 68.58 62.03 68.69 62.2 68.81C62.37 68.92 62.54 69.02 62.71 69.11C62.88 69.2 63.05 69.28 63.21 69.35L62.76 69.92C62.42 69.76 62.09 69.56 61.77 69.34C61.45 69.11 61.15 68.86 60.88 68.58C60.52 68.97 60.12 69.31 59.7 69.59C59.27 69.87 58.87 70.09 58.51 70.23L57.99 69.7C58.38 69.55 58.75 69.37 59.1 69.14C59.45 68.91 59.77 68.67 60.06 68.39C60.35 68.12 60.59 67.83 60.79 67.53C60.99 67.23 61.12 66.93 61.2 66.62C60.89 66.64 60.58 66.66 60.26 66.67C59.94 66.68 59.62 66.69 59.3 66.7L58.49 66.72L58.47 66.06L59.83 66.02C60.2 66.01 60.58 66 60.96 65.99C61.34 65.98 61.74 65.96 62.15 65.94C62.12 66.33 62.03 66.7 61.88 67.05C61.73 67.4 61.55 67.73 61.32 68.05L61.3 68.06ZM64.84 73.51L59.76 73.66L59.67 70.56L60.43 70.54L60.45 71.24L64.02 71.13L64 70.38L64.75 70.36L64.84 73.51ZM64.07 72.87L64.04 71.77L60.47 71.88L60.5 72.98L64.07 72.88V72.87ZM62.48 68.08L62.46 67.4L63.89 67.36L63.84 65.55L64.6 65.53L64.73 69.92L63.97 69.94L63.91 68.05L62.48 68.09V68.08Z" fill="#231F20"/>
<path d="M60.5 72.97L60.47 71.87L64.04 71.76L64.07 72.86L60.5 72.96V72.97ZM64.75 70.37L64 70.39L64.02 71.14L60.45 71.25L60.43 70.55L59.68 70.57L59.77 73.67L64.85 73.52L64.76 70.38L64.75 70.37ZM63.91 68.04L63.97 69.93L64.73 69.91L64.6 65.52L63.84 65.54L63.89 67.35L62.46 67.39L62.48 68.07L63.91 68.03V68.04ZM61.86 67.06C62.01 66.71 62.09 66.34 62.12 65.95C61.7 65.97 61.31 65.99 60.93 66C60.55 66.01 60.17 66.02 59.8 66.04L58.44 66.08L58.46 66.74L59.27 66.72C59.59 66.72 59.91 66.7 60.23 66.69C60.55 66.68 60.86 66.66 61.17 66.64C61.1 66.95 60.96 67.25 60.76 67.55C60.56 67.85 60.32 68.14 60.03 68.41C59.74 68.68 59.42 68.93 59.07 69.16C58.71 69.39 58.34 69.58 57.96 69.72L58.48 70.25C58.85 70.1 59.25 69.89 59.67 69.61C60.1 69.33 60.49 68.99 60.85 68.6C61.12 68.88 61.42 69.13 61.74 69.36C62.06 69.59 62.39 69.78 62.73 69.94L63.18 69.37C63.02 69.3 62.85 69.22 62.68 69.13C62.51 69.04 62.34 68.94 62.17 68.82C62 68.71 61.84 68.59 61.68 68.47C61.52 68.35 61.39 68.22 61.27 68.08C61.5 67.77 61.68 67.43 61.83 67.08L61.86 67.06Z" stroke="#231F20" stroke-width="0.31" stroke-linecap="round" stroke-linejoin="round"/>
<path d="M71.33 68.41C71.33 67.96 71.31 67.5 71.29 67.04C71.27 66.57 71.23 66.12 71.17 65.68L66.7 66.28L66.61 65.62L71.86 64.91C71.9 65.22 71.93 65.53 71.95 65.85C71.98 66.16 72 66.47 72.02 66.76C72.04 67.05 72.06 67.33 72.06 67.59C72.07 67.86 72.08 68.09 72.09 68.31L73.58 68.11L73.67 68.76L66 69.8L65.91 69.15L71.33 68.42V68.41ZM73.06 72.54L67.73 73.26L67.37 70.58L68.13 70.48L68.4 72.5L72.97 71.88L73.06 72.54Z" fill="#231F20"/>
<path d="M72.98 71.88L68.41 72.5L68.14 70.48L67.38 70.58L67.74 73.26L73.07 72.54L72.98 71.88ZM65.91 69.15L66 69.8L73.67 68.76L73.58 68.11L72.09 68.31C72.09 68.1 72.08 67.86 72.06 67.59C72.06 67.33 72.03 67.05 72.02 66.76C72 66.47 71.98 66.16 71.95 65.85C71.92 65.54 71.89 65.22 71.86 64.91L66.61 65.62L66.7 66.28L71.17 65.68C71.23 66.12 71.27 66.58 71.29 67.04C71.31 67.51 71.33 67.97 71.33 68.41L65.91 69.14V69.15Z" stroke="#231F20" stroke-width="0.31" stroke-linecap="round" stroke-linejoin="round"/>
<path d="M76.07 63.93C76.14 64.19 76.19 64.44 76.22 64.69C76.25 64.94 76.27 65.17 76.26 65.41C76.61 65.8 77 66.12 77.42 66.37C77.84 66.62 78.32 66.8 78.87 66.92L78.54 67.56C78.07 67.45 77.64 67.29 77.24 67.06C76.84 66.84 76.49 66.57 76.17 66.25C76.07 66.74 75.91 67.19 75.66 67.61C75.41 68.03 75.11 68.41 74.74 68.76L74.11 68.4C74.75 67.79 75.17 67.14 75.38 66.45C75.59 65.76 75.57 64.98 75.3 64.13L76.06 63.94L76.07 63.93ZM81.29 69.22C81.35 69.44 81.34 69.65 81.28 69.87C81.22 70.08 81.1 70.29 80.91 70.48C80.72 70.67 80.48 70.85 80.17 71C79.86 71.16 79.49 71.29 79.07 71.4C78.64 71.51 78.25 71.56 77.91 71.57C77.57 71.57 77.27 71.53 77.01 71.45C76.76 71.37 76.55 71.25 76.4 71.09C76.24 70.93 76.14 70.74 76.08 70.53C76.03 70.31 76.03 70.09 76.08 69.88C76.14 69.67 76.27 69.46 76.45 69.27C76.63 69.08 76.88 68.9 77.18 68.74C77.48 68.58 77.85 68.45 78.28 68.34C78.71 68.23 79.1 68.18 79.44 68.17C79.79 68.17 80.09 68.2 80.34 68.29C80.59 68.37 80.8 68.5 80.95 68.66C81.11 68.82 81.21 69.01 81.27 69.23L81.29 69.22ZM80.52 69.42C80.49 69.3 80.42 69.19 80.32 69.1C80.22 69.01 80.08 68.94 79.91 68.89C79.74 68.84 79.53 68.82 79.28 68.83C79.03 68.83 78.75 68.88 78.44 68.96C78.13 69.04 77.87 69.13 77.65 69.24C77.43 69.35 77.26 69.47 77.13 69.59C77 69.72 76.91 69.84 76.87 69.97C76.83 70.1 76.82 70.22 76.85 70.34C76.88 70.45 76.94 70.56 77.04 70.65C77.14 70.74 77.28 70.81 77.45 70.85C77.62 70.89 77.83 70.91 78.07 70.9C78.31 70.9 78.59 70.85 78.9 70.77C79.22 70.69 79.48 70.6 79.7 70.49C79.92 70.38 80.1 70.27 80.23 70.15C80.36 70.03 80.45 69.9 80.49 69.78C80.53 69.65 80.54 69.53 80.51 69.41L80.52 69.42ZM77.86 65.75L77.69 65.09L79.28 64.69L78.86 63.01L79.6 62.82L80.79 67.54L80.05 67.73L79.45 65.35L77.86 65.75Z" fill="#231F20"/>
<path d="M80.5 69.78C80.46 69.91 80.37 70.03 80.24 70.15C80.11 70.27 79.93 70.38 79.71 70.49C79.49 70.6 79.22 70.69 78.91 70.77C78.6 70.85 78.32 70.89 78.08 70.9C77.84 70.9 77.63 70.9 77.46 70.85C77.29 70.81 77.15 70.74 77.05 70.65C76.95 70.56 76.88 70.46 76.86 70.34C76.83 70.22 76.84 70.09 76.88 69.97C76.93 69.84 77.01 69.72 77.14 69.59C77.27 69.47 77.44 69.35 77.66 69.24C77.87 69.13 78.14 69.04 78.45 68.96C78.77 68.88 79.05 68.84 79.29 68.83C79.54 68.83 79.75 68.84 79.92 68.89C80.09 68.94 80.23 69.01 80.33 69.1C80.43 69.19 80.49 69.3 80.53 69.42C80.56 69.54 80.55 69.66 80.51 69.79L80.5 69.78ZM80.98 68.65C80.82 68.49 80.62 68.37 80.37 68.28C80.12 68.2 79.82 68.16 79.47 68.16C79.12 68.16 78.74 68.22 78.31 68.33C77.88 68.44 77.51 68.57 77.21 68.73C76.91 68.89 76.66 69.06 76.48 69.26C76.3 69.45 76.17 69.66 76.11 69.87C76.05 70.08 76.05 70.3 76.11 70.52C76.17 70.74 76.27 70.93 76.43 71.08C76.59 71.24 76.79 71.36 77.04 71.44C77.29 71.52 77.59 71.56 77.94 71.56C78.28 71.56 78.67 71.5 79.1 71.39C79.53 71.28 79.9 71.15 80.2 70.99C80.51 70.83 80.75 70.66 80.94 70.46C81.12 70.27 81.25 70.07 81.31 69.85C81.37 69.64 81.38 69.42 81.32 69.2C81.27 68.98 81.16 68.79 81 68.63L80.98 68.65ZM79.46 65.35L80.06 67.73L80.8 67.54L79.61 62.82L78.87 63.01L79.29 64.69L77.7 65.09L77.87 65.75L79.46 65.35ZM75.31 64.12C75.57 64.97 75.6 65.74 75.39 66.44C75.18 67.14 74.75 67.79 74.12 68.39L74.75 68.75C75.12 68.4 75.43 68.02 75.67 67.6C75.92 67.18 76.08 66.73 76.18 66.24C76.49 66.56 76.85 66.83 77.25 67.05C77.65 67.27 78.08 67.44 78.55 67.55L78.88 66.91C78.33 66.79 77.85 66.61 77.43 66.36C77.01 66.11 76.62 65.79 76.27 65.4C76.27 65.17 76.26 64.93 76.23 64.68C76.2 64.43 76.15 64.18 76.08 63.92L75.32 64.11L75.31 64.12Z" stroke="#231F20" stroke-width="0.31" stroke-linecap="round" stroke-linejoin="round"/>
</g>
<defs>
<clipPath id="clip0_5307_16529">
<rect width="122.43" height="83.49" fill="white"/>
</clipPath>
</defs>
</svg>
