<?xml version="1.0" encoding="UTF-8"?>
<svg id="_레이어_1" data-name="레이어 1" xmlns="http://www.w3.org/2000/svg" viewBox="0 0 70 70">
  <defs>
    <style>
      .cls-1 {
        fill: #246beb;
      }

      .cls-2 {
        fill: #7ab4f9;
      }

      .cls-3 {
        fill: #e4eef6;
      }
    </style>
  </defs>
  <path class="cls-2" d="M9.01,14.39c0,1.16,2.31,6.36,5.78,6.94,2.89.58,6.94,0,8.68-.58,1.74-1.74,4.05-8.1,2.89-9.26-2.31-2.31-5.78,1.16-9.83,1.74s-7.52,0-7.52,1.16Z"/>
  <path class="cls-2" d="M27.63,40.23c-1.52-1.52-2.78-3-3.77-4.44-4.9,1.23-9.64,1.16-14.27,0-.86,1.13-2.44,3.27-3.62,4.44-2.88,2.88-4.62,6.9-4.48,11.33.25,7.81,6.52,14.29,14.32,14.77,8.9.55,16.29-6.5,16.29-15.28,0-4.23-1.71-8.05-4.48-10.83ZM16.53,60.08c-5.11,0-9.26-4.14-9.26-9.26s4.14-9.26,9.26-9.26,9.26,4.14,9.26,9.26-4.14,9.26-9.26,9.26Z"/>
  <path class="cls-1" d="M16.81,67.24c-.35,0-.69-.01-1.04-.03-8.22-.51-14.87-7.37-15.14-15.61-.15-4.53,1.53-8.78,4.73-11.97,1.15-1.15,2.15-2.29,2.98-3.37.29-.38.83-.46,1.22-.16.38.29.46.83.16,1.22-.87,1.14-1.92,2.33-3.13,3.54-2.85,2.85-4.35,6.65-4.22,10.69.24,7.36,6.17,13.48,13.51,13.93,4.04.25,7.88-1.13,10.81-3.89,2.94-2.76,4.55-6.5,4.55-10.53s-1.5-7.48-4.23-10.21c-1.58-1.58-2.85-3.08-3.87-4.57-.27-.39-.17-.93.22-1.21.39-.27.94-.17,1.21.22.95,1.38,2.18,2.83,3.67,4.32,3.06,3.06,4.74,7.12,4.74,11.44s-1.86,8.74-5.1,11.79c-3.03,2.85-6.93,4.39-11.06,4.39Z"/>
  <path class="cls-3" d="M22.32,24.8c.04.81.59.96.58,1.74,0,.77-.57.97-.58,1.74,0,.78.58.96.58,1.74,0,.83-.65.94-.58,1.74.05.61.03.57,0,1.16-.02.51-.58,1.16-3.47,1.16s-9.83-.58-12.15-2.31c.03.67-.02,2.68.01,3.35,10.31,2.36,14.04,2.04,15.44,1.21.18-.11,2.86-1.72,2.86-1.72h0l.35-2.74,1.28-1.33-.48-2.19,1.37-1.9-1.37-1.89.89-1.79c-.23-.4-.68-1.03-1.46-1.45-1.98-1.07-4.3.53-4.43.61,1.01.65,1.71.76,1.74,1.16.05.72-.62.89-.58,1.74Z"/>
  <path class="cls-1" d="M16.85,37.81c-1.76,0-3.67-.19-5.71-.57-1.14-.21-2.31-.48-3.49-.81-.46-.13-.73-.61-.6-1.07.13-.46.61-.73,1.07-.6,1.12.32,2.24.58,3.33.77,3.37.63,6.35.71,8.84.24,1.08-.21,2.03-.52,2.82-.92.36-.18.63-.35.83-.5.68-.49.71-.79.71-.8,0-.34-.16-.66-.44-.89-.28-.22-.4-.59-.29-.94.11-.34.41-.58.77-.61.6-.04,1.07-.54,1.07-1.13,0-.35-.17-.68-.46-.91-.27-.21-.39-.57-.31-.9.09-.33.37-.59.71-.64.55-.08.96-.56.96-1.11,0-.48-.31-.92-.78-1.08-.31-.11-.53-.38-.58-.71-.04-.33.1-.65.38-.83.32-.22.55-.73.53-.89,0-.02,0-.04-.01-.06-.05-.37-.29-.62-.48-.76-.32-.24-.75-.36-1.11-.3l-.27.04c-2.01.31-2.93.45-4.62.62-.03,0-.05,0-.08,0,0,0-3.4.02-4.55.02s-2.65-1-3.72-2.19c-.58.26-1.14.56-1.67.91-.65.42-1.26.9-1.82,1.44-.35.33-.89.32-1.23-.02-.33-.35-.32-.89.02-1.23.64-.61,1.33-1.16,2.07-1.64.5-.33,1.03-.62,1.57-.88-.14-.23-.28-.44-.41-.65-.92-1.45-1.58-2.49-1.7-3.52,0-.07,0-.15,0-.22.24-1.76,2.66-1.8,5-1.85,1.17-.02,2.37-.05,3.05-.27,1.26-.41,2.41-.86,3.42-1.26,3.23-1.27,5.77-2.27,7.86-.09.17.17.25.41.24.65-.09,1.64-.66,3.68-1.81,6.41-.33.79-.67,1.45-.98,1.99.63.04,1.26.27,1.77.65.64.47,1.05,1.15,1.15,1.89.11.58-.08,1.22-.42,1.75.56.53.9,1.28.9,2.08,0,.94-.47,1.79-1.19,2.32.19.38.29.81.29,1.25,0,1.01-.53,1.91-1.34,2.42.16.36.24.74.24,1.14,0,.53-.24,1.34-1.4,2.18-.26.2-.62.42-1.08.66-.94.48-2.04.84-3.29,1.08-1.17.22-2.43.33-3.77.33ZM9.98,14.72c.16.63.72,1.5,1.4,2.57.19.3.39.62.6.95.82,1.33,2.43,2.51,3.11,2.51,1.08,0,4.12-.02,4.5-.02,1.22-.12,2.03-.23,3.19-.4.53-.82,1.06-1.66,1.59-2.93.97-2.32,1.5-4.06,1.64-5.44-1.18-.96-2.68-.43-5.7.76-1.04.41-2.21.87-3.52,1.29-.93.3-2.2.33-3.55.35-1,.02-2.8.06-3.27.35Z"/>
  <path class="cls-1" d="M6.99,36.95H2.94c-.48,0-.87-.39-.87-.87s.39-.87.87-.87h3.18v-12.73h-3.18c-.48,0-.87-.39-.87-.87s.39-.87.87-.87h4.04c.48,0,.88.4.88.88v14.45c0,.48-.39.87-.87.87Z"/>
  <polygon class="cls-3" points="48.54 54.28 62.67 49.78 64.6 55.56 50.47 61.34 48.54 54.28"/>
  <path class="cls-1" d="M61.45,50.59c-.06,0-.13,0-.2-.02-.47-.11-.76-.58-.65-1.04.33-1.41,1.2-3.62,2.6-6.55.63-1.31.81-2.81.5-4.23l-.7-3.24-1.6-5.34c-.15-.51-.39-.98-.71-1.4l-2.44-3.24c-.42-.56-.97-1-1.59-1.28l-6.43-3.07c-.84-.47-1.85-.18-2.29.61-.44.79-.16,1.8.64,2.24.02.01.04.02.05.03l5.23,3.45s.04.02.05.04c.68.52,1.36,1.51,1.36,2.55v7.7c0,.23-.09.45-.25.61l-.67.67c-.11.11-.25.19-.41.23-1.6.4-3.22-.5-3.85-2.13-.45-1.13-.43-2.14-.4-3.13.02-.77.04-1.49-.18-2.28-.13-.46.14-.94.61-1.07.46-.13.94.14,1.07.61.28,1.03.26,1.96.24,2.78-.02.88-.04,1.64.28,2.45.32.82,1.01,1.16,1.61,1.11l.22-.22v-7.34c0-.36-.29-.86-.66-1.16l-5.18-3.41c-1.61-.92-2.18-2.97-1.28-4.59.91-1.62,2.98-2.21,4.6-1.31l6.36,3.04c.87.39,1.65,1.02,2.24,1.81l2.44,3.24c.44.59.77,1.24.98,1.95l1.61,5.38s.01.04.02.07l.71,3.27c.38,1.79.16,3.69-.63,5.34-1.32,2.78-2.17,4.92-2.47,6.2-.09.4-.45.67-.84.67Z"/>
  <path class="cls-1" d="M49.37,54.58c-.32,0-.62-.18-.78-.48-.02-.04-.05-.08-.07-.12-.74-1.25-2.04-3.41-2.95-4.9-.73-1.21-1.15-2.6-1.19-4.04-.15-5.33-.32-8.13-.43-8.54-.55-1.82-.83-3.44-.83-4.78,0-.48.39-.87.87-.87s.87.39.87.87c0,1.17.26,2.62.76,4.29.22.77.39,5.3.5,8.97.04,1.13.36,2.24.94,3.19.91,1.5,2.21,3.66,2.94,4.9.04.07.1.16.15.25.21.43.04.95-.39,1.16-.12.06-.26.09-.39.09Z"/>
  <path class="cls-1" d="M49.85,61.69c-.37,0-.71-.23-.83-.6l-2.12-6.58c-.15-.46.1-.95.56-1.09l15.55-5.02c.22-.07.46-.05.67.06.21.11.36.29.43.51l1.65,5.38c.14.46-.12.94-.57,1.08-.46.14-.94-.12-1.08-.57l-1.39-4.54-13.88,4.49,1.86,5.75c.15.46-.1.95-.56,1.09-.09.03-.18.04-.27.04Z"/>
  <path class="cls-1" d="M53.84,22.48c-.48,0-.87-.39-.87-.87,0-1.37-.01-2.74-.02-4.08-.02-2.67-.05-5.2.03-7.51.14-4.58,2.15-7.2,5.49-7.2,2.72,0,4.34,2.27,4.34,6.07,0,.48-.39.87-.87.87h-6.94c-.1,0-.19-.02-.27-.04,0,.12-.01.24-.02.36-.07,2.28-.05,4.79-.02,7.44.01,1.35.02,2.73.02,4.1,0,.48-.39.87-.87.87ZM58.47,4.55c-2.17,0-3.14,1.62-3.53,3.47.02,0,.04,0,.06,0h6.04c-.13-1.74-.73-3.47-2.57-3.47Z"/>
  <path class="cls-1" d="M17.39,10.52c-.07,0-.15,0-.23-.03-.46-.12-.74-.6-.61-1.06.42-1.55.71-2.2,1.23-3.24.63-1.25,2.59-3.37,5.98-3.37h34.13c.48,0,.87.39.87.87s-.39.87-.87.87H23.76c-2.54,0-3.98,1.52-4.43,2.41-.45.9-.71,1.44-1.1,2.92-.1.39-.45.64-.84.64Z"/>
  <path class="cls-2" d="M68.57,38.76s-20.81-13.28-20.93-13.28l-1.92-1.44c-.26-.19-.56-.3-.88-.31l-2.04-.07c-.32-.02-.54.32-.39.6l.86,1.64s0,0,0,.01c.12.22,1.48,1.31,1.48,1.31,0,0,2.96,1.19,3.28,1.19,1.1,0,2,.9,2,2,0,.02,0,.05,0,.07l.45.29,16.19,10.96c.3.19.63.28.95.28.58,0,1.15-.29,1.49-.81.53-.81.29-1.92-.53-2.44Z"/>
  <path class="cls-1" d="M43.99,32.59c-.44,0-.81-.33-.86-.77-.21-1.91.16-3.3,1.09-4.14.84-.76,2.11-1,3.58-.69,1.87.45,3.15,2.07,3.44,4.35.06.48-.28.91-.75.97-.47.06-.91-.28-.97-.75-.2-1.56-.96-2.61-2.1-2.88-.51-.11-1.47-.22-2.03.28-.61.55-.62,1.75-.52,2.66.05.48-.29.9-.77.96-.03,0-.06,0-.1,0Z"/>
  <path class="cls-1" d="M46.9,16.7h-14.46c-.48,0-.87-.39-.87-.87s.39-.87.87-.87h14.46c.48,0,.87.39.87.87s-.39.87-.87.87Z"/>
  <path class="cls-1" d="M41.12,22.48h-9.83c-.48,0-.87-.39-.87-.87s.39-.87.87-.87h9.83c.48,0,.87.39.87.87s-.39.87-.87.87Z"/>
  <path class="cls-1" d="M43.43,53.14h-10.41c-.48,0-.87-.39-.87-.87s.39-.87.87-.87h10.41c.48,0,.87.39.87.87s-.39.87-.87.87Z"/>
  <path class="cls-1" d="M17.02,57.91s-.02,0-.03,0c-.48-.02-.85-.42-.84-.9l.03-.7c.02-.47.4-.84.87-.84.01,0,.02,0,.03,0,.48.02.85.42.84.9l-.03.7c-.02.47-.4.84-.87.84Z"/>
  <path class="cls-1" d="M16.8,46.17s-.02,0-.03,0c-.48-.02-.85-.42-.84-.9l.03-.75c.02-.48.41-.86.9-.84.48.02.85.42.84.9l-.03.75c-.02.47-.4.84-.87.84Z"/>
  <path class="cls-1" d="M16.75,56.46c-1.97,0-3.27-1.32-3.62-1.74-.31-.36-.27-.91.09-1.22.36-.31.91-.27,1.22.09.17.2,1.07,1.19,2.41,1.13.69-.02,1.81-.33,2.09-1.07.18-.48.04-1.14-.33-1.61-.44-.56-1.15-.68-1.96-.82-.96-.16-2.15-.36-2.9-1.46-.62-.91-.73-2.14-.28-3.12.67-1.46,2.41-1.98,3.73-1.85,1.59.16,2.55,1.23,2.89,1.69.29.38.21.93-.18,1.21-.38.29-.93.21-1.21-.18-.16-.21-.74-.9-1.67-1-.75-.07-1.7.22-1.98.84-.19.42-.13,1.02.14,1.42.32.46.87.58,1.75.72.97.16,2.19.36,3.04,1.46.75.95.97,2.24.59,3.29-.58,1.55-2.33,2.15-3.65,2.2-.05,0-.11,0-.16,0Z"/>
</svg>