<?xml version="1.0" encoding="UTF-8"?>
<svg id="_레이어_1" data-name="레이어 1" xmlns="http://www.w3.org/2000/svg" viewBox="0 0 70 70">
  <defs>
    <style>
      .cls-1 {
        fill: #246beb;
      }

      .cls-2 {
        fill: #7ab4f9;
      }
    </style>
  </defs>
  <path class="cls-2" d="M31.59,55.36H1.35v1.1c0,2.04,1.65,3.71,3.68,3.71h59.95c2.03,0,3.68-1.66,3.68-3.71v-1.1h-30.31c-.71.77-1.71,1.2-2.75,1.2h-1.17c-1.04,0-2.04-.43-2.75-1.2h-.07Z"/>
  <path class="cls-1" d="M54.38,63.68c-.6,0-1.09.49-1.09,1.09s.49,1.09,1.09,1.09,1.09-.49,1.09-1.09-.49-1.09-1.09-1.09Z"/>
  <path class="cls-1" d="M50.32,63.62H12.47c-.58,0-1.05.47-1.05,1.05s.47,1.05,1.05,1.05h37.85c.58,0,1.05-.47,1.05-1.05s-.47-1.05-1.05-1.05Z"/>
  <path class="cls-1" d="M7.06,11.95h-1.01c-2.01,0-3.65,1.64-3.65,3.65v38.86c0,.58.47,1.05,1.05,1.05s1.05-.47,1.05-1.05V15.59c0-.85.69-1.54,1.54-1.54h1.01c.58,0,1.05-.47,1.05-1.05s-.47-1.05-1.05-1.05Z"/>
  <path class="cls-1" d="M63.95,11.95h-1.61c-.58,0-1.05.47-1.05,1.05s.47,1.05,1.05,1.05h1.61c.85,0,1.54.69,1.54,1.54v38.86c0,.58.47,1.05,1.05,1.05s1.05-.47,1.05-1.05V15.59c0-2.01-1.64-3.65-3.65-3.65Z"/>
  <path class="cls-1" d="M68.95,54.01h-30.58c-.29,0-.57.12-.77.33-.52.55-1.25.87-2.01.87h-1.18c-.76,0-1.49-.32-2.01-.87-.2-.21-.48-.33-.77-.33H1.05c-.58,0-1.05.47-1.05,1.05v.5c0,2.53,2.04,5.36,4.76,5.36h60.48c2.72,0,4.76-2.83,4.76-5.36v-.5c0-.58-.47-1.05-1.05-1.05ZM67.84,56.11c-.25,1.34-1.31,2.7-2.6,2.7H4.76c-1.29,0-2.36-1.37-2.6-2.7h29.05c.89.78,2.02,1.2,3.2,1.2h1.18c1.18,0,2.31-.43,3.2-1.2h29.05Z"/>
  <path class="cls-1" d="M58.73,4.14H10.67c-.58,0-1.05.47-1.05,1.05v46.27c0,.58.47,1.05,1.05,1.05s1.05-.47,1.05-1.05V6.24h45.97v45.21c0,.58.47,1.05,1.05,1.05s1.05-.47,1.05-1.05V5.19c0-.58-.47-1.05-1.05-1.05Z"/>
  <path class="cls-1" d="M50.92,34.17h-7.81c-.58,0-1.05.47-1.05,1.05s.47,1.05,1.05,1.05h7.81c.58,0,1.05-.47,1.05-1.05s-.47-1.05-1.05-1.05Z"/>
  <path class="cls-1" d="M38.3,34.17h-19.23c-.58,0-1.05.47-1.05,1.05s.47,1.05,1.05,1.05h19.23c.58,0,1.05-.47,1.05-1.05s-.47-1.05-1.05-1.05Z"/>
  <path class="cls-1" d="M50.92,23.35h-7.81c-.58,0-1.05.47-1.05,1.05s.47,1.05,1.05,1.05h7.81c.58,0,1.05-.47,1.05-1.05s-.47-1.05-1.05-1.05Z"/>
  <path class="cls-1" d="M38.3,23.35h-19.23c-.58,0-1.05.47-1.05,1.05s.47,1.05,1.05,1.05h19.23c.58,0,1.05-.47,1.05-1.05s-.47-1.05-1.05-1.05Z"/>
  <path class="cls-1" d="M50.38,12.49h-30.76c-.92,0-1.63.48-1.63,1.09s.72,1.09,1.63,1.09h30.76c.91,0,1.63-.48,1.63-1.09s-.72-1.09-1.63-1.09Z"/>
  <g>
    <path class="cls-1" d="M32.9,46.35h-13.82c-.5,0-.9-.4-.9-.9s.4-.9.9-.9h13.82c.5,0,.9.4.9.9s-.4.9-.9.9Z"/>
    <path class="cls-1" d="M32.9,46.5h-13.82c-.58,0-1.05-.47-1.05-1.05s.47-1.05,1.05-1.05h13.82c.58,0,1.05.47,1.05,1.05s-.47,1.05-1.05,1.05ZM19.08,44.69c-.41,0-.75.34-.75.75s.34.75.75.75h13.82c.41,0,.75-.34.75-.75s-.34-.75-.75-.75h-13.82Z"/>
  </g>
</svg>