<?xml version="1.0" encoding="UTF-8"?>
<svg id="_레이어_1" data-name="레이어 1" xmlns="http://www.w3.org/2000/svg" viewBox="0 0 55 50">
  <defs>
    <style>
      .cls-1, .cls-2, .cls-3, .cls-4 {
        fill: none;
        stroke-linecap: round;
        stroke-linejoin: round;
      }

      .cls-1, .cls-3, .cls-4 {
        stroke: #373f57;
      }

      .cls-5 {
        fill: #fff;
      }

      .cls-2 {
        stroke: #3075f0;
      }

      .cls-2, .cls-3 {
        stroke-width: 2.4px;
      }

      .cls-4 {
        stroke-width: 1.6px;
      }

      .cls-6 {
        fill: #b0e869;
      }
    </style>
  </defs>
  <circle class="cls-6" cx="34.25" cy="27.46" r="11"/>
  <path class="cls-4" d="M20.69,25.5l.56-2.33"/>
  <path class="cls-3" d="M16.65,26.18c-.76.2-4.72,3.41-5.15,4.07-1.16,1.8-1.75,3.92-1.75,6.06v5.06"/>
  <path class="cls-4" d="M20.32,33.53h-4.39l-3.94-3.74"/>
  <path class="cls-4" d="M20.65,25.35l3.82,3.21-2.57,2.03-3.29-4.17,2.04-1.07Z"/>
  <path class="cls-2" d="M24.47,37.85c-1.57-1.27-2.96-2.72-4.15-4.33-1.04-1.41-1.93-2.93-2.64-4.53"/>
  <path class="cls-4" d="M15.92,35.15v6.21"/>
  <path class="cls-4" d="M27.69,23.17l.56,2.33"/>
  <path class="cls-3" d="M39.18,41.37v-5.06c0-2.14-.59-4.26-1.75-6.06-.43-.66-4.39-3.86-5.15-4.07"/>
  <path class="cls-4" d="M28.62,33.53h4.39l3.94-3.74"/>
  <path class="cls-4" d="M28.28,25.35l-3.82,3.21,2.57,2.03,3.29-4.17-2.04-1.07Z"/>
  <path class="cls-2" d="M31.25,29c-.71,1.61-1.59,3.13-2.64,4.54-1.18,1.6-2.58,3.06-4.15,4.33"/>
  <path class="cls-4" d="M33.01,35.15v6.21"/>
  <path class="cls-2" d="M19.34,33.53v7.84"/>
  <path class="cls-1" d="M22.76,41.37v-2.09"/>
  <path class="cls-1" d="M26.18,41.37v-2.09"/>
  <path class="cls-2" d="M29.59,33.53v7.84"/>
  <path class="cls-5" d="M19.03,19.78c1.03,2.69,3.05,4.52,5.36,4.52s4.33-1.83,5.36-4.52"/>
  <path class="cls-4" d="M19.03,19.78c1.03,2.69,3.05,4.52,5.36,4.52s4.33-1.83,5.36-4.52"/>
  <path class="cls-5" d="M19.03,19.78c-.6.18-1.32-.43-1.6-1.36s-.02-1.83.59-2.02l.95-.37.09-.85c.15-1.43.95-2.71,2.16-3.48,2.26,1.06,4.82,1.32,7.25.71h.02c-.24,1.32.24,2.67,1.25,3.55l.09.07.94.37c.6.18.87,1.08.59,2.02-.28.93-.99,1.54-1.6,1.36"/>
  <path class="cls-4" d="M19.03,19.78c-.6.18-1.32-.43-1.6-1.36s-.02-1.83.59-2.02l.95-.37.09-.85c.15-1.43.95-2.71,2.16-3.48,2.26,1.06,4.82,1.32,7.25.71h.02c-.24,1.32.24,2.67,1.25,3.55l.09.07.94.37c.6.18.87,1.08.59,2.02-.28.93-.99,1.54-1.6,1.36"/>
  <path class="cls-3" d="M17.25,17.39c-.26-.87-.61-2.48-.19-4.38.07-.3,1.17-5.05,5.24-6.07,2.17-.54,4.67.11,6.21,1.75.44.47.72.93.91,1.28.03.01.09.05.17.11,1.31.92,2.04,2.5,1.94,4.13-.05.86-.2,2.19-.2,2.73"/>
</svg>