<?xml version="1.0" encoding="UTF-8"?>
<svg id="_레이어_1" data-name="레이어 1" xmlns="http://www.w3.org/2000/svg" viewBox="0 0 25 25">
  <defs>
    <style>
      .cls-1 {
        fill: #fff;
      }
    </style>
  </defs>
  <path class="cls-1" d="M10.56,3.18c4.15,0,7.53,3.3,7.53,7.34s-3.38,7.34-7.53,7.34-7.53-3.3-7.53-7.34,3.38-7.34,7.53-7.34ZM10.56.35C4.8.35.14,4.91.14,10.53s4.67,10.17,10.42,10.17,10.42-4.55,10.42-10.17S16.32.35,10.56.35Z"/>
  <path class="cls-1" d="M23.36,24.44c-.38,0-.76-.14-1.05-.43l-6.12-5.99c-.59-.58-.6-1.53-.02-2.12.58-.59,1.53-.6,2.12-.02l6.12,5.99c.59.58.6,1.53.02,2.12-.29.3-.68.45-1.07.45Z"/>
</svg>