<?xml version="1.0" encoding="UTF-8"?>
<svg id="_레이어_1" data-name="레이어 1" xmlns="http://www.w3.org/2000/svg" viewBox="0 0 55 50">
  <defs>
    <style>
      .cls-1, .cls-2, .cls-3, .cls-4, .cls-5, .cls-6, .cls-7, .cls-8 {
        stroke-width: 2px;
      }

      .cls-1, .cls-2, .cls-3, .cls-5, .cls-9, .cls-10, .cls-8 {
        fill: none;
      }

      .cls-1, .cls-3 {
        stroke: #3075f0;
      }

      .cls-1, .cls-5, .cls-6, .cls-10, .cls-8 {
        stroke-miterlimit: 22.93;
      }

      .cls-2, .cls-3, .cls-4, .cls-9, .cls-7 {
        stroke-linecap: round;
        stroke-linejoin: round;
      }

      .cls-2, .cls-6, .cls-9, .cls-7, .cls-10, .cls-8 {
        stroke: #373f57;
      }

      .cls-4, .cls-5 {
        stroke: #fff;
      }

      .cls-4, .cls-6, .cls-7 {
        fill: #fff;
      }

      .cls-4, .cls-7 {
        fill-rule: evenodd;
      }

      .cls-9 {
        stroke-width: 2.4px;
      }

      .cls-11 {
        fill: #b0e869;
      }
    </style>
  </defs>
  <circle class="cls-11" cx="36.23" cy="25.5" r="11"/>
  <path class="cls-9" d="M8.74,10.29h21.72c.54,0,.98.4.98.89v28.52c0,.49-.44.89-.98.89H8.74c-.54,0-.98-.4-.98-.89V11.18c0-.49.44-.89.98-.89h0Z"/>
  <path class="cls-4" d="M17.24,12.18h4.73v-2.28c0-1.35-1.07-2.45-2.37-2.45s-2.37,1.1-2.37,2.45v2.28Z"/>
  <path class="cls-2" d="M16.29,13.13h6.63v-3.2c0-1.89-1.49-3.43-3.31-3.43s-3.31,1.55-3.31,3.43v3.2Z"/>
  <path class="cls-2" d="M14.4,13.13h10.42"/>
  <path class="cls-5" d="M20.91,33.42c2.96,0,5.37.99,5.44,2.22,0,0,0,.01,0,.02h0v5.13c0,1.25-2.43,2.27-5.44,2.27s-5.44-1.02-5.44-2.27v-5.16h0c.08-1.23,2.48-2.21,5.44-2.21Z"/>
  <path class="cls-7" d="M15.48,40.8c0,1.25,2.43,2.27,5.44,2.27s5.44-1.02,5.44-2.27v-5.13l-10.88-.03v5.16Z"/>
  <path class="cls-10" d="M26.35,38.2c0,1.25-2.43,2.27-5.44,2.27s-5.44-1.02-5.44-2.27"/>
  <path class="cls-8" d="M26.35,35.6c0,1.25-2.43,2.27-5.44,2.27s-5.44-1.02-5.44-2.27"/>
  <path class="cls-6" d="M20.91,37.96c3,0,5.44-1.02,5.44-2.27s-2.43-2.27-5.44-2.27-5.44,1.02-5.44,2.27,2.43,2.27,5.44,2.27Z"/>
  <path class="cls-5" d="M29.76,31.17c3,0,5.44,1.01,5.47,2.26v7.79c0,1.26-2.45,2.28-5.47,2.28s-5.47-1.02-5.47-2.28v-7.8h0c.04-1.25,2.48-2.25,5.47-2.25h0Z"/>
  <path class="cls-7" d="M24.29,41.22c0,1.26,2.45,2.28,5.47,2.28s5.47-1.02,5.47-2.28v-7.79h-10.94s0,7.79,0,7.79h0Z"/>
  <path class="cls-10" d="M35.23,38.6c0,1.26-2.45,2.28-5.47,2.28s-5.47-1.02-5.47-2.28"/>
  <path class="cls-10" d="M35.23,35.99c0,1.26-2.45,2.28-5.47,2.28s-5.47-1.02-5.47-2.28"/>
  <path class="cls-6" d="M29.76,35.73c3.02,0,5.47-1.02,5.47-2.28s-2.45-2.28-5.47-2.28-5.47,1.02-5.47,2.28,2.45,2.28,5.47,2.28Z"/>
  <path class="cls-3" d="M15,27.28l10.42-9.47"/>
  <path class="cls-1" d="M19.13,19.29c0-1.3-1.05-2.36-2.36-2.37-1.31,0-2.37,1.05-2.37,2.35,0,1.3,1.05,2.36,2.36,2.37,1.31,0,2.37-1.05,2.37-2.35Z"/>
  <path class="cls-1" d="M23.8,28.2c1.28-.23,2.14-1.46,1.9-2.75-.23-1.28-1.47-2.13-2.75-1.9-1.28.23-2.14,1.46-1.9,2.75.23,1.28,1.47,2.13,2.75,1.9Z"/>
</svg>