<?xml version="1.0" encoding="UTF-8"?>
<svg id="_레이어_1" data-name="레이어 1" xmlns="http://www.w3.org/2000/svg" viewBox="0 0 70 70">
  <defs>
    <style>
      .cls-1 {
        fill: #246beb;
      }

      .cls-2 {
        fill: #7ab4f9;
      }

      .cls-3 {
        fill: #e4eef6;
      }
    </style>
  </defs>
  <path class="cls-3" d="M46.53,35.18l9.44,11.33s-3.58,5.74-4.5,6.68-2.68,2.74-2.68,2.74c0,0-14.87-14-15.49-14.46-.53-.4-6.07,4.34-6.85,5.06-.78.72-3.15-.09-2.59-.65,1.89-1.89,6.75-6.12,8.81-8.18.63-.63,2.52-1.89,3.78-1.89,1.89,0,4.03.59,5.67.63,2.11.05,4.41-1.26,4.41-1.26Z"/>
  <polygon class="cls-2" points=".57 42.11 6.56 46.33 17.2 33.38 10.64 27.63 .57 42.11"/>
  <path class="cls-1" d="M48.79,57.21c-.26,0-.51-.11-.69-.32-.31-.38-.25-.94.12-1.25,2.6-2.13,3.6-4.14,4.48-5.91.73-1.47,1.42-2.86,2.86-3.89.4-.28.95-.19,1.24.2.29.4.19.95-.2,1.24-1.09.78-1.63,1.87-2.31,3.24-.91,1.83-2.05,4.12-4.94,6.49-.16.13-.36.2-.56.2Z"/>
  <path class="cls-3" d="M24.49,56.59l-6.3,6.3s2.39,2.02,3.15,1.26l4.41-4.41c.76-.76-1.26-3.15-1.26-3.15Z"/>
  <path class="cls-3" d="M18.83,55.33l-4.41,4.41s1.76,1.39,2.52.63l3.15-2.52c.76-.76-1.26-2.52-1.26-2.52Z"/>
  <path class="cls-3" d="M33.94,65.4s-3.27,3.15-3.78,3.15c-.66,0-1.89-1.26-1.89-1.26l5.04-4.41s1.52,1.64.63,2.52Z"/>
  <path class="cls-3" d="M28.9,59.74l-6.93,6.93s1.76,1.39,2.52.63l5.04-5.04c.76-.76-.63-2.52-.63-2.52Z"/>
  <path class="cls-1" d="M20.24,64.93c-.76,0-1.48-.3-2.01-.83l-.85-.85c-.54-.54-.83-1.25-.83-2.01s.3-1.48.83-2.01l3.4-3.4c.54-.54,1.25-.83,2.01-.83s1.48.3,2.01.83l.85.85c.54.54.83,1.25.83,2.01s-.3,1.48-.83,2.01l-3.4,3.4c-.54.54-1.25.83-2.01.83ZM22.78,56.76c-.29,0-.56.11-.76.31l-3.4,3.4c-.2.2-.31.47-.31.76s.11.56.31.76l.85.85c.4.4,1.12.4,1.52,0l3.4-3.4c.2-.2.31-.47.31-.76s-.11-.56-.31-.76l-.85-.85c-.2-.2-.47-.31-.76-.31Z"/>
  <path class="cls-1" d="M16.66,61.31c-.73,0-1.46-.28-2.01-.83l-.85-.85c-1.11-1.11-1.11-2.92,0-4.02l1.26-1.26c1.11-1.11,2.91-1.11,4.02,0l.85.85c1.11,1.11,1.11,2.91,0,4.02l-1.26,1.26c-.55.55-1.28.83-2.01.83ZM17.07,55.28c-.29,0-.56.11-.76.31l-1.26,1.26c-.42.42-.42,1.1,0,1.52l.85.85c.4.4,1.12.4,1.52,0l1.26-1.26c.2-.2.31-.47.31-.76s-.11-.56-.31-.76l-.85-.85c-.2-.2-.47-.31-.76-.31Z"/>
  <path class="cls-1" d="M30.06,69.36c-.93,0-1.8-.36-2.44-1-1.17-1.17-1.34-3.02-.4-4.39.1-.16.24-.32.38-.47l1.53-1.53c.65-.65,1.52-1.01,2.44-1.01.68,0,1.33.2,1.9.56.02.01.04.03.05.04.16.11.32.24.48.41.14.14.27.3.39.47.96,1.38.79,3.23-.39,4.4l-1.51,1.51c-.17.17-.35.31-.54.43-.53.37-1.2.58-1.9.58ZM31.57,62.73c-.45,0-.87.17-1.19.49l-1.51,1.51c-.05.06-.12.14-.16.2-.49.71-.41,1.6.16,2.17.54.54,1.49.64,2.13.19.11-.07.18-.12.25-.19l1.51-1.51s0,0,0,0c.57-.56.65-1.48.19-2.13-.06-.08-.12-.16-.2-.24-.09-.09-.16-.15-.23-.2-.01,0-.03-.02-.04-.03-.27-.17-.58-.26-.91-.26Z"/>
  <path class="cls-1" d="M23.94,68.48c-.73,0-1.46-.28-2.01-.83l-.85-.85c-1.11-1.11-1.11-2.91,0-4.02l4.07-4.07c1.11-1.11,2.91-1.11,4.02,0l.85.85c1.11,1.11,1.11,2.91,0,4.02l-4.07,4.07c-.55.55-1.28.83-2.01.83ZM27.16,59.64c-.27,0-.55.1-.76.31l-4.07,4.07c-.42.42-.42,1.1,0,1.52l.85.85c.42.42,1.1.42,1.52,0l4.07-4.07c.42-.42.42-1.1,0-1.52l-.85-.85c-.21-.21-.48-.31-.76-.31Z"/>
  <path class="cls-1" d="M56.46,47.53s-.04,0-.06,0c-.24-.02-.45-.12-.61-.3l-11.55-13.25c-.16-.18-.24-.43-.21-.67.02-.24.15-.47.34-.61l3.82-2.93c.39-.3.94-.22,1.24.16.3.39.22.94-.16,1.24l-3.07,2.35,10.35,11.87,4.82-4.26c.37-.32.93-.29,1.25.08.32.37.29.93-.08,1.25l-5.49,4.85c-.16.14-.37.22-.59.22Z"/>
  <path class="cls-1" d="M14.1,56.49c-.2,0-.41-.07-.57-.21l-.24-.2c-.99-.85-1.1-.94-1.62-1.46-1.61-1.61-2.6-3.35-3.28-4.69-.24-.46-.45-.91-.65-1.34-.41-.86-.76-1.6-1.15-2.17-.03-.04-.05-.09-.08-.14h-.02c-.29-.41-.21-.96.18-1.25.39-.29.95-.21,1.24.18.05.06.11.15.18.27.45.68.84,1.49,1.25,2.35.2.42.41.85.64,1.31.62,1.22,1.51,2.81,2.95,4.24.47.47.53.52,1.52,1.36l.24.2c.37.32.42.88.1,1.25-.18.2-.42.31-.67.31Z"/>
  <path class="cls-1" d="M31.22,35.44c-.18,0-.36-.05-.52-.17-1.9-1.38-4.46-1.77-6.85-1.05-.18.05-.33.1-.48.14-2.57.75-4.59.97-5.97.67-.13-.02-.26-.05-.38-.1,0,0-.01,0-.02,0-.05-.02-.1-.04-.14-.06-.44-.22-.61-.75-.4-1.19.2-.41.68-.59,1.09-.44,0,0,.02,0,.02,0h0s.08.02.13.03c.02,0,.04,0,.06.01,1.06.24,2.88.01,5.14-.64.16-.04.28-.08.4-.11,2.95-.89,6.09-.4,8.43,1.3.4.29.48.84.2,1.24-.17.24-.44.37-.72.37Z"/>
  <path class="cls-1" d="M43.02,64.81c-.92,0-1.79-.36-2.44-1.01l-3.76-3.81c-.34-.35-.34-.91,0-1.25.35-.34.91-.34,1.25,0l3.76,3.81c.62.62,1.74.63,2.37,0,.32-.32.49-.74.49-1.19s-.17-.87-.49-1.19l-5.95-6c-.34-.35-.34-.91,0-1.25.35-.34.91-.34,1.25,0l5.95,6c.65.65,1,1.51,1,2.44s-.36,1.79-1.01,2.44c-.65.65-1.52,1.01-2.44,1.01Z"/>
  <path class="cls-1" d="M46.64,61.18c-.92,0-1.79-.36-2.44-1.01l-5.95-6c-.34-.35-.34-.91,0-1.25.35-.34.91-.34,1.25,0l5.95,6c.62.62,1.74.63,2.37,0,.32-.32.49-.74.49-1.19s-.17-.87-.49-1.19l-.4-.4c-.35-.35-.35-.91,0-1.25.35-.35.91-.35,1.25,0l.4.4c.65.65,1.01,1.52,1.01,2.44s-.36,1.79-1.01,2.44c-.65.65-1.52,1.01-2.44,1.01Z"/>
  <path class="cls-1" d="M39.31,68.36c-.88,0-1.77-.34-2.44-1.01l-4.03-4.08c-.34-.35-.34-.91,0-1.25.35-.34.91-.34,1.25,0l4.03,4.08c.65.65,1.71.65,2.37,0,.65-.65.65-1.72,0-2.37l-5.97-6.03c-.34-.35-.34-.91,0-1.25.35-.34.91-.34,1.25,0l5.97,6.02c1.34,1.34,1.34,3.53,0,4.88-.67.67-1.56,1.01-2.44,1.01Z"/>
  <path class="cls-1" d="M6.32,47.45c-.21,0-.42-.07-.58-.22L.3,42.46c-.37-.32-.4-.88-.08-1.25.32-.37.88-.4,1.25-.08l4.77,4.19,10.36-11.78-6.07-4.88c-.38-.31-.44-.86-.13-1.25.31-.38.86-.44,1.25-.13l6.79,5.46c.19.15.31.37.33.61.02.24-.06.48-.22.66l-11.56,13.14c-.17.2-.42.3-.67.3Z"/>
  <path class="cls-1" d="M48.05,56.41c-.23,0-.45-.09-.63-.26l-13.69-13.69c-.37-.38-.95-.39-1.33-.02-1.13,1.08-2.73,2.6-3.74,3.57l-.94.89c-.62.59-1.42.91-2.28.89-.86-.02-1.65-.37-2.24-.99l-.34-.36c-.11-.12-.2-.22-.27-.33-.94-1.28-.79-3.07.36-4.19l7.4-7.07c.38-.36.78-.7,1.21-1,2.34-1.69,5.48-2.18,8.39-1.3,1.98.6,3.53.67,4.86.23.47-.16.97.1,1.12.56.15.46-.1.97-.56,1.12-1.7.57-3.58.5-5.93-.21-2.39-.72-4.95-.33-6.85,1.05-.36.26-.7.54-1.02.84l-7.4,7.07c-.51.5-.58,1.3-.15,1.87.01.02.03.04.04.05.03.04.06.08.1.12l.33.34c.26.28.62.43,1,.44.37.02.74-.13,1.01-.39l.94-.9c1.01-.96,2.61-2.49,3.73-3.56,1.06-1.02,2.77-.99,3.81.05l13.69,13.69c.35.35.35.91,0,1.25-.17.17-.4.26-.63.26Z"/>
  <path class="cls-1" d="M59.08,38.13c-.49,0-.89-.4-.89-.89V14.22c0-.49.4-.89.89-.89s.89.4.89.89v23.02c0,.49-.4.89-.89.89Z"/>
  <path class="cls-1" d="M20.71,29.86c-.49,0-.89-.4-.89-.89V5.36c0-.49.4-.89.89-.89h34.83c.49,0,.89.4.89.89s-.4.89-.89.89H21.6v22.73c0,.49-.4.89-.89.89Z"/>
  <path class="cls-1" d="M40.19,16.29h-11.81c-.49,0-.89-.4-.89-.89s.4-.89.89-.89h11.81c.49,0,.89.4.89.89s-.4.89-.89.89Z"/>
  <path class="cls-1" d="M35.47,22.78h-7.08c-.49,0-.89-.4-.89-.89s.4-.89.89-.89h7.08c.49,0,.89.4.89.89s-.4.89-.89.89Z"/>
  <polygon class="cls-2" points="44.12 19.66 47.69 23.62 66.28 7.61 63.2 3.7 44.12 19.66"/>
  <path class="cls-1" d="M41.66,26.17c-.26,0-.5-.11-.67-.31-.21-.24-.27-.58-.16-.89l2.05-5.47c.05-.14.14-.27.26-.36L62.6,2.59c.37-.32.93-.27,1.25.1l3.67,4.29c.15.18.23.41.21.65-.02.23-.13.45-.31.6l-19.47,16.55c-.11.1-.25.16-.39.19l-5.72,1.18c-.06.01-.12.02-.18.02ZM47.38,24.1h0,0ZM44.45,20.34l-1.41,3.76,3.93-.81,18.62-15.83-2.52-2.95-18.62,15.83Z"/>
  <path class="cls-1" d="M66.99,8.05c-.29,0-.57-.14-.74-.39-.27-.41-.16-.96.25-1.23.45-.3,1.63-1.3,1.72-2.32.04-.46-.15-.91-.6-1.36-.18-.18-.71-.71-2.18.07-.88.48-1.6,1.18-1.6,1.18-.35.35-.91.35-1.25,0s-.35-.91,0-1.25c.04-.04.89-.89,2.02-1.49,2.29-1.23,3.66-.38,4.27.23,1.04,1.04,1.18,2.09,1.11,2.78-.2,2.02-2.27,3.46-2.5,3.61-.15.1-.32.15-.49.15Z"/>
</svg>