<?xml version="1.0" encoding="UTF-8"?>
<svg id="_레이어_1" data-name="레이어 1" xmlns="http://www.w3.org/2000/svg" viewBox="0 0 55 50">
  <defs>
    <style>
      .cls-1 {
        stroke-width: 2px;
      }

      .cls-1, .cls-2 {
        fill: #fff;
      }

      .cls-1, .cls-2, .cls-3 {
        stroke: #373f57;
      }

      .cls-4 {
        fill: #3075f0;
      }

      .cls-5 {
        fill: #b0e869;
      }

      .cls-3 {
        fill: none;
        stroke-miterlimit: 10;
        stroke-width: 2.4px;
      }
    </style>
  </defs>
  <circle class="cls-5" cx="36" cy="18.5" r="11"/>
  <path class="cls-3" d="M37.07,36.16H8v-18.89l14.53-12.77,14.54,12.77v18.89Z"/>
  <path class="cls-4" d="M20.33,25.22c0-2.72.7-3.55,1.98-4.36.99-.63,1.75-1.26,1.75-2.25s-.79-1.62-1.75-1.62-1.82.67-1.84,1.8h-3.57c.04-3.3,2.49-4.78,5.44-4.78,3.26,0,5.62,1.57,5.62,4.42,0,1.89-1.01,3.05-2.52,3.95-1.21.72-1.8,1.39-1.8,2.83v.31h-3.3v-.31ZM22.04,30.72c-1.12,0-2.04-.9-2.02-2.04-.02-1.1.9-2,2.02-2s2.02.9,2.04,2c-.02,1.15-.97,2.04-2.04,2.04Z"/>
  <rect class="cls-2" x="28.13" y="29.83" width="11.73" height="9.6"/>
  <path class="cls-1" d="M40.95,39.79c-.16-.88-.88-.82-.97-.88.07-1.33-.54-1.67-.54-1.67h-.01c.2-.79.75-2.95.93-6.9.25-5.52-5.1-5.84-6.37-5.84s-6.61.32-6.36,5.84c.18,3.95.73,6.11.93,6.9h-.01s-.61.33-.54,1.67c-.09.06-.81,0-.97.88-.16.88.07,2.08.93,3.12.86,1.04,2.75,2.59,6.02,2.59s5.16-1.55,6.02-2.59c.86-1.04,1.09-2.24.93-3.12ZM29.72,30.66c-.08-1.25,1-.84,1-.84,0,0,3.22,1.07,2.86,1.3-2.59,1.68-3.78.79-3.86-.46ZM34.02,37.42c-1.06,0-1.91-.65-1.91-1.45s.86-1.45,1.91-1.45,1.91.65,1.91,1.45-.86,1.45-1.91,1.45ZM38.28,30.66c-.08,1.25-1.27,2.14-3.86.46-.36-.23,2.86-1.3,2.86-1.3,0,0,1.08-.41,1,.84Z"/>
</svg>