<?xml version="1.0" encoding="UTF-8"?>
<svg id="_레이어_1" data-name="레이어 1" xmlns="http://www.w3.org/2000/svg" viewBox="0 0 55 50">
  <defs>
    <style>
      .cls-1 {
        fill: #fff;
        stroke-width: 2.4px;
      }

      .cls-1, .cls-2 {
        stroke: #3075f0;
      }

      .cls-3 {
        fill: #373f57;
        stroke: #373f57;
      }

      .cls-4 {
        fill: #b0e869;
      }

      .cls-2 {
        fill: none;
        stroke-linecap: round;
        stroke-width: 3px;
      }
    </style>
  </defs>
  <circle class="cls-4" cx="10.78" cy="30.52" r="10.05"/>
  <path class="cls-3" d="M40.93,16.48c0-.16-.1-.31-.25-.38l-2.08-1.1,2.12-1.37c.14-.09.22-.24.21-.4,0-.16-.1-.31-.25-.38l-11.47-6.03c-.15-.08-.33-.07-.48.02l-6.52,4.08-13.05,8.17c-.14.09-.22.24-.22.4,0,.16.1.31.24.39l2.09,1.14-2.12,1.33c-.14.09-.22.24-.22.4,0,.16.1.31.24.39l2.09,1.14-2.12,1.32c-.14.09-.22.24-.22.4,0,.16.1.31.24.39l2.09,1.14-2.11,1.32c-.14.09-.22.24-.22.4,0,.16.1.31.24.39l11.63,6.32c.07.04.15.06.23.06.09,0,.18-.03.26-.08l19.41-12.54c.14-.09.22-.24.21-.4,0-.16-.1-.31-.25-.38l-2.08-1.09,2.12-1.37c.14-.09.22-.24.21-.4,0-.16-.1-.31-.25-.38l-2.08-1.09,2.12-1.37c.14-.09.22-.24.21-.4h0ZM29.01,7.75l10.53,5.54-2.11,1.37h0s-4.33,2.8-4.33,2.8l-1.36-.86.99-.65s.02-.01.03-.02l1.33-.88c.11-.07.18-.19.2-.32l.29-2.18h0s0-.03,0-.04c0,0,0-.01,0-.02v-.03s0-.01,0-.02c0,0,0-.01,0-.02,0,0,0-.02,0-.03,0,0,0-.01,0-.02,0,0,0-.02,0-.03,0,0,0-.01,0-.02,0,0,0-.02,0-.03,0,0,0-.01,0-.02,0,0,0-.01-.01-.02,0,0,0-.01-.01-.02,0,0,0-.01,0-.02,0,0-.01-.01-.02-.02,0,0,0,0,0-.01,0,0-.01-.01-.02-.02,0,0,0,0-.01-.01,0,0-.01-.01-.02-.02,0,0,0,0-.01-.01,0,0-.01,0-.02-.01,0,0-.01-.01-.02-.01,0,0-.01,0-.02-.01,0,0-.02-.01-.02-.01,0,0,0,0,0,0l-4.32-2.28s0,0,0,0c0,0-.02,0-.03-.01,0,0-.01,0-.02,0,0,0-.02,0-.03,0,0,0-.01,0-.02,0,0,0-.02,0-.03,0,0,0-.01,0-.02,0,0,0-.02,0-.03,0,0,0-.01,0-.02,0,0,0-.02,0-.03,0h-.02s-.02,0-.02,0c0,0-.02,0-.02,0,0,0-.01,0-.02,0,0,0-.02,0-.03,0,0,0,0,0,0,0l-2.35.52c-.05.01-.1.03-.15.06l-2.68,1.68-1.16-.73,5.67-3.55ZM30.2,29.08l-.93-8.33h0s0-.02,0-.02c0-.01,0-.02,0-.03,0,0,0-.01,0-.02,0,0,0-.02,0-.03,0,0,0-.01,0-.02,0,0,0,0,0,0s0,0,0,0c0,0,0,0,0,0,0,0,0-.01,0-.02,0,0,0-.01,0-.01,0,0,0,0,0,0,0,0,0-.01-.01-.02s0-.01-.01-.02h0s0,0,0,0c0,0,0-.01-.01-.02,0,0,0-.01-.01-.02,0,0,0,0,0,0,0,0,0,0-.01-.01,0,0,0-.01-.01-.02,0,0,0,0,0,0,0,0,0,0,0,0,0,0,0,0,0,0,0,0,0,0-.01-.01,0,0,0,0,0,0h0s-.01-.01-.02-.02c0,0,0,0,0,0h0s0,0,0,0l-9.8-6.55,3.21-2.01,8.16,5.15,2.03,1.28.98,8.58-3.43,2.22ZM20.6,21.72s-.01,0-.02,0c0,0,0,0,0,0l-.6.12-3.46-1.86.21-1.98,3.65-2.29,5.49,3.67-2.8,1.85-2.47.49h0ZM29.72,10.71l3.88,2.04-.22,1.66-1.13.75s-.02,0-.02.01c0,0,0,0,0,0l-1.34.89-5.51-3.48,2.25-1.41,2.1-.46ZM18.4,14.4l1.13.76-3.51,2.2c-.12.08-.2.2-.21.34l-.26,2.5c-.02.18.08.36.24.45l3.88,2.08c.07.04.15.06.23.06.03,0,.06,0,.09,0l.76-.15s.01,0,.02,0h0l2.58-.51c.06-.01.12-.04.17-.07l3.18-2.1,1.26.84-6.94,4.48-8.6-4.68s0,0,0,0l-2.09-1.13,8.07-5.05ZM12.22,21.52l8.61,4.68c.07.04.15.06.23.06.09,0,.18-.03.26-.08l7.11-4.6.22,2-7.62,4.92-8.6-4.68s0,0,0,0l-2.08-1.13,1.88-1.18ZM12.22,24.77l2.53,1.38,6.08,3.31c.07.04.15.06.23.06.09,0,.18-.03.26-.08l7.45-4.82.22,2-7.95,5.14-8.6-4.68s0,0-.01,0l-2.08-1.13,1.88-1.18ZM21.03,35.01l-10.69-5.82,1.88-1.18,8.61,4.68c.07.04.15.06.23.06.09,0,.18-.03.26-.08l7.79-5.03.22,2-8.29,5.36h0ZM39.55,23.04l-5.03,3.25-.23-2,3.42-2.21,1.83.96ZM39.55,19.79l-2.11,1.36s0,0,0,0l-3.26,2.11-.23-2.01s.06-.02.08-.04l3.69-2.39,1.83.96ZM33.83,20.24l-.23-2,4.11-2.66,1.83.96-5.72,3.7Z"/>
  <path class="cls-1" d="M53.54,32.21c0,5.87-4.82,10.65-10.78,10.65s-10.78-4.78-10.78-10.65,4.82-10.65,10.78-10.65,10.78,4.78,10.78,10.65Z"/>
  <path class="cls-2" d="M39.17,35.98l7.31-7.31"/>
  <path class="cls-2" d="M39.17,28.67l7.31,7.31"/>
</svg>