<?xml version="1.0" encoding="UTF-8"?>
<svg id="_레이어_1" data-name="레이어 1" xmlns="http://www.w3.org/2000/svg" viewBox="0 0 30 40">
  <defs>
    <style>
      .cls-1 {
        fill: #fff;
      }

      .cls-2 {
        fill: #9abaef;
        opacity: .3;
      }

      .cls-3 {
        fill: #000068;
      }
    </style>
  </defs>
  <path class="cls-1" d="M24.21,15.08c0,5.08-4.12,9.21-9.21,9.21s-9.21-4.12-9.21-9.21S9.92,5.88,15,5.88s9.21,4.12,9.21,9.21Z"/>
  <path class="cls-2" d="M21.66,36.76c0,1.79-2.98,3.24-6.66,3.24s-6.66-1.45-6.66-3.24,2.98-3.24,6.66-3.24,6.66,1.45,6.66,3.24Z"/>
  <path class="cls-3" d="M29.56,15.06c0-.08.01-.15.01-.23C29.58,6.68,23.05.07,15,.07S.42,6.68.42,14.83c0,1.46.21,2.87.6,4.2,2.08,8.5,14.04,18,14.04,18,0,0,12.74-10.12,14.21-18.81.18-.75.3-1.74.3-2.83,0-.12,0-.22,0-.34M15,22.98c-4.55,0-8.24-3.69-8.24-8.24s3.69-8.24,8.24-8.24,8.24,3.69,8.24,8.24-3.69,8.24-8.24,8.24"/>
</svg>