<svg width="14" height="14" viewBox="0 0 14 14" fill="none" xmlns="http://www.w3.org/2000/svg">
<path d="M13.4496 4.27516C13.097 3.44155 12.5923 2.69292 11.9496 2.05021C11.3069 1.4075 10.5582 0.902827 9.72464 0.550154C8.86151 0.185113 7.94472 0 7 0C6.05528 0 5.13849 0.185113 4.27516 0.550353C3.44155 0.903026 2.69292 1.4075 2.05021 2.05041C1.4075 2.69332 0.902827 3.44175 0.550154 4.27536C0.185113 5.13829 0 6.05508 0 7C0 7.94492 0.185113 8.86151 0.550154 9.72484C0.902827 10.5584 1.4075 11.3071 2.05021 11.9498C2.69292 12.5925 3.44155 13.0972 4.27516 13.4498C5.13849 13.8149 6.05508 14 7 14C7.94492 14 8.86151 13.8149 9.72484 13.4498C10.5584 13.0972 11.3071 12.5925 11.9498 11.9498C12.5925 11.3071 13.0972 10.5584 13.4498 9.72484C13.8149 8.86151 14.0002 7.94492 14.0002 7C14.0002 6.05508 13.8151 5.13849 13.4498 4.27516H13.4496ZM11.3855 11.3855C10.2142 12.5568 8.65665 13.2021 7 13.2021C5.34335 13.2021 3.78585 12.557 2.61453 11.3855C1.44321 10.2142 0.797903 8.65665 0.797903 7C0.797903 5.34335 1.44301 3.78585 2.61453 2.61453C3.78585 1.44321 5.34335 0.797903 7 0.797903C8.65665 0.797903 10.2142 1.44301 11.3855 2.61453C12.5568 3.78585 13.2021 5.34335 13.2021 7C13.2021 8.65665 12.557 10.2142 11.3855 11.3855Z" fill="#373F57"/>
<path d="M9.65354 7.12289H7.25884V3.97915C7.25884 3.75873 7.08031 3.5802 6.85989 3.5802C6.63947 3.5802 6.46094 3.75873 6.46094 3.97915V7.37104C6.46094 7.67424 6.70749 7.92079 7.01069 7.92079H9.65354C9.87397 7.92079 10.0525 7.74226 10.0525 7.52184C10.0525 7.30142 9.87397 7.12289 9.65354 7.12289Z" fill="#373F57"/>
</svg>
