<?xml version="1.0" encoding="UTF-8"?>
<svg id="_레이어_1" data-name="레이어 1" xmlns="http://www.w3.org/2000/svg" viewBox="0 0 28 30">
  <defs>
    <style>
      .cls-1 {
        fill: #fff;
      }
    </style>
  </defs>
  <path class="cls-1" d="M18.63,11.04v-1.99c0-.57-.47-1.04-1.04-1.04h-3.01v-3.59c.89-.25,1.54-1.07,1.54-2.04,0-1.17-.95-2.13-2.13-2.13s-2.13.95-2.13,2.13c0,.97.65,1.79,1.54,2.04v3.59h-3.01c-.57,0-1.04.47-1.04,1.04v1.99c-4.74.83-8.26,4.98-8.26,9.85v3.57c0,2.91,2.37,5.28,5.28,5.28h15.22c2.91,0,5.28-2.37,5.28-5.28v-3.57c0-4.87-3.52-9.02-8.26-9.85ZM11.11,12.06h5.77c.36,0,.73.02,1.09.07,4.42.54,7.75,4.31,7.75,8.77v3.57c0,2.27-1.84,4.11-4.11,4.11H6.39c-2.27,0-4.11-1.84-4.11-4.11v-3.57c0-4.46,3.33-8.23,7.75-8.77.36-.04.72-.07,1.09-.07ZM17.46,10.91c-.19-.01-.38-.02-.58-.02h-5.77c-.19,0-.38,0-.58.02v-1.72h6.92v1.72ZM14.96,2.38c0,.53-.43.96-.96.96s-.96-.43-.96-.96.43-.96.96-.96.96.43.96.96Z"/>
  <path class="cls-1" d="M8.41,23.32h11.18c1.31,0,2.38-1.07,2.38-2.38v-.99c0-2.24-1.82-4.07-4.07-4.07h-5.01c-.32,0-.59.26-.59.58s.26.58.59.58h5.01c1.6,0,2.9,1.3,2.9,2.9v.99c0,.67-.54,1.21-1.21,1.21h-11.18c-.67,0-1.21-.54-1.21-1.21v-.99c0-1.6,1.3-2.9,2.9-2.9h.41c.32,0,.58-.26.58-.58s-.26-.58-.58-.58h-.41c-2.24,0-4.07,1.82-4.07,4.07v.99c0,1.31,1.07,2.38,2.38,2.38Z"/>
  <path class="cls-1" d="M18.09,24.94l-.65.65c-.4.4-.94.62-1.51.62h-3.88c-.57,0-1.1-.22-1.51-.62l-.65-.65c-.23-.23-.6-.23-.83,0-.23.23-.23.6,0,.83l.65.65c.62.62,1.45.97,2.33.97h3.88c.88,0,1.71-.34,2.33-.97l.65-.65c.11-.11.17-.26.17-.41s-.06-.3-.17-.41c-.23-.23-.6-.23-.83,0Z"/>
  <path class="cls-1" d="M15.68,20.89s.06,0,.1,0c.15-.03.29-.11.38-.24l.54-.75.54.75c.11.15.29.24.48.24.12,0,.24-.04.34-.11.13-.09.21-.23.24-.38s-.01-.31-.1-.44l-1.01-1.42c-.11-.15-.29-.25-.48-.25s-.37.09-.48.24l-1.01,1.42c-.19.26-.13.63.14.82.1.07.22.11.34.11Z"/>
  <path class="cls-1" d="M10.83,18.55l-1.01,1.42c-.19.26-.13.63.14.82.1.07.22.11.34.11.03,0,.06,0,.1,0,.15-.03.29-.11.38-.24l.54-.75.54.75c.11.15.29.25.48.25.12,0,.24-.04.34-.11.26-.19.32-.55.14-.82l-1.01-1.42c-.11-.15-.29-.24-.48-.24s-.37.09-.48.24Z"/>
</svg>