<?xml version="1.0" encoding="UTF-8"?>
<svg id="_레이어_1" data-name="레이어 1" xmlns="http://www.w3.org/2000/svg" viewBox="0 0 22 22">
  <defs>
    <style>
      .cls-1 {
        fill: #64e2e9;
      }
    </style>
  </defs>
  <path class="cls-1" d="M21.62,19.76l-4.88-4.88c1.16-1.55,1.85-3.47,1.85-5.55C18.59,4.2,14.43.04,9.3.04S0,4.2,0,9.33s4.16,9.3,9.3,9.3c2.12,0,4.07-.72,5.63-1.91l4.87,4.87c.25.25.58.38.91.38s.66-.13.91-.38c.5-.5.5-1.32,0-1.83ZM2.58,9.33c0-3.7,3.01-6.71,6.71-6.71s6.71,3.01,6.71,6.71-3.01,6.71-6.71,6.71-6.71-3.01-6.71-6.71Z"/>
</svg>