<?xml version="1.0" encoding="UTF-8"?>
<svg id="_레이어_1" data-name="레이어 1" xmlns="http://www.w3.org/2000/svg" viewBox="0 0 13 13">
  <defs>
    <style>
      .cls-1 {
        fill: #037beb;
      }
    </style>
  </defs>
  <path class="cls-1" d="M11.12,9.77c-.17,0-.34-.03-.5-.1L1.39,5.61c-.63-.27-.91-1.01-.64-1.63.27-.63,1.01-.92,1.63-.64l9.23,4.05c.63.27.91,1.01.64,1.63-.2.46-.66.74-1.13.74Z"/>
  <path class="cls-1" d="M2.1,10.2c-.43,0-.86-.23-1.08-.64-.33-.6-.12-1.35.48-1.69L10.3,2.96c.6-.34,1.35-.12,1.69.48.33.6.12,1.35-.48,1.69L2.7,10.04c-.19.11-.4.16-.6.16Z"/>
  <path class="cls-1" d="M6.58,12.78c-.67,0-1.23-.54-1.24-1.22l-.17-10.08c-.01-.68.53-1.25,1.22-1.26.69-.04,1.25.53,1.26,1.22l.17,10.08c.01.68-.53,1.25-1.22,1.26h-.02Z"/>
</svg>