<?xml version="1.0" encoding="UTF-8"?>
<svg id="_레이어_1" data-name="레이어 1" xmlns="http://www.w3.org/2000/svg" viewBox="0 0 15 15">
  <defs>
    <style>
      .cls-1 {
        fill: #fff;
      }
    </style>
  </defs>
  <path class="cls-1" d="M5.97,14.81c-1.23,0-2.4-.01-3.13-.06-.76-.04-1.37-.33-1.81-.84-.34-.4-.57-.94-.66-1.56-.05-.38-.04-.69-.03-.79v-7.49s0,0,0-.01c.01-.75.29-1.39.8-1.84.46-.4,1.08-.66,1.85-.75.47-.06.85-.03.97-.02h3.5s0-.01,0-.01c.33,0,.61.27.61.61,0,.34-.27.61-.61.61h-3.53s-.04.01-.06,0c-.35-.03-1.39-.01-1.93.47-.25.22-.38.53-.39.94v7.51s0,.04,0,.05c0,.04-.06.95.4,1.48.22.25.53.39.95.41,2.08.12,7.97,0,8.17,0,.02,0,.28-.02.52-.2.34-.26.51-.73.51-1.41v-4.56c0-.34.27-.61.61-.61s.61.27.61.61v4.56c0,1.4-.58,2.09-1.07,2.43-.53.37-1.07.39-1.14.39h0c-.16,0-2.76.06-5.13.06ZM11.08,13.54s0,0,0,0c0,0,0,0,0,0ZM11.08,13.54s0,0,0,0c0,0,0,0,0,0Z"/>
  <path class="cls-1" d="M5.3,10.2c-.16,0-.31-.06-.43-.18-.24-.24-.24-.62,0-.86L13.51.48c.24-.24.62-.24.86,0,.24.24.24.62,0,.86L5.73,10.02c-.12.12-.27.18-.43.18Z"/>
  <path class="cls-1" d="M14.06,5.99c-.34,0-.61-.27-.61-.61V1.41h-3.91c-.34,0-.61-.27-.61-.61s.27-.61.61-.61h4.51c.34,0,.61.27.61.61v4.58c0,.34-.27.61-.61.61Z"/>
</svg>