<svg width="21" height="20" viewBox="0 0 21 20" fill="none" xmlns="http://www.w3.org/2000/svg">
<path d="M16.0995 2H5.59925C4.82604 2 4.19922 2.62291 4.19922 3.3913V16.6087C4.19922 17.3771 4.82604 18 5.59925 18H16.0995C16.8727 18 17.4995 17.3771 17.4995 16.6087V3.3913C17.4995 2.62291 16.8727 2 16.0995 2Z" stroke="#2D2D2D" stroke-width="1.4" stroke-linecap="square" stroke-linejoin="round"/>
<path d="M3.5 5.47852H4.90003" stroke="#2D2D2D" stroke-width="1.4" stroke-linecap="square" stroke-linejoin="round"/>
<path d="M3.5 10H4.90003" stroke="#2D2D2D" stroke-width="1.4" stroke-linecap="square" stroke-linejoin="round"/>
<path d="M3.5 14.5217H4.90003" stroke="#2D2D2D" stroke-width="1.4" stroke-linecap="square" stroke-linejoin="round"/>
<path d="M11.2001 9.65204C12.5532 9.65204 13.6501 8.56195 13.6501 7.21725C13.6501 5.87256 12.5532 4.78247 11.2001 4.78247C9.84693 4.78247 8.75 5.87256 8.75 7.21725C8.75 8.56195 9.84693 9.65204 11.2001 9.65204Z" stroke="#2D2D2D" stroke-width="1.4" stroke-linecap="square" stroke-linejoin="round"/>
<path d="M12.6015 14.522H7.80988C7.34437 14.522 7.00836 14.0803 7.13086 13.6351C7.54737 12.1394 8.95791 10.4629 11.2015 10.4629C13.445 10.4629 14.8556 12.1359 15.2721 13.6351C15.3946 14.0803 15.0586 14.522 14.593 14.522H14.0015" stroke="#2D2D2D" stroke-width="1.4" stroke-linecap="square" stroke-linejoin="round"/>
</svg>
