<svg width="23" height="22" viewBox="0 0 23 22" fill="none" xmlns="http://www.w3.org/2000/svg">
<path d="M7.14062 8C7.14062 11.8656 10.3554 15 14.3201 15H21.4996V8C21.4996 4.13444 18.2848 1 14.3201 1C10.3554 1 7.14062 4.13444 7.14062 8Z" stroke="#2D2D2D" stroke-width="1.4" stroke-linecap="square" stroke-linejoin="round"/>
<path d="M4.62152 9.72095C2.75753 10.7659 1.5 12.7178 1.5 14.9546V21.0001H7.74303C9.71405 21.0001 11.4621 20.1192 12.6037 18.746" stroke="#2D2D2D" stroke-width="1.4" stroke-linecap="square" stroke-linejoin="round"/>
<path d="M10.8645 8.72728C11.3571 8.72728 11.7564 8.34061 11.7564 7.86364C11.7564 7.38666 11.3571 7 10.8645 7C10.372 7 9.97266 7.38666 9.97266 7.86364C9.97266 8.34061 10.372 8.72728 10.8645 8.72728Z" fill="#2D2D2D"/>
<path d="M14.4329 8.72728C14.9254 8.72728 15.3247 8.34061 15.3247 7.86364C15.3247 7.38666 14.9254 7 14.4329 7C13.9403 7 13.541 7.38666 13.541 7.86364C13.541 8.34061 13.9403 8.72728 14.4329 8.72728Z" fill="#2D2D2D"/>
<path d="M17.9993 8.72728C18.4918 8.72728 18.8911 8.34061 18.8911 7.86364C18.8911 7.38666 18.4918 7 17.9993 7C17.5067 7 17.1074 7.38666 17.1074 7.86364C17.1074 8.34061 17.5067 8.72728 17.9993 8.72728Z" fill="#2D2D2D"/>
</svg>
