<?xml version="1.0" encoding="UTF-8"?>
<svg id="_레이어_1" data-name="레이어 1" xmlns="http://www.w3.org/2000/svg" viewBox="0 0 25 25">
  <path d="M8.77,8.95c-.38,0-.7-.31-.7-.7v-1.79c0-.38.31-.7.7-.7s.7.31.7.7v1.79c0,.38-.31.7-.7.7Z"/>
  <path d="M6.07,10.8c-.38,0-.7-.31-.7-.7v-1.79c0-.38.31-.7.7-.7s.7.31.7.7v1.79c0,.38-.31.7-.7.7Z"/>
  <path d="M3.36,12.65c-.38,0-.7-.31-.7-.7v-1.79c0-.38.31-.7.7-.7s.7.31.7.7v1.79c0,.38-.31.7-.7.7Z"/>
  <path d="M7.46,24.85c-.12,0-.24-.03-.35-.09-.21-.12-.35-.35-.35-.6v-3.33c0-.22.1-.42.28-.55l2.8-2.12v-4.64l-7.62,3.07c-.21.09-.46.06-.65-.07-.19-.13-.31-.35-.31-.58v-3.02c0-.23.11-.44.3-.57l8.27-5.66v-3.87c0-1.47,1.19-2.66,2.66-2.66s2.66,1.19,2.66,2.66v3.87l8.27,5.66c.19.13.3.34.3.57v3.02c0,.23-.11.45-.31.58-.19.13-.43.16-.65.07l-7.61-3.07v4.64l2.8,2.12c.17.13.28.34.28.55v3.33c0,.25-.13.48-.35.6-.21.12-.48.12-.69,0l-4.7-2.68-4.7,2.68c-.11.06-.23.09-.34.09ZM8.15,21.17v1.79l4-2.29c.21-.12.48-.12.69,0l4,2.29v-1.79l-2.8-2.12c-.17-.13-.28-.34-.28-.55v-6.01c0-.23.11-.45.31-.58.19-.13.43-.15.65-.07l7.61,3.07v-1.62l-8.27-5.66c-.19-.13-.3-.34-.3-.57V2.81c0-.7-.57-1.27-1.27-1.27s-1.27.57-1.27,1.27v4.24c0,.23-.11.44-.3.57L2.66,13.29v1.62l7.62-3.07c.21-.09.46-.06.65.07.19.13.31.35.31.58v6.01c0,.22-.1.42-.28.55l-2.8,2.12Z"/>
  <path d="M16.23,8.95c-.38,0-.7-.31-.7-.7v-1.79c0-.38.31-.7.7-.7s.7.31.7.7v1.79c0,.38-.31.7-.7.7Z"/>
  <path d="M18.93,10.8c-.38,0-.7-.31-.7-.7v-1.79c0-.38.31-.7.7-.7s.7.31.7.7v1.79c0,.38-.31.7-.7.7Z"/>
  <path d="M21.64,12.65c-.38,0-.7-.31-.7-.7v-1.79c0-.38.31-.7.7-.7s.7.31.7.7v1.79c0,.38-.31.7-.7.7Z"/>
</svg>