<?xml version="1.0" encoding="UTF-8"?>
<svg id="_레이어_1" data-name="레이어 1" xmlns="http://www.w3.org/2000/svg" viewBox="0 0 30 30">
  <defs>
    <style>
      .cls-1 {
        fill: #fff;
      }
    </style>
  </defs>
  <path class="cls-1" d="M15,30h-7.12C3.54,30,0,26.46,0,22.12V7.88C0,3.54,3.54,0,7.88,0h14.24c4.35,0,7.88,3.54,7.88,7.88v7.12c0,.72-.58,1.31-1.31,1.31s-1.31-.58-1.31-1.31v-7.12c0-2.91-2.36-5.27-5.27-5.27H7.88c-2.91,0-5.27,2.36-5.27,5.27v14.24c0,2.9,2.36,5.27,5.27,5.27h7.12c.72,0,1.31.58,1.31,1.31s-.58,1.31-1.31,1.31Z"/>
  <path class="cls-1" d="M28.69,30h-7.68c-.72,0-1.31-.58-1.31-1.31s.58-1.31,1.31-1.31h6.37v-6.37c0-.72.58-1.31,1.31-1.31s1.31.58,1.31,1.31v7.68c0,.72-.58,1.31-1.31,1.31Z"/>
  <path class="cls-1" d="M28.69,30c-.33,0-.67-.13-.92-.38l-14.12-14.12c-.51-.51-.51-1.34,0-1.85.51-.51,1.34-.51,1.85,0l14.12,14.12c.51.51.51,1.34,0,1.85-.26.26-.59.38-.92.38Z"/>
</svg>