<?xml version="1.0" encoding="UTF-8"?>
<svg id="_레이어_1" data-name=" 레이어 1" xmlns="http://www.w3.org/2000/svg" viewBox="0 0 60 60">
  <defs>
    <style>
      .cls-1 {
        fill: #fff;
      }
    </style>
  </defs>
  <g>
    <path class="cls-1" d="M39.13,15.27h-18.25c-.43,0-.83-.26-.99-.66-.17-.4-.07-.86.23-1.17l9.13-9.13c.42-.42,1.1-.42,1.52,0l9.13,9.13c.31.31.4.77.23,1.17-.17.4-.56.66-.99.66h0ZM23.47,13.12h13.06l-6.53-6.53s-6.53,6.53-6.53,6.53Z"/>
    <path class="cls-1" d="M39.13,15.46h-18.25c-.51,0-.97-.31-1.17-.78-.2-.47-.09-1.01.27-1.38l9.13-9.13c.48-.48,1.31-.48,1.78,0l9.13,9.13c.36.36.47.9.27,1.38-.2.47-.65.78-1.17.78h0ZM30,4.18c-.24,0-.46.09-.63.26l-9.13,9.13c-.25.25-.33.63-.19.97.14.33.46.55.82.55h18.25c.36,0,.68-.21.82-.55s.06-.71-.19-.97l-9.13-9.13c-.17-.17-.39-.26-.63-.26h0ZM36.98,13.31h-13.97l6.98-6.98,6.98,6.98h.01ZM23.92,12.93h12.16l-6.08-6.08s-6.08,6.08-6.08,6.08Z"/>
  </g>
  <g>
    <path class="cls-1" d="M53.93,20.09H6.07c-.31,0-.61-.14-.82-.38L1.12,14.9c-.27-.32-.34-.77-.16-1.15.18-.38.56-.63.98-.63h56.13c.42,0,.8.24.98.63.18.38.11.83-.16,1.15l-4.13,4.82c-.2.24-.5.38-.82.38h0ZM6.56,17.94h46.88l2.29-2.67H4.27l2.29,2.67Z"/>
    <path class="cls-1" d="M53.93,20.28H6.07c-.37,0-.72-.16-.96-.44L.98,15.02c-.32-.37-.39-.9-.19-1.35.21-.45.66-.73,1.15-.73h56.13c.49,0,.94.29,1.15.73.21.45.13.98-.19,1.35l-4.13,4.82c-.24.28-.59.44-.96.44h-.01ZM1.93,13.31c-.34,0-.66.2-.81.52-.14.31-.09.69.13.95l4.13,4.82c.17.2.41.31.67.31h47.87c.26,0,.5-.11.67-.31l4.13-4.82c.22-.26.28-.63.13-.95s-.46-.52-.81-.52c0,0-56.11,0-56.11,0ZM53.53,18.13H6.47l-2.61-3.05h52.28l-2.61,3.05ZM6.65,17.75h46.71l1.97-2.3H4.68s1.97,2.3,1.97,2.3Z"/>
  </g>
  <g>
    <path class="cls-1" d="M51.87,24.48H8.13c-.59,0-1.07-.48-1.07-1.07s.48-1.07,1.07-1.07h43.73c.59,0,1.07.48,1.07,1.07s-.48,1.07-1.07,1.07h0Z"/>
    <path class="cls-1" d="M51.87,24.67H8.13c-.7,0-1.26-.57-1.26-1.26s.57-1.26,1.26-1.26h43.74c.7,0,1.26.57,1.26,1.26s-.57,1.26-1.26,1.26ZM8.13,22.52c-.49,0-.89.4-.89.89s.4.89.89.89h43.74c.49,0,.89-.4.89-.89s-.4-.89-.89-.89H8.13Z"/>
  </g>
  <g>
    <path class="cls-1" d="M55.2,50.21H4.8c-.59,0-1.07-.48-1.07-1.07s.48-1.07,1.07-1.07h50.41c.59,0,1.07.48,1.07,1.07s-.48,1.07-1.07,1.07h0Z"/>
    <path class="cls-1" d="M55.2,50.39H4.8c-.7,0-1.26-.57-1.26-1.26s.57-1.26,1.26-1.26h50.41c.7,0,1.26.57,1.26,1.26s-.57,1.26-1.26,1.26h0ZM4.8,48.24c-.49,0-.89.4-.89.89s.4.89.89.89h50.41c.49,0,.89-.4.89-.89s-.4-.89-.89-.89H4.8Z"/>
  </g>
  <g>
    <path class="cls-1" d="M58.07,55.99c-.59,0-1.07-.48-1.07-1.07v-.68H3.01v.68c0,.59-.48,1.07-1.07,1.07s-1.07-.48-1.07-1.07v-1.76c0-.59.48-1.07,1.07-1.07h56.13c.59,0,1.07.48,1.07,1.07v1.76c0,.59-.48,1.07-1.07,1.07Z"/>
    <path class="cls-1" d="M58.07,56.18c-.7,0-1.26-.57-1.26-1.26v-.49H3.2v.49c0,.7-.57,1.26-1.26,1.26s-1.26-.57-1.26-1.26v-1.76c0-.7.57-1.26,1.26-1.26h56.13c.7,0,1.26.57,1.26,1.26v1.76c0,.7-.57,1.26-1.26,1.26ZM2.82,54.05h54.36v.87c0,.49.4.89.89.89s.89-.4.89-.89v-1.76c0-.49-.4-.89-.89-.89H1.93c-.49,0-.89.4-.89.89v1.76c0,.49.4.89.89.89s.89-.4.89-.89v-.87Z"/>
  </g>
  <g>
    <path class="cls-1" d="M51.87,46.18H8.13c-.59,0-1.07-.48-1.07-1.07s.48-1.07,1.07-1.07h43.73c.59,0,1.07.48,1.07,1.07s-.48,1.07-1.07,1.07h0Z"/>
    <path class="cls-1" d="M51.87,46.37H8.13c-.7,0-1.26-.57-1.26-1.26s.57-1.26,1.26-1.26h43.74c.7,0,1.26.57,1.26,1.26s-.57,1.26-1.26,1.26ZM8.13,44.22c-.49,0-.89.4-.89.89s.4.89.89.89h43.74c.49,0,.89-.4.89-.89s-.4-.89-.89-.89H8.13Z"/>
  </g>
  <g>
    <path class="cls-1" d="M12.78,46.18h-4.65c-.59,0-1.07-.48-1.07-1.07v-17.74c0-.59.48-1.07,1.07-1.07s1.07.48,1.07,1.07v16.66h2.5v-16.66c0-.59.48-1.07,1.07-1.07s1.07.48,1.07,1.07v17.74c0,.59-.48,1.07-1.07,1.07h.01Z"/>
    <path class="cls-1" d="M12.78,46.37h-4.65c-.7,0-1.26-.57-1.26-1.26v-17.74c0-.7.57-1.26,1.26-1.26s1.26.57,1.26,1.26v16.48h2.12v-16.48c0-.7.57-1.26,1.26-1.26s1.26.57,1.26,1.26v17.74c0,.7-.57,1.26-1.26,1.26h.01ZM8.13,26.48c-.49,0-.89.4-.89.89v17.74c0,.49.4.89.89.89h4.65c.49,0,.89-.4.89-.89v-17.74c0-.49-.4-.89-.89-.89s-.89.4-.89.89v16.85h-2.87v-16.85c0-.49-.4-.89-.89-.89Z"/>
  </g>
  <g>
    <path class="cls-1" d="M23.2,46.18h-4.65c-.59,0-1.07-.48-1.07-1.07v-17.74c0-.59.48-1.07,1.07-1.07s1.07.48,1.07,1.07v16.66h2.5v-16.66c0-.59.48-1.07,1.07-1.07s1.07.48,1.07,1.07v17.74c0,.59-.48,1.07-1.07,1.07h.01Z"/>
    <path class="cls-1" d="M23.2,46.37h-4.65c-.7,0-1.26-.57-1.26-1.26v-17.74c0-.7.57-1.26,1.26-1.26s1.26.57,1.26,1.26v16.48h2.12v-16.48c0-.7.57-1.26,1.26-1.26s1.26.57,1.26,1.26v17.74c0,.7-.57,1.26-1.26,1.26h.01ZM18.55,26.48c-.49,0-.89.4-.89.89v17.74c0,.49.4.89.89.89h4.65c.49,0,.89-.4.89-.89v-17.74c0-.49-.4-.89-.89-.89s-.89.4-.89.89v16.85h-2.88v-16.85c0-.49-.4-.89-.89-.89h0Z"/>
  </g>
  <g>
    <path class="cls-1" d="M51.87,46.18h-4.65c-.59,0-1.07-.48-1.07-1.07v-17.74c0-.59.48-1.07,1.07-1.07s1.07.48,1.07,1.07v16.66h2.5v-16.66c0-.59.48-1.07,1.07-1.07s1.07.48,1.07,1.07v17.74c0,.59-.48,1.07-1.07,1.07h.01Z"/>
    <path class="cls-1" d="M51.87,46.37h-4.65c-.7,0-1.26-.57-1.26-1.26v-17.74c0-.7.57-1.26,1.26-1.26s1.26.57,1.26,1.26v16.48h2.12v-16.48c0-.7.57-1.26,1.26-1.26s1.26.57,1.26,1.26v17.74c0,.7-.57,1.26-1.26,1.26h.01ZM47.22,26.48c-.49,0-.89.4-.89.89v17.74c0,.49.4.89.89.89h4.65c.49,0,.89-.4.89-.89v-17.74c0-.49-.4-.89-.89-.89s-.89.4-.89.89v16.85h-2.88v-16.85c0-.49-.4-.89-.89-.89h0Z"/>
  </g>
  <g>
    <path class="cls-1" d="M41.45,46.18h-4.65c-.59,0-1.07-.48-1.07-1.07v-17.74c0-.59.48-1.07,1.07-1.07s1.07.48,1.07,1.07v16.66h2.5v-16.66c0-.59.48-1.07,1.07-1.07s1.07.48,1.07,1.07v17.74c0,.59-.48,1.07-1.07,1.07h.01Z"/>
    <path class="cls-1" d="M41.45,46.37h-4.65c-.7,0-1.26-.57-1.26-1.26v-17.74c0-.7.57-1.26,1.26-1.26s1.26.57,1.26,1.26v16.48h2.12v-16.48c0-.7.57-1.26,1.26-1.26s1.26.57,1.26,1.26v17.74c0,.7-.57,1.26-1.26,1.26h.01ZM36.8,26.48c-.49,0-.89.4-.89.89v17.74c0,.49.4.89.89.89h4.65c.49,0,.89-.4.89-.89v-17.74c0-.49-.4-.89-.89-.89s-.89.4-.89.89v16.85h-2.88v-16.85c0-.49-.4-.89-.89-.89h0Z"/>
  </g>
</svg>