<?xml version="1.0" encoding="UTF-8"?>
<svg id="_레이어_1" data-name="레이어 1" xmlns="http://www.w3.org/2000/svg" viewBox="0 0 60 60">
  <defs>
    <style>
      .cls-1 {
        fill: #3075f0;
      }

      .cls-2 {
        fill: #222;
      }
    </style>
  </defs>
  <g>
    <g>
      <g>
        <path class="cls-1" d="M43.93,16.84c-3.21,0-5.81-2.61-5.81-5.81s2.61-5.81,5.81-5.81,5.81,2.61,5.81,5.81-2.61,5.81-5.81,5.81ZM43.93,7.54c-1.92,0-3.49,1.56-3.49,3.49s1.56,3.49,3.49,3.49,3.49-1.56,3.49-3.49-1.56-3.49-3.49-3.49Z"/>
        <path class="cls-1" d="M43.93,16.97c-3.28,0-5.95-2.67-5.95-5.95s2.67-5.95,5.95-5.95,5.95,2.67,5.95,5.95-2.67,5.95-5.95,5.95ZM43.93,5.34c-3.13,0-5.68,2.55-5.68,5.68s2.55,5.68,5.68,5.68,5.68-2.55,5.68-5.68-2.55-5.68-5.68-5.68ZM43.93,14.65c-2,0-3.62-1.62-3.62-3.62s1.62-3.62,3.62-3.62,3.62,1.62,3.62,3.62-1.62,3.62-3.62,3.62ZM43.93,7.67c-1.85,0-3.36,1.51-3.36,3.36s1.51,3.36,3.36,3.36,3.36-1.51,3.36-3.36-1.51-3.36-3.36-3.36Z"/>
      </g>
      <g>
        <path class="cls-1" d="M50.9,23.81c-.64,0-1.16-.52-1.16-1.16v-2.33c0-1.92-1.56-3.49-3.49-3.49h-4.65c-1.92,0-3.49,1.56-3.49,3.49v2.33c0,.64-.52,1.16-1.16,1.16s-1.16-.52-1.16-1.16v-2.33c0-3.21,2.61-5.81,5.81-5.81h4.65c3.21,0,5.81,2.61,5.81,5.81v2.33c0,.64-.52,1.16-1.16,1.16Z"/>
        <path class="cls-1" d="M50.9,23.95c-.71,0-1.3-.58-1.3-1.3v-2.33c0-1.85-1.51-3.36-3.36-3.36h-4.65c-1.85,0-3.36,1.51-3.36,3.36v2.33c0,.71-.58,1.3-1.3,1.3s-1.3-.58-1.3-1.3v-2.33c0-3.28,2.67-5.95,5.95-5.95h4.65c3.28,0,5.95,2.67,5.95,5.95v2.33c0,.71-.58,1.3-1.3,1.3ZM41.6,16.71h4.65c2,0,3.62,1.62,3.62,3.62v2.33c0,.57.46,1.03,1.03,1.03s1.03-.46,1.03-1.03v-2.33c0-3.13-2.55-5.68-5.68-5.68h-4.65c-3.13,0-5.68,2.55-5.68,5.68v2.33c0,.57.46,1.03,1.03,1.03s1.03-.46,1.03-1.03v-2.33c0-2,1.62-3.62,3.62-3.62Z"/>
      </g>
    </g>
    <g>
      <path class="cls-1" d="M28.81,31.95c-.3,0-.6-.12-.82-.34-.32-.32-.42-.79-.27-1.22l2.79-7.77c-1.11-2.15-1.7-4.54-1.7-6.95,0-8.33,6.78-15.12,15.12-15.12s15.12,6.78,15.12,15.12-6.78,15.12-15.12,15.12c-2.41,0-4.8-.59-6.95-1.7l-7.77,2.79c-.13.05-.26.07-.39.07ZM43.93,2.89c-7.05,0-12.79,5.74-12.79,12.79,0,2.19.57,4.36,1.66,6.28.17.29.2.65.08.97l-2.13,5.94,5.94-2.13c.32-.12.67-.08.97.08,1.92,1.08,4.09,1.66,6.28,1.66,7.05,0,12.79-5.74,12.79-12.79s-5.74-12.79-12.79-12.79Z"/>
      <path class="cls-1" d="M28.81,32.09c-.35,0-.67-.14-.92-.38-.35-.35-.47-.88-.3-1.35l2.77-7.72c-1.1-2.15-1.69-4.55-1.69-6.96C28.68,7.27,35.52.43,43.93.43s15.25,6.84,15.25,15.25-6.84,15.25-15.25,15.25c-2.41,0-4.81-.58-6.96-1.69l-7.72,2.77c-.14.05-.29.08-.44.08ZM43.93.69c-8.26,0-14.98,6.72-14.98,14.98,0,2.38.58,4.76,1.68,6.89l.03.05-2.81,7.83c-.13.37-.04.8.24,1.08.28.28.7.37,1.08.24l7.83-2.81.05.03c2.12,1.1,4.5,1.68,6.89,1.68,8.26,0,14.98-6.72,14.98-14.98S52.19.69,43.93.69ZM30.52,29.08l2.23-6.21c.1-.28.08-.59-.07-.86-1.09-1.94-1.67-4.13-1.67-6.35,0-7.13,5.8-12.92,12.92-12.92s12.92,5.8,12.92,12.92-5.8,12.92-12.92,12.92c-2.22,0-4.41-.58-6.34-1.67-.26-.15-.57-.18-.86-.07l-6.21,2.23ZM43.93,3.02c-6.98,0-12.66,5.68-12.66,12.66,0,2.17.57,4.32,1.64,6.21.19.33.22.72.09,1.08l-2.04,5.68,5.68-2.04c.35-.13.75-.09,1.08.09,1.9,1.07,4.04,1.64,6.21,1.64,6.98,0,12.66-5.68,12.66-12.66s-5.68-12.66-12.66-12.66Z"/>
    </g>
  </g>
  <g>
    <g>
      <path class="cls-2" d="M26.6,54.21c-.11,0-.21-.01-.32-.04l-2.24-.63c-1.98-.56-3.1-2.55-2.54-4.53h0c.54-1.92,2.61-3.08,4.53-2.54l2.24.63c.62.17.98.82.8,1.43l-1.36,4.83c-.08.3-.28.55-.55.7-.18.1-.37.15-.57.15ZM23.75,49.64c-.21.76.17,1.45.93,1.66l1.12.31.73-2.59-1.12-.32c-.73-.2-1.49.33-1.66.93h0Z"/>
      <path class="cls-2" d="M26.6,54.34c-.12,0-.24-.02-.35-.05l-2.24-.63c-2.05-.58-3.21-2.64-2.63-4.69.27-.96.92-1.77,1.82-2.27.9-.5,1.92-.63,2.88-.36l2.24.63c.69.19,1.09.91.9,1.6l-1.36,4.83c-.09.33-.31.61-.61.78-.19.11-.41.16-.63.16ZM25.07,46.46c-.6,0-1.2.16-1.75.46-.84.47-1.44,1.22-1.69,2.11-.54,1.91.54,3.83,2.45,4.37l2.24.63c.26.07.55.04.78-.09.24-.14.41-.36.49-.62l1.36-4.83c.15-.55-.17-1.12-.71-1.27l-2.24-.63c-.31-.09-.62-.13-.93-.13ZM25.89,51.78l-1.25-.35c-.84-.24-1.26-.99-1.02-1.82.18-.66,1.02-1.25,1.82-1.02l1.25.35-.8,2.85ZM25.08,48.79c-.56,0-1.08.42-1.21.88h0c-.19.69.15,1.3.84,1.5l.99.28.66-2.34-.99-.28c-.1-.03-.19-.04-.29-.04Z"/>
    </g>
    <g>
      <path class="cls-2" d="M25.32,58.7h-13.95c-.36,0-.71-.17-.93-.46-.22-.29-.29-.67-.19-1.02l4.64-16.28c.14-.5.6-.84,1.12-.84h13.96c.36,0,.71.17.93.46.22.29.29.67.19,1.02l-.71,2.49c-.18.62-.82.98-1.44.8-.62-.18-.97-.82-.8-1.44l.29-1.01h-11.54l-3.98,13.95h12.41c.64,0,1.16.52,1.16,1.16s-.52,1.16-1.16,1.16Z"/>
      <path class="cls-2" d="M25.32,58.83h-13.95c-.4,0-.79-.19-1.03-.51-.24-.32-.32-.75-.21-1.14l4.64-16.28c.16-.55.67-.94,1.25-.94h13.96c.4,0,.79.19,1.03.52.24.32.32.75.21,1.14l-.71,2.49c-.1.33-.31.61-.62.78-.3.17-.65.21-.98.11-.69-.2-1.09-.91-.89-1.6l.24-.84h-11.27l-3.9,13.69h12.23c.71,0,1.3.58,1.3,1.29s-.58,1.3-1.3,1.3ZM16.01,40.23c-.46,0-.87.31-.99.75l-4.64,16.28c-.09.31-.02.65.17.9.19.26.5.41.82.41h13.95c.57,0,1.03-.46,1.03-1.03s-.46-1.03-1.03-1.03h-12.58l4.05-14.22h11.82l-.34,1.18c-.16.55.16,1.12.71,1.27.26.08.54.04.78-.09.24-.13.42-.35.49-.62l.71-2.49c.09-.31.03-.65-.17-.9-.19-.26-.5-.41-.82-.41h-13.96Z"/>
    </g>
    <g>
      <path class="cls-2" d="M13.69,33.12c-3.21,0-5.81-2.61-5.81-5.81s2.61-5.81,5.81-5.81,5.81,2.61,5.81,5.81-2.61,5.81-5.81,5.81ZM13.69,23.81c-1.92,0-3.49,1.56-3.49,3.49s1.56,3.49,3.49,3.49,3.49-1.56,3.49-3.49-1.56-3.49-3.49-3.49Z"/>
      <path class="cls-2" d="M13.69,33.25c-3.28,0-5.95-2.67-5.95-5.95s2.67-5.95,5.95-5.95,5.95,2.67,5.95,5.95-2.67,5.95-5.95,5.95ZM13.69,21.62c-3.13,0-5.68,2.55-5.68,5.68s2.55,5.68,5.68,5.68,5.68-2.55,5.68-5.68-2.55-5.68-5.68-5.68ZM13.69,30.92c-2,0-3.62-1.62-3.62-3.62s1.62-3.62,3.62-3.62,3.62,1.62,3.62,3.62-1.62,3.62-3.62,3.62ZM13.69,23.95c-1.85,0-3.36,1.51-3.36,3.36s1.51,3.36,3.36,3.36,3.36-1.51,3.36-3.36-1.51-3.36-3.36-3.36Z"/>
    </g>
    <g>
      <path class="cls-2" d="M12.61,54.36c-.09,0-.19-.01-.28-.04l-8.78-2.2c-1.56-.39-2.64-1.78-2.64-3.38v-7.49c0-3.21,2.61-5.81,5.81-5.81h13.95c3.21,0,5.81,2.61,5.81,5.81,0,.64-.52,1.16-1.16,1.16s-1.16-.52-1.16-1.16c0-1.92-1.56-3.49-3.49-3.49H6.72c-1.92,0-3.49,1.56-3.49,3.49v7.49c0,.53.36,1,.88,1.13l8.78,2.2c.62.16,1,.79.85,1.41-.13.53-.61.88-1.13.88Z"/>
      <path class="cls-2" d="M12.61,54.49c-.11,0-.21-.01-.32-.04l-8.78-2.2c-1.61-.4-2.74-1.85-2.74-3.51v-7.49c0-3.28,2.67-5.95,5.95-5.95h13.95c3.28,0,5.95,2.67,5.95,5.95,0,.71-.58,1.29-1.3,1.29s-1.3-.58-1.3-1.29c0-1.85-1.51-3.36-3.36-3.36H6.72c-1.85,0-3.36,1.51-3.36,3.36v7.49c0,.47.32.89.78,1l8.78,2.2c.69.17,1.12.88.94,1.57-.14.58-.66.98-1.26.98ZM6.72,35.58c-3.13,0-5.68,2.55-5.68,5.68v7.49c0,1.54,1.05,2.88,2.54,3.26l8.78,2.2c.08.02.17.03.25.03.47,0,.88-.32,1-.78.14-.55-.2-1.11-.75-1.25l-8.78-2.2c-.58-.14-.98-.66-.98-1.26v-7.49c0-2,1.62-3.62,3.62-3.62h13.95c2,0,3.62,1.62,3.62,3.62,0,.57.46,1.03,1.03,1.03s1.03-.46,1.03-1.03c0-3.13-2.55-5.68-5.68-5.68H6.72Z"/>
    </g>
    <g>
      <path class="cls-2" d="M14.16,48.93c-.09,0-.19-.01-.28-.04l-7.44-1.86c-.52-.13-.88-.59-.88-1.13v-2.33c0-.64.52-1.16,1.16-1.16s1.16.52,1.16,1.16v1.42l6.56,1.64c.62.16,1,.79.85,1.41-.13.53-.61.88-1.13.88Z"/>
      <path class="cls-2" d="M14.16,49.06c-.11,0-.21-.01-.32-.04l-7.44-1.86c-.58-.14-.98-.66-.98-1.26v-2.33c0-.71.58-1.3,1.3-1.3s1.3.58,1.3,1.3v1.31l6.46,1.61c.69.17,1.12.88.94,1.57-.14.58-.66.98-1.26.98ZM6.72,42.55c-.57,0-1.03.46-1.03,1.03v2.33c0,.47.32.88.78,1l7.44,1.86c.55.14,1.11-.21,1.25-.75.14-.55-.2-1.11-.75-1.25l-6.66-1.66v-1.52c0-.57-.46-1.03-1.03-1.03Z"/>
    </g>
    <g>
      <path class="cls-2" d="M6.72,58.7c-.64,0-1.16-.52-1.16-1.16v-5.81c0-.64.52-1.16,1.16-1.16s1.16.52,1.16,1.16v5.81c0,.64-.52,1.16-1.16,1.16Z"/>
      <path class="cls-2" d="M6.72,58.83c-.71,0-1.3-.58-1.3-1.29v-5.81c0-.71.58-1.29,1.3-1.29s1.3.58,1.3,1.29v5.81c0,.71-.58,1.29-1.3,1.29ZM6.72,50.69c-.57,0-1.03.46-1.03,1.03v5.81c0,.57.46,1.03,1.03,1.03s1.03-.46,1.03-1.03v-5.81c0-.57-.46-1.03-1.03-1.03Z"/>
    </g>
  </g>
</svg>