<?xml version="1.0" encoding="UTF-8"?>
<svg id="_레이어_1" data-name="레이어 1" xmlns="http://www.w3.org/2000/svg" viewBox="0 0 25 25">
  <path d="M7.78,18.33h0c-.21,0-.42-.09-.56-.26L1.74,11.62s-.03-.04-.05-.06c-.82-1.21-1.25-2.63-1.25-4.11C.44,3.4,3.73.1,7.78.1s7.34,3.29,7.34,7.34c0,1.47-.43,2.89-1.25,4.11-.01.02-.03.04-.05.06l-5.48,6.46c-.14.16-.34.26-.56.26ZM2.88,10.7l4.9,5.77,4.9-5.77c.64-.96.98-2.09.98-3.26,0-3.24-2.64-5.88-5.88-5.88S1.9,4.2,1.9,7.45c0,1.17.34,2.29.98,3.26ZM13.27,11.14h0,0ZM7.78,10.6c-1.75,0-3.18-1.43-3.18-3.18s1.43-3.18,3.18-3.18,3.18,1.43,3.18,3.18-1.43,3.18-3.18,3.18ZM7.78,5.7c-.95,0-1.72.77-1.72,1.72s.77,1.72,1.72,1.72,1.72-.77,1.72-1.72-.77-1.72-1.72-1.72Z"/>
  <path d="M23.83,24.9H1.17c-.4,0-.73-.33-.73-.73s.33-.73.73-.73h22.66c.4,0,.73.33.73.73s-.33.73-.73.73Z"/>
  <path d="M23.83,14.31h-12.57c-.4,0-.73-.33-.73-.73s.33-.73.73-.73h12.57c.4,0,.73.33.73.73s-.33.73-.73.73Z"/>
  <g>
    <path d="M4.09,19.6H1.17c-.4,0-.73-.33-.73-.73s.33-.73.73-.73h2.92c.4,0,.73.33.73.73s-.33.73-.73.73Z"/>
    <path d="M15.3,19.6h-5.61c-.4,0-.73-.33-.73-.73s.33-.73.73-.73h5.61c.4,0,.73.33.73.73s-.33.73-.73.73Z"/>
    <path d="M23.83,19.6h-2.92c-.4,0-.73-.33-.73-.73s.33-.73.73-.73h2.92c.4,0,.73.33.73.73s-.33.73-.73.73Z"/>
  </g>
</svg>