<?xml version="1.0" encoding="UTF-8"?>
<svg id="_레이어_1" data-name="레이어 1" xmlns="http://www.w3.org/2000/svg" viewBox="0 0 20 20">
  <defs>
    <style>
      .cls-1 {
        stroke: #555;
        stroke-miterlimit: 10;
        stroke-width: .5px;
      }

      .cls-1, .cls-2 {
        fill: #555;
      }
    </style>
  </defs>
  <g>
    <path class="cls-2" d="M9.15,1.38c-.38-.41-.89-.63-1.45-.63h-.19c-1.14,0-2.1.95-2.1,2.1v6.13c0,.44.18.85.51,1.15.31.29.72.45,1.17.45h.14c.45,0,.86-.17,1.15-.46.3-.3.47-.71.47-1.14v-4.2c0-.18-.15-.32-.33-.32s-.33.14-.33.32v4.2c0,.55-.4.97-.96.97h-.14c-.59,0-1.04-.43-1.04-.97V2.85c0-.78.68-1.46,1.46-1.46h.19c.76,0,1.38.65,1.38,1.46v.27h.64v-.27c0-.56-.2-1.07-.57-1.47Z"/>
    <path class="cls-2" d="M7.23,10.81h-.14c-.49,0-.96-.18-1.32-.51-.37-.34-.58-.81-.58-1.32V2.85c0-.61.24-1.19.69-1.64.44-.44,1.02-.69,1.64-.69h.19c.62,0,1.19.25,1.61.7h0c.41.44.63,1.01.63,1.62v.49h-1.08v-.49c0-.68-.52-1.24-1.16-1.24h-.19c-.66,0-1.24.58-1.24,1.24v6.13c0,.42.36.75.81.75h.14c.43,0,.74-.31.74-.75v-4.2c0-.29.25-.54.55-.54s.55.25.55.54v4.2c0,.49-.19.96-.54,1.3-.34.34-.81.53-1.31.53ZM7.51.97c-1.02,0-1.87.86-1.87,1.88v6.13c0,.38.15.73.43.99.28.25.64.39,1.02.39h.14c.39,0,.74-.14,1-.4.26-.26.41-.61.41-.99v-4.2s-.05-.1-.11-.1-.11.05-.11.1v4.2c0,.33-.12.63-.33.85-.22.22-.52.34-.85.34h-.14c-.34,0-.66-.12-.89-.34-.24-.22-.37-.52-.37-.85V2.85c0-.43.18-.86.5-1.18.32-.32.75-.5,1.18-.5h.19c.43,0,.84.18,1.14.5.3.32.47.74.47,1.19v.05h.19v-.05c0-.5-.18-.96-.51-1.32-.34-.36-.79-.56-1.28-.56h-.19Z"/>
  </g>
  <path class="cls-1" d="M16.67,6.35s0-.03,0-.04h0s-.01-.03-.02-.04c0,0,0,0,0,0,0-.01-.01-.02-.02-.03,0,0,0,0,0,0,0-.01-.01-.02-.02-.03,0,0,0,0,0,0,0-.01-.02-.02-.03-.03,0,0,0,0,0,0l-3.41-3.41s0,0,0,0c0,0-.02-.02-.03-.03,0,0,0,0,0,0-.01,0-.02-.02-.03-.02,0,0,0,0,0,0-.01,0-.02-.01-.03-.02,0,0,0,0,0,0-.01,0-.03-.01-.04-.01h0s-.03,0-.04,0c0,0,0,0-.01,0,0,0,0,0-.01,0H3.64c-.17,0-.31.13-.31.3v16.2c0,.17.14.32.31.32h12.73c.17,0,.31-.15.31-.32V6.37s0,0,0-.01c0,0,0,0,0-.01ZM13.26,3.69l2.37,2.38h-2.37v-2.38ZM16.06,18.86H3.94V3.27h8.71v3.1c0,.17.14.32.3.32h3.11v12.18Z"/>
</svg>