<?xml version="1.0" encoding="UTF-8"?>
<svg id="_레이어_1" data-name="레이어 1" xmlns="http://www.w3.org/2000/svg" viewBox="0 0 65 65">
  <defs>
    <style>
      .cls-1 {
        fill: #999;
      }
    </style>
  </defs>
  <path class="cls-1" d="M32.5,4.11c3.83,0,7.55.75,11.05,2.23,3.38,1.43,6.42,3.48,9.02,6.09,2.61,2.61,4.66,5.64,6.09,9.02,1.48,3.5,2.23,7.21,2.23,11.05s-.75,7.55-2.23,11.05c-1.43,3.38-3.48,6.42-6.09,9.02-2.61,2.61-5.64,4.66-9.02,6.09-3.5,1.48-7.21,2.23-11.05,2.23s-7.55-.75-11.05-2.23c-3.38-1.43-6.42-3.48-9.02-6.09-2.61-2.61-4.66-5.64-6.09-9.02-1.48-3.5-2.23-7.21-2.23-11.05s.75-7.55,2.23-11.05c1.43-3.38,3.48-6.42,6.09-9.02,2.61-2.61,5.64-4.66,9.02-6.09,3.5-1.48,7.21-2.23,11.05-2.23M32.5,0C14.55,0,0,14.55,0,32.5s14.55,32.5,32.5,32.5,32.5-14.55,32.5-32.5S50.45,0,32.5,0h0Z"/>
  <g>
    <path class="cls-1" d="M32.5,31.55c-1.06,0-1.93.87-1.93,1.93v11.73c0,1.06.87,1.93,1.93,1.93s1.93-.87,1.93-1.93v-11.73c0-1.06-.87-1.93-1.93-1.93h0Z"/>
    <path class="cls-1" d="M32.5,19.19c-1.06,0-1.91.86-1.91,1.91s.86,1.91,1.91,1.91,1.91-.86,1.91-1.91-.86-1.91-1.91-1.91h0Z"/>
  </g>
</svg>