<?xml version="1.0" encoding="UTF-8"?>
<svg id="_레이어_1" data-name="레이어 1" xmlns="http://www.w3.org/2000/svg" viewBox="0 0 86 63">
  <defs>
    <style>
      .cls-1 {
        fill: #3382e9;
      }

      .cls-2 {
        fill: #231f20;
      }
    </style>
  </defs>
  <g>
    <path class="cls-2" d="M35.7,44.61c-.25,0-.5-.08-.71-.24L1.97,19.19c-.52-.39-.62-1.13-.22-1.65.39-.52,1.13-.62,1.65-.22l32.3,24.63,18.63-14.2c.52-.39,1.25-.29,1.65.22.39.52.29,1.25-.22,1.65l-19.34,14.75c-.21.16-.46.24-.71.24Z"/>
    <g>
      <path class="cls-2" d="M3.04,59.86c-.33,0-.66-.14-.89-.41-.42-.49-.37-1.23.12-1.66l24.31-20.96c.49-.42,1.23-.37,1.66.12.42.49.37,1.23-.12,1.66L3.81,59.58c-.22.19-.49.28-.77.28Z"/>
      <path class="cls-2" d="M68.35,59.86c-.27,0-.54-.09-.77-.28l-24.31-20.96c-.49-.42-.55-1.17-.12-1.66.42-.49,1.17-.55,1.66-.12l24.31,20.96c.49.42.55,1.17.12,1.66-.23.27-.56.41-.89.41Z"/>
    </g>
    <path class="cls-2" d="M66.05,62.43H5.35c-2.63,0-4.77-2.14-4.77-4.77V19.94c0-2.63,2.14-4.77,4.77-4.77h44.47c.65,0,1.17.53,1.17,1.17s-.53,1.17-1.17,1.17H5.35c-1.33,0-2.42,1.09-2.42,2.42v37.72c0,1.33,1.09,2.42,2.42,2.42h60.7c1.33,0,2.42-1.09,2.42-2.42v-21.93c0-.65.53-1.17,1.17-1.17s1.17.53,1.17,1.17v21.93c0,2.63-2.14,4.77-4.77,4.77Z"/>
  </g>
  <path class="cls-1" d="M69.64,32.13c-8.7,0-15.78-7.08-15.78-15.78S60.94.57,69.64.57s15.78,7.08,15.78,15.78-7.08,15.78-15.78,15.78ZM69.64,2.92c-7.41,0-13.43,6.03-13.43,13.43s6.03,13.43,13.43,13.43,13.43-6.03,13.43-13.43-6.03-13.43-13.43-13.43Z"/>
  <path class="cls-1" d="M69.39,21.34c-.31,0-.61-.13-.84-.35l-5.84-5.91c-.46-.46-.45-1.2.01-1.66.46-.46,1.2-.45,1.66.01l4.91,4.97,5.52-7.03c.4-.51,1.14-.6,1.65-.2s.6,1.14.2,1.65l-6.35,8.08c-.21.27-.52.43-.86.45-.02,0-.04,0-.07,0Z"/>
</svg>