<?xml version="1.0" encoding="UTF-8"?>
<svg id="_레이어_1" data-name="레이어 1" xmlns="http://www.w3.org/2000/svg" viewBox="0 0 18 18">
  <defs>
    <style>
      .cls-1 {
        fill: #5c5c5c;
      }
    </style>
  </defs>
  <path class="cls-1" d="M7.13,17.93c-1.5,0-2.93-.02-3.83-.07-.93-.05-1.67-.4-2.21-1.02-.42-.49-.7-1.15-.8-1.91-.07-.47-.05-.84-.04-.96V4.81s0,0,0-.01c.02-.92.36-1.69.98-2.24.56-.49,1.32-.8,2.27-.92.57-.07,1.04-.04,1.18-.03h4.28s0-.01,0-.01c.41,0,.74.33.74.74,0,.41-.33.74-.74.74h-4.31s-.05.01-.08.01c-.43-.04-1.7-.02-2.36.58-.31.27-.46.65-.47,1.15v9.18s0,.04,0,.07c0,.05-.08,1.15.49,1.81.27.31.65.47,1.16.5,2.54.15,9.74,0,9.98,0,.03,0,.34-.03.63-.25.41-.32.62-.89.62-1.72v-5.57c0-.41.33-.74.74-.74s.74.33.74.74v5.57c0,1.71-.71,2.56-1.31,2.97-.65.45-1.3.48-1.4.48h0c-.2,0-3.37.07-6.27.07ZM13.38,16.38s0,0,0,0c0,0,0,0,0,0ZM13.37,16.38s0,0,0,0c0,0,0,0,0,0Z"/>
  <path class="cls-1" d="M6.31,12.3c-.19,0-.38-.07-.52-.22-.29-.29-.29-.76,0-1.05L16.35.43c.29-.29.76-.29,1.05,0s.29.76,0,1.05L6.84,12.08c-.14.15-.34.22-.53.22Z"/>
  <path class="cls-1" d="M17.01,7.15c-.41,0-.74-.33-.74-.74V1.55h-4.78c-.41,0-.74-.33-.74-.74s.33-.74.74-.74h5.52c.41,0,.74.33.74.74v5.6c0,.41-.33.74-.74.74Z"/>
</svg>