<?xml version="1.0" encoding="UTF-8"?>
<svg id="_레이어_1" data-name="레이어 1" xmlns="http://www.w3.org/2000/svg" viewBox="0 0 20 20">
  <defs>
    <style>
      .cls-1 {
        fill: #3382e9;
      }
    </style>
  </defs>
  <path class="cls-1" d="M7.71,12.72H2.82c-.83,0-1.51-.68-1.51-1.51v-5.27c0-.83.68-1.51,1.51-1.51h4.89v8.29ZM2.82,5.73c-.11,0-.2.09-.2.2v5.27c0,.11.09.2.2.2h3.59v-5.68h-3.59Z"/>
  <path class="cls-1" d="M16.37,16.47l-9.97-3.96v-7.87L16.37.68v15.79ZM7.71,11.62l7.36,2.92V2.6l-7.36,2.92v6.1Z"/>
  <path class="cls-1" d="M6.01,19.74c-.94,0-1.7-.89-1.7-1.99v-5.69h1.31v5.69c0,.38.21.68.39.68s.39-.3.39-.68v-5.69h1.31v5.69c0,1.1-.76,1.99-1.7,1.99Z"/>
  <path class="cls-1" d="M16.88,16.89c-1,0-1.81-.81-1.81-1.81V2.07c0-1,.81-1.81,1.81-1.81s1.81.81,1.81,1.81v13.01c0,1-.81,1.81-1.81,1.81ZM16.88,1.56c-.28,0-.51.23-.51.51v13.01c0,.28.23.51.51.51s.51-.23.51-.51V2.07c0-.28-.23-.51-.51-.51Z"/>
</svg>