<?xml version="1.0" encoding="UTF-8"?>
<svg id="_레이어_1" data-name="레이어 1" xmlns="http://www.w3.org/2000/svg" viewBox="0 0 30 30">
  <defs>
    <style>
      .cls-1 {
        fill: #afafaf;
      }
    </style>
  </defs>
  <rect class="cls-1" x="8.06" y=".32" width="13.88" height="15.22" rx="6.94" ry="6.94"/>
  <path class="cls-1" d="M29.42,23.53c-.8-3.36-3.22-6.11-6.45-7.33l-1.78-.67c-1.56,1.64-3.75,2.66-6.19,2.66s-4.63-1.03-6.19-2.66l-1.78.67c-3.24,1.22-5.66,3.96-6.45,7.33l-.19.81c-.5,2.11.92,4.19,3.06,4.51,2.77.41,6.82.83,11.55.83s8.78-.43,11.55-.83c2.15-.31,3.56-2.4,3.06-4.51l-.19-.81Z"/>
</svg>