<?xml version="1.0" encoding="UTF-8"?>
<svg id="_레이어_1" data-name="레이어 1" xmlns="http://www.w3.org/2000/svg" viewBox="0 0 35 35">
  <defs>
    <style>
      .cls-1 {
        fill: #dcf1ff;
      }

      .cls-2 {
        fill: #fff;
      }

      .cls-3 {
        fill: #3382e9;
      }
    </style>
  </defs>
  <path class="cls-3" d="M4.44,24.98c-.16.02-.32.03-.48.03-2.03,0-3.67-1.64-3.67-3.67s1.64-3.67,3.67-3.67c.16,0,.33.01.48.03"/>
  <path class="cls-3" d="M30.56,24.98c.16.02.32.03.48.03,2.03,0,3.67-1.64,3.67-3.67s-1.64-3.67-3.67-3.67c-.16,0-.33.01-.48.03"/>
  <g>
    <ellipse class="cls-1" cx="17.5" cy="21.34" rx="13.83" ry="11.64"/>
    <path class="cls-3" d="M24.19,15.89c-.57-.45-1.24-.81-2.02-1.07-1.4-.56-2.99-.86-4.67-.86-5.69,0-10.31,3.44-10.31,8.66,0,3.63,4.62,5.5,10.31,5.5s10.31-2.06,10.31-5.5c0-2.88-1.4-5.21-3.62-6.73Z"/>
    <path class="cls-1" d="M17.5,10.56c-.47,0-.86-.38-.86-.86v-3.85c0-.47.38-.86.86-.86s.86.38.86.86v3.85c0,.47-.38.86-.86.86Z"/>
    <path class="cls-2" d="M12.61,23.14c-.99,0-1.8-.81-1.8-1.8s.81-1.8,1.8-1.8,1.8.81,1.8,1.8-.81,1.8-1.8,1.8ZM12.61,21.26s-.08.04-.08.08c0,.09.17.09.17,0,0-.05-.04-.08-.08-.08Z"/>
    <path class="cls-2" d="M22.39,23.14c-.99,0-1.8-.81-1.8-1.8s.81-1.8,1.8-1.8,1.8.81,1.8,1.8-.81,1.8-1.8,1.8ZM22.39,21.26s-.08.04-.08.08c0,.09.17.09.17,0,0-.05-.04-.08-.08-.08Z"/>
    <circle class="cls-3" cx="17.5" cy="3.94" r="1.92"/>
  </g>
</svg>