<?xml version="1.0" encoding="UTF-8"?>
<svg id="_레이어_1" data-name="레이어 1" xmlns="http://www.w3.org/2000/svg" viewBox="0 0 20 20">
  <path d="M17.64,19.73H6.1c-1.16,0-2.11-.95-2.11-2.11V6.09c0-1.16.95-2.11,2.11-2.11h11.54c1.16,0,2.11.95,2.11,2.11v11.54c0,1.16-.95,2.11-2.11,2.11ZM6.1,5.82c-.15,0-.27.12-.27.27v11.54c0,.15.12.27.27.27h11.54c.15,0,.27-.12.27-.27V6.09c0-.15-.12-.27-.27-.27H6.1Z"/>
  <path d="M1.17,16.02c-.51,0-.92-.41-.92-.92V5.28C.25,2.52,2.5.27,5.27.27h9.81c.51,0,.92.41.92.92s-.41.92-.92.92H5.27c-1.75,0-3.18,1.43-3.18,3.18v9.81c0,.51-.41.92-.92.92Z"/>
</svg>