<?xml version="1.0" encoding="UTF-8"?>
<svg id="_레이어_1" data-name="레이어 1" xmlns="http://www.w3.org/2000/svg" viewBox="0 0 20 20">
  <defs>
    <style>
      .cls-1 {
        fill: #fff;
      }
    </style>
  </defs>
  <path class="cls-1" d="M3.46,13.9h-1.77c-.84,0-1.52-.68-1.52-1.52V3.94c0-.84.68-1.52,1.52-1.52h1.77c.84,0,1.52.68,1.52,1.52v8.44c0,.84-.68,1.52-1.52,1.52ZM1.71,12.36h1.72V3.96h-1.72v8.39ZM3.46,3.96h0,0Z"/>
  <path class="cls-1" d="M11.23,19.61c-.6,0-1.2-.25-1.61-.72l-4.31-4.84c-.36-.4-.56-.92-.56-1.46V4.29c0-.99.67-1.87,1.63-2.12l5.36-1.45c1.59-.43,3.26-.43,4.85-.02,1.91.5,3.25,2.22,3.25,4.19v4.48c0,2.5-2.04,4.54-4.54,4.54h-3.46l1.31,2.58c.26.52.31,1.11.12,1.67-.19.55-.58,1-1.11,1.25-.29.14-.61.21-.92.21ZM14.2,1.94c-.69,0-1.39.09-2.06.27l-5.36,1.45c-.29.08-.49.34-.49.63v8.3c0,.16.06.32.17.44l4.31,4.84c.18.2.47.26.72.14.15-.07.26-.2.31-.35.05-.16.04-.32-.03-.47l-1.88-3.71c-.12-.24-.11-.52.03-.75.14-.23.39-.37.66-.37h4.71c1.65,0,2.99-1.34,2.99-2.99v-4.48c0-1.27-.86-2.37-2.09-2.69-.65-.17-1.33-.26-2-.26Z"/>
</svg>