<?xml version="1.0" encoding="UTF-8"?>
<svg id="_레이어_1" data-name="레이어 1" xmlns="http://www.w3.org/2000/svg" viewBox="0 0 20 20">
  <path d="M3.34,17.71h-1.8C.69,17.71,0,17.01,0,16.16V7.58C0,6.73.69,6.03,1.55,6.03h1.8c.85,0,1.55.69,1.55,1.55v8.58c0,.85-.69,1.55-1.55,1.55ZM1.57,16.14h1.75V7.6h-1.75v8.54Z"/>
  <path d="M14.27,19.77c-.84,0-1.69-.11-2.51-.33l-5.45-1.47c-.98-.26-1.66-1.15-1.66-2.16V7.37c0-.55.2-1.08.57-1.49L9.61.96c.64-.72,1.7-.94,2.58-.52.54.26.94.71,1.13,1.27.19.56.15,1.16-.12,1.69l-1.33,2.63h3.52c2.55,0,4.62,2.07,4.62,4.62v4.55c0,2-1.36,3.75-3.3,4.26-.79.21-1.61.31-2.43.31ZM11.25,1.8c-.17,0-.34.07-.46.21l-4.39,4.92c-.11.12-.17.28-.17.44v8.44c0,.3.2.57.49.65l5.45,1.47c1.35.36,2.78.37,4.13.02,1.25-.33,2.13-1.45,2.13-2.74v-4.55c0-1.68-1.37-3.05-3.05-3.05h-4.8c-.27,0-.53-.14-.67-.37s-.15-.52-.03-.77l1.91-3.77c.08-.15.09-.32.03-.48-.05-.16-.17-.29-.32-.36-.08-.04-.18-.06-.27-.06Z"/>
</svg>