<?xml version="1.0" encoding="UTF-8"?>
<svg id="_레이어_1" data-name="레이어 1" xmlns="http://www.w3.org/2000/svg" viewBox="0 0 65 65">
  <defs>
    <style>
      .cls-1 {
        fill: #1c5299;
      }
    </style>
  </defs>
  <path class="cls-1" d="M6.53,46.25c-3.6,0-6.53-2.93-6.53-6.53s2.93-6.53,6.53-6.53c.29,0,.58.02.86.06.88.12,1.5.93,1.38,1.81-.12.88-.92,1.5-1.81,1.38-.14-.02-.29-.03-.44-.03-1.83,0-3.31,1.49-3.31,3.31s1.49,3.31,3.31,3.31c.15,0,.3-.01.44-.03.88-.11,1.69.51,1.8,1.39s-.51,1.69-1.39,1.8c-.28.04-.57.06-.86.06Z"/>
  <path class="cls-1" d="M58.47,46.25c-.28,0-.57-.02-.86-.06-.88-.12-1.5-.92-1.39-1.8.12-.88.92-1.5,1.8-1.39.14.02.29.03.44.03,1.83,0,3.31-1.49,3.31-3.31,0-1.97-1.76-3.55-3.76-3.28-.89.12-1.69-.5-1.81-1.39-.12-.88.5-1.69,1.39-1.81.29-.04.58-.06.87-.06,3.6,0,6.53,2.93,6.53,6.53s-2.93,6.53-6.53,6.53Z"/>
  <path class="cls-1" d="M32.5,63.19c-15.21,0-27.58-10.53-27.58-23.47s12.37-23.47,27.58-23.47,27.58,10.53,27.58,23.47-12.37,23.47-27.58,23.47ZM32.5,19.47c-13.43,0-24.36,9.08-24.36,20.25s10.93,20.25,24.36,20.25,24.36-9.08,24.36-20.25-10.93-20.25-24.36-20.25Z"/>
  <path class="cls-1" d="M32.5,54.05c-12.74,0-20.97-4.69-20.97-11.94,0-10.36,8.82-17.88,20.97-17.88,3.32,0,6.46.58,9.33,1.71,1.55.52,2.96,1.27,4.19,2.22,4.8,3.31,7.45,8.26,7.45,13.94,0,7.14-8.43,11.94-20.97,11.94ZM32.5,27.45c-10.29,0-17.75,6.16-17.75,14.66,0,6.03,8.92,8.72,17.75,8.72,10.29,0,17.75-3.67,17.75-8.72,0-4.6-2.16-8.62-6.09-11.32-.03-.02-.05-.04-.08-.06-.98-.76-2.06-1.34-3.32-1.75-.03,0-.06-.02-.09-.03-2.5-.99-5.25-1.5-8.18-1.5Z"/>
  <path class="cls-1" d="M32.5,12.24c-2.88,0-5.21-2.34-5.21-5.21s2.34-5.21,5.21-5.21,5.21,2.34,5.21,5.21-2.34,5.21-5.21,5.21ZM32.5,5.03c-1.1,0-1.99.9-1.99,2s.89,2,1.99,2,2-.9,2-2-.89-2-2-2Z"/>
  <path class="cls-1" d="M32.5,19.47c-.89,0-1.61-.72-1.61-1.61v-7.23c0-.89.72-1.61,1.61-1.61s1.61.72,1.61,1.61v7.23c0,.89-.72,1.61-1.61,1.61Z"/>
  <path class="cls-1" d="M23.32,43.1c-1.86,0-3.38-1.51-3.38-3.38s1.51-3.38,3.38-3.38,3.38,1.51,3.38,3.38-1.52,3.38-3.38,3.38ZM23.32,39.56c-.09,0-.16.07-.16.16,0,.17.32.17.32,0,0-.09-.07-.16-.16-.16Z"/>
  <path class="cls-1" d="M41.68,43.1c-1.86,0-3.38-1.51-3.38-3.38s1.51-3.38,3.38-3.38,3.38,1.51,3.38,3.38-1.51,3.38-3.38,3.38ZM41.68,39.56c-.09,0-.16.07-.16.16,0,.17.32.17.32,0,0-.09-.07-.16-.16-.16Z"/>
</svg>