<?xml version="1.0" encoding="UTF-8"?>
<svg id="_레이어_1" data-name="레이어 1" xmlns="http://www.w3.org/2000/svg" viewBox="0 0 179.03 179.03">
  <defs>
    <style>
      .cls-1 {
        opacity: .36;
      }

      .cls-1, .cls-2, .cls-3, .cls-4, .cls-5, .cls-6, .cls-7, .cls-8, .cls-9, .cls-10, .cls-11, .cls-12 {
        fill: #1c5299;
      }

      .cls-2 {
        opacity: .2;
      }

      .cls-3 {
        opacity: .44;
      }

      .cls-4 {
        opacity: .68;
      }

      .cls-5 {
        opacity: .6;
      }

      .cls-6 {
        opacity: .12;
      }

      .cls-8 {
        opacity: .92;
      }

      .cls-9 {
        opacity: .84;
      }

      .cls-10 {
        opacity: .28;
      }

      .cls-11 {
        opacity: .76;
      }

      .cls-12 {
        opacity: .52;
      }
    </style>
  </defs>
  <path class="cls-7" d="M89.51,37.98c-2.5,0-4.53-2.03-4.53-4.53V4.53c0-2.5,2.03-4.53,4.53-4.53s4.53,2.03,4.53,4.53v28.92c0,2.5-2.03,4.53-4.53,4.53Z"/>
  <path class="cls-8" d="M61.48,45.49c-1.57,0-3.09-.81-3.93-2.27l-14.46-25.04c-1.25-2.17-.51-4.94,1.66-6.19,2.17-1.25,4.94-.51,6.19,1.66l14.46,25.04c1.25,2.17.51,4.94-1.66,6.19-.71.41-1.49.61-2.26.61Z"/>
  <path class="cls-9" d="M40.95,66.01c-.77,0-1.55-.2-2.26-.61l-25.04-14.46c-2.17-1.25-2.91-4.02-1.66-6.19,1.25-2.17,4.02-2.91,6.19-1.66l25.04,14.46c2.17,1.25,2.91,4.02,1.66,6.19-.84,1.45-2.36,2.27-3.93,2.27Z"/>
  <path class="cls-11" d="M33.45,94.05H4.53c-2.5,0-4.53-2.03-4.53-4.53s2.03-4.53,4.53-4.53h28.92c2.5,0,4.53,2.03,4.53,4.53s-2.03,4.53-4.53,4.53Z"/>
  <path class="cls-4" d="M15.92,136.54c-1.57,0-3.09-.81-3.93-2.27-1.25-2.17-.51-4.94,1.66-6.19l25.04-14.46c2.17-1.25,4.94-.51,6.19,1.66,1.25,2.17.51,4.94-1.66,6.19l-25.04,14.46c-.71.41-1.49.61-2.26.61Z"/>
  <path class="cls-5" d="M47.02,167.64c-.77,0-1.55-.2-2.26-.61-2.17-1.25-2.91-4.02-1.66-6.19l14.46-25.04c1.25-2.17,4.02-2.91,6.19-1.66s2.91,4.02,1.66,6.19l-14.46,25.04c-.84,1.45-2.36,2.27-3.93,2.27Z"/>
  <path class="cls-12" d="M89.51,179.03c-2.5,0-4.53-2.03-4.53-4.53v-28.92c0-2.5,2.03-4.53,4.53-4.53s4.53,2.03,4.53,4.53v28.92c0,2.5-2.03,4.53-4.53,4.53Z"/>
  <path class="cls-3" d="M132.01,167.64c-1.57,0-3.09-.81-3.93-2.27l-14.46-25.04c-1.25-2.17-.51-4.94,1.66-6.19,2.17-1.25,4.94-.51,6.19,1.66l14.46,25.04c1.25,2.17.51,4.94-1.66,6.19-.71.41-1.49.61-2.26.61Z"/>
  <path class="cls-1" d="M163.11,136.54c-.77,0-1.55-.2-2.26-.61l-25.04-14.46c-2.17-1.25-2.91-4.02-1.66-6.19,1.25-2.17,4.02-2.91,6.19-1.66l25.04,14.46c2.17,1.25,2.91,4.02,1.66,6.19-.84,1.45-2.36,2.27-3.93,2.27Z"/>
  <path class="cls-10" d="M174.5,94.05h-28.92c-2.5,0-4.53-2.03-4.53-4.53s2.03-4.53,4.53-4.53h28.92c2.5,0,4.53,2.03,4.53,4.53s-2.03,4.53-4.53,4.53Z"/>
  <path class="cls-2" d="M138.07,66.01c-1.57,0-3.09-.81-3.93-2.27-1.25-2.17-.51-4.94,1.66-6.19l25.04-14.46c2.17-1.25,4.94-.51,6.19,1.66,1.25,2.17.51,4.94-1.66,6.19l-25.04,14.46c-.71.41-1.49.61-2.26.61Z"/>
  <path class="cls-6" d="M117.54,45.49c-.77,0-1.55-.2-2.26-.61-2.17-1.25-2.91-4.02-1.66-6.19l14.46-25.04c1.25-2.17,4.02-2.91,6.19-1.66,2.17,1.25,2.91,4.02,1.66,6.19l-14.46,25.04c-.84,1.45-2.36,2.27-3.93,2.27Z"/>
</svg>