<svg width="60" height="60" viewBox="0 0 60 60" fill="none" xmlns="http://www.w3.org/2000/svg">
<g clip-path="url(#clip0_21_13)">
<path d="M60 30C60 46.5685 46.5685 60 30 60C13.4315 60 0 46.5685 0 30C0 13.4315 13.4315 0 30 0C46.5685 0 60 13.4315 60 30Z" fill="#355797" fill-opacity="0.992157"/>
<path d="M41.801 21.4174V17.9995C41.801 17.2266 42.4276 16.6 43.2005 16.6C43.9734 16.6 44.6 17.2266 44.6 17.9995V26.4V26.6H44.4H36.004C35.2308 26.6 34.604 25.9732 34.604 25.2C34.604 24.4268 35.2308 23.8 36.004 23.8H40.0171C37.8923 20.3624 34.1326 18.2 30.006 18.2C23.5073 18.2 18.211 23.4984 18.211 30C18.211 36.5016 23.5073 41.8 30.006 41.8C35.7032 41.8 40.5743 37.7408 41.6004 32.1479L41.6004 32.1476C41.7402 31.3925 42.4549 30.8873 43.2243 31.0272L43.225 31.0273C43.9805 31.1673 44.4848 31.8948 44.3449 32.6519C43.08 39.5753 37.0354 44.6 29.994 44.6C21.9428 44.6 15.4 38.0544 15.4 30C15.4 21.9454 21.955 15.4 30.006 15.4C34.7367 15.4 39.0894 17.6892 41.801 21.4174Z" fill="white" stroke="white" stroke-width="0.4"/>
</g>
<defs>
<clipPath id="clip0_21_13">
<rect width="60" height="60" fill="white"/>
</clipPath>
</defs>
</svg>
