<?xml version="1.0" encoding="UTF-8"?>
<svg id="_레이어_1" data-name="레이어 1" xmlns="http://www.w3.org/2000/svg" viewBox="0 0 14 14">
  <defs>
    <style>
      .cls-1 {
        fill: #fff;
      }
    </style>
  </defs>
  <path class="cls-1" d="M11.98,9.95c-.49.95-1.17,1.68-2.04,2.18s-1.85.75-2.94.75-2.08-.25-2.94-.75-1.55-1.23-2.04-2.18-.74-2.08-.74-3.37.25-2.44.74-3.39,1.17-1.67,2.04-2.17,1.85-.75,2.94-.75,2.08.25,2.94.75,1.55,1.22,2.04,2.17.74,2.08.74,3.39-.25,2.42-.74,3.37ZM9.76,4.37c-.26-.6-.62-1.06-1.09-1.38s-1.03-.47-1.67-.47-1.19.16-1.66.47-.84.77-1.1,1.38-.39,1.34-.39,2.2.13,1.6.39,2.2.63,1.06,1.1,1.38,1.03.47,1.66.47,1.2-.16,1.67-.47.84-.77,1.09-1.38.39-1.34.39-2.2-.13-1.6-.39-2.2ZM8.3,8.46l1.13,1.45,1.06,1.24,2.05,2.58h-2.39l-1.41-1.74-.7-1-1.91-2.52h2.18Z"/>
</svg>